%TF.GenerationSoftware,KiCad,Pcbnew,(5.1.6)-1*%
%TF.CreationDate,2021-04-07T10:22:09+02:00*%
%TF.ProjectId,03_La_Boite_A_Meuh,30335f4c-615f-4426-9f69-74655f415f4d,rev?*%
%TF.SameCoordinates,Original*%
%TF.FileFunction,Paste,Top*%
%TF.FilePolarity,Positive*%
%FSLAX46Y46*%
G04 Gerber Fmt 4.6, Leading zero omitted, Abs format (unit mm)*
G04 Created by KiCad (PCBNEW (5.1.6)-1) date 2021-04-07 10:22:09*
%MOMM*%
%LPD*%
G01*
G04 APERTURE LIST*
%TA.AperFunction,Profile*%
%ADD10C,0.150000*%
%TD*%
%ADD11R,3.500000X1.700000*%
%ADD12R,1.300000X0.450000*%
%ADD13R,1.900000X1.350000*%
%ADD14R,1.200000X1.000000*%
%ADD15R,1.550000X1.350000*%
%ADD16R,1.170000X1.800000*%
%ADD17R,0.850000X1.100000*%
%ADD18R,0.750000X1.100000*%
G04 APERTURE END LIST*
D10*
X180000000Y-55000000D02*
X195000000Y-55000000D01*
X157000000Y-55000000D02*
X180000000Y-55000000D01*
X195000000Y-55000000D02*
G75*
G02*
X200000000Y-60000000I0J-5000000D01*
G01*
X200000000Y-150000000D02*
G75*
G02*
X195000000Y-155000000I-5000000J0D01*
G01*
X105000000Y-155000000D02*
G75*
G02*
X100000000Y-150000000I0J5000000D01*
G01*
X100000000Y-60000000D02*
G75*
G02*
X105000000Y-55000000I5000000J0D01*
G01*
X100000000Y-150000000D02*
X100000000Y-60000000D01*
X195000000Y-155000000D02*
X105000000Y-155000000D01*
X200000000Y-60000000D02*
X200000000Y-150000000D01*
X105000000Y-55000000D02*
X157000000Y-55000000D01*
D11*
%TO.C,U4*%
X119126000Y-103886000D03*
X119126000Y-101346000D03*
X119126000Y-98806000D03*
X119126000Y-96266000D03*
%TD*%
D12*
%TO.C,J9*%
X106802000Y-103154000D03*
X106802000Y-102504000D03*
X106802000Y-101854000D03*
X106802000Y-101204000D03*
X106802000Y-100554000D03*
%TD*%
D13*
%TO.C,J1*%
X179498000Y-77257000D03*
X173528000Y-77257000D03*
D14*
X170028000Y-72582000D03*
X170028000Y-76282000D03*
D15*
X170203000Y-66557000D03*
D16*
X181523000Y-66782000D03*
D17*
X179263000Y-66432000D03*
X178163000Y-66432000D03*
X177063000Y-66432000D03*
X175963000Y-66432000D03*
X174863000Y-66432000D03*
X173763000Y-66432000D03*
D18*
X180313000Y-66432000D03*
D17*
X172663000Y-66432000D03*
%TD*%
D11*
%TO.C,U1*%
X187452000Y-139954000D03*
X187452000Y-137414000D03*
X187452000Y-134874000D03*
X187452000Y-132334000D03*
X187452000Y-129794000D03*
X159512000Y-139954000D03*
%TD*%
M02*
