%TF.GenerationSoftware,KiCad,Pcbnew,(5.1.6)-1*%
%TF.CreationDate,2021-03-02T23:33:04+01:00*%
%TF.ProjectId,03_La_Boite_A_Meuh,30335f4c-615f-4426-9f69-74655f415f4d,rev?*%
%TF.SameCoordinates,Original*%
%TF.FileFunction,Paste,Top*%
%TF.FilePolarity,Positive*%
%FSLAX46Y46*%
G04 Gerber Fmt 4.6, Leading zero omitted, Abs format (unit mm)*
G04 Created by KiCad (PCBNEW (5.1.6)-1) date 2021-03-02 23:33:04*
%MOMM*%
%LPD*%
G01*
G04 APERTURE LIST*
%TA.AperFunction,Profile*%
%ADD10C,0.150000*%
%TD*%
%ADD11R,0.800000X0.900000*%
%ADD12R,0.850000X1.100000*%
%ADD13R,0.750000X1.100000*%
%ADD14R,1.170000X1.800000*%
%ADD15R,1.550000X1.350000*%
%ADD16R,1.200000X1.000000*%
%ADD17R,1.900000X1.350000*%
%ADD18R,3.500000X1.700000*%
G04 APERTURE END LIST*
D10*
X180000000Y-55000000D02*
X195000000Y-55000000D01*
X157000000Y-55000000D02*
X180000000Y-55000000D01*
X195000000Y-55000000D02*
G75*
G02*
X200000000Y-60000000I0J-5000000D01*
G01*
X200000000Y-150000000D02*
G75*
G02*
X195000000Y-155000000I-5000000J0D01*
G01*
X105000000Y-155000000D02*
G75*
G02*
X100000000Y-150000000I0J5000000D01*
G01*
X100000000Y-60000000D02*
G75*
G02*
X105000000Y-55000000I5000000J0D01*
G01*
X100000000Y-150000000D02*
X100000000Y-60000000D01*
X195000000Y-155000000D02*
X105000000Y-155000000D01*
X200000000Y-60000000D02*
X200000000Y-150000000D01*
X105000000Y-55000000D02*
X157000000Y-55000000D01*
%TO.C,R15*%
G36*
G01*
X117550000Y-101962500D02*
X117550000Y-102437500D01*
G75*
G02*
X117312500Y-102675000I-237500J0D01*
G01*
X116737500Y-102675000D01*
G75*
G02*
X116500000Y-102437500I0J237500D01*
G01*
X116500000Y-101962500D01*
G75*
G02*
X116737500Y-101725000I237500J0D01*
G01*
X117312500Y-101725000D01*
G75*
G02*
X117550000Y-101962500I0J-237500D01*
G01*
G37*
G36*
G01*
X119300000Y-101962500D02*
X119300000Y-102437500D01*
G75*
G02*
X119062500Y-102675000I-237500J0D01*
G01*
X118487500Y-102675000D01*
G75*
G02*
X118250000Y-102437500I0J237500D01*
G01*
X118250000Y-101962500D01*
G75*
G02*
X118487500Y-101725000I237500J0D01*
G01*
X119062500Y-101725000D01*
G75*
G02*
X119300000Y-101962500I0J-237500D01*
G01*
G37*
%TD*%
D11*
%TO.C,Q1*%
X144500000Y-102900000D03*
X143550000Y-100900000D03*
X145450000Y-100900000D03*
%TD*%
%TO.C,C1*%
G36*
G01*
X165650000Y-129662500D02*
X165650000Y-130137500D01*
G75*
G02*
X165412500Y-130375000I-237500J0D01*
G01*
X164837500Y-130375000D01*
G75*
G02*
X164600000Y-130137500I0J237500D01*
G01*
X164600000Y-129662500D01*
G75*
G02*
X164837500Y-129425000I237500J0D01*
G01*
X165412500Y-129425000D01*
G75*
G02*
X165650000Y-129662500I0J-237500D01*
G01*
G37*
G36*
G01*
X167400000Y-129662500D02*
X167400000Y-130137500D01*
G75*
G02*
X167162500Y-130375000I-237500J0D01*
G01*
X166587500Y-130375000D01*
G75*
G02*
X166350000Y-130137500I0J237500D01*
G01*
X166350000Y-129662500D01*
G75*
G02*
X166587500Y-129425000I237500J0D01*
G01*
X167162500Y-129425000D01*
G75*
G02*
X167400000Y-129662500I0J-237500D01*
G01*
G37*
%TD*%
%TO.C,C2*%
G36*
G01*
X165650000Y-131662500D02*
X165650000Y-132137500D01*
G75*
G02*
X165412500Y-132375000I-237500J0D01*
G01*
X164837500Y-132375000D01*
G75*
G02*
X164600000Y-132137500I0J237500D01*
G01*
X164600000Y-131662500D01*
G75*
G02*
X164837500Y-131425000I237500J0D01*
G01*
X165412500Y-131425000D01*
G75*
G02*
X165650000Y-131662500I0J-237500D01*
G01*
G37*
G36*
G01*
X167400000Y-131662500D02*
X167400000Y-132137500D01*
G75*
G02*
X167162500Y-132375000I-237500J0D01*
G01*
X166587500Y-132375000D01*
G75*
G02*
X166350000Y-132137500I0J237500D01*
G01*
X166350000Y-131662500D01*
G75*
G02*
X166587500Y-131425000I237500J0D01*
G01*
X167162500Y-131425000D01*
G75*
G02*
X167400000Y-131662500I0J-237500D01*
G01*
G37*
%TD*%
%TO.C,C3*%
G36*
G01*
X166737500Y-113650000D02*
X166262500Y-113650000D01*
G75*
G02*
X166025000Y-113412500I0J237500D01*
G01*
X166025000Y-112837500D01*
G75*
G02*
X166262500Y-112600000I237500J0D01*
G01*
X166737500Y-112600000D01*
G75*
G02*
X166975000Y-112837500I0J-237500D01*
G01*
X166975000Y-113412500D01*
G75*
G02*
X166737500Y-113650000I-237500J0D01*
G01*
G37*
G36*
G01*
X166737500Y-115400000D02*
X166262500Y-115400000D01*
G75*
G02*
X166025000Y-115162500I0J237500D01*
G01*
X166025000Y-114587500D01*
G75*
G02*
X166262500Y-114350000I237500J0D01*
G01*
X166737500Y-114350000D01*
G75*
G02*
X166975000Y-114587500I0J-237500D01*
G01*
X166975000Y-115162500D01*
G75*
G02*
X166737500Y-115400000I-237500J0D01*
G01*
G37*
%TD*%
%TO.C,C4*%
G36*
G01*
X165137500Y-113650000D02*
X164662500Y-113650000D01*
G75*
G02*
X164425000Y-113412500I0J237500D01*
G01*
X164425000Y-112837500D01*
G75*
G02*
X164662500Y-112600000I237500J0D01*
G01*
X165137500Y-112600000D01*
G75*
G02*
X165375000Y-112837500I0J-237500D01*
G01*
X165375000Y-113412500D01*
G75*
G02*
X165137500Y-113650000I-237500J0D01*
G01*
G37*
G36*
G01*
X165137500Y-115400000D02*
X164662500Y-115400000D01*
G75*
G02*
X164425000Y-115162500I0J237500D01*
G01*
X164425000Y-114587500D01*
G75*
G02*
X164662500Y-114350000I237500J0D01*
G01*
X165137500Y-114350000D01*
G75*
G02*
X165375000Y-114587500I0J-237500D01*
G01*
X165375000Y-115162500D01*
G75*
G02*
X165137500Y-115400000I-237500J0D01*
G01*
G37*
%TD*%
%TO.C,C5*%
G36*
G01*
X163537500Y-113650000D02*
X163062500Y-113650000D01*
G75*
G02*
X162825000Y-113412500I0J237500D01*
G01*
X162825000Y-112837500D01*
G75*
G02*
X163062500Y-112600000I237500J0D01*
G01*
X163537500Y-112600000D01*
G75*
G02*
X163775000Y-112837500I0J-237500D01*
G01*
X163775000Y-113412500D01*
G75*
G02*
X163537500Y-113650000I-237500J0D01*
G01*
G37*
G36*
G01*
X163537500Y-115400000D02*
X163062500Y-115400000D01*
G75*
G02*
X162825000Y-115162500I0J237500D01*
G01*
X162825000Y-114587500D01*
G75*
G02*
X163062500Y-114350000I237500J0D01*
G01*
X163537500Y-114350000D01*
G75*
G02*
X163775000Y-114587500I0J-237500D01*
G01*
X163775000Y-115162500D01*
G75*
G02*
X163537500Y-115400000I-237500J0D01*
G01*
G37*
%TD*%
%TO.C,C6*%
G36*
G01*
X161937500Y-113125000D02*
X161462500Y-113125000D01*
G75*
G02*
X161225000Y-112887500I0J237500D01*
G01*
X161225000Y-112312500D01*
G75*
G02*
X161462500Y-112075000I237500J0D01*
G01*
X161937500Y-112075000D01*
G75*
G02*
X162175000Y-112312500I0J-237500D01*
G01*
X162175000Y-112887500D01*
G75*
G02*
X161937500Y-113125000I-237500J0D01*
G01*
G37*
G36*
G01*
X161937500Y-114875000D02*
X161462500Y-114875000D01*
G75*
G02*
X161225000Y-114637500I0J237500D01*
G01*
X161225000Y-114062500D01*
G75*
G02*
X161462500Y-113825000I237500J0D01*
G01*
X161937500Y-113825000D01*
G75*
G02*
X162175000Y-114062500I0J-237500D01*
G01*
X162175000Y-114637500D01*
G75*
G02*
X161937500Y-114875000I-237500J0D01*
G01*
G37*
%TD*%
%TO.C,R1*%
G36*
G01*
X166737500Y-117250000D02*
X166262500Y-117250000D01*
G75*
G02*
X166025000Y-117012500I0J237500D01*
G01*
X166025000Y-116437500D01*
G75*
G02*
X166262500Y-116200000I237500J0D01*
G01*
X166737500Y-116200000D01*
G75*
G02*
X166975000Y-116437500I0J-237500D01*
G01*
X166975000Y-117012500D01*
G75*
G02*
X166737500Y-117250000I-237500J0D01*
G01*
G37*
G36*
G01*
X166737500Y-119000000D02*
X166262500Y-119000000D01*
G75*
G02*
X166025000Y-118762500I0J237500D01*
G01*
X166025000Y-118187500D01*
G75*
G02*
X166262500Y-117950000I237500J0D01*
G01*
X166737500Y-117950000D01*
G75*
G02*
X166975000Y-118187500I0J-237500D01*
G01*
X166975000Y-118762500D01*
G75*
G02*
X166737500Y-119000000I-237500J0D01*
G01*
G37*
%TD*%
%TO.C,R2*%
G36*
G01*
X165137500Y-117250000D02*
X164662500Y-117250000D01*
G75*
G02*
X164425000Y-117012500I0J237500D01*
G01*
X164425000Y-116437500D01*
G75*
G02*
X164662500Y-116200000I237500J0D01*
G01*
X165137500Y-116200000D01*
G75*
G02*
X165375000Y-116437500I0J-237500D01*
G01*
X165375000Y-117012500D01*
G75*
G02*
X165137500Y-117250000I-237500J0D01*
G01*
G37*
G36*
G01*
X165137500Y-119000000D02*
X164662500Y-119000000D01*
G75*
G02*
X164425000Y-118762500I0J237500D01*
G01*
X164425000Y-118187500D01*
G75*
G02*
X164662500Y-117950000I237500J0D01*
G01*
X165137500Y-117950000D01*
G75*
G02*
X165375000Y-118187500I0J-237500D01*
G01*
X165375000Y-118762500D01*
G75*
G02*
X165137500Y-119000000I-237500J0D01*
G01*
G37*
%TD*%
%TO.C,R4*%
G36*
G01*
X163537500Y-117250000D02*
X163062500Y-117250000D01*
G75*
G02*
X162825000Y-117012500I0J237500D01*
G01*
X162825000Y-116437500D01*
G75*
G02*
X163062500Y-116200000I237500J0D01*
G01*
X163537500Y-116200000D01*
G75*
G02*
X163775000Y-116437500I0J-237500D01*
G01*
X163775000Y-117012500D01*
G75*
G02*
X163537500Y-117250000I-237500J0D01*
G01*
G37*
G36*
G01*
X163537500Y-119000000D02*
X163062500Y-119000000D01*
G75*
G02*
X162825000Y-118762500I0J237500D01*
G01*
X162825000Y-118187500D01*
G75*
G02*
X163062500Y-117950000I237500J0D01*
G01*
X163537500Y-117950000D01*
G75*
G02*
X163775000Y-118187500I0J-237500D01*
G01*
X163775000Y-118762500D01*
G75*
G02*
X163537500Y-119000000I-237500J0D01*
G01*
G37*
%TD*%
%TO.C,R5*%
G36*
G01*
X167862500Y-117950000D02*
X168337500Y-117950000D01*
G75*
G02*
X168575000Y-118187500I0J-237500D01*
G01*
X168575000Y-118762500D01*
G75*
G02*
X168337500Y-119000000I-237500J0D01*
G01*
X167862500Y-119000000D01*
G75*
G02*
X167625000Y-118762500I0J237500D01*
G01*
X167625000Y-118187500D01*
G75*
G02*
X167862500Y-117950000I237500J0D01*
G01*
G37*
G36*
G01*
X167862500Y-116200000D02*
X168337500Y-116200000D01*
G75*
G02*
X168575000Y-116437500I0J-237500D01*
G01*
X168575000Y-117012500D01*
G75*
G02*
X168337500Y-117250000I-237500J0D01*
G01*
X167862500Y-117250000D01*
G75*
G02*
X167625000Y-117012500I0J237500D01*
G01*
X167625000Y-116437500D01*
G75*
G02*
X167862500Y-116200000I237500J0D01*
G01*
G37*
%TD*%
%TO.C,R6*%
G36*
G01*
X161937500Y-117250000D02*
X161462500Y-117250000D01*
G75*
G02*
X161225000Y-117012500I0J237500D01*
G01*
X161225000Y-116437500D01*
G75*
G02*
X161462500Y-116200000I237500J0D01*
G01*
X161937500Y-116200000D01*
G75*
G02*
X162175000Y-116437500I0J-237500D01*
G01*
X162175000Y-117012500D01*
G75*
G02*
X161937500Y-117250000I-237500J0D01*
G01*
G37*
G36*
G01*
X161937500Y-119000000D02*
X161462500Y-119000000D01*
G75*
G02*
X161225000Y-118762500I0J237500D01*
G01*
X161225000Y-118187500D01*
G75*
G02*
X161462500Y-117950000I237500J0D01*
G01*
X161937500Y-117950000D01*
G75*
G02*
X162175000Y-118187500I0J-237500D01*
G01*
X162175000Y-118762500D01*
G75*
G02*
X161937500Y-119000000I-237500J0D01*
G01*
G37*
%TD*%
%TO.C,R7*%
G36*
G01*
X155762500Y-70850000D02*
X156237500Y-70850000D01*
G75*
G02*
X156475000Y-71087500I0J-237500D01*
G01*
X156475000Y-71662500D01*
G75*
G02*
X156237500Y-71900000I-237500J0D01*
G01*
X155762500Y-71900000D01*
G75*
G02*
X155525000Y-71662500I0J237500D01*
G01*
X155525000Y-71087500D01*
G75*
G02*
X155762500Y-70850000I237500J0D01*
G01*
G37*
G36*
G01*
X155762500Y-69100000D02*
X156237500Y-69100000D01*
G75*
G02*
X156475000Y-69337500I0J-237500D01*
G01*
X156475000Y-69912500D01*
G75*
G02*
X156237500Y-70150000I-237500J0D01*
G01*
X155762500Y-70150000D01*
G75*
G02*
X155525000Y-69912500I0J237500D01*
G01*
X155525000Y-69337500D01*
G75*
G02*
X155762500Y-69100000I237500J0D01*
G01*
G37*
%TD*%
%TO.C,R8*%
G36*
G01*
X146850000Y-120462500D02*
X146850000Y-120937500D01*
G75*
G02*
X146612500Y-121175000I-237500J0D01*
G01*
X146037500Y-121175000D01*
G75*
G02*
X145800000Y-120937500I0J237500D01*
G01*
X145800000Y-120462500D01*
G75*
G02*
X146037500Y-120225000I237500J0D01*
G01*
X146612500Y-120225000D01*
G75*
G02*
X146850000Y-120462500I0J-237500D01*
G01*
G37*
G36*
G01*
X148600000Y-120462500D02*
X148600000Y-120937500D01*
G75*
G02*
X148362500Y-121175000I-237500J0D01*
G01*
X147787500Y-121175000D01*
G75*
G02*
X147550000Y-120937500I0J237500D01*
G01*
X147550000Y-120462500D01*
G75*
G02*
X147787500Y-120225000I237500J0D01*
G01*
X148362500Y-120225000D01*
G75*
G02*
X148600000Y-120462500I0J-237500D01*
G01*
G37*
%TD*%
%TO.C,R9*%
G36*
G01*
X153375000Y-120937500D02*
X153375000Y-120462500D01*
G75*
G02*
X153612500Y-120225000I237500J0D01*
G01*
X154187500Y-120225000D01*
G75*
G02*
X154425000Y-120462500I0J-237500D01*
G01*
X154425000Y-120937500D01*
G75*
G02*
X154187500Y-121175000I-237500J0D01*
G01*
X153612500Y-121175000D01*
G75*
G02*
X153375000Y-120937500I0J237500D01*
G01*
G37*
G36*
G01*
X151625000Y-120937500D02*
X151625000Y-120462500D01*
G75*
G02*
X151862500Y-120225000I237500J0D01*
G01*
X152437500Y-120225000D01*
G75*
G02*
X152675000Y-120462500I0J-237500D01*
G01*
X152675000Y-120937500D01*
G75*
G02*
X152437500Y-121175000I-237500J0D01*
G01*
X151862500Y-121175000D01*
G75*
G02*
X151625000Y-120937500I0J237500D01*
G01*
G37*
%TD*%
%TO.C,R12*%
G36*
G01*
X134237500Y-107750000D02*
X133762500Y-107750000D01*
G75*
G02*
X133525000Y-107512500I0J237500D01*
G01*
X133525000Y-106937500D01*
G75*
G02*
X133762500Y-106700000I237500J0D01*
G01*
X134237500Y-106700000D01*
G75*
G02*
X134475000Y-106937500I0J-237500D01*
G01*
X134475000Y-107512500D01*
G75*
G02*
X134237500Y-107750000I-237500J0D01*
G01*
G37*
G36*
G01*
X134237500Y-109500000D02*
X133762500Y-109500000D01*
G75*
G02*
X133525000Y-109262500I0J237500D01*
G01*
X133525000Y-108687500D01*
G75*
G02*
X133762500Y-108450000I237500J0D01*
G01*
X134237500Y-108450000D01*
G75*
G02*
X134475000Y-108687500I0J-237500D01*
G01*
X134475000Y-109262500D01*
G75*
G02*
X134237500Y-109500000I-237500J0D01*
G01*
G37*
%TD*%
%TO.C,R13*%
G36*
G01*
X125637500Y-100450000D02*
X125162500Y-100450000D01*
G75*
G02*
X124925000Y-100212500I0J237500D01*
G01*
X124925000Y-99637500D01*
G75*
G02*
X125162500Y-99400000I237500J0D01*
G01*
X125637500Y-99400000D01*
G75*
G02*
X125875000Y-99637500I0J-237500D01*
G01*
X125875000Y-100212500D01*
G75*
G02*
X125637500Y-100450000I-237500J0D01*
G01*
G37*
G36*
G01*
X125637500Y-102200000D02*
X125162500Y-102200000D01*
G75*
G02*
X124925000Y-101962500I0J237500D01*
G01*
X124925000Y-101387500D01*
G75*
G02*
X125162500Y-101150000I237500J0D01*
G01*
X125637500Y-101150000D01*
G75*
G02*
X125875000Y-101387500I0J-237500D01*
G01*
X125875000Y-101962500D01*
G75*
G02*
X125637500Y-102200000I-237500J0D01*
G01*
G37*
%TD*%
%TO.C,R14*%
G36*
G01*
X113750000Y-101962500D02*
X113750000Y-102437500D01*
G75*
G02*
X113512500Y-102675000I-237500J0D01*
G01*
X112937500Y-102675000D01*
G75*
G02*
X112700000Y-102437500I0J237500D01*
G01*
X112700000Y-101962500D01*
G75*
G02*
X112937500Y-101725000I237500J0D01*
G01*
X113512500Y-101725000D01*
G75*
G02*
X113750000Y-101962500I0J-237500D01*
G01*
G37*
G36*
G01*
X115500000Y-101962500D02*
X115500000Y-102437500D01*
G75*
G02*
X115262500Y-102675000I-237500J0D01*
G01*
X114687500Y-102675000D01*
G75*
G02*
X114450000Y-102437500I0J237500D01*
G01*
X114450000Y-101962500D01*
G75*
G02*
X114687500Y-101725000I237500J0D01*
G01*
X115262500Y-101725000D01*
G75*
G02*
X115500000Y-101962500I0J-237500D01*
G01*
G37*
%TD*%
%TO.C,R16*%
G36*
G01*
X144262500Y-105875000D02*
X144737500Y-105875000D01*
G75*
G02*
X144975000Y-106112500I0J-237500D01*
G01*
X144975000Y-106687500D01*
G75*
G02*
X144737500Y-106925000I-237500J0D01*
G01*
X144262500Y-106925000D01*
G75*
G02*
X144025000Y-106687500I0J237500D01*
G01*
X144025000Y-106112500D01*
G75*
G02*
X144262500Y-105875000I237500J0D01*
G01*
G37*
G36*
G01*
X144262500Y-104125000D02*
X144737500Y-104125000D01*
G75*
G02*
X144975000Y-104362500I0J-237500D01*
G01*
X144975000Y-104937500D01*
G75*
G02*
X144737500Y-105175000I-237500J0D01*
G01*
X144262500Y-105175000D01*
G75*
G02*
X144025000Y-104937500I0J237500D01*
G01*
X144025000Y-104362500D01*
G75*
G02*
X144262500Y-104125000I237500J0D01*
G01*
G37*
%TD*%
%TO.C,R17*%
G36*
G01*
X145262500Y-98750000D02*
X145737500Y-98750000D01*
G75*
G02*
X145975000Y-98987500I0J-237500D01*
G01*
X145975000Y-99562500D01*
G75*
G02*
X145737500Y-99800000I-237500J0D01*
G01*
X145262500Y-99800000D01*
G75*
G02*
X145025000Y-99562500I0J237500D01*
G01*
X145025000Y-98987500D01*
G75*
G02*
X145262500Y-98750000I237500J0D01*
G01*
G37*
G36*
G01*
X145262500Y-97000000D02*
X145737500Y-97000000D01*
G75*
G02*
X145975000Y-97237500I0J-237500D01*
G01*
X145975000Y-97812500D01*
G75*
G02*
X145737500Y-98050000I-237500J0D01*
G01*
X145262500Y-98050000D01*
G75*
G02*
X145025000Y-97812500I0J237500D01*
G01*
X145025000Y-97237500D01*
G75*
G02*
X145262500Y-97000000I237500J0D01*
G01*
G37*
%TD*%
%TO.C,R18*%
G36*
G01*
X143737500Y-98050000D02*
X143262500Y-98050000D01*
G75*
G02*
X143025000Y-97812500I0J237500D01*
G01*
X143025000Y-97237500D01*
G75*
G02*
X143262500Y-97000000I237500J0D01*
G01*
X143737500Y-97000000D01*
G75*
G02*
X143975000Y-97237500I0J-237500D01*
G01*
X143975000Y-97812500D01*
G75*
G02*
X143737500Y-98050000I-237500J0D01*
G01*
G37*
G36*
G01*
X143737500Y-99800000D02*
X143262500Y-99800000D01*
G75*
G02*
X143025000Y-99562500I0J237500D01*
G01*
X143025000Y-98987500D01*
G75*
G02*
X143262500Y-98750000I237500J0D01*
G01*
X143737500Y-98750000D01*
G75*
G02*
X143975000Y-98987500I0J-237500D01*
G01*
X143975000Y-99562500D01*
G75*
G02*
X143737500Y-99800000I-237500J0D01*
G01*
G37*
%TD*%
%TO.C,U3*%
G36*
G01*
X166875000Y-125900000D02*
X167075000Y-125900000D01*
G75*
G02*
X167175000Y-126000000I0J-100000D01*
G01*
X167175000Y-127425000D01*
G75*
G02*
X167075000Y-127525000I-100000J0D01*
G01*
X166875000Y-127525000D01*
G75*
G02*
X166775000Y-127425000I0J100000D01*
G01*
X166775000Y-126000000D01*
G75*
G02*
X166875000Y-125900000I100000J0D01*
G01*
G37*
G36*
G01*
X166225000Y-125900000D02*
X166425000Y-125900000D01*
G75*
G02*
X166525000Y-126000000I0J-100000D01*
G01*
X166525000Y-127425000D01*
G75*
G02*
X166425000Y-127525000I-100000J0D01*
G01*
X166225000Y-127525000D01*
G75*
G02*
X166125000Y-127425000I0J100000D01*
G01*
X166125000Y-126000000D01*
G75*
G02*
X166225000Y-125900000I100000J0D01*
G01*
G37*
G36*
G01*
X165575000Y-125900000D02*
X165775000Y-125900000D01*
G75*
G02*
X165875000Y-126000000I0J-100000D01*
G01*
X165875000Y-127425000D01*
G75*
G02*
X165775000Y-127525000I-100000J0D01*
G01*
X165575000Y-127525000D01*
G75*
G02*
X165475000Y-127425000I0J100000D01*
G01*
X165475000Y-126000000D01*
G75*
G02*
X165575000Y-125900000I100000J0D01*
G01*
G37*
G36*
G01*
X164925000Y-125900000D02*
X165125000Y-125900000D01*
G75*
G02*
X165225000Y-126000000I0J-100000D01*
G01*
X165225000Y-127425000D01*
G75*
G02*
X165125000Y-127525000I-100000J0D01*
G01*
X164925000Y-127525000D01*
G75*
G02*
X164825000Y-127425000I0J100000D01*
G01*
X164825000Y-126000000D01*
G75*
G02*
X164925000Y-125900000I100000J0D01*
G01*
G37*
G36*
G01*
X164925000Y-121675000D02*
X165125000Y-121675000D01*
G75*
G02*
X165225000Y-121775000I0J-100000D01*
G01*
X165225000Y-123200000D01*
G75*
G02*
X165125000Y-123300000I-100000J0D01*
G01*
X164925000Y-123300000D01*
G75*
G02*
X164825000Y-123200000I0J100000D01*
G01*
X164825000Y-121775000D01*
G75*
G02*
X164925000Y-121675000I100000J0D01*
G01*
G37*
G36*
G01*
X165575000Y-121675000D02*
X165775000Y-121675000D01*
G75*
G02*
X165875000Y-121775000I0J-100000D01*
G01*
X165875000Y-123200000D01*
G75*
G02*
X165775000Y-123300000I-100000J0D01*
G01*
X165575000Y-123300000D01*
G75*
G02*
X165475000Y-123200000I0J100000D01*
G01*
X165475000Y-121775000D01*
G75*
G02*
X165575000Y-121675000I100000J0D01*
G01*
G37*
G36*
G01*
X166225000Y-121675000D02*
X166425000Y-121675000D01*
G75*
G02*
X166525000Y-121775000I0J-100000D01*
G01*
X166525000Y-123200000D01*
G75*
G02*
X166425000Y-123300000I-100000J0D01*
G01*
X166225000Y-123300000D01*
G75*
G02*
X166125000Y-123200000I0J100000D01*
G01*
X166125000Y-121775000D01*
G75*
G02*
X166225000Y-121675000I100000J0D01*
G01*
G37*
G36*
G01*
X166875000Y-121675000D02*
X167075000Y-121675000D01*
G75*
G02*
X167175000Y-121775000I0J-100000D01*
G01*
X167175000Y-123200000D01*
G75*
G02*
X167075000Y-123300000I-100000J0D01*
G01*
X166875000Y-123300000D01*
G75*
G02*
X166775000Y-123200000I0J100000D01*
G01*
X166775000Y-121775000D01*
G75*
G02*
X166875000Y-121675000I100000J0D01*
G01*
G37*
%TD*%
%TO.C,C7*%
G36*
G01*
X176256250Y-66650000D02*
X175743750Y-66650000D01*
G75*
G02*
X175525000Y-66431250I0J218750D01*
G01*
X175525000Y-65993750D01*
G75*
G02*
X175743750Y-65775000I218750J0D01*
G01*
X176256250Y-65775000D01*
G75*
G02*
X176475000Y-65993750I0J-218750D01*
G01*
X176475000Y-66431250D01*
G75*
G02*
X176256250Y-66650000I-218750J0D01*
G01*
G37*
G36*
G01*
X176256250Y-68225000D02*
X175743750Y-68225000D01*
G75*
G02*
X175525000Y-68006250I0J218750D01*
G01*
X175525000Y-67568750D01*
G75*
G02*
X175743750Y-67350000I218750J0D01*
G01*
X176256250Y-67350000D01*
G75*
G02*
X176475000Y-67568750I0J-218750D01*
G01*
X176475000Y-68006250D01*
G75*
G02*
X176256250Y-68225000I-218750J0D01*
G01*
G37*
%TD*%
%TO.C,R3*%
G36*
G01*
X161337500Y-106350000D02*
X160862500Y-106350000D01*
G75*
G02*
X160625000Y-106112500I0J237500D01*
G01*
X160625000Y-105537500D01*
G75*
G02*
X160862500Y-105300000I237500J0D01*
G01*
X161337500Y-105300000D01*
G75*
G02*
X161575000Y-105537500I0J-237500D01*
G01*
X161575000Y-106112500D01*
G75*
G02*
X161337500Y-106350000I-237500J0D01*
G01*
G37*
G36*
G01*
X161337500Y-108100000D02*
X160862500Y-108100000D01*
G75*
G02*
X160625000Y-107862500I0J237500D01*
G01*
X160625000Y-107287500D01*
G75*
G02*
X160862500Y-107050000I237500J0D01*
G01*
X161337500Y-107050000D01*
G75*
G02*
X161575000Y-107287500I0J-237500D01*
G01*
X161575000Y-107862500D01*
G75*
G02*
X161337500Y-108100000I-237500J0D01*
G01*
G37*
%TD*%
%TO.C,R10*%
G36*
G01*
X160237500Y-113175000D02*
X159762500Y-113175000D01*
G75*
G02*
X159525000Y-112937500I0J237500D01*
G01*
X159525000Y-112362500D01*
G75*
G02*
X159762500Y-112125000I237500J0D01*
G01*
X160237500Y-112125000D01*
G75*
G02*
X160475000Y-112362500I0J-237500D01*
G01*
X160475000Y-112937500D01*
G75*
G02*
X160237500Y-113175000I-237500J0D01*
G01*
G37*
G36*
G01*
X160237500Y-114925000D02*
X159762500Y-114925000D01*
G75*
G02*
X159525000Y-114687500I0J237500D01*
G01*
X159525000Y-114112500D01*
G75*
G02*
X159762500Y-113875000I237500J0D01*
G01*
X160237500Y-113875000D01*
G75*
G02*
X160475000Y-114112500I0J-237500D01*
G01*
X160475000Y-114687500D01*
G75*
G02*
X160237500Y-114925000I-237500J0D01*
G01*
G37*
%TD*%
%TO.C,R11*%
G36*
G01*
X162450000Y-65862500D02*
X162450000Y-66337500D01*
G75*
G02*
X162212500Y-66575000I-237500J0D01*
G01*
X161637500Y-66575000D01*
G75*
G02*
X161400000Y-66337500I0J237500D01*
G01*
X161400000Y-65862500D01*
G75*
G02*
X161637500Y-65625000I237500J0D01*
G01*
X162212500Y-65625000D01*
G75*
G02*
X162450000Y-65862500I0J-237500D01*
G01*
G37*
G36*
G01*
X164200000Y-65862500D02*
X164200000Y-66337500D01*
G75*
G02*
X163962500Y-66575000I-237500J0D01*
G01*
X163387500Y-66575000D01*
G75*
G02*
X163150000Y-66337500I0J237500D01*
G01*
X163150000Y-65862500D01*
G75*
G02*
X163387500Y-65625000I237500J0D01*
G01*
X163962500Y-65625000D01*
G75*
G02*
X164200000Y-65862500I0J-237500D01*
G01*
G37*
%TD*%
%TO.C,R19*%
G36*
G01*
X167637500Y-71150000D02*
X167162500Y-71150000D01*
G75*
G02*
X166925000Y-70912500I0J237500D01*
G01*
X166925000Y-70337500D01*
G75*
G02*
X167162500Y-70100000I237500J0D01*
G01*
X167637500Y-70100000D01*
G75*
G02*
X167875000Y-70337500I0J-237500D01*
G01*
X167875000Y-70912500D01*
G75*
G02*
X167637500Y-71150000I-237500J0D01*
G01*
G37*
G36*
G01*
X167637500Y-72900000D02*
X167162500Y-72900000D01*
G75*
G02*
X166925000Y-72662500I0J237500D01*
G01*
X166925000Y-72087500D01*
G75*
G02*
X167162500Y-71850000I237500J0D01*
G01*
X167637500Y-71850000D01*
G75*
G02*
X167875000Y-72087500I0J-237500D01*
G01*
X167875000Y-72662500D01*
G75*
G02*
X167637500Y-72900000I-237500J0D01*
G01*
G37*
%TD*%
%TO.C,R22*%
G36*
G01*
X156037500Y-95525000D02*
X155562500Y-95525000D01*
G75*
G02*
X155325000Y-95287500I0J237500D01*
G01*
X155325000Y-94712500D01*
G75*
G02*
X155562500Y-94475000I237500J0D01*
G01*
X156037500Y-94475000D01*
G75*
G02*
X156275000Y-94712500I0J-237500D01*
G01*
X156275000Y-95287500D01*
G75*
G02*
X156037500Y-95525000I-237500J0D01*
G01*
G37*
G36*
G01*
X156037500Y-97275000D02*
X155562500Y-97275000D01*
G75*
G02*
X155325000Y-97037500I0J237500D01*
G01*
X155325000Y-96462500D01*
G75*
G02*
X155562500Y-96225000I237500J0D01*
G01*
X156037500Y-96225000D01*
G75*
G02*
X156275000Y-96462500I0J-237500D01*
G01*
X156275000Y-97037500D01*
G75*
G02*
X156037500Y-97275000I-237500J0D01*
G01*
G37*
%TD*%
%TO.C,R23*%
G36*
G01*
X150362500Y-70850000D02*
X150837500Y-70850000D01*
G75*
G02*
X151075000Y-71087500I0J-237500D01*
G01*
X151075000Y-71662500D01*
G75*
G02*
X150837500Y-71900000I-237500J0D01*
G01*
X150362500Y-71900000D01*
G75*
G02*
X150125000Y-71662500I0J237500D01*
G01*
X150125000Y-71087500D01*
G75*
G02*
X150362500Y-70850000I237500J0D01*
G01*
G37*
G36*
G01*
X150362500Y-69100000D02*
X150837500Y-69100000D01*
G75*
G02*
X151075000Y-69337500I0J-237500D01*
G01*
X151075000Y-69912500D01*
G75*
G02*
X150837500Y-70150000I-237500J0D01*
G01*
X150362500Y-70150000D01*
G75*
G02*
X150125000Y-69912500I0J237500D01*
G01*
X150125000Y-69337500D01*
G75*
G02*
X150362500Y-69100000I237500J0D01*
G01*
G37*
%TD*%
%TO.C,R24*%
G36*
G01*
X128037500Y-100450000D02*
X127562500Y-100450000D01*
G75*
G02*
X127325000Y-100212500I0J237500D01*
G01*
X127325000Y-99637500D01*
G75*
G02*
X127562500Y-99400000I237500J0D01*
G01*
X128037500Y-99400000D01*
G75*
G02*
X128275000Y-99637500I0J-237500D01*
G01*
X128275000Y-100212500D01*
G75*
G02*
X128037500Y-100450000I-237500J0D01*
G01*
G37*
G36*
G01*
X128037500Y-102200000D02*
X127562500Y-102200000D01*
G75*
G02*
X127325000Y-101962500I0J237500D01*
G01*
X127325000Y-101387500D01*
G75*
G02*
X127562500Y-101150000I237500J0D01*
G01*
X128037500Y-101150000D01*
G75*
G02*
X128275000Y-101387500I0J-237500D01*
G01*
X128275000Y-101962500D01*
G75*
G02*
X128037500Y-102200000I-237500J0D01*
G01*
G37*
%TD*%
%TO.C,R25*%
G36*
G01*
X145362500Y-70850000D02*
X145837500Y-70850000D01*
G75*
G02*
X146075000Y-71087500I0J-237500D01*
G01*
X146075000Y-71662500D01*
G75*
G02*
X145837500Y-71900000I-237500J0D01*
G01*
X145362500Y-71900000D01*
G75*
G02*
X145125000Y-71662500I0J237500D01*
G01*
X145125000Y-71087500D01*
G75*
G02*
X145362500Y-70850000I237500J0D01*
G01*
G37*
G36*
G01*
X145362500Y-69100000D02*
X145837500Y-69100000D01*
G75*
G02*
X146075000Y-69337500I0J-237500D01*
G01*
X146075000Y-69912500D01*
G75*
G02*
X145837500Y-70150000I-237500J0D01*
G01*
X145362500Y-70150000D01*
G75*
G02*
X145125000Y-69912500I0J237500D01*
G01*
X145125000Y-69337500D01*
G75*
G02*
X145362500Y-69100000I237500J0D01*
G01*
G37*
%TD*%
%TO.C,R26*%
G36*
G01*
X142762500Y-70850000D02*
X143237500Y-70850000D01*
G75*
G02*
X143475000Y-71087500I0J-237500D01*
G01*
X143475000Y-71662500D01*
G75*
G02*
X143237500Y-71900000I-237500J0D01*
G01*
X142762500Y-71900000D01*
G75*
G02*
X142525000Y-71662500I0J237500D01*
G01*
X142525000Y-71087500D01*
G75*
G02*
X142762500Y-70850000I237500J0D01*
G01*
G37*
G36*
G01*
X142762500Y-69100000D02*
X143237500Y-69100000D01*
G75*
G02*
X143475000Y-69337500I0J-237500D01*
G01*
X143475000Y-69912500D01*
G75*
G02*
X143237500Y-70150000I-237500J0D01*
G01*
X142762500Y-70150000D01*
G75*
G02*
X142525000Y-69912500I0J237500D01*
G01*
X142525000Y-69337500D01*
G75*
G02*
X142762500Y-69100000I237500J0D01*
G01*
G37*
%TD*%
%TO.C,R27*%
G36*
G01*
X140262500Y-70850000D02*
X140737500Y-70850000D01*
G75*
G02*
X140975000Y-71087500I0J-237500D01*
G01*
X140975000Y-71662500D01*
G75*
G02*
X140737500Y-71900000I-237500J0D01*
G01*
X140262500Y-71900000D01*
G75*
G02*
X140025000Y-71662500I0J237500D01*
G01*
X140025000Y-71087500D01*
G75*
G02*
X140262500Y-70850000I237500J0D01*
G01*
G37*
G36*
G01*
X140262500Y-69100000D02*
X140737500Y-69100000D01*
G75*
G02*
X140975000Y-69337500I0J-237500D01*
G01*
X140975000Y-69912500D01*
G75*
G02*
X140737500Y-70150000I-237500J0D01*
G01*
X140262500Y-70150000D01*
G75*
G02*
X140025000Y-69912500I0J237500D01*
G01*
X140025000Y-69337500D01*
G75*
G02*
X140262500Y-69100000I237500J0D01*
G01*
G37*
%TD*%
%TO.C,R29*%
G36*
G01*
X137662500Y-70850000D02*
X138137500Y-70850000D01*
G75*
G02*
X138375000Y-71087500I0J-237500D01*
G01*
X138375000Y-71662500D01*
G75*
G02*
X138137500Y-71900000I-237500J0D01*
G01*
X137662500Y-71900000D01*
G75*
G02*
X137425000Y-71662500I0J237500D01*
G01*
X137425000Y-71087500D01*
G75*
G02*
X137662500Y-70850000I237500J0D01*
G01*
G37*
G36*
G01*
X137662500Y-69100000D02*
X138137500Y-69100000D01*
G75*
G02*
X138375000Y-69337500I0J-237500D01*
G01*
X138375000Y-69912500D01*
G75*
G02*
X138137500Y-70150000I-237500J0D01*
G01*
X137662500Y-70150000D01*
G75*
G02*
X137425000Y-69912500I0J237500D01*
G01*
X137425000Y-69337500D01*
G75*
G02*
X137662500Y-69100000I237500J0D01*
G01*
G37*
%TD*%
%TO.C,R31*%
G36*
G01*
X135262500Y-70850000D02*
X135737500Y-70850000D01*
G75*
G02*
X135975000Y-71087500I0J-237500D01*
G01*
X135975000Y-71662500D01*
G75*
G02*
X135737500Y-71900000I-237500J0D01*
G01*
X135262500Y-71900000D01*
G75*
G02*
X135025000Y-71662500I0J237500D01*
G01*
X135025000Y-71087500D01*
G75*
G02*
X135262500Y-70850000I237500J0D01*
G01*
G37*
G36*
G01*
X135262500Y-69100000D02*
X135737500Y-69100000D01*
G75*
G02*
X135975000Y-69337500I0J-237500D01*
G01*
X135975000Y-69912500D01*
G75*
G02*
X135737500Y-70150000I-237500J0D01*
G01*
X135262500Y-70150000D01*
G75*
G02*
X135025000Y-69912500I0J237500D01*
G01*
X135025000Y-69337500D01*
G75*
G02*
X135262500Y-69100000I237500J0D01*
G01*
G37*
%TD*%
%TO.C,R32*%
G36*
G01*
X130637500Y-95525000D02*
X130162500Y-95525000D01*
G75*
G02*
X129925000Y-95287500I0J237500D01*
G01*
X129925000Y-94712500D01*
G75*
G02*
X130162500Y-94475000I237500J0D01*
G01*
X130637500Y-94475000D01*
G75*
G02*
X130875000Y-94712500I0J-237500D01*
G01*
X130875000Y-95287500D01*
G75*
G02*
X130637500Y-95525000I-237500J0D01*
G01*
G37*
G36*
G01*
X130637500Y-97275000D02*
X130162500Y-97275000D01*
G75*
G02*
X129925000Y-97037500I0J237500D01*
G01*
X129925000Y-96462500D01*
G75*
G02*
X130162500Y-96225000I237500J0D01*
G01*
X130637500Y-96225000D01*
G75*
G02*
X130875000Y-96462500I0J-237500D01*
G01*
X130875000Y-97037500D01*
G75*
G02*
X130637500Y-97275000I-237500J0D01*
G01*
G37*
%TD*%
%TO.C,R33*%
G36*
G01*
X132662500Y-70850000D02*
X133137500Y-70850000D01*
G75*
G02*
X133375000Y-71087500I0J-237500D01*
G01*
X133375000Y-71662500D01*
G75*
G02*
X133137500Y-71900000I-237500J0D01*
G01*
X132662500Y-71900000D01*
G75*
G02*
X132425000Y-71662500I0J237500D01*
G01*
X132425000Y-71087500D01*
G75*
G02*
X132662500Y-70850000I237500J0D01*
G01*
G37*
G36*
G01*
X132662500Y-69100000D02*
X133137500Y-69100000D01*
G75*
G02*
X133375000Y-69337500I0J-237500D01*
G01*
X133375000Y-69912500D01*
G75*
G02*
X133137500Y-70150000I-237500J0D01*
G01*
X132662500Y-70150000D01*
G75*
G02*
X132425000Y-69912500I0J237500D01*
G01*
X132425000Y-69337500D01*
G75*
G02*
X132662500Y-69100000I237500J0D01*
G01*
G37*
%TD*%
%TO.C,R35*%
G36*
G01*
X130162500Y-70850000D02*
X130637500Y-70850000D01*
G75*
G02*
X130875000Y-71087500I0J-237500D01*
G01*
X130875000Y-71662500D01*
G75*
G02*
X130637500Y-71900000I-237500J0D01*
G01*
X130162500Y-71900000D01*
G75*
G02*
X129925000Y-71662500I0J237500D01*
G01*
X129925000Y-71087500D01*
G75*
G02*
X130162500Y-70850000I237500J0D01*
G01*
G37*
G36*
G01*
X130162500Y-69100000D02*
X130637500Y-69100000D01*
G75*
G02*
X130875000Y-69337500I0J-237500D01*
G01*
X130875000Y-69912500D01*
G75*
G02*
X130637500Y-70150000I-237500J0D01*
G01*
X130162500Y-70150000D01*
G75*
G02*
X129925000Y-69912500I0J237500D01*
G01*
X129925000Y-69337500D01*
G75*
G02*
X130162500Y-69100000I237500J0D01*
G01*
G37*
%TD*%
%TO.C,R37*%
G36*
G01*
X127662500Y-70850000D02*
X128137500Y-70850000D01*
G75*
G02*
X128375000Y-71087500I0J-237500D01*
G01*
X128375000Y-71662500D01*
G75*
G02*
X128137500Y-71900000I-237500J0D01*
G01*
X127662500Y-71900000D01*
G75*
G02*
X127425000Y-71662500I0J237500D01*
G01*
X127425000Y-71087500D01*
G75*
G02*
X127662500Y-70850000I237500J0D01*
G01*
G37*
G36*
G01*
X127662500Y-69100000D02*
X128137500Y-69100000D01*
G75*
G02*
X128375000Y-69337500I0J-237500D01*
G01*
X128375000Y-69912500D01*
G75*
G02*
X128137500Y-70150000I-237500J0D01*
G01*
X127662500Y-70150000D01*
G75*
G02*
X127425000Y-69912500I0J237500D01*
G01*
X127425000Y-69337500D01*
G75*
G02*
X127662500Y-69100000I237500J0D01*
G01*
G37*
%TD*%
%TO.C,R38*%
G36*
G01*
X140837500Y-95450000D02*
X140362500Y-95450000D01*
G75*
G02*
X140125000Y-95212500I0J237500D01*
G01*
X140125000Y-94637500D01*
G75*
G02*
X140362500Y-94400000I237500J0D01*
G01*
X140837500Y-94400000D01*
G75*
G02*
X141075000Y-94637500I0J-237500D01*
G01*
X141075000Y-95212500D01*
G75*
G02*
X140837500Y-95450000I-237500J0D01*
G01*
G37*
G36*
G01*
X140837500Y-97200000D02*
X140362500Y-97200000D01*
G75*
G02*
X140125000Y-96962500I0J237500D01*
G01*
X140125000Y-96387500D01*
G75*
G02*
X140362500Y-96150000I237500J0D01*
G01*
X140837500Y-96150000D01*
G75*
G02*
X141075000Y-96387500I0J-237500D01*
G01*
X141075000Y-96962500D01*
G75*
G02*
X140837500Y-97200000I-237500J0D01*
G01*
G37*
%TD*%
%TO.C,R40*%
G36*
G01*
X122462500Y-70850000D02*
X122937500Y-70850000D01*
G75*
G02*
X123175000Y-71087500I0J-237500D01*
G01*
X123175000Y-71662500D01*
G75*
G02*
X122937500Y-71900000I-237500J0D01*
G01*
X122462500Y-71900000D01*
G75*
G02*
X122225000Y-71662500I0J237500D01*
G01*
X122225000Y-71087500D01*
G75*
G02*
X122462500Y-70850000I237500J0D01*
G01*
G37*
G36*
G01*
X122462500Y-69100000D02*
X122937500Y-69100000D01*
G75*
G02*
X123175000Y-69337500I0J-237500D01*
G01*
X123175000Y-69912500D01*
G75*
G02*
X122937500Y-70150000I-237500J0D01*
G01*
X122462500Y-70150000D01*
G75*
G02*
X122225000Y-69912500I0J237500D01*
G01*
X122225000Y-69337500D01*
G75*
G02*
X122462500Y-69100000I237500J0D01*
G01*
G37*
%TD*%
%TO.C,R42*%
G36*
G01*
X120062500Y-89425000D02*
X120537500Y-89425000D01*
G75*
G02*
X120775000Y-89662500I0J-237500D01*
G01*
X120775000Y-90237500D01*
G75*
G02*
X120537500Y-90475000I-237500J0D01*
G01*
X120062500Y-90475000D01*
G75*
G02*
X119825000Y-90237500I0J237500D01*
G01*
X119825000Y-89662500D01*
G75*
G02*
X120062500Y-89425000I237500J0D01*
G01*
G37*
G36*
G01*
X120062500Y-87675000D02*
X120537500Y-87675000D01*
G75*
G02*
X120775000Y-87912500I0J-237500D01*
G01*
X120775000Y-88487500D01*
G75*
G02*
X120537500Y-88725000I-237500J0D01*
G01*
X120062500Y-88725000D01*
G75*
G02*
X119825000Y-88487500I0J237500D01*
G01*
X119825000Y-87912500D01*
G75*
G02*
X120062500Y-87675000I237500J0D01*
G01*
G37*
%TD*%
%TO.C,R43*%
G36*
G01*
X184775000Y-84362500D02*
X184775000Y-84837500D01*
G75*
G02*
X184537500Y-85075000I-237500J0D01*
G01*
X183962500Y-85075000D01*
G75*
G02*
X183725000Y-84837500I0J237500D01*
G01*
X183725000Y-84362500D01*
G75*
G02*
X183962500Y-84125000I237500J0D01*
G01*
X184537500Y-84125000D01*
G75*
G02*
X184775000Y-84362500I0J-237500D01*
G01*
G37*
G36*
G01*
X186525000Y-84362500D02*
X186525000Y-84837500D01*
G75*
G02*
X186287500Y-85075000I-237500J0D01*
G01*
X185712500Y-85075000D01*
G75*
G02*
X185475000Y-84837500I0J237500D01*
G01*
X185475000Y-84362500D01*
G75*
G02*
X185712500Y-84125000I237500J0D01*
G01*
X186287500Y-84125000D01*
G75*
G02*
X186525000Y-84362500I0J-237500D01*
G01*
G37*
%TD*%
%TO.C,R44*%
G36*
G01*
X187150000Y-93837500D02*
X187150000Y-93362500D01*
G75*
G02*
X187387500Y-93125000I237500J0D01*
G01*
X187962500Y-93125000D01*
G75*
G02*
X188200000Y-93362500I0J-237500D01*
G01*
X188200000Y-93837500D01*
G75*
G02*
X187962500Y-94075000I-237500J0D01*
G01*
X187387500Y-94075000D01*
G75*
G02*
X187150000Y-93837500I0J237500D01*
G01*
G37*
G36*
G01*
X185400000Y-93837500D02*
X185400000Y-93362500D01*
G75*
G02*
X185637500Y-93125000I237500J0D01*
G01*
X186212500Y-93125000D01*
G75*
G02*
X186450000Y-93362500I0J-237500D01*
G01*
X186450000Y-93837500D01*
G75*
G02*
X186212500Y-94075000I-237500J0D01*
G01*
X185637500Y-94075000D01*
G75*
G02*
X185400000Y-93837500I0J237500D01*
G01*
G37*
%TD*%
%TO.C,R45*%
G36*
G01*
X176650000Y-91337500D02*
X176650000Y-90862500D01*
G75*
G02*
X176887500Y-90625000I237500J0D01*
G01*
X177462500Y-90625000D01*
G75*
G02*
X177700000Y-90862500I0J-237500D01*
G01*
X177700000Y-91337500D01*
G75*
G02*
X177462500Y-91575000I-237500J0D01*
G01*
X176887500Y-91575000D01*
G75*
G02*
X176650000Y-91337500I0J237500D01*
G01*
G37*
G36*
G01*
X174900000Y-91337500D02*
X174900000Y-90862500D01*
G75*
G02*
X175137500Y-90625000I237500J0D01*
G01*
X175712500Y-90625000D01*
G75*
G02*
X175950000Y-90862500I0J-237500D01*
G01*
X175950000Y-91337500D01*
G75*
G02*
X175712500Y-91575000I-237500J0D01*
G01*
X175137500Y-91575000D01*
G75*
G02*
X174900000Y-91337500I0J237500D01*
G01*
G37*
%TD*%
%TO.C,R46*%
G36*
G01*
X176650000Y-88837500D02*
X176650000Y-88362500D01*
G75*
G02*
X176887500Y-88125000I237500J0D01*
G01*
X177462500Y-88125000D01*
G75*
G02*
X177700000Y-88362500I0J-237500D01*
G01*
X177700000Y-88837500D01*
G75*
G02*
X177462500Y-89075000I-237500J0D01*
G01*
X176887500Y-89075000D01*
G75*
G02*
X176650000Y-88837500I0J237500D01*
G01*
G37*
G36*
G01*
X174900000Y-88837500D02*
X174900000Y-88362500D01*
G75*
G02*
X175137500Y-88125000I237500J0D01*
G01*
X175712500Y-88125000D01*
G75*
G02*
X175950000Y-88362500I0J-237500D01*
G01*
X175950000Y-88837500D01*
G75*
G02*
X175712500Y-89075000I-237500J0D01*
G01*
X175137500Y-89075000D01*
G75*
G02*
X174900000Y-88837500I0J237500D01*
G01*
G37*
%TD*%
%TO.C,R47*%
G36*
G01*
X187150000Y-91337500D02*
X187150000Y-90862500D01*
G75*
G02*
X187387500Y-90625000I237500J0D01*
G01*
X187962500Y-90625000D01*
G75*
G02*
X188200000Y-90862500I0J-237500D01*
G01*
X188200000Y-91337500D01*
G75*
G02*
X187962500Y-91575000I-237500J0D01*
G01*
X187387500Y-91575000D01*
G75*
G02*
X187150000Y-91337500I0J237500D01*
G01*
G37*
G36*
G01*
X185400000Y-91337500D02*
X185400000Y-90862500D01*
G75*
G02*
X185637500Y-90625000I237500J0D01*
G01*
X186212500Y-90625000D01*
G75*
G02*
X186450000Y-90862500I0J-237500D01*
G01*
X186450000Y-91337500D01*
G75*
G02*
X186212500Y-91575000I-237500J0D01*
G01*
X185637500Y-91575000D01*
G75*
G02*
X185400000Y-91337500I0J237500D01*
G01*
G37*
%TD*%
%TO.C,R48*%
G36*
G01*
X176650000Y-93837500D02*
X176650000Y-93362500D01*
G75*
G02*
X176887500Y-93125000I237500J0D01*
G01*
X177462500Y-93125000D01*
G75*
G02*
X177700000Y-93362500I0J-237500D01*
G01*
X177700000Y-93837500D01*
G75*
G02*
X177462500Y-94075000I-237500J0D01*
G01*
X176887500Y-94075000D01*
G75*
G02*
X176650000Y-93837500I0J237500D01*
G01*
G37*
G36*
G01*
X174900000Y-93837500D02*
X174900000Y-93362500D01*
G75*
G02*
X175137500Y-93125000I237500J0D01*
G01*
X175712500Y-93125000D01*
G75*
G02*
X175950000Y-93362500I0J-237500D01*
G01*
X175950000Y-93837500D01*
G75*
G02*
X175712500Y-94075000I-237500J0D01*
G01*
X175137500Y-94075000D01*
G75*
G02*
X174900000Y-93837500I0J237500D01*
G01*
G37*
%TD*%
D12*
%TO.C,J1*%
X172495000Y-70250000D03*
D13*
X180145000Y-70250000D03*
D12*
X173595000Y-70250000D03*
X174695000Y-70250000D03*
X175795000Y-70250000D03*
X176895000Y-70250000D03*
X177995000Y-70250000D03*
X179095000Y-70250000D03*
D14*
X181355000Y-70600000D03*
D15*
X170035000Y-70375000D03*
D16*
X169860000Y-80100000D03*
X169860000Y-76400000D03*
D17*
X173360000Y-81075000D03*
X179330000Y-81075000D03*
%TD*%
D18*
%TO.C,U4*%
X113260000Y-122800000D03*
X113260000Y-125340000D03*
X113260000Y-127880000D03*
X113260000Y-130420000D03*
%TD*%
M02*
