%TF.GenerationSoftware,KiCad,Pcbnew,(5.1.6)-1*%
%TF.CreationDate,2021-03-02T23:33:04+01:00*%
%TF.ProjectId,03_La_Boite_A_Meuh,30335f4c-615f-4426-9f69-74655f415f4d,rev?*%
%TF.SameCoordinates,Original*%
%TF.FileFunction,Soldermask,Bot*%
%TF.FilePolarity,Negative*%
%FSLAX46Y46*%
G04 Gerber Fmt 4.6, Leading zero omitted, Abs format (unit mm)*
G04 Created by KiCad (PCBNEW (5.1.6)-1) date 2021-03-02 23:33:04*
%MOMM*%
%LPD*%
G01*
G04 APERTURE LIST*
%TA.AperFunction,Profile*%
%ADD10C,0.150000*%
%TD*%
%ADD11C,0.900000*%
%ADD12C,6.500000*%
%ADD13C,1.630000*%
%ADD14R,1.630000X1.630000*%
%ADD15R,1.800000X1.800000*%
%ADD16O,2.100000X1.800000*%
%ADD17O,1.800000X2.100000*%
%ADD18O,1.800000X2.050000*%
%ADD19O,1.800000X1.800000*%
G04 APERTURE END LIST*
D10*
X180000000Y-55000000D02*
X195000000Y-55000000D01*
X157000000Y-55000000D02*
X180000000Y-55000000D01*
X195000000Y-55000000D02*
G75*
G02*
X200000000Y-60000000I0J-5000000D01*
G01*
X200000000Y-150000000D02*
G75*
G02*
X195000000Y-155000000I-5000000J0D01*
G01*
X105000000Y-155000000D02*
G75*
G02*
X100000000Y-150000000I0J5000000D01*
G01*
X100000000Y-60000000D02*
G75*
G02*
X105000000Y-55000000I5000000J0D01*
G01*
X100000000Y-150000000D02*
X100000000Y-60000000D01*
X195000000Y-155000000D02*
X105000000Y-155000000D01*
X200000000Y-60000000D02*
X200000000Y-150000000D01*
X105000000Y-55000000D02*
X157000000Y-55000000D01*
D11*
%TO.C,H3*%
X196697056Y-148302944D03*
X195000000Y-147600000D03*
X193302944Y-148302944D03*
X192600000Y-150000000D03*
X193302944Y-151697056D03*
X195000000Y-152400000D03*
X196697056Y-151697056D03*
X197400000Y-150000000D03*
D12*
X195000000Y-150000000D03*
%TD*%
D11*
%TO.C,H1*%
X106697056Y-58302944D03*
X105000000Y-57600000D03*
X103302944Y-58302944D03*
X102600000Y-60000000D03*
X103302944Y-61697056D03*
X105000000Y-62400000D03*
X106697056Y-61697056D03*
X107400000Y-60000000D03*
D12*
X105000000Y-60000000D03*
%TD*%
D11*
%TO.C,H2*%
X196697056Y-58302944D03*
X195000000Y-57600000D03*
X193302944Y-58302944D03*
X192600000Y-60000000D03*
X193302944Y-61697056D03*
X195000000Y-62400000D03*
X196697056Y-61697056D03*
X197400000Y-60000000D03*
D12*
X195000000Y-60000000D03*
%TD*%
D11*
%TO.C,H4*%
X106697056Y-148302944D03*
X105000000Y-147600000D03*
X103302944Y-148302944D03*
X102600000Y-150000000D03*
X103302944Y-151697056D03*
X105000000Y-152400000D03*
X106697056Y-151697056D03*
X107400000Y-150000000D03*
D12*
X105000000Y-150000000D03*
%TD*%
D13*
%TO.C,U2*%
X158350000Y-92300000D03*
X155810000Y-92300000D03*
X153270000Y-92300000D03*
X150730000Y-92300000D03*
X148190000Y-92300000D03*
X145650000Y-92300000D03*
X143110000Y-92300000D03*
X140570000Y-92300000D03*
X138030000Y-92300000D03*
X135490000Y-92300000D03*
X132950000Y-92300000D03*
X130410000Y-92300000D03*
X127870000Y-92300000D03*
X125330000Y-92300000D03*
X122790000Y-92300000D03*
X120250000Y-92300000D03*
X117710000Y-92300000D03*
X115170000Y-92300000D03*
X112630000Y-92300000D03*
X112630000Y-66900000D03*
X115170000Y-66900000D03*
X117710000Y-66900000D03*
X120250000Y-66900000D03*
X122790000Y-66900000D03*
X125330000Y-66900000D03*
X127870000Y-66900000D03*
X130410000Y-66900000D03*
X132950000Y-66900000D03*
X135490000Y-66900000D03*
X138030000Y-66900000D03*
X140570000Y-66900000D03*
X143110000Y-66900000D03*
X145650000Y-66900000D03*
X148190000Y-66900000D03*
X150730000Y-66900000D03*
X153270000Y-66900000D03*
X155810000Y-66900000D03*
D14*
X158350000Y-66900000D03*
%TD*%
D15*
%TO.C,J10*%
X153300000Y-71000000D03*
%TD*%
D16*
%TO.C,J18*%
X136900000Y-115600000D03*
G36*
G01*
X136114706Y-112200000D02*
X137685294Y-112200000D01*
G75*
G02*
X137950000Y-112464706I0J-264706D01*
G01*
X137950000Y-113735294D01*
G75*
G02*
X137685294Y-114000000I-264706J0D01*
G01*
X136114706Y-114000000D01*
G75*
G02*
X135850000Y-113735294I0J264706D01*
G01*
X135850000Y-112464706D01*
G75*
G02*
X136114706Y-112200000I264706J0D01*
G01*
G37*
%TD*%
D15*
%TO.C,J25*%
X125700000Y-96700000D03*
%TD*%
D16*
%TO.C,J26*%
X144200000Y-115600000D03*
G36*
G01*
X143414706Y-112200000D02*
X144985294Y-112200000D01*
G75*
G02*
X145250000Y-112464706I0J-264706D01*
G01*
X145250000Y-113735294D01*
G75*
G02*
X144985294Y-114000000I-264706J0D01*
G01*
X143414706Y-114000000D01*
G75*
G02*
X143150000Y-113735294I0J264706D01*
G01*
X143150000Y-112464706D01*
G75*
G02*
X143414706Y-112200000I264706J0D01*
G01*
G37*
%TD*%
%TO.C,J27*%
X114700000Y-115600000D03*
G36*
G01*
X113914706Y-112200000D02*
X115485294Y-112200000D01*
G75*
G02*
X115750000Y-112464706I0J-264706D01*
G01*
X115750000Y-113735294D01*
G75*
G02*
X115485294Y-114000000I-264706J0D01*
G01*
X113914706Y-114000000D01*
G75*
G02*
X113650000Y-113735294I0J264706D01*
G01*
X113650000Y-112464706D01*
G75*
G02*
X113914706Y-112200000I264706J0D01*
G01*
G37*
%TD*%
D17*
%TO.C,J29*%
X167400000Y-136000000D03*
G36*
G01*
X164000000Y-136785294D02*
X164000000Y-135214706D01*
G75*
G02*
X164264706Y-134950000I264706J0D01*
G01*
X165535294Y-134950000D01*
G75*
G02*
X165800000Y-135214706I0J-264706D01*
G01*
X165800000Y-136785294D01*
G75*
G02*
X165535294Y-137050000I-264706J0D01*
G01*
X164264706Y-137050000D01*
G75*
G02*
X164000000Y-136785294I0J264706D01*
G01*
G37*
%TD*%
D18*
%TO.C,J6*%
X113200000Y-97900000D03*
X115700000Y-97900000D03*
X118200000Y-97900000D03*
G36*
G01*
X121600000Y-97139706D02*
X121600000Y-98660294D01*
G75*
G02*
X121335294Y-98925000I-264706J0D01*
G01*
X120064706Y-98925000D01*
G75*
G02*
X119800000Y-98660294I0J264706D01*
G01*
X119800000Y-97139706D01*
G75*
G02*
X120064706Y-96875000I264706J0D01*
G01*
X121335294Y-96875000D01*
G75*
G02*
X121600000Y-97139706I0J-264706D01*
G01*
G37*
%TD*%
%TO.C,J7*%
X147000000Y-141300000D03*
X149500000Y-141300000D03*
X152000000Y-141300000D03*
G36*
G01*
X155400000Y-140539706D02*
X155400000Y-142060294D01*
G75*
G02*
X155135294Y-142325000I-264706J0D01*
G01*
X153864706Y-142325000D01*
G75*
G02*
X153600000Y-142060294I0J264706D01*
G01*
X153600000Y-140539706D01*
G75*
G02*
X153864706Y-140275000I264706J0D01*
G01*
X155135294Y-140275000D01*
G75*
G02*
X155400000Y-140539706I0J-264706D01*
G01*
G37*
%TD*%
%TO.C,J8*%
X147000000Y-127000000D03*
X149500000Y-127000000D03*
X152000000Y-127000000D03*
G36*
G01*
X155400000Y-126239706D02*
X155400000Y-127760294D01*
G75*
G02*
X155135294Y-128025000I-264706J0D01*
G01*
X153864706Y-128025000D01*
G75*
G02*
X153600000Y-127760294I0J264706D01*
G01*
X153600000Y-126239706D01*
G75*
G02*
X153864706Y-125975000I264706J0D01*
G01*
X155135294Y-125975000D01*
G75*
G02*
X155400000Y-126239706I0J-264706D01*
G01*
G37*
%TD*%
%TO.C,J11*%
X147000000Y-134200000D03*
X149500000Y-134200000D03*
X152000000Y-134200000D03*
G36*
G01*
X155400000Y-133439706D02*
X155400000Y-134960294D01*
G75*
G02*
X155135294Y-135225000I-264706J0D01*
G01*
X153864706Y-135225000D01*
G75*
G02*
X153600000Y-134960294I0J264706D01*
G01*
X153600000Y-133439706D01*
G75*
G02*
X153864706Y-133175000I264706J0D01*
G01*
X155135294Y-133175000D01*
G75*
G02*
X155400000Y-133439706I0J-264706D01*
G01*
G37*
%TD*%
D19*
%TO.C,J2*%
X186900000Y-81680000D03*
X186900000Y-79140000D03*
X186900000Y-76600000D03*
X186900000Y-74060000D03*
X186900000Y-71520000D03*
D15*
X186900000Y-68980000D03*
%TD*%
D19*
%TO.C,J3*%
X187000000Y-99880000D03*
X187000000Y-102420000D03*
X187000000Y-104960000D03*
X187000000Y-107500000D03*
X187000000Y-110040000D03*
X187000000Y-112580000D03*
X187000000Y-115120000D03*
X187000000Y-117660000D03*
D15*
X187000000Y-120200000D03*
%TD*%
D19*
%TO.C,J5*%
X180260000Y-91060000D03*
X180260000Y-93600000D03*
X182800000Y-91060000D03*
D15*
X182800000Y-93600000D03*
%TD*%
%TO.C,J9*%
G36*
G01*
X128814706Y-112200000D02*
X130385294Y-112200000D01*
G75*
G02*
X130650000Y-112464706I0J-264706D01*
G01*
X130650000Y-113735294D01*
G75*
G02*
X130385294Y-114000000I-264706J0D01*
G01*
X128814706Y-114000000D01*
G75*
G02*
X128550000Y-113735294I0J264706D01*
G01*
X128550000Y-112464706D01*
G75*
G02*
X128814706Y-112200000I264706J0D01*
G01*
G37*
D16*
X129600000Y-115600000D03*
%TD*%
%TO.C,J4*%
G36*
G01*
X121414706Y-112200000D02*
X122985294Y-112200000D01*
G75*
G02*
X123250000Y-112464706I0J-264706D01*
G01*
X123250000Y-113735294D01*
G75*
G02*
X122985294Y-114000000I-264706J0D01*
G01*
X121414706Y-114000000D01*
G75*
G02*
X121150000Y-113735294I0J264706D01*
G01*
X121150000Y-112464706D01*
G75*
G02*
X121414706Y-112200000I264706J0D01*
G01*
G37*
X122200000Y-115600000D03*
%TD*%
D15*
%TO.C,J12*%
X133000000Y-101400000D03*
%TD*%
%TO.C,J13*%
X135400000Y-96100000D03*
%TD*%
%TO.C,J14*%
X148200000Y-62900000D03*
%TD*%
%TO.C,J15*%
X138000000Y-100200000D03*
%TD*%
%TO.C,U4*%
X115800000Y-122800000D03*
X115800000Y-125340000D03*
X115800000Y-127880000D03*
X115800000Y-130420000D03*
%TD*%
M02*
