%TF.GenerationSoftware,KiCad,Pcbnew,(5.1.6)-1*%
%TF.CreationDate,2020-12-23T09:12:26+01:00*%
%TF.ProjectId,03_La_Boite_A_Meuh,30335f4c-615f-4426-9f69-74655f415f4d,rev?*%
%TF.SameCoordinates,Original*%
%TF.FileFunction,Paste,Top*%
%TF.FilePolarity,Positive*%
%FSLAX46Y46*%
G04 Gerber Fmt 4.6, Leading zero omitted, Abs format (unit mm)*
G04 Created by KiCad (PCBNEW (5.1.6)-1) date 2020-12-23 09:12:26*
%MOMM*%
%LPD*%
G01*
G04 APERTURE LIST*
%TA.AperFunction,Profile*%
%ADD10C,0.150000*%
%TD*%
%ADD11R,0.900000X0.800000*%
%ADD12R,3.500000X1.700000*%
G04 APERTURE END LIST*
D10*
X180000000Y-55000000D02*
X195000000Y-55000000D01*
X180000000Y-64500000D02*
X180000000Y-55000000D01*
X157000000Y-64500000D02*
X180000000Y-64500000D01*
X157000000Y-55000000D02*
X157000000Y-64500000D01*
X195000000Y-55000000D02*
G75*
G02*
X200000000Y-60000000I0J-5000000D01*
G01*
X200000000Y-150000000D02*
G75*
G02*
X195000000Y-155000000I-5000000J0D01*
G01*
X105000000Y-155000000D02*
G75*
G02*
X100000000Y-150000000I0J5000000D01*
G01*
X100000000Y-60000000D02*
G75*
G02*
X105000000Y-55000000I5000000J0D01*
G01*
X100000000Y-150000000D02*
X100000000Y-60000000D01*
X195000000Y-155000000D02*
X105000000Y-155000000D01*
X200000000Y-60000000D02*
X200000000Y-150000000D01*
X105000000Y-55000000D02*
X157000000Y-55000000D01*
%TO.C,C1*%
G36*
G01*
X173237500Y-118150000D02*
X172762500Y-118150000D01*
G75*
G02*
X172525000Y-117912500I0J237500D01*
G01*
X172525000Y-117337500D01*
G75*
G02*
X172762500Y-117100000I237500J0D01*
G01*
X173237500Y-117100000D01*
G75*
G02*
X173475000Y-117337500I0J-237500D01*
G01*
X173475000Y-117912500D01*
G75*
G02*
X173237500Y-118150000I-237500J0D01*
G01*
G37*
G36*
G01*
X173237500Y-119900000D02*
X172762500Y-119900000D01*
G75*
G02*
X172525000Y-119662500I0J237500D01*
G01*
X172525000Y-119087500D01*
G75*
G02*
X172762500Y-118850000I237500J0D01*
G01*
X173237500Y-118850000D01*
G75*
G02*
X173475000Y-119087500I0J-237500D01*
G01*
X173475000Y-119662500D01*
G75*
G02*
X173237500Y-119900000I-237500J0D01*
G01*
G37*
%TD*%
%TO.C,C2*%
G36*
G01*
X171237500Y-118150000D02*
X170762500Y-118150000D01*
G75*
G02*
X170525000Y-117912500I0J237500D01*
G01*
X170525000Y-117337500D01*
G75*
G02*
X170762500Y-117100000I237500J0D01*
G01*
X171237500Y-117100000D01*
G75*
G02*
X171475000Y-117337500I0J-237500D01*
G01*
X171475000Y-117912500D01*
G75*
G02*
X171237500Y-118150000I-237500J0D01*
G01*
G37*
G36*
G01*
X171237500Y-119900000D02*
X170762500Y-119900000D01*
G75*
G02*
X170525000Y-119662500I0J237500D01*
G01*
X170525000Y-119087500D01*
G75*
G02*
X170762500Y-118850000I237500J0D01*
G01*
X171237500Y-118850000D01*
G75*
G02*
X171475000Y-119087500I0J-237500D01*
G01*
X171475000Y-119662500D01*
G75*
G02*
X171237500Y-119900000I-237500J0D01*
G01*
G37*
%TD*%
%TO.C,C3*%
G36*
G01*
X187350000Y-118237500D02*
X187350000Y-117762500D01*
G75*
G02*
X187587500Y-117525000I237500J0D01*
G01*
X188162500Y-117525000D01*
G75*
G02*
X188400000Y-117762500I0J-237500D01*
G01*
X188400000Y-118237500D01*
G75*
G02*
X188162500Y-118475000I-237500J0D01*
G01*
X187587500Y-118475000D01*
G75*
G02*
X187350000Y-118237500I0J237500D01*
G01*
G37*
G36*
G01*
X185600000Y-118237500D02*
X185600000Y-117762500D01*
G75*
G02*
X185837500Y-117525000I237500J0D01*
G01*
X186412500Y-117525000D01*
G75*
G02*
X186650000Y-117762500I0J-237500D01*
G01*
X186650000Y-118237500D01*
G75*
G02*
X186412500Y-118475000I-237500J0D01*
G01*
X185837500Y-118475000D01*
G75*
G02*
X185600000Y-118237500I0J237500D01*
G01*
G37*
%TD*%
%TO.C,C4*%
G36*
G01*
X186762500Y-132350000D02*
X187237500Y-132350000D01*
G75*
G02*
X187475000Y-132587500I0J-237500D01*
G01*
X187475000Y-133162500D01*
G75*
G02*
X187237500Y-133400000I-237500J0D01*
G01*
X186762500Y-133400000D01*
G75*
G02*
X186525000Y-133162500I0J237500D01*
G01*
X186525000Y-132587500D01*
G75*
G02*
X186762500Y-132350000I237500J0D01*
G01*
G37*
G36*
G01*
X186762500Y-130600000D02*
X187237500Y-130600000D01*
G75*
G02*
X187475000Y-130837500I0J-237500D01*
G01*
X187475000Y-131412500D01*
G75*
G02*
X187237500Y-131650000I-237500J0D01*
G01*
X186762500Y-131650000D01*
G75*
G02*
X186525000Y-131412500I0J237500D01*
G01*
X186525000Y-130837500D01*
G75*
G02*
X186762500Y-130600000I237500J0D01*
G01*
G37*
%TD*%
%TO.C,C5*%
G36*
G01*
X184762500Y-132350000D02*
X185237500Y-132350000D01*
G75*
G02*
X185475000Y-132587500I0J-237500D01*
G01*
X185475000Y-133162500D01*
G75*
G02*
X185237500Y-133400000I-237500J0D01*
G01*
X184762500Y-133400000D01*
G75*
G02*
X184525000Y-133162500I0J237500D01*
G01*
X184525000Y-132587500D01*
G75*
G02*
X184762500Y-132350000I237500J0D01*
G01*
G37*
G36*
G01*
X184762500Y-130600000D02*
X185237500Y-130600000D01*
G75*
G02*
X185475000Y-130837500I0J-237500D01*
G01*
X185475000Y-131412500D01*
G75*
G02*
X185237500Y-131650000I-237500J0D01*
G01*
X184762500Y-131650000D01*
G75*
G02*
X184525000Y-131412500I0J237500D01*
G01*
X184525000Y-130837500D01*
G75*
G02*
X184762500Y-130600000I237500J0D01*
G01*
G37*
%TD*%
%TO.C,C6*%
G36*
G01*
X187737500Y-105025000D02*
X187262500Y-105025000D01*
G75*
G02*
X187025000Y-104787500I0J237500D01*
G01*
X187025000Y-104212500D01*
G75*
G02*
X187262500Y-103975000I237500J0D01*
G01*
X187737500Y-103975000D01*
G75*
G02*
X187975000Y-104212500I0J-237500D01*
G01*
X187975000Y-104787500D01*
G75*
G02*
X187737500Y-105025000I-237500J0D01*
G01*
G37*
G36*
G01*
X187737500Y-106775000D02*
X187262500Y-106775000D01*
G75*
G02*
X187025000Y-106537500I0J237500D01*
G01*
X187025000Y-105962500D01*
G75*
G02*
X187262500Y-105725000I237500J0D01*
G01*
X187737500Y-105725000D01*
G75*
G02*
X187975000Y-105962500I0J-237500D01*
G01*
X187975000Y-106537500D01*
G75*
G02*
X187737500Y-106775000I-237500J0D01*
G01*
G37*
%TD*%
D11*
%TO.C,Q1*%
X147000000Y-90000000D03*
X149000000Y-89050000D03*
X149000000Y-90950000D03*
%TD*%
%TO.C,R1*%
G36*
G01*
X183850000Y-118237500D02*
X183850000Y-117762500D01*
G75*
G02*
X184087500Y-117525000I237500J0D01*
G01*
X184662500Y-117525000D01*
G75*
G02*
X184900000Y-117762500I0J-237500D01*
G01*
X184900000Y-118237500D01*
G75*
G02*
X184662500Y-118475000I-237500J0D01*
G01*
X184087500Y-118475000D01*
G75*
G02*
X183850000Y-118237500I0J237500D01*
G01*
G37*
G36*
G01*
X182100000Y-118237500D02*
X182100000Y-117762500D01*
G75*
G02*
X182337500Y-117525000I237500J0D01*
G01*
X182912500Y-117525000D01*
G75*
G02*
X183150000Y-117762500I0J-237500D01*
G01*
X183150000Y-118237500D01*
G75*
G02*
X182912500Y-118475000I-237500J0D01*
G01*
X182337500Y-118475000D01*
G75*
G02*
X182100000Y-118237500I0J237500D01*
G01*
G37*
%TD*%
%TO.C,R2*%
G36*
G01*
X186762500Y-128350000D02*
X187237500Y-128350000D01*
G75*
G02*
X187475000Y-128587500I0J-237500D01*
G01*
X187475000Y-129162500D01*
G75*
G02*
X187237500Y-129400000I-237500J0D01*
G01*
X186762500Y-129400000D01*
G75*
G02*
X186525000Y-129162500I0J237500D01*
G01*
X186525000Y-128587500D01*
G75*
G02*
X186762500Y-128350000I237500J0D01*
G01*
G37*
G36*
G01*
X186762500Y-126600000D02*
X187237500Y-126600000D01*
G75*
G02*
X187475000Y-126837500I0J-237500D01*
G01*
X187475000Y-127412500D01*
G75*
G02*
X187237500Y-127650000I-237500J0D01*
G01*
X186762500Y-127650000D01*
G75*
G02*
X186525000Y-127412500I0J237500D01*
G01*
X186525000Y-126837500D01*
G75*
G02*
X186762500Y-126600000I237500J0D01*
G01*
G37*
%TD*%
%TO.C,R3*%
G36*
G01*
X183262500Y-124350000D02*
X183737500Y-124350000D01*
G75*
G02*
X183975000Y-124587500I0J-237500D01*
G01*
X183975000Y-125162500D01*
G75*
G02*
X183737500Y-125400000I-237500J0D01*
G01*
X183262500Y-125400000D01*
G75*
G02*
X183025000Y-125162500I0J237500D01*
G01*
X183025000Y-124587500D01*
G75*
G02*
X183262500Y-124350000I237500J0D01*
G01*
G37*
G36*
G01*
X183262500Y-122600000D02*
X183737500Y-122600000D01*
G75*
G02*
X183975000Y-122837500I0J-237500D01*
G01*
X183975000Y-123412500D01*
G75*
G02*
X183737500Y-123650000I-237500J0D01*
G01*
X183262500Y-123650000D01*
G75*
G02*
X183025000Y-123412500I0J237500D01*
G01*
X183025000Y-122837500D01*
G75*
G02*
X183262500Y-122600000I237500J0D01*
G01*
G37*
%TD*%
%TO.C,R4*%
G36*
G01*
X184762500Y-128350000D02*
X185237500Y-128350000D01*
G75*
G02*
X185475000Y-128587500I0J-237500D01*
G01*
X185475000Y-129162500D01*
G75*
G02*
X185237500Y-129400000I-237500J0D01*
G01*
X184762500Y-129400000D01*
G75*
G02*
X184525000Y-129162500I0J237500D01*
G01*
X184525000Y-128587500D01*
G75*
G02*
X184762500Y-128350000I237500J0D01*
G01*
G37*
G36*
G01*
X184762500Y-126600000D02*
X185237500Y-126600000D01*
G75*
G02*
X185475000Y-126837500I0J-237500D01*
G01*
X185475000Y-127412500D01*
G75*
G02*
X185237500Y-127650000I-237500J0D01*
G01*
X184762500Y-127650000D01*
G75*
G02*
X184525000Y-127412500I0J237500D01*
G01*
X184525000Y-126837500D01*
G75*
G02*
X184762500Y-126600000I237500J0D01*
G01*
G37*
%TD*%
%TO.C,R5*%
G36*
G01*
X183150000Y-119762500D02*
X183150000Y-120237500D01*
G75*
G02*
X182912500Y-120475000I-237500J0D01*
G01*
X182337500Y-120475000D01*
G75*
G02*
X182100000Y-120237500I0J237500D01*
G01*
X182100000Y-119762500D01*
G75*
G02*
X182337500Y-119525000I237500J0D01*
G01*
X182912500Y-119525000D01*
G75*
G02*
X183150000Y-119762500I0J-237500D01*
G01*
G37*
G36*
G01*
X184900000Y-119762500D02*
X184900000Y-120237500D01*
G75*
G02*
X184662500Y-120475000I-237500J0D01*
G01*
X184087500Y-120475000D01*
G75*
G02*
X183850000Y-120237500I0J237500D01*
G01*
X183850000Y-119762500D01*
G75*
G02*
X184087500Y-119525000I237500J0D01*
G01*
X184662500Y-119525000D01*
G75*
G02*
X184900000Y-119762500I0J-237500D01*
G01*
G37*
%TD*%
%TO.C,R6*%
G36*
G01*
X187737500Y-109150000D02*
X187262500Y-109150000D01*
G75*
G02*
X187025000Y-108912500I0J237500D01*
G01*
X187025000Y-108337500D01*
G75*
G02*
X187262500Y-108100000I237500J0D01*
G01*
X187737500Y-108100000D01*
G75*
G02*
X187975000Y-108337500I0J-237500D01*
G01*
X187975000Y-108912500D01*
G75*
G02*
X187737500Y-109150000I-237500J0D01*
G01*
G37*
G36*
G01*
X187737500Y-110900000D02*
X187262500Y-110900000D01*
G75*
G02*
X187025000Y-110662500I0J237500D01*
G01*
X187025000Y-110087500D01*
G75*
G02*
X187262500Y-109850000I237500J0D01*
G01*
X187737500Y-109850000D01*
G75*
G02*
X187975000Y-110087500I0J-237500D01*
G01*
X187975000Y-110662500D01*
G75*
G02*
X187737500Y-110900000I-237500J0D01*
G01*
G37*
%TD*%
%TO.C,R7*%
G36*
G01*
X184737500Y-67650000D02*
X184262500Y-67650000D01*
G75*
G02*
X184025000Y-67412500I0J237500D01*
G01*
X184025000Y-66837500D01*
G75*
G02*
X184262500Y-66600000I237500J0D01*
G01*
X184737500Y-66600000D01*
G75*
G02*
X184975000Y-66837500I0J-237500D01*
G01*
X184975000Y-67412500D01*
G75*
G02*
X184737500Y-67650000I-237500J0D01*
G01*
G37*
G36*
G01*
X184737500Y-69400000D02*
X184262500Y-69400000D01*
G75*
G02*
X184025000Y-69162500I0J237500D01*
G01*
X184025000Y-68587500D01*
G75*
G02*
X184262500Y-68350000I237500J0D01*
G01*
X184737500Y-68350000D01*
G75*
G02*
X184975000Y-68587500I0J-237500D01*
G01*
X184975000Y-69162500D01*
G75*
G02*
X184737500Y-69400000I-237500J0D01*
G01*
G37*
%TD*%
%TO.C,R8*%
G36*
G01*
X159850000Y-80237500D02*
X159850000Y-79762500D01*
G75*
G02*
X160087500Y-79525000I237500J0D01*
G01*
X160662500Y-79525000D01*
G75*
G02*
X160900000Y-79762500I0J-237500D01*
G01*
X160900000Y-80237500D01*
G75*
G02*
X160662500Y-80475000I-237500J0D01*
G01*
X160087500Y-80475000D01*
G75*
G02*
X159850000Y-80237500I0J237500D01*
G01*
G37*
G36*
G01*
X158100000Y-80237500D02*
X158100000Y-79762500D01*
G75*
G02*
X158337500Y-79525000I237500J0D01*
G01*
X158912500Y-79525000D01*
G75*
G02*
X159150000Y-79762500I0J-237500D01*
G01*
X159150000Y-80237500D01*
G75*
G02*
X158912500Y-80475000I-237500J0D01*
G01*
X158337500Y-80475000D01*
G75*
G02*
X158100000Y-80237500I0J237500D01*
G01*
G37*
%TD*%
%TO.C,R9*%
G36*
G01*
X159850000Y-73237500D02*
X159850000Y-72762500D01*
G75*
G02*
X160087500Y-72525000I237500J0D01*
G01*
X160662500Y-72525000D01*
G75*
G02*
X160900000Y-72762500I0J-237500D01*
G01*
X160900000Y-73237500D01*
G75*
G02*
X160662500Y-73475000I-237500J0D01*
G01*
X160087500Y-73475000D01*
G75*
G02*
X159850000Y-73237500I0J237500D01*
G01*
G37*
G36*
G01*
X158100000Y-73237500D02*
X158100000Y-72762500D01*
G75*
G02*
X158337500Y-72525000I237500J0D01*
G01*
X158912500Y-72525000D01*
G75*
G02*
X159150000Y-72762500I0J-237500D01*
G01*
X159150000Y-73237500D01*
G75*
G02*
X158912500Y-73475000I-237500J0D01*
G01*
X158337500Y-73475000D01*
G75*
G02*
X158100000Y-73237500I0J237500D01*
G01*
G37*
%TD*%
%TO.C,R10*%
G36*
G01*
X166850000Y-74737500D02*
X166850000Y-74262500D01*
G75*
G02*
X167087500Y-74025000I237500J0D01*
G01*
X167662500Y-74025000D01*
G75*
G02*
X167900000Y-74262500I0J-237500D01*
G01*
X167900000Y-74737500D01*
G75*
G02*
X167662500Y-74975000I-237500J0D01*
G01*
X167087500Y-74975000D01*
G75*
G02*
X166850000Y-74737500I0J237500D01*
G01*
G37*
G36*
G01*
X165100000Y-74737500D02*
X165100000Y-74262500D01*
G75*
G02*
X165337500Y-74025000I237500J0D01*
G01*
X165912500Y-74025000D01*
G75*
G02*
X166150000Y-74262500I0J-237500D01*
G01*
X166150000Y-74737500D01*
G75*
G02*
X165912500Y-74975000I-237500J0D01*
G01*
X165337500Y-74975000D01*
G75*
G02*
X165100000Y-74737500I0J237500D01*
G01*
G37*
%TD*%
%TO.C,R11*%
G36*
G01*
X165350000Y-77737500D02*
X165350000Y-77262500D01*
G75*
G02*
X165587500Y-77025000I237500J0D01*
G01*
X166162500Y-77025000D01*
G75*
G02*
X166400000Y-77262500I0J-237500D01*
G01*
X166400000Y-77737500D01*
G75*
G02*
X166162500Y-77975000I-237500J0D01*
G01*
X165587500Y-77975000D01*
G75*
G02*
X165350000Y-77737500I0J237500D01*
G01*
G37*
G36*
G01*
X163600000Y-77737500D02*
X163600000Y-77262500D01*
G75*
G02*
X163837500Y-77025000I237500J0D01*
G01*
X164412500Y-77025000D01*
G75*
G02*
X164650000Y-77262500I0J-237500D01*
G01*
X164650000Y-77737500D01*
G75*
G02*
X164412500Y-77975000I-237500J0D01*
G01*
X163837500Y-77975000D01*
G75*
G02*
X163600000Y-77737500I0J237500D01*
G01*
G37*
%TD*%
%TO.C,R12*%
G36*
G01*
X151150000Y-86762500D02*
X151150000Y-87237500D01*
G75*
G02*
X150912500Y-87475000I-237500J0D01*
G01*
X150337500Y-87475000D01*
G75*
G02*
X150100000Y-87237500I0J237500D01*
G01*
X150100000Y-86762500D01*
G75*
G02*
X150337500Y-86525000I237500J0D01*
G01*
X150912500Y-86525000D01*
G75*
G02*
X151150000Y-86762500I0J-237500D01*
G01*
G37*
G36*
G01*
X152900000Y-86762500D02*
X152900000Y-87237500D01*
G75*
G02*
X152662500Y-87475000I-237500J0D01*
G01*
X152087500Y-87475000D01*
G75*
G02*
X151850000Y-87237500I0J237500D01*
G01*
X151850000Y-86762500D01*
G75*
G02*
X152087500Y-86525000I237500J0D01*
G01*
X152662500Y-86525000D01*
G75*
G02*
X152900000Y-86762500I0J-237500D01*
G01*
G37*
%TD*%
%TO.C,R13*%
G36*
G01*
X150975000Y-99237500D02*
X150975000Y-98762500D01*
G75*
G02*
X151212500Y-98525000I237500J0D01*
G01*
X151787500Y-98525000D01*
G75*
G02*
X152025000Y-98762500I0J-237500D01*
G01*
X152025000Y-99237500D01*
G75*
G02*
X151787500Y-99475000I-237500J0D01*
G01*
X151212500Y-99475000D01*
G75*
G02*
X150975000Y-99237500I0J237500D01*
G01*
G37*
G36*
G01*
X149225000Y-99237500D02*
X149225000Y-98762500D01*
G75*
G02*
X149462500Y-98525000I237500J0D01*
G01*
X150037500Y-98525000D01*
G75*
G02*
X150275000Y-98762500I0J-237500D01*
G01*
X150275000Y-99237500D01*
G75*
G02*
X150037500Y-99475000I-237500J0D01*
G01*
X149462500Y-99475000D01*
G75*
G02*
X149225000Y-99237500I0J237500D01*
G01*
G37*
%TD*%
%TO.C,R14*%
G36*
G01*
X151237500Y-104650000D02*
X150762500Y-104650000D01*
G75*
G02*
X150525000Y-104412500I0J237500D01*
G01*
X150525000Y-103837500D01*
G75*
G02*
X150762500Y-103600000I237500J0D01*
G01*
X151237500Y-103600000D01*
G75*
G02*
X151475000Y-103837500I0J-237500D01*
G01*
X151475000Y-104412500D01*
G75*
G02*
X151237500Y-104650000I-237500J0D01*
G01*
G37*
G36*
G01*
X151237500Y-106400000D02*
X150762500Y-106400000D01*
G75*
G02*
X150525000Y-106162500I0J237500D01*
G01*
X150525000Y-105587500D01*
G75*
G02*
X150762500Y-105350000I237500J0D01*
G01*
X151237500Y-105350000D01*
G75*
G02*
X151475000Y-105587500I0J-237500D01*
G01*
X151475000Y-106162500D01*
G75*
G02*
X151237500Y-106400000I-237500J0D01*
G01*
G37*
%TD*%
%TO.C,R15*%
G36*
G01*
X152762500Y-105225000D02*
X153237500Y-105225000D01*
G75*
G02*
X153475000Y-105462500I0J-237500D01*
G01*
X153475000Y-106037500D01*
G75*
G02*
X153237500Y-106275000I-237500J0D01*
G01*
X152762500Y-106275000D01*
G75*
G02*
X152525000Y-106037500I0J237500D01*
G01*
X152525000Y-105462500D01*
G75*
G02*
X152762500Y-105225000I237500J0D01*
G01*
G37*
G36*
G01*
X152762500Y-103475000D02*
X153237500Y-103475000D01*
G75*
G02*
X153475000Y-103712500I0J-237500D01*
G01*
X153475000Y-104287500D01*
G75*
G02*
X153237500Y-104525000I-237500J0D01*
G01*
X152762500Y-104525000D01*
G75*
G02*
X152525000Y-104287500I0J237500D01*
G01*
X152525000Y-103712500D01*
G75*
G02*
X152762500Y-103475000I237500J0D01*
G01*
G37*
%TD*%
%TO.C,R16*%
G36*
G01*
X144025000Y-89762500D02*
X144025000Y-90237500D01*
G75*
G02*
X143787500Y-90475000I-237500J0D01*
G01*
X143212500Y-90475000D01*
G75*
G02*
X142975000Y-90237500I0J237500D01*
G01*
X142975000Y-89762500D01*
G75*
G02*
X143212500Y-89525000I237500J0D01*
G01*
X143787500Y-89525000D01*
G75*
G02*
X144025000Y-89762500I0J-237500D01*
G01*
G37*
G36*
G01*
X145775000Y-89762500D02*
X145775000Y-90237500D01*
G75*
G02*
X145537500Y-90475000I-237500J0D01*
G01*
X144962500Y-90475000D01*
G75*
G02*
X144725000Y-90237500I0J237500D01*
G01*
X144725000Y-89762500D01*
G75*
G02*
X144962500Y-89525000I237500J0D01*
G01*
X145537500Y-89525000D01*
G75*
G02*
X145775000Y-89762500I0J-237500D01*
G01*
G37*
%TD*%
%TO.C,R17*%
G36*
G01*
X151150000Y-90762500D02*
X151150000Y-91237500D01*
G75*
G02*
X150912500Y-91475000I-237500J0D01*
G01*
X150337500Y-91475000D01*
G75*
G02*
X150100000Y-91237500I0J237500D01*
G01*
X150100000Y-90762500D01*
G75*
G02*
X150337500Y-90525000I237500J0D01*
G01*
X150912500Y-90525000D01*
G75*
G02*
X151150000Y-90762500I0J-237500D01*
G01*
G37*
G36*
G01*
X152900000Y-90762500D02*
X152900000Y-91237500D01*
G75*
G02*
X152662500Y-91475000I-237500J0D01*
G01*
X152087500Y-91475000D01*
G75*
G02*
X151850000Y-91237500I0J237500D01*
G01*
X151850000Y-90762500D01*
G75*
G02*
X152087500Y-90525000I237500J0D01*
G01*
X152662500Y-90525000D01*
G75*
G02*
X152900000Y-90762500I0J-237500D01*
G01*
G37*
%TD*%
%TO.C,R18*%
G36*
G01*
X151850000Y-89237500D02*
X151850000Y-88762500D01*
G75*
G02*
X152087500Y-88525000I237500J0D01*
G01*
X152662500Y-88525000D01*
G75*
G02*
X152900000Y-88762500I0J-237500D01*
G01*
X152900000Y-89237500D01*
G75*
G02*
X152662500Y-89475000I-237500J0D01*
G01*
X152087500Y-89475000D01*
G75*
G02*
X151850000Y-89237500I0J237500D01*
G01*
G37*
G36*
G01*
X150100000Y-89237500D02*
X150100000Y-88762500D01*
G75*
G02*
X150337500Y-88525000I237500J0D01*
G01*
X150912500Y-88525000D01*
G75*
G02*
X151150000Y-88762500I0J-237500D01*
G01*
X151150000Y-89237500D01*
G75*
G02*
X150912500Y-89475000I-237500J0D01*
G01*
X150337500Y-89475000D01*
G75*
G02*
X150100000Y-89237500I0J237500D01*
G01*
G37*
%TD*%
%TO.C,U3*%
G36*
G01*
X176200000Y-119375000D02*
X176200000Y-119575000D01*
G75*
G02*
X176100000Y-119675000I-100000J0D01*
G01*
X174675000Y-119675000D01*
G75*
G02*
X174575000Y-119575000I0J100000D01*
G01*
X174575000Y-119375000D01*
G75*
G02*
X174675000Y-119275000I100000J0D01*
G01*
X176100000Y-119275000D01*
G75*
G02*
X176200000Y-119375000I0J-100000D01*
G01*
G37*
G36*
G01*
X176200000Y-118725000D02*
X176200000Y-118925000D01*
G75*
G02*
X176100000Y-119025000I-100000J0D01*
G01*
X174675000Y-119025000D01*
G75*
G02*
X174575000Y-118925000I0J100000D01*
G01*
X174575000Y-118725000D01*
G75*
G02*
X174675000Y-118625000I100000J0D01*
G01*
X176100000Y-118625000D01*
G75*
G02*
X176200000Y-118725000I0J-100000D01*
G01*
G37*
G36*
G01*
X176200000Y-118075000D02*
X176200000Y-118275000D01*
G75*
G02*
X176100000Y-118375000I-100000J0D01*
G01*
X174675000Y-118375000D01*
G75*
G02*
X174575000Y-118275000I0J100000D01*
G01*
X174575000Y-118075000D01*
G75*
G02*
X174675000Y-117975000I100000J0D01*
G01*
X176100000Y-117975000D01*
G75*
G02*
X176200000Y-118075000I0J-100000D01*
G01*
G37*
G36*
G01*
X176200000Y-117425000D02*
X176200000Y-117625000D01*
G75*
G02*
X176100000Y-117725000I-100000J0D01*
G01*
X174675000Y-117725000D01*
G75*
G02*
X174575000Y-117625000I0J100000D01*
G01*
X174575000Y-117425000D01*
G75*
G02*
X174675000Y-117325000I100000J0D01*
G01*
X176100000Y-117325000D01*
G75*
G02*
X176200000Y-117425000I0J-100000D01*
G01*
G37*
G36*
G01*
X180425000Y-117425000D02*
X180425000Y-117625000D01*
G75*
G02*
X180325000Y-117725000I-100000J0D01*
G01*
X178900000Y-117725000D01*
G75*
G02*
X178800000Y-117625000I0J100000D01*
G01*
X178800000Y-117425000D01*
G75*
G02*
X178900000Y-117325000I100000J0D01*
G01*
X180325000Y-117325000D01*
G75*
G02*
X180425000Y-117425000I0J-100000D01*
G01*
G37*
G36*
G01*
X180425000Y-118075000D02*
X180425000Y-118275000D01*
G75*
G02*
X180325000Y-118375000I-100000J0D01*
G01*
X178900000Y-118375000D01*
G75*
G02*
X178800000Y-118275000I0J100000D01*
G01*
X178800000Y-118075000D01*
G75*
G02*
X178900000Y-117975000I100000J0D01*
G01*
X180325000Y-117975000D01*
G75*
G02*
X180425000Y-118075000I0J-100000D01*
G01*
G37*
G36*
G01*
X180425000Y-118725000D02*
X180425000Y-118925000D01*
G75*
G02*
X180325000Y-119025000I-100000J0D01*
G01*
X178900000Y-119025000D01*
G75*
G02*
X178800000Y-118925000I0J100000D01*
G01*
X178800000Y-118725000D01*
G75*
G02*
X178900000Y-118625000I100000J0D01*
G01*
X180325000Y-118625000D01*
G75*
G02*
X180425000Y-118725000I0J-100000D01*
G01*
G37*
G36*
G01*
X180425000Y-119375000D02*
X180425000Y-119575000D01*
G75*
G02*
X180325000Y-119675000I-100000J0D01*
G01*
X178900000Y-119675000D01*
G75*
G02*
X178800000Y-119575000I0J100000D01*
G01*
X178800000Y-119375000D01*
G75*
G02*
X178900000Y-119275000I100000J0D01*
G01*
X180325000Y-119275000D01*
G75*
G02*
X180425000Y-119375000I0J-100000D01*
G01*
G37*
%TD*%
D12*
%TO.C,U4*%
X142040000Y-98060000D03*
X142040000Y-100600000D03*
X142040000Y-103140000D03*
X142040000Y-105680000D03*
X142040000Y-108220000D03*
X142040000Y-110760000D03*
X142040000Y-113300000D03*
X142040000Y-115840000D03*
X142040000Y-118380000D03*
X142040000Y-120920000D03*
X142040000Y-123460000D03*
X142040000Y-126000000D03*
%TD*%
M02*
