M48
; DRILL file {KiCad (5.1.6)-1} date 03/02/21 23:33:06
; FORMAT={-:-/ absolute / inch / decimal}
; #@! TF.CreationDate,2021-03-02T23:33:06+01:00
; #@! TF.GenerationSoftware,Kicad,Pcbnew,(5.1.6)-1
; #@! TF.FileFunction,Plated,1,2,PTH
FMAT,2
INCH
T1C0.0197
T2C0.0236
T3C0.0374
T4C0.0394
T5C0.0402
T6C0.1260
%
G90
G05
T1
X7.5827Y-2.3622
X7.6104Y-2.2954
X7.6104Y-2.429
X7.6772Y-2.2677
X7.6772Y-2.4567
X7.744Y-2.2954
X7.744Y-2.429
X7.7717Y-2.3622
X4.0394Y-2.3622
X4.067Y-2.2954
X4.067Y-2.429
X4.1339Y-2.2677
X4.1339Y-2.4567
X4.2007Y-2.2954
X4.2007Y-2.429
X4.2283Y-2.3622
X4.0394Y-5.9055
X4.067Y-5.8387
X4.067Y-5.9723
X4.1339Y-5.811
X4.1339Y-6.0
X4.2007Y-5.8387
X4.2007Y-5.9723
X4.2283Y-5.9055
X7.5827Y-5.9055
X7.6104Y-5.8387
X7.6104Y-5.9723
X7.6772Y-5.811
X7.6772Y-6.0
X7.744Y-5.8387
X7.744Y-5.9723
X7.7717Y-5.9055
T2
X4.937Y-4.063
X5.0315Y-2.2992
X5.0315Y-2.4173
X5.0394Y-2.9764
X5.0945Y-4.8504
X5.1417Y-2.8976
X5.2756Y-4.1654
X5.3543Y-4.8465
X5.378Y-3.1417
X5.378Y-3.2598
X5.4488Y-3.1417
X5.4488Y-3.315
X5.6024Y-3.9528
X5.7244Y-3.0315
X5.8307Y-4.685
X6.122Y-4.752
X6.185Y-4.2205
X6.187Y-4.0335
X6.2992Y-4.5669
X6.4291Y-4.3031
X6.4567Y-5.1496
X6.4961Y-2.9764
X6.5512Y-4.3937
X6.5551Y-4.2953
X6.6142Y-5.1535
X6.622Y-3.2283
X6.622Y-3.3937
X6.752Y-3.0118
X6.7756Y-4.8661
X6.9211Y-2.7049
X6.9291Y-2.5394
X6.9449Y-3.2362
X6.9606Y-2.8425
X7.0079Y-2.6969
X7.0236Y-3.2835
X7.0394Y-3.4882
X7.0866Y-2.8898
X7.1969Y-3.3307
X7.4488Y-3.6378
T3
X5.7874Y-5.563
X5.8858Y-5.563
X5.9843Y-5.563
X6.0827Y-5.563
X4.4567Y-3.8543
X4.5551Y-3.8543
X4.6535Y-3.8543
X4.752Y-3.8543
X5.7874Y-5.0
X5.8858Y-5.0
X5.9843Y-5.0
X6.0827Y-5.0
X5.7874Y-5.2835
X5.8858Y-5.2835
X5.9843Y-5.2835
X6.0827Y-5.2835
T4
X5.8346Y-2.4764
X6.4921Y-5.3543
X6.5906Y-5.3543
X4.9488Y-3.8071
X5.6772Y-4.4528
X5.6772Y-4.5512
X4.5591Y-4.8346
X4.5591Y-4.9346
X4.5591Y-5.0346
X4.5591Y-5.1346
X5.4331Y-3.9449
X7.3622Y-3.9323
X7.3622Y-4.0323
X7.3622Y-4.1323
X7.3622Y-4.2323
X7.3622Y-4.3323
X7.3622Y-4.4323
X7.3622Y-4.5323
X7.3622Y-4.6323
X7.3622Y-4.7323
X7.0969Y-3.585
X7.0969Y-3.685
X7.1969Y-3.585
X7.1969Y-3.685
X6.0354Y-2.7953
X4.5157Y-4.4528
X4.5157Y-4.5512
X5.3307Y-3.7835
X5.1024Y-4.4528
X5.1024Y-4.5512
X5.2362Y-3.9921
X7.3583Y-2.7157
X7.3583Y-2.8157
X7.3583Y-2.9157
X7.3583Y-3.0157
X7.3583Y-3.1157
X7.3583Y-3.2157
X5.3898Y-4.4528
X5.3898Y-4.5512
X4.811Y-4.4528
X4.811Y-4.5512
T5
X4.4343Y-2.6339
X4.4343Y-3.6339
X4.5343Y-2.6339
X4.5343Y-3.6339
X4.6343Y-2.6339
X4.6343Y-3.6339
X4.7343Y-2.6339
X4.7343Y-3.6339
X4.8343Y-2.6339
X4.8343Y-3.6339
X4.9343Y-2.6339
X4.9343Y-3.6339
X5.0343Y-2.6339
X5.0343Y-3.6339
X5.1343Y-2.6339
X5.1343Y-3.6339
X5.2343Y-2.6339
X5.2343Y-3.6339
X5.3343Y-2.6339
X5.3343Y-3.6339
X5.4343Y-2.6339
X5.4343Y-3.6339
X5.5343Y-2.6339
X5.5343Y-3.6339
X5.6343Y-2.6339
X5.6343Y-3.6339
X5.7343Y-2.6339
X5.7343Y-3.6339
X5.8343Y-2.6339
X5.8343Y-3.6339
X5.9343Y-2.6339
X5.9343Y-3.6339
X6.0343Y-2.6339
X6.0343Y-3.6339
X6.1343Y-2.6339
X6.1343Y-3.6339
X6.2343Y-2.6339
X6.2343Y-3.6339
T6
X7.6772Y-2.3622
X4.1339Y-2.3622
X4.1339Y-5.9055
X7.6772Y-5.9055
T0
M30
