%TF.GenerationSoftware,KiCad,Pcbnew,(5.1.6)-1*%
%TF.CreationDate,2021-03-02T23:33:04+01:00*%
%TF.ProjectId,03_La_Boite_A_Meuh,30335f4c-615f-4426-9f69-74655f415f4d,rev?*%
%TF.SameCoordinates,Original*%
%TF.FileFunction,Legend,Bot*%
%TF.FilePolarity,Positive*%
%FSLAX46Y46*%
G04 Gerber Fmt 4.6, Leading zero omitted, Abs format (unit mm)*
G04 Created by KiCad (PCBNEW (5.1.6)-1) date 2021-03-02 23:33:04*
%MOMM*%
%LPD*%
G01*
G04 APERTURE LIST*
%TA.AperFunction,Profile*%
%ADD10C,0.150000*%
%TD*%
%ADD11C,0.150000*%
G04 APERTURE END LIST*
D10*
X180000000Y-55000000D02*
X195000000Y-55000000D01*
X157000000Y-55000000D02*
X180000000Y-55000000D01*
X195000000Y-55000000D02*
G75*
G02*
X200000000Y-60000000I0J-5000000D01*
G01*
X200000000Y-150000000D02*
G75*
G02*
X195000000Y-155000000I-5000000J0D01*
G01*
X105000000Y-155000000D02*
G75*
G02*
X100000000Y-150000000I0J5000000D01*
G01*
X100000000Y-60000000D02*
G75*
G02*
X105000000Y-55000000I5000000J0D01*
G01*
X100000000Y-150000000D02*
X100000000Y-60000000D01*
X195000000Y-155000000D02*
X105000000Y-155000000D01*
X200000000Y-60000000D02*
X200000000Y-150000000D01*
X105000000Y-55000000D02*
X157000000Y-55000000D01*
%TO.C,U4*%
D11*
X117705095Y-124967000D02*
X117609857Y-124919380D01*
X117467000Y-124919380D01*
X117324142Y-124967000D01*
X117228904Y-125062238D01*
X117181285Y-125157476D01*
X117133666Y-125347952D01*
X117133666Y-125490809D01*
X117181285Y-125681285D01*
X117228904Y-125776523D01*
X117324142Y-125871761D01*
X117467000Y-125919380D01*
X117562238Y-125919380D01*
X117705095Y-125871761D01*
X117752714Y-125824142D01*
X117752714Y-125490809D01*
X117562238Y-125490809D01*
X118181285Y-125919380D02*
X118181285Y-124919380D01*
X118752714Y-125919380D01*
X118752714Y-124919380D01*
X119228904Y-125919380D02*
X119228904Y-124919380D01*
X119467000Y-124919380D01*
X119609857Y-124967000D01*
X119705095Y-125062238D01*
X119752714Y-125157476D01*
X119800333Y-125347952D01*
X119800333Y-125490809D01*
X119752714Y-125681285D01*
X119705095Y-125776523D01*
X119609857Y-125871761D01*
X119467000Y-125919380D01*
X119228904Y-125919380D01*
X117014666Y-122379380D02*
X117348000Y-123379380D01*
X117681333Y-122379380D01*
X117776571Y-123474619D02*
X118538476Y-123474619D01*
X119157523Y-123331761D02*
X119062285Y-123379380D01*
X118871809Y-123379380D01*
X118776571Y-123331761D01*
X118728952Y-123236523D01*
X118728952Y-122855571D01*
X118776571Y-122760333D01*
X118871809Y-122712714D01*
X119062285Y-122712714D01*
X119157523Y-122760333D01*
X119205142Y-122855571D01*
X119205142Y-122950809D01*
X118728952Y-123046047D01*
X119538476Y-123379380D02*
X120062285Y-122712714D01*
X119538476Y-122712714D02*
X120062285Y-123379380D01*
X120300380Y-122712714D02*
X120681333Y-122712714D01*
X120443238Y-122379380D02*
X120443238Y-123236523D01*
X120490857Y-123331761D01*
X120586095Y-123379380D01*
X120681333Y-123379380D01*
X117490857Y-127808571D02*
X117633714Y-127856190D01*
X117681333Y-127903809D01*
X117728952Y-127999047D01*
X117728952Y-128141904D01*
X117681333Y-128237142D01*
X117633714Y-128284761D01*
X117538476Y-128332380D01*
X117157523Y-128332380D01*
X117157523Y-127332380D01*
X117490857Y-127332380D01*
X117586095Y-127380000D01*
X117633714Y-127427619D01*
X117681333Y-127522857D01*
X117681333Y-127618095D01*
X117633714Y-127713333D01*
X117586095Y-127760952D01*
X117490857Y-127808571D01*
X117157523Y-127808571D01*
X118109904Y-128046666D02*
X118586095Y-128046666D01*
X118014666Y-128332380D02*
X118348000Y-127332380D01*
X118681333Y-128332380D01*
X118871809Y-127332380D02*
X119443238Y-127332380D01*
X119157523Y-128332380D02*
X119157523Y-127332380D01*
X119776571Y-127951428D02*
X120538476Y-127951428D01*
X120157523Y-128332380D02*
X120157523Y-127570476D01*
X117641523Y-129872380D02*
X117165333Y-129872380D01*
X117117714Y-130348571D01*
X117165333Y-130300952D01*
X117260571Y-130253333D01*
X117498666Y-130253333D01*
X117593904Y-130300952D01*
X117641523Y-130348571D01*
X117689142Y-130443809D01*
X117689142Y-130681904D01*
X117641523Y-130777142D01*
X117593904Y-130824761D01*
X117498666Y-130872380D01*
X117260571Y-130872380D01*
X117165333Y-130824761D01*
X117117714Y-130777142D01*
X117974857Y-129872380D02*
X118308190Y-130872380D01*
X118641523Y-129872380D01*
%TD*%
M02*
