%TF.GenerationSoftware,KiCad,Pcbnew,(5.1.6)-1*%
%TF.CreationDate,2021-04-07T10:22:09+02:00*%
%TF.ProjectId,03_La_Boite_A_Meuh,30335f4c-615f-4426-9f69-74655f415f4d,rev?*%
%TF.SameCoordinates,Original*%
%TF.FileFunction,Other,Fab,Top*%
%FSLAX46Y46*%
G04 Gerber Fmt 4.6, Leading zero omitted, Abs format (unit mm)*
G04 Created by KiCad (PCBNEW (5.1.6)-1) date 2021-04-07 10:22:09*
%MOMM*%
%LPD*%
G01*
G04 APERTURE LIST*
%TA.AperFunction,Profile*%
%ADD10C,0.150000*%
%TD*%
%ADD11C,0.200000*%
%ADD12C,0.127000*%
%ADD13C,0.120000*%
%ADD14C,0.150000*%
%ADD15C,0.100000*%
%ADD16C,0.015000*%
G04 APERTURE END LIST*
D10*
X180000000Y-55000000D02*
X195000000Y-55000000D01*
X157000000Y-55000000D02*
X180000000Y-55000000D01*
X195000000Y-55000000D02*
G75*
G02*
X200000000Y-60000000I0J-5000000D01*
G01*
X200000000Y-150000000D02*
G75*
G02*
X195000000Y-155000000I-5000000J0D01*
G01*
X105000000Y-155000000D02*
G75*
G02*
X100000000Y-150000000I0J5000000D01*
G01*
X100000000Y-60000000D02*
G75*
G02*
X105000000Y-55000000I5000000J0D01*
G01*
X100000000Y-150000000D02*
X100000000Y-60000000D01*
X195000000Y-155000000D02*
X105000000Y-155000000D01*
X200000000Y-60000000D02*
X200000000Y-150000000D01*
X105000000Y-55000000D02*
X157000000Y-55000000D01*
D11*
%TO.C,U2*%
X157182000Y-62900000D02*
G75*
G03*
X157182000Y-62900000I-100000J0D01*
G01*
D12*
X158212000Y-63520000D02*
X110012000Y-63520000D01*
X110012000Y-91420000D02*
X158212000Y-91420000D01*
X158212000Y-91420000D02*
X158212000Y-86470000D01*
X158212000Y-86470000D02*
X158212000Y-68470000D01*
X158212000Y-68470000D02*
X158212000Y-63520000D01*
X158212000Y-68470000D02*
X164412000Y-68470000D01*
X164412000Y-68470000D02*
X164412000Y-86470000D01*
X164412000Y-86470000D02*
X158212000Y-86470000D01*
X110012000Y-63520000D02*
X110012000Y-73400000D01*
X110012000Y-73400000D02*
X109112000Y-73400000D01*
X109112000Y-73400000D02*
X109112000Y-81530000D01*
X109112000Y-81530000D02*
X110012000Y-81530000D01*
X110012000Y-81530000D02*
X110012000Y-91420000D01*
D13*
%TO.C,U4*%
X116586000Y-111506000D02*
X116586000Y-92456000D01*
X116586000Y-92456000D02*
X148336000Y-92456000D01*
X116586000Y-111506000D02*
X116586000Y-117856000D01*
X116586000Y-117856000D02*
X148336000Y-117856000D01*
X148336000Y-117856000D02*
X148336000Y-92456000D01*
D14*
%TO.C,J9*%
X107852000Y-100779000D02*
X107627000Y-100779000D01*
X107852000Y-100329000D02*
X107852000Y-100779000D01*
X107627000Y-100329000D02*
X107852000Y-100329000D01*
X107452000Y-100554000D02*
X107627000Y-100329000D01*
X107627000Y-100779000D02*
X107452000Y-100554000D01*
X101152000Y-99154000D02*
X101152000Y-104554000D01*
X107152000Y-105854000D02*
X107152000Y-97854000D01*
X101752000Y-105854000D02*
X107152000Y-105854000D01*
X101752000Y-105554000D02*
X101752000Y-105854000D01*
X100552000Y-105554000D02*
X101752000Y-105554000D01*
X100552000Y-98154000D02*
X100552000Y-105554000D01*
X101752000Y-98154000D02*
X100552000Y-98154000D01*
X101752000Y-97854000D02*
X101752000Y-98154000D01*
X107152000Y-97854000D02*
X101752000Y-97854000D01*
D15*
%TO.C,J18*%
X155020000Y-112268000D02*
X156020000Y-112893000D01*
X156020000Y-111643000D02*
X155020000Y-112268000D01*
X156020000Y-117218000D02*
X156020000Y-109818000D01*
X150270000Y-117218000D02*
X156020000Y-117218000D01*
X150270000Y-109818000D02*
X150270000Y-117218000D01*
X156020000Y-109818000D02*
X150270000Y-109818000D01*
%TO.C,J26*%
X155020000Y-103378000D02*
X156020000Y-104003000D01*
X156020000Y-102753000D02*
X155020000Y-103378000D01*
X156020000Y-108328000D02*
X156020000Y-100928000D01*
X150270000Y-108328000D02*
X156020000Y-108328000D01*
X150270000Y-100928000D02*
X150270000Y-108328000D01*
X156020000Y-100928000D02*
X150270000Y-100928000D01*
%TO.C,J29*%
X193722000Y-135890000D02*
X192722000Y-135265000D01*
X192722000Y-136515000D02*
X193722000Y-135890000D01*
X192722000Y-130940000D02*
X192722000Y-138340000D01*
X198472000Y-130940000D02*
X192722000Y-130940000D01*
X198472000Y-138340000D02*
X198472000Y-130940000D01*
X192722000Y-138340000D02*
X198472000Y-138340000D01*
%TO.C,J7*%
X169418000Y-87550000D02*
X170043000Y-86550000D01*
X168793000Y-86550000D02*
X169418000Y-87550000D01*
X179368000Y-86550000D02*
X166968000Y-86550000D01*
X179368000Y-92300000D02*
X179368000Y-86550000D01*
X166968000Y-92300000D02*
X179368000Y-92300000D01*
X166968000Y-86550000D02*
X166968000Y-92300000D01*
%TO.C,J8*%
X169418000Y-102790000D02*
X170043000Y-101790000D01*
X168793000Y-101790000D02*
X169418000Y-102790000D01*
X179368000Y-101790000D02*
X166968000Y-101790000D01*
X179368000Y-107540000D02*
X179368000Y-101790000D01*
X166968000Y-107540000D02*
X179368000Y-107540000D01*
X166968000Y-101790000D02*
X166968000Y-107540000D01*
%TO.C,J11*%
X169418000Y-95170000D02*
X170043000Y-94170000D01*
X168793000Y-94170000D02*
X169418000Y-95170000D01*
X179368000Y-94170000D02*
X166968000Y-94170000D01*
X179368000Y-99920000D02*
X179368000Y-94170000D01*
X166968000Y-99920000D02*
X179368000Y-99920000D01*
X166968000Y-94170000D02*
X166968000Y-99920000D01*
%TO.C,J2*%
X186944000Y-83058000D02*
X186944000Y-67818000D01*
X189484000Y-83058000D02*
X186944000Y-83058000D01*
X189484000Y-68453000D02*
X189484000Y-83058000D01*
X188849000Y-67818000D02*
X189484000Y-68453000D01*
X186944000Y-67818000D02*
X188849000Y-67818000D01*
%TO.C,J4*%
X114126000Y-101600000D02*
X115126000Y-102225000D01*
X115126000Y-100975000D02*
X114126000Y-101600000D01*
X115126000Y-106550000D02*
X115126000Y-99150000D01*
X109376000Y-106550000D02*
X115126000Y-106550000D01*
X109376000Y-99150000D02*
X109376000Y-106550000D01*
X115126000Y-99150000D02*
X109376000Y-99150000D01*
%TO.C,J1*%
X170363000Y-62682000D02*
X170363000Y-66182000D01*
X181363000Y-66182000D02*
X181363000Y-62682000D01*
X181763000Y-77582000D02*
X181763000Y-66182000D01*
X181763000Y-66182000D02*
X180978000Y-66182000D01*
X169813000Y-66182000D02*
X169813000Y-77582000D01*
X181763000Y-77582000D02*
X169813000Y-77582000D01*
X180168000Y-67582000D02*
X172508000Y-67582000D01*
X172008000Y-67082000D02*
X172008000Y-66682000D01*
X169813000Y-66182000D02*
X171508000Y-66182000D01*
X180668000Y-66482000D02*
X180668000Y-67082000D01*
X170863000Y-62182000D02*
X180863000Y-62182000D01*
X170363000Y-62682000D02*
G75*
G02*
X170863000Y-62182000I500000J0D01*
G01*
X180863000Y-62182000D02*
G75*
G02*
X181363000Y-62682000I0J-500000D01*
G01*
X180668000Y-66482000D02*
G75*
G02*
X180968000Y-66182000I300000J0D01*
G01*
X180668000Y-67082000D02*
G75*
G02*
X180168000Y-67582000I-500000J0D01*
G01*
X172008000Y-67082000D02*
G75*
G03*
X172508000Y-67582000I500000J0D01*
G01*
X171508000Y-66182000D02*
G75*
G02*
X172008000Y-66682000I0J-500000D01*
G01*
%TO.C,J3*%
X189484000Y-93218000D02*
X189484000Y-113538000D01*
X186944000Y-93218000D02*
X189484000Y-93218000D01*
X186944000Y-112903000D02*
X186944000Y-93218000D01*
X187579000Y-113538000D02*
X186944000Y-112903000D01*
X189484000Y-113538000D02*
X187579000Y-113538000D01*
D13*
%TO.C,U3*%
X115156000Y-107776000D02*
X115156000Y-117776000D01*
X100156000Y-107776000D02*
X115156000Y-107776000D01*
X100156000Y-117776000D02*
X100156000Y-107776000D01*
X115156000Y-117776000D02*
X100156000Y-117776000D01*
%TO.C,U5*%
X156464000Y-144780000D02*
X156464000Y-118364000D01*
X156464000Y-118364000D02*
X117856000Y-118364000D01*
X117856000Y-118364000D02*
X117856000Y-128524000D01*
X117856000Y-128524000D02*
X115316000Y-128524000D01*
X115316000Y-128524000D02*
X115316000Y-134620000D01*
X115316000Y-134620000D02*
X117856000Y-134620000D01*
X117856000Y-134620000D02*
X117856000Y-144780000D01*
X117856000Y-144780000D02*
X156464000Y-144780000D01*
%TO.C,U1*%
X156972000Y-122174000D02*
X156972000Y-145034000D01*
X189992000Y-122174000D02*
X156972000Y-122174000D01*
X189992000Y-124714000D02*
X189992000Y-122174000D01*
X189992000Y-145034000D02*
X156972000Y-145034000D01*
X189992000Y-124714000D02*
X189992000Y-145034000D01*
%TD*%
%TO.C,U2*%
D16*
X108005571Y-81961904D02*
X108005571Y-81628571D01*
X108529380Y-81485714D02*
X108529380Y-81961904D01*
X107529380Y-81961904D01*
X107529380Y-81485714D01*
X108481761Y-81104761D02*
X108529380Y-80961904D01*
X108529380Y-80723809D01*
X108481761Y-80628571D01*
X108434142Y-80580952D01*
X108338904Y-80533333D01*
X108243666Y-80533333D01*
X108148428Y-80580952D01*
X108100809Y-80628571D01*
X108053190Y-80723809D01*
X108005571Y-80914285D01*
X107957952Y-81009523D01*
X107910333Y-81057142D01*
X107815095Y-81104761D01*
X107719857Y-81104761D01*
X107624619Y-81057142D01*
X107577000Y-81009523D01*
X107529380Y-80914285D01*
X107529380Y-80676190D01*
X107577000Y-80533333D01*
X108529380Y-80104761D02*
X107529380Y-80104761D01*
X107529380Y-79723809D01*
X107577000Y-79628571D01*
X107624619Y-79580952D01*
X107719857Y-79533333D01*
X107862714Y-79533333D01*
X107957952Y-79580952D01*
X108005571Y-79628571D01*
X108053190Y-79723809D01*
X108053190Y-80104761D01*
X107529380Y-79200000D02*
X107529380Y-78580952D01*
X107910333Y-78914285D01*
X107910333Y-78771428D01*
X107957952Y-78676190D01*
X108005571Y-78628571D01*
X108100809Y-78580952D01*
X108338904Y-78580952D01*
X108434142Y-78628571D01*
X108481761Y-78676190D01*
X108529380Y-78771428D01*
X108529380Y-79057142D01*
X108481761Y-79152380D01*
X108434142Y-79200000D01*
X107624619Y-78200000D02*
X107577000Y-78152380D01*
X107529380Y-78057142D01*
X107529380Y-77819047D01*
X107577000Y-77723809D01*
X107624619Y-77676190D01*
X107719857Y-77628571D01*
X107815095Y-77628571D01*
X107957952Y-77676190D01*
X108529380Y-78247619D01*
X108529380Y-77628571D01*
X108148428Y-77200000D02*
X108148428Y-76438095D01*
X108529380Y-75961904D02*
X107529380Y-75961904D01*
X107529380Y-75723809D01*
X107577000Y-75580952D01*
X107672238Y-75485714D01*
X107767476Y-75438095D01*
X107957952Y-75390476D01*
X108100809Y-75390476D01*
X108291285Y-75438095D01*
X108386523Y-75485714D01*
X108481761Y-75580952D01*
X108529380Y-75723809D01*
X108529380Y-75961904D01*
X108005571Y-74961904D02*
X108005571Y-74628571D01*
X108529380Y-74485714D02*
X108529380Y-74961904D01*
X107529380Y-74961904D01*
X107529380Y-74485714D01*
X107529380Y-74200000D02*
X108529380Y-73866666D01*
X107529380Y-73533333D01*
X108529380Y-73200000D02*
X107529380Y-73200000D01*
X108529380Y-72628571D02*
X107957952Y-73057142D01*
X107529380Y-72628571D02*
X108100809Y-73200000D01*
X108529380Y-72200000D02*
X107529380Y-72200000D01*
X107529380Y-71866666D02*
X107529380Y-71295238D01*
X108529380Y-71580952D02*
X107529380Y-71580952D01*
X108434142Y-70390476D02*
X108481761Y-70438095D01*
X108529380Y-70580952D01*
X108529380Y-70676190D01*
X108481761Y-70819047D01*
X108386523Y-70914285D01*
X108291285Y-70961904D01*
X108100809Y-71009523D01*
X107957952Y-71009523D01*
X107767476Y-70961904D01*
X107672238Y-70914285D01*
X107577000Y-70819047D01*
X107529380Y-70676190D01*
X107529380Y-70580952D01*
X107577000Y-70438095D01*
X107624619Y-70390476D01*
%TO.C,U4*%
D14*
X127627428Y-96194571D02*
X127770285Y-96242190D01*
X127817904Y-96289809D01*
X127865523Y-96385047D01*
X127865523Y-96527904D01*
X127817904Y-96623142D01*
X127770285Y-96670761D01*
X127675047Y-96718380D01*
X127294095Y-96718380D01*
X127294095Y-95718380D01*
X127627428Y-95718380D01*
X127722666Y-95766000D01*
X127770285Y-95813619D01*
X127817904Y-95908857D01*
X127817904Y-96004095D01*
X127770285Y-96099333D01*
X127722666Y-96146952D01*
X127627428Y-96194571D01*
X127294095Y-96194571D01*
X128722666Y-96718380D02*
X128722666Y-96194571D01*
X128675047Y-96099333D01*
X128579809Y-96051714D01*
X128389333Y-96051714D01*
X128294095Y-96099333D01*
X128722666Y-96670761D02*
X128627428Y-96718380D01*
X128389333Y-96718380D01*
X128294095Y-96670761D01*
X128246476Y-96575523D01*
X128246476Y-96480285D01*
X128294095Y-96385047D01*
X128389333Y-96337428D01*
X128627428Y-96337428D01*
X128722666Y-96289809D01*
X129056000Y-96051714D02*
X129436952Y-96051714D01*
X129198857Y-95718380D02*
X129198857Y-96575523D01*
X129246476Y-96670761D01*
X129341714Y-96718380D01*
X129436952Y-96718380D01*
X129627428Y-96051714D02*
X130008380Y-96051714D01*
X129770285Y-95718380D02*
X129770285Y-96575523D01*
X129817904Y-96670761D01*
X129913142Y-96718380D01*
X130008380Y-96718380D01*
X130103619Y-96813619D02*
X130865523Y-96813619D01*
X131056000Y-96432666D02*
X131532190Y-96432666D01*
X130960761Y-96718380D02*
X131294095Y-95718380D01*
X131627428Y-96718380D01*
X132103619Y-96718380D02*
X132008380Y-96670761D01*
X131960761Y-96575523D01*
X131960761Y-95718380D01*
X132484571Y-96718380D02*
X132484571Y-96051714D01*
X132484571Y-95718380D02*
X132436952Y-95766000D01*
X132484571Y-95813619D01*
X132532190Y-95766000D01*
X132484571Y-95718380D01*
X132484571Y-95813619D01*
X132960761Y-96718380D02*
X132960761Y-96051714D01*
X132960761Y-96146952D02*
X133008380Y-96099333D01*
X133103619Y-96051714D01*
X133246476Y-96051714D01*
X133341714Y-96099333D01*
X133389333Y-96194571D01*
X133389333Y-96718380D01*
X133389333Y-96194571D02*
X133436952Y-96099333D01*
X133532190Y-96051714D01*
X133675047Y-96051714D01*
X133770285Y-96099333D01*
X133817904Y-96194571D01*
X133817904Y-96718380D01*
X120904095Y-95718380D02*
X120904095Y-96527904D01*
X120951714Y-96623142D01*
X120999333Y-96670761D01*
X121094571Y-96718380D01*
X121285047Y-96718380D01*
X121380285Y-96670761D01*
X121427904Y-96623142D01*
X121475523Y-96527904D01*
X121475523Y-95718380D01*
X122380285Y-96051714D02*
X122380285Y-96718380D01*
X122142190Y-95670761D02*
X121904095Y-96385047D01*
X122523142Y-96385047D01*
%TO.C,J9*%
X98754380Y-106377809D02*
X99563904Y-106377809D01*
X99659142Y-106330190D01*
X99706761Y-106282571D01*
X99754380Y-106187333D01*
X99754380Y-105996857D01*
X99706761Y-105901619D01*
X99659142Y-105854000D01*
X99563904Y-105806380D01*
X98754380Y-105806380D01*
X99706761Y-105377809D02*
X99754380Y-105234952D01*
X99754380Y-104996857D01*
X99706761Y-104901619D01*
X99659142Y-104854000D01*
X99563904Y-104806380D01*
X99468666Y-104806380D01*
X99373428Y-104854000D01*
X99325809Y-104901619D01*
X99278190Y-104996857D01*
X99230571Y-105187333D01*
X99182952Y-105282571D01*
X99135333Y-105330190D01*
X99040095Y-105377809D01*
X98944857Y-105377809D01*
X98849619Y-105330190D01*
X98802000Y-105282571D01*
X98754380Y-105187333D01*
X98754380Y-104949238D01*
X98802000Y-104806380D01*
X99230571Y-104044476D02*
X99278190Y-103901619D01*
X99325809Y-103854000D01*
X99421047Y-103806380D01*
X99563904Y-103806380D01*
X99659142Y-103854000D01*
X99706761Y-103901619D01*
X99754380Y-103996857D01*
X99754380Y-104377809D01*
X98754380Y-104377809D01*
X98754380Y-104044476D01*
X98802000Y-103949238D01*
X98849619Y-103901619D01*
X98944857Y-103854000D01*
X99040095Y-103854000D01*
X99135333Y-103901619D01*
X99182952Y-103949238D01*
X99230571Y-104044476D01*
X99230571Y-104377809D01*
X99849619Y-103615904D02*
X99849619Y-102854000D01*
X99230571Y-102282571D02*
X99278190Y-102139714D01*
X99325809Y-102092095D01*
X99421047Y-102044476D01*
X99563904Y-102044476D01*
X99659142Y-102092095D01*
X99706761Y-102139714D01*
X99754380Y-102234952D01*
X99754380Y-102615904D01*
X98754380Y-102615904D01*
X98754380Y-102282571D01*
X98802000Y-102187333D01*
X98849619Y-102139714D01*
X98944857Y-102092095D01*
X99040095Y-102092095D01*
X99135333Y-102139714D01*
X99182952Y-102187333D01*
X99230571Y-102282571D01*
X99230571Y-102615904D01*
X99849619Y-101854000D02*
X99849619Y-101092095D01*
X99754380Y-100854000D02*
X98754380Y-100854000D01*
X99468666Y-100520666D01*
X98754380Y-100187333D01*
X99754380Y-100187333D01*
X99754380Y-99711142D02*
X99087714Y-99711142D01*
X98754380Y-99711142D02*
X98802000Y-99758761D01*
X98849619Y-99711142D01*
X98802000Y-99663523D01*
X98754380Y-99711142D01*
X98849619Y-99711142D01*
X99706761Y-98806380D02*
X99754380Y-98901619D01*
X99754380Y-99092095D01*
X99706761Y-99187333D01*
X99659142Y-99234952D01*
X99563904Y-99282571D01*
X99278190Y-99282571D01*
X99182952Y-99234952D01*
X99135333Y-99187333D01*
X99087714Y-99092095D01*
X99087714Y-98901619D01*
X99135333Y-98806380D01*
X99754380Y-98377809D02*
X99087714Y-98377809D01*
X99278190Y-98377809D02*
X99182952Y-98330190D01*
X99135333Y-98282571D01*
X99087714Y-98187333D01*
X99087714Y-98092095D01*
X99754380Y-97615904D02*
X99706761Y-97711142D01*
X99659142Y-97758761D01*
X99563904Y-97806380D01*
X99278190Y-97806380D01*
X99182952Y-97758761D01*
X99135333Y-97711142D01*
X99087714Y-97615904D01*
X99087714Y-97473047D01*
X99135333Y-97377809D01*
X99182952Y-97330190D01*
X99278190Y-97282571D01*
X99563904Y-97282571D01*
X99659142Y-97330190D01*
X99706761Y-97377809D01*
X99754380Y-97473047D01*
X99754380Y-97615904D01*
X103304380Y-102187333D02*
X104018666Y-102187333D01*
X104161523Y-102234952D01*
X104256761Y-102330190D01*
X104304380Y-102473047D01*
X104304380Y-102568285D01*
X104304380Y-101663523D02*
X104304380Y-101473047D01*
X104256761Y-101377809D01*
X104209142Y-101330190D01*
X104066285Y-101234952D01*
X103875809Y-101187333D01*
X103494857Y-101187333D01*
X103399619Y-101234952D01*
X103352000Y-101282571D01*
X103304380Y-101377809D01*
X103304380Y-101568285D01*
X103352000Y-101663523D01*
X103399619Y-101711142D01*
X103494857Y-101758761D01*
X103732952Y-101758761D01*
X103828190Y-101711142D01*
X103875809Y-101663523D01*
X103923428Y-101568285D01*
X103923428Y-101377809D01*
X103875809Y-101282571D01*
X103828190Y-101234952D01*
X103732952Y-101187333D01*
%TO.C,H3*%
X188428571Y-154652380D02*
X188428571Y-153652380D01*
X188761904Y-154366666D01*
X189095238Y-153652380D01*
X189095238Y-154652380D01*
X189714285Y-154652380D02*
X189619047Y-154604761D01*
X189571428Y-154557142D01*
X189523809Y-154461904D01*
X189523809Y-154176190D01*
X189571428Y-154080952D01*
X189619047Y-154033333D01*
X189714285Y-153985714D01*
X189857142Y-153985714D01*
X189952380Y-154033333D01*
X190000000Y-154080952D01*
X190047619Y-154176190D01*
X190047619Y-154461904D01*
X190000000Y-154557142D01*
X189952380Y-154604761D01*
X189857142Y-154652380D01*
X189714285Y-154652380D01*
X190904761Y-153985714D02*
X190904761Y-154652380D01*
X190476190Y-153985714D02*
X190476190Y-154509523D01*
X190523809Y-154604761D01*
X190619047Y-154652380D01*
X190761904Y-154652380D01*
X190857142Y-154604761D01*
X190904761Y-154557142D01*
X191380952Y-153985714D02*
X191380952Y-154652380D01*
X191380952Y-154080952D02*
X191428571Y-154033333D01*
X191523809Y-153985714D01*
X191666666Y-153985714D01*
X191761904Y-154033333D01*
X191809523Y-154128571D01*
X191809523Y-154652380D01*
X192142857Y-153985714D02*
X192523809Y-153985714D01*
X192285714Y-153652380D02*
X192285714Y-154509523D01*
X192333333Y-154604761D01*
X192428571Y-154652380D01*
X192523809Y-154652380D01*
X192857142Y-154652380D02*
X192857142Y-153985714D01*
X192857142Y-153652380D02*
X192809523Y-153700000D01*
X192857142Y-153747619D01*
X192904761Y-153700000D01*
X192857142Y-153652380D01*
X192857142Y-153747619D01*
X193333333Y-153985714D02*
X193333333Y-154652380D01*
X193333333Y-154080952D02*
X193380952Y-154033333D01*
X193476190Y-153985714D01*
X193619047Y-153985714D01*
X193714285Y-154033333D01*
X193761904Y-154128571D01*
X193761904Y-154652380D01*
X194666666Y-153985714D02*
X194666666Y-154795238D01*
X194619047Y-154890476D01*
X194571428Y-154938095D01*
X194476190Y-154985714D01*
X194333333Y-154985714D01*
X194238095Y-154938095D01*
X194666666Y-154604761D02*
X194571428Y-154652380D01*
X194380952Y-154652380D01*
X194285714Y-154604761D01*
X194238095Y-154557142D01*
X194190476Y-154461904D01*
X194190476Y-154176190D01*
X194238095Y-154080952D01*
X194285714Y-154033333D01*
X194380952Y-153985714D01*
X194571428Y-153985714D01*
X194666666Y-154033333D01*
X195142857Y-154652380D02*
X195142857Y-153652380D01*
X195142857Y-154128571D02*
X195714285Y-154128571D01*
X195714285Y-154652380D02*
X195714285Y-153652380D01*
X196333333Y-154652380D02*
X196238095Y-154604761D01*
X196190476Y-154557142D01*
X196142857Y-154461904D01*
X196142857Y-154176190D01*
X196190476Y-154080952D01*
X196238095Y-154033333D01*
X196333333Y-153985714D01*
X196476190Y-153985714D01*
X196571428Y-154033333D01*
X196619047Y-154080952D01*
X196666666Y-154176190D01*
X196666666Y-154461904D01*
X196619047Y-154557142D01*
X196571428Y-154604761D01*
X196476190Y-154652380D01*
X196333333Y-154652380D01*
X197238095Y-154652380D02*
X197142857Y-154604761D01*
X197095238Y-154509523D01*
X197095238Y-153652380D01*
X198000000Y-154604761D02*
X197904761Y-154652380D01*
X197714285Y-154652380D01*
X197619047Y-154604761D01*
X197571428Y-154509523D01*
X197571428Y-154128571D01*
X197619047Y-154033333D01*
X197714285Y-153985714D01*
X197904761Y-153985714D01*
X198000000Y-154033333D01*
X198047619Y-154128571D01*
X198047619Y-154223809D01*
X197571428Y-154319047D01*
X198238095Y-154747619D02*
X199000000Y-154747619D01*
X199238095Y-154652380D02*
X199238095Y-153652380D01*
X199619047Y-153652380D01*
X199714285Y-153700000D01*
X199761904Y-153747619D01*
X199809523Y-153842857D01*
X199809523Y-153985714D01*
X199761904Y-154080952D01*
X199714285Y-154128571D01*
X199619047Y-154176190D01*
X199238095Y-154176190D01*
X200666666Y-154652380D02*
X200666666Y-154128571D01*
X200619047Y-154033333D01*
X200523809Y-153985714D01*
X200333333Y-153985714D01*
X200238095Y-154033333D01*
X200666666Y-154604761D02*
X200571428Y-154652380D01*
X200333333Y-154652380D01*
X200238095Y-154604761D01*
X200190476Y-154509523D01*
X200190476Y-154414285D01*
X200238095Y-154319047D01*
X200333333Y-154271428D01*
X200571428Y-154271428D01*
X200666666Y-154223809D01*
X201571428Y-154652380D02*
X201571428Y-153652380D01*
X201571428Y-154604761D02*
X201476190Y-154652380D01*
X201285714Y-154652380D01*
X201190476Y-154604761D01*
X201142857Y-154557142D01*
X201095238Y-154461904D01*
X201095238Y-154176190D01*
X201142857Y-154080952D01*
X201190476Y-154033333D01*
X201285714Y-153985714D01*
X201476190Y-153985714D01*
X201571428Y-154033333D01*
X194538095Y-150452380D02*
X194538095Y-149452380D01*
X194538095Y-149928571D02*
X195109523Y-149928571D01*
X195109523Y-150452380D02*
X195109523Y-149452380D01*
X195490476Y-149452380D02*
X196109523Y-149452380D01*
X195776190Y-149833333D01*
X195919047Y-149833333D01*
X196014285Y-149880952D01*
X196061904Y-149928571D01*
X196109523Y-150023809D01*
X196109523Y-150261904D01*
X196061904Y-150357142D01*
X196014285Y-150404761D01*
X195919047Y-150452380D01*
X195633333Y-150452380D01*
X195538095Y-150404761D01*
X195490476Y-150357142D01*
%TO.C,H1*%
X98428571Y-64652380D02*
X98428571Y-63652380D01*
X98761904Y-64366666D01*
X99095238Y-63652380D01*
X99095238Y-64652380D01*
X99714285Y-64652380D02*
X99619047Y-64604761D01*
X99571428Y-64557142D01*
X99523809Y-64461904D01*
X99523809Y-64176190D01*
X99571428Y-64080952D01*
X99619047Y-64033333D01*
X99714285Y-63985714D01*
X99857142Y-63985714D01*
X99952380Y-64033333D01*
X100000000Y-64080952D01*
X100047619Y-64176190D01*
X100047619Y-64461904D01*
X100000000Y-64557142D01*
X99952380Y-64604761D01*
X99857142Y-64652380D01*
X99714285Y-64652380D01*
X100904761Y-63985714D02*
X100904761Y-64652380D01*
X100476190Y-63985714D02*
X100476190Y-64509523D01*
X100523809Y-64604761D01*
X100619047Y-64652380D01*
X100761904Y-64652380D01*
X100857142Y-64604761D01*
X100904761Y-64557142D01*
X101380952Y-63985714D02*
X101380952Y-64652380D01*
X101380952Y-64080952D02*
X101428571Y-64033333D01*
X101523809Y-63985714D01*
X101666666Y-63985714D01*
X101761904Y-64033333D01*
X101809523Y-64128571D01*
X101809523Y-64652380D01*
X102142857Y-63985714D02*
X102523809Y-63985714D01*
X102285714Y-63652380D02*
X102285714Y-64509523D01*
X102333333Y-64604761D01*
X102428571Y-64652380D01*
X102523809Y-64652380D01*
X102857142Y-64652380D02*
X102857142Y-63985714D01*
X102857142Y-63652380D02*
X102809523Y-63700000D01*
X102857142Y-63747619D01*
X102904761Y-63700000D01*
X102857142Y-63652380D01*
X102857142Y-63747619D01*
X103333333Y-63985714D02*
X103333333Y-64652380D01*
X103333333Y-64080952D02*
X103380952Y-64033333D01*
X103476190Y-63985714D01*
X103619047Y-63985714D01*
X103714285Y-64033333D01*
X103761904Y-64128571D01*
X103761904Y-64652380D01*
X104666666Y-63985714D02*
X104666666Y-64795238D01*
X104619047Y-64890476D01*
X104571428Y-64938095D01*
X104476190Y-64985714D01*
X104333333Y-64985714D01*
X104238095Y-64938095D01*
X104666666Y-64604761D02*
X104571428Y-64652380D01*
X104380952Y-64652380D01*
X104285714Y-64604761D01*
X104238095Y-64557142D01*
X104190476Y-64461904D01*
X104190476Y-64176190D01*
X104238095Y-64080952D01*
X104285714Y-64033333D01*
X104380952Y-63985714D01*
X104571428Y-63985714D01*
X104666666Y-64033333D01*
X105142857Y-64652380D02*
X105142857Y-63652380D01*
X105142857Y-64128571D02*
X105714285Y-64128571D01*
X105714285Y-64652380D02*
X105714285Y-63652380D01*
X106333333Y-64652380D02*
X106238095Y-64604761D01*
X106190476Y-64557142D01*
X106142857Y-64461904D01*
X106142857Y-64176190D01*
X106190476Y-64080952D01*
X106238095Y-64033333D01*
X106333333Y-63985714D01*
X106476190Y-63985714D01*
X106571428Y-64033333D01*
X106619047Y-64080952D01*
X106666666Y-64176190D01*
X106666666Y-64461904D01*
X106619047Y-64557142D01*
X106571428Y-64604761D01*
X106476190Y-64652380D01*
X106333333Y-64652380D01*
X107238095Y-64652380D02*
X107142857Y-64604761D01*
X107095238Y-64509523D01*
X107095238Y-63652380D01*
X108000000Y-64604761D02*
X107904761Y-64652380D01*
X107714285Y-64652380D01*
X107619047Y-64604761D01*
X107571428Y-64509523D01*
X107571428Y-64128571D01*
X107619047Y-64033333D01*
X107714285Y-63985714D01*
X107904761Y-63985714D01*
X108000000Y-64033333D01*
X108047619Y-64128571D01*
X108047619Y-64223809D01*
X107571428Y-64319047D01*
X108238095Y-64747619D02*
X109000000Y-64747619D01*
X109238095Y-64652380D02*
X109238095Y-63652380D01*
X109619047Y-63652380D01*
X109714285Y-63700000D01*
X109761904Y-63747619D01*
X109809523Y-63842857D01*
X109809523Y-63985714D01*
X109761904Y-64080952D01*
X109714285Y-64128571D01*
X109619047Y-64176190D01*
X109238095Y-64176190D01*
X110666666Y-64652380D02*
X110666666Y-64128571D01*
X110619047Y-64033333D01*
X110523809Y-63985714D01*
X110333333Y-63985714D01*
X110238095Y-64033333D01*
X110666666Y-64604761D02*
X110571428Y-64652380D01*
X110333333Y-64652380D01*
X110238095Y-64604761D01*
X110190476Y-64509523D01*
X110190476Y-64414285D01*
X110238095Y-64319047D01*
X110333333Y-64271428D01*
X110571428Y-64271428D01*
X110666666Y-64223809D01*
X111571428Y-64652380D02*
X111571428Y-63652380D01*
X111571428Y-64604761D02*
X111476190Y-64652380D01*
X111285714Y-64652380D01*
X111190476Y-64604761D01*
X111142857Y-64557142D01*
X111095238Y-64461904D01*
X111095238Y-64176190D01*
X111142857Y-64080952D01*
X111190476Y-64033333D01*
X111285714Y-63985714D01*
X111476190Y-63985714D01*
X111571428Y-64033333D01*
X104538095Y-60452380D02*
X104538095Y-59452380D01*
X104538095Y-59928571D02*
X105109523Y-59928571D01*
X105109523Y-60452380D02*
X105109523Y-59452380D01*
X106109523Y-60452380D02*
X105538095Y-60452380D01*
X105823809Y-60452380D02*
X105823809Y-59452380D01*
X105728571Y-59595238D01*
X105633333Y-59690476D01*
X105538095Y-59738095D01*
%TO.C,H2*%
X188428571Y-64652380D02*
X188428571Y-63652380D01*
X188761904Y-64366666D01*
X189095238Y-63652380D01*
X189095238Y-64652380D01*
X189714285Y-64652380D02*
X189619047Y-64604761D01*
X189571428Y-64557142D01*
X189523809Y-64461904D01*
X189523809Y-64176190D01*
X189571428Y-64080952D01*
X189619047Y-64033333D01*
X189714285Y-63985714D01*
X189857142Y-63985714D01*
X189952380Y-64033333D01*
X190000000Y-64080952D01*
X190047619Y-64176190D01*
X190047619Y-64461904D01*
X190000000Y-64557142D01*
X189952380Y-64604761D01*
X189857142Y-64652380D01*
X189714285Y-64652380D01*
X190904761Y-63985714D02*
X190904761Y-64652380D01*
X190476190Y-63985714D02*
X190476190Y-64509523D01*
X190523809Y-64604761D01*
X190619047Y-64652380D01*
X190761904Y-64652380D01*
X190857142Y-64604761D01*
X190904761Y-64557142D01*
X191380952Y-63985714D02*
X191380952Y-64652380D01*
X191380952Y-64080952D02*
X191428571Y-64033333D01*
X191523809Y-63985714D01*
X191666666Y-63985714D01*
X191761904Y-64033333D01*
X191809523Y-64128571D01*
X191809523Y-64652380D01*
X192142857Y-63985714D02*
X192523809Y-63985714D01*
X192285714Y-63652380D02*
X192285714Y-64509523D01*
X192333333Y-64604761D01*
X192428571Y-64652380D01*
X192523809Y-64652380D01*
X192857142Y-64652380D02*
X192857142Y-63985714D01*
X192857142Y-63652380D02*
X192809523Y-63700000D01*
X192857142Y-63747619D01*
X192904761Y-63700000D01*
X192857142Y-63652380D01*
X192857142Y-63747619D01*
X193333333Y-63985714D02*
X193333333Y-64652380D01*
X193333333Y-64080952D02*
X193380952Y-64033333D01*
X193476190Y-63985714D01*
X193619047Y-63985714D01*
X193714285Y-64033333D01*
X193761904Y-64128571D01*
X193761904Y-64652380D01*
X194666666Y-63985714D02*
X194666666Y-64795238D01*
X194619047Y-64890476D01*
X194571428Y-64938095D01*
X194476190Y-64985714D01*
X194333333Y-64985714D01*
X194238095Y-64938095D01*
X194666666Y-64604761D02*
X194571428Y-64652380D01*
X194380952Y-64652380D01*
X194285714Y-64604761D01*
X194238095Y-64557142D01*
X194190476Y-64461904D01*
X194190476Y-64176190D01*
X194238095Y-64080952D01*
X194285714Y-64033333D01*
X194380952Y-63985714D01*
X194571428Y-63985714D01*
X194666666Y-64033333D01*
X195142857Y-64652380D02*
X195142857Y-63652380D01*
X195142857Y-64128571D02*
X195714285Y-64128571D01*
X195714285Y-64652380D02*
X195714285Y-63652380D01*
X196333333Y-64652380D02*
X196238095Y-64604761D01*
X196190476Y-64557142D01*
X196142857Y-64461904D01*
X196142857Y-64176190D01*
X196190476Y-64080952D01*
X196238095Y-64033333D01*
X196333333Y-63985714D01*
X196476190Y-63985714D01*
X196571428Y-64033333D01*
X196619047Y-64080952D01*
X196666666Y-64176190D01*
X196666666Y-64461904D01*
X196619047Y-64557142D01*
X196571428Y-64604761D01*
X196476190Y-64652380D01*
X196333333Y-64652380D01*
X197238095Y-64652380D02*
X197142857Y-64604761D01*
X197095238Y-64509523D01*
X197095238Y-63652380D01*
X198000000Y-64604761D02*
X197904761Y-64652380D01*
X197714285Y-64652380D01*
X197619047Y-64604761D01*
X197571428Y-64509523D01*
X197571428Y-64128571D01*
X197619047Y-64033333D01*
X197714285Y-63985714D01*
X197904761Y-63985714D01*
X198000000Y-64033333D01*
X198047619Y-64128571D01*
X198047619Y-64223809D01*
X197571428Y-64319047D01*
X198238095Y-64747619D02*
X199000000Y-64747619D01*
X199238095Y-64652380D02*
X199238095Y-63652380D01*
X199619047Y-63652380D01*
X199714285Y-63700000D01*
X199761904Y-63747619D01*
X199809523Y-63842857D01*
X199809523Y-63985714D01*
X199761904Y-64080952D01*
X199714285Y-64128571D01*
X199619047Y-64176190D01*
X199238095Y-64176190D01*
X200666666Y-64652380D02*
X200666666Y-64128571D01*
X200619047Y-64033333D01*
X200523809Y-63985714D01*
X200333333Y-63985714D01*
X200238095Y-64033333D01*
X200666666Y-64604761D02*
X200571428Y-64652380D01*
X200333333Y-64652380D01*
X200238095Y-64604761D01*
X200190476Y-64509523D01*
X200190476Y-64414285D01*
X200238095Y-64319047D01*
X200333333Y-64271428D01*
X200571428Y-64271428D01*
X200666666Y-64223809D01*
X201571428Y-64652380D02*
X201571428Y-63652380D01*
X201571428Y-64604761D02*
X201476190Y-64652380D01*
X201285714Y-64652380D01*
X201190476Y-64604761D01*
X201142857Y-64557142D01*
X201095238Y-64461904D01*
X201095238Y-64176190D01*
X201142857Y-64080952D01*
X201190476Y-64033333D01*
X201285714Y-63985714D01*
X201476190Y-63985714D01*
X201571428Y-64033333D01*
X194538095Y-60452380D02*
X194538095Y-59452380D01*
X194538095Y-59928571D02*
X195109523Y-59928571D01*
X195109523Y-60452380D02*
X195109523Y-59452380D01*
X195538095Y-59547619D02*
X195585714Y-59500000D01*
X195680952Y-59452380D01*
X195919047Y-59452380D01*
X196014285Y-59500000D01*
X196061904Y-59547619D01*
X196109523Y-59642857D01*
X196109523Y-59738095D01*
X196061904Y-59880952D01*
X195490476Y-60452380D01*
X196109523Y-60452380D01*
%TO.C,H4*%
X98428571Y-154652380D02*
X98428571Y-153652380D01*
X98761904Y-154366666D01*
X99095238Y-153652380D01*
X99095238Y-154652380D01*
X99714285Y-154652380D02*
X99619047Y-154604761D01*
X99571428Y-154557142D01*
X99523809Y-154461904D01*
X99523809Y-154176190D01*
X99571428Y-154080952D01*
X99619047Y-154033333D01*
X99714285Y-153985714D01*
X99857142Y-153985714D01*
X99952380Y-154033333D01*
X100000000Y-154080952D01*
X100047619Y-154176190D01*
X100047619Y-154461904D01*
X100000000Y-154557142D01*
X99952380Y-154604761D01*
X99857142Y-154652380D01*
X99714285Y-154652380D01*
X100904761Y-153985714D02*
X100904761Y-154652380D01*
X100476190Y-153985714D02*
X100476190Y-154509523D01*
X100523809Y-154604761D01*
X100619047Y-154652380D01*
X100761904Y-154652380D01*
X100857142Y-154604761D01*
X100904761Y-154557142D01*
X101380952Y-153985714D02*
X101380952Y-154652380D01*
X101380952Y-154080952D02*
X101428571Y-154033333D01*
X101523809Y-153985714D01*
X101666666Y-153985714D01*
X101761904Y-154033333D01*
X101809523Y-154128571D01*
X101809523Y-154652380D01*
X102142857Y-153985714D02*
X102523809Y-153985714D01*
X102285714Y-153652380D02*
X102285714Y-154509523D01*
X102333333Y-154604761D01*
X102428571Y-154652380D01*
X102523809Y-154652380D01*
X102857142Y-154652380D02*
X102857142Y-153985714D01*
X102857142Y-153652380D02*
X102809523Y-153700000D01*
X102857142Y-153747619D01*
X102904761Y-153700000D01*
X102857142Y-153652380D01*
X102857142Y-153747619D01*
X103333333Y-153985714D02*
X103333333Y-154652380D01*
X103333333Y-154080952D02*
X103380952Y-154033333D01*
X103476190Y-153985714D01*
X103619047Y-153985714D01*
X103714285Y-154033333D01*
X103761904Y-154128571D01*
X103761904Y-154652380D01*
X104666666Y-153985714D02*
X104666666Y-154795238D01*
X104619047Y-154890476D01*
X104571428Y-154938095D01*
X104476190Y-154985714D01*
X104333333Y-154985714D01*
X104238095Y-154938095D01*
X104666666Y-154604761D02*
X104571428Y-154652380D01*
X104380952Y-154652380D01*
X104285714Y-154604761D01*
X104238095Y-154557142D01*
X104190476Y-154461904D01*
X104190476Y-154176190D01*
X104238095Y-154080952D01*
X104285714Y-154033333D01*
X104380952Y-153985714D01*
X104571428Y-153985714D01*
X104666666Y-154033333D01*
X105142857Y-154652380D02*
X105142857Y-153652380D01*
X105142857Y-154128571D02*
X105714285Y-154128571D01*
X105714285Y-154652380D02*
X105714285Y-153652380D01*
X106333333Y-154652380D02*
X106238095Y-154604761D01*
X106190476Y-154557142D01*
X106142857Y-154461904D01*
X106142857Y-154176190D01*
X106190476Y-154080952D01*
X106238095Y-154033333D01*
X106333333Y-153985714D01*
X106476190Y-153985714D01*
X106571428Y-154033333D01*
X106619047Y-154080952D01*
X106666666Y-154176190D01*
X106666666Y-154461904D01*
X106619047Y-154557142D01*
X106571428Y-154604761D01*
X106476190Y-154652380D01*
X106333333Y-154652380D01*
X107238095Y-154652380D02*
X107142857Y-154604761D01*
X107095238Y-154509523D01*
X107095238Y-153652380D01*
X108000000Y-154604761D02*
X107904761Y-154652380D01*
X107714285Y-154652380D01*
X107619047Y-154604761D01*
X107571428Y-154509523D01*
X107571428Y-154128571D01*
X107619047Y-154033333D01*
X107714285Y-153985714D01*
X107904761Y-153985714D01*
X108000000Y-154033333D01*
X108047619Y-154128571D01*
X108047619Y-154223809D01*
X107571428Y-154319047D01*
X108238095Y-154747619D02*
X109000000Y-154747619D01*
X109238095Y-154652380D02*
X109238095Y-153652380D01*
X109619047Y-153652380D01*
X109714285Y-153700000D01*
X109761904Y-153747619D01*
X109809523Y-153842857D01*
X109809523Y-153985714D01*
X109761904Y-154080952D01*
X109714285Y-154128571D01*
X109619047Y-154176190D01*
X109238095Y-154176190D01*
X110666666Y-154652380D02*
X110666666Y-154128571D01*
X110619047Y-154033333D01*
X110523809Y-153985714D01*
X110333333Y-153985714D01*
X110238095Y-154033333D01*
X110666666Y-154604761D02*
X110571428Y-154652380D01*
X110333333Y-154652380D01*
X110238095Y-154604761D01*
X110190476Y-154509523D01*
X110190476Y-154414285D01*
X110238095Y-154319047D01*
X110333333Y-154271428D01*
X110571428Y-154271428D01*
X110666666Y-154223809D01*
X111571428Y-154652380D02*
X111571428Y-153652380D01*
X111571428Y-154604761D02*
X111476190Y-154652380D01*
X111285714Y-154652380D01*
X111190476Y-154604761D01*
X111142857Y-154557142D01*
X111095238Y-154461904D01*
X111095238Y-154176190D01*
X111142857Y-154080952D01*
X111190476Y-154033333D01*
X111285714Y-153985714D01*
X111476190Y-153985714D01*
X111571428Y-154033333D01*
X104538095Y-150452380D02*
X104538095Y-149452380D01*
X104538095Y-149928571D02*
X105109523Y-149928571D01*
X105109523Y-150452380D02*
X105109523Y-149452380D01*
X106014285Y-149785714D02*
X106014285Y-150452380D01*
X105776190Y-149404761D02*
X105538095Y-150119047D01*
X106157142Y-150119047D01*
%TO.C,J18*%
X149427142Y-117256095D02*
X149474761Y-117303714D01*
X149522380Y-117446571D01*
X149522380Y-117541809D01*
X149474761Y-117684666D01*
X149379523Y-117779904D01*
X149284285Y-117827523D01*
X149093809Y-117875142D01*
X148950952Y-117875142D01*
X148760476Y-117827523D01*
X148665238Y-117779904D01*
X148570000Y-117684666D01*
X148522380Y-117541809D01*
X148522380Y-117446571D01*
X148570000Y-117303714D01*
X148617619Y-117256095D01*
X149522380Y-116684666D02*
X149474761Y-116779904D01*
X149427142Y-116827523D01*
X149331904Y-116875142D01*
X149046190Y-116875142D01*
X148950952Y-116827523D01*
X148903333Y-116779904D01*
X148855714Y-116684666D01*
X148855714Y-116541809D01*
X148903333Y-116446571D01*
X148950952Y-116398952D01*
X149046190Y-116351333D01*
X149331904Y-116351333D01*
X149427142Y-116398952D01*
X149474761Y-116446571D01*
X149522380Y-116541809D01*
X149522380Y-116684666D01*
X148855714Y-115922761D02*
X149522380Y-115922761D01*
X148950952Y-115922761D02*
X148903333Y-115875142D01*
X148855714Y-115779904D01*
X148855714Y-115637047D01*
X148903333Y-115541809D01*
X148998571Y-115494190D01*
X149522380Y-115494190D01*
X148855714Y-115018000D02*
X149522380Y-115018000D01*
X148950952Y-115018000D02*
X148903333Y-114970380D01*
X148855714Y-114875142D01*
X148855714Y-114732285D01*
X148903333Y-114637047D01*
X148998571Y-114589428D01*
X149522380Y-114589428D01*
X149617619Y-114351333D02*
X149617619Y-113589428D01*
X148522380Y-113160857D02*
X148522380Y-113065619D01*
X148570000Y-112970380D01*
X148617619Y-112922761D01*
X148712857Y-112875142D01*
X148903333Y-112827523D01*
X149141428Y-112827523D01*
X149331904Y-112875142D01*
X149427142Y-112922761D01*
X149474761Y-112970380D01*
X149522380Y-113065619D01*
X149522380Y-113160857D01*
X149474761Y-113256095D01*
X149427142Y-113303714D01*
X149331904Y-113351333D01*
X149141428Y-113398952D01*
X148903333Y-113398952D01*
X148712857Y-113351333D01*
X148617619Y-113303714D01*
X148570000Y-113256095D01*
X148522380Y-113160857D01*
X149522380Y-111875142D02*
X149522380Y-112446571D01*
X149522380Y-112160857D02*
X148522380Y-112160857D01*
X148665238Y-112256095D01*
X148760476Y-112351333D01*
X148808095Y-112446571D01*
X149522380Y-111541809D02*
X148855714Y-111018000D01*
X148855714Y-111541809D02*
X149522380Y-111018000D01*
X148522380Y-110446571D02*
X148522380Y-110351333D01*
X148570000Y-110256095D01*
X148617619Y-110208476D01*
X148712857Y-110160857D01*
X148903333Y-110113238D01*
X149141428Y-110113238D01*
X149331904Y-110160857D01*
X149427142Y-110208476D01*
X149474761Y-110256095D01*
X149522380Y-110351333D01*
X149522380Y-110446571D01*
X149474761Y-110541809D01*
X149427142Y-110589428D01*
X149331904Y-110637047D01*
X149141428Y-110684666D01*
X148903333Y-110684666D01*
X148712857Y-110637047D01*
X148617619Y-110589428D01*
X148570000Y-110541809D01*
X148522380Y-110446571D01*
X148617619Y-109732285D02*
X148570000Y-109684666D01*
X148522380Y-109589428D01*
X148522380Y-109351333D01*
X148570000Y-109256095D01*
X148617619Y-109208476D01*
X148712857Y-109160857D01*
X148808095Y-109160857D01*
X148950952Y-109208476D01*
X149522380Y-109779904D01*
X149522380Y-109160857D01*
X150422380Y-114327523D02*
X151136666Y-114327523D01*
X151279523Y-114375142D01*
X151374761Y-114470380D01*
X151422380Y-114613238D01*
X151422380Y-114708476D01*
X151422380Y-113327523D02*
X151422380Y-113898952D01*
X151422380Y-113613238D02*
X150422380Y-113613238D01*
X150565238Y-113708476D01*
X150660476Y-113803714D01*
X150708095Y-113898952D01*
X150850952Y-112756095D02*
X150803333Y-112851333D01*
X150755714Y-112898952D01*
X150660476Y-112946571D01*
X150612857Y-112946571D01*
X150517619Y-112898952D01*
X150470000Y-112851333D01*
X150422380Y-112756095D01*
X150422380Y-112565619D01*
X150470000Y-112470380D01*
X150517619Y-112422761D01*
X150612857Y-112375142D01*
X150660476Y-112375142D01*
X150755714Y-112422761D01*
X150803333Y-112470380D01*
X150850952Y-112565619D01*
X150850952Y-112756095D01*
X150898571Y-112851333D01*
X150946190Y-112898952D01*
X151041428Y-112946571D01*
X151231904Y-112946571D01*
X151327142Y-112898952D01*
X151374761Y-112851333D01*
X151422380Y-112756095D01*
X151422380Y-112565619D01*
X151374761Y-112470380D01*
X151327142Y-112422761D01*
X151231904Y-112375142D01*
X151041428Y-112375142D01*
X150946190Y-112422761D01*
X150898571Y-112470380D01*
X150850952Y-112565619D01*
%TO.C,J26*%
X149427142Y-108366095D02*
X149474761Y-108413714D01*
X149522380Y-108556571D01*
X149522380Y-108651809D01*
X149474761Y-108794666D01*
X149379523Y-108889904D01*
X149284285Y-108937523D01*
X149093809Y-108985142D01*
X148950952Y-108985142D01*
X148760476Y-108937523D01*
X148665238Y-108889904D01*
X148570000Y-108794666D01*
X148522380Y-108651809D01*
X148522380Y-108556571D01*
X148570000Y-108413714D01*
X148617619Y-108366095D01*
X149522380Y-107794666D02*
X149474761Y-107889904D01*
X149427142Y-107937523D01*
X149331904Y-107985142D01*
X149046190Y-107985142D01*
X148950952Y-107937523D01*
X148903333Y-107889904D01*
X148855714Y-107794666D01*
X148855714Y-107651809D01*
X148903333Y-107556571D01*
X148950952Y-107508952D01*
X149046190Y-107461333D01*
X149331904Y-107461333D01*
X149427142Y-107508952D01*
X149474761Y-107556571D01*
X149522380Y-107651809D01*
X149522380Y-107794666D01*
X148855714Y-107032761D02*
X149522380Y-107032761D01*
X148950952Y-107032761D02*
X148903333Y-106985142D01*
X148855714Y-106889904D01*
X148855714Y-106747047D01*
X148903333Y-106651809D01*
X148998571Y-106604190D01*
X149522380Y-106604190D01*
X148855714Y-106128000D02*
X149522380Y-106128000D01*
X148950952Y-106128000D02*
X148903333Y-106080380D01*
X148855714Y-105985142D01*
X148855714Y-105842285D01*
X148903333Y-105747047D01*
X148998571Y-105699428D01*
X149522380Y-105699428D01*
X149617619Y-105461333D02*
X149617619Y-104699428D01*
X148522380Y-104270857D02*
X148522380Y-104175619D01*
X148570000Y-104080380D01*
X148617619Y-104032761D01*
X148712857Y-103985142D01*
X148903333Y-103937523D01*
X149141428Y-103937523D01*
X149331904Y-103985142D01*
X149427142Y-104032761D01*
X149474761Y-104080380D01*
X149522380Y-104175619D01*
X149522380Y-104270857D01*
X149474761Y-104366095D01*
X149427142Y-104413714D01*
X149331904Y-104461333D01*
X149141428Y-104508952D01*
X148903333Y-104508952D01*
X148712857Y-104461333D01*
X148617619Y-104413714D01*
X148570000Y-104366095D01*
X148522380Y-104270857D01*
X149522380Y-102985142D02*
X149522380Y-103556571D01*
X149522380Y-103270857D02*
X148522380Y-103270857D01*
X148665238Y-103366095D01*
X148760476Y-103461333D01*
X148808095Y-103556571D01*
X149522380Y-102651809D02*
X148855714Y-102128000D01*
X148855714Y-102651809D02*
X149522380Y-102128000D01*
X148522380Y-101556571D02*
X148522380Y-101461333D01*
X148570000Y-101366095D01*
X148617619Y-101318476D01*
X148712857Y-101270857D01*
X148903333Y-101223238D01*
X149141428Y-101223238D01*
X149331904Y-101270857D01*
X149427142Y-101318476D01*
X149474761Y-101366095D01*
X149522380Y-101461333D01*
X149522380Y-101556571D01*
X149474761Y-101651809D01*
X149427142Y-101699428D01*
X149331904Y-101747047D01*
X149141428Y-101794666D01*
X148903333Y-101794666D01*
X148712857Y-101747047D01*
X148617619Y-101699428D01*
X148570000Y-101651809D01*
X148522380Y-101556571D01*
X148617619Y-100842285D02*
X148570000Y-100794666D01*
X148522380Y-100699428D01*
X148522380Y-100461333D01*
X148570000Y-100366095D01*
X148617619Y-100318476D01*
X148712857Y-100270857D01*
X148808095Y-100270857D01*
X148950952Y-100318476D01*
X149522380Y-100889904D01*
X149522380Y-100270857D01*
X150422380Y-105437523D02*
X151136666Y-105437523D01*
X151279523Y-105485142D01*
X151374761Y-105580380D01*
X151422380Y-105723238D01*
X151422380Y-105818476D01*
X150517619Y-105008952D02*
X150470000Y-104961333D01*
X150422380Y-104866095D01*
X150422380Y-104628000D01*
X150470000Y-104532761D01*
X150517619Y-104485142D01*
X150612857Y-104437523D01*
X150708095Y-104437523D01*
X150850952Y-104485142D01*
X151422380Y-105056571D01*
X151422380Y-104437523D01*
X150422380Y-103580380D02*
X150422380Y-103770857D01*
X150470000Y-103866095D01*
X150517619Y-103913714D01*
X150660476Y-104008952D01*
X150850952Y-104056571D01*
X151231904Y-104056571D01*
X151327142Y-104008952D01*
X151374761Y-103961333D01*
X151422380Y-103866095D01*
X151422380Y-103675619D01*
X151374761Y-103580380D01*
X151327142Y-103532761D01*
X151231904Y-103485142D01*
X150993809Y-103485142D01*
X150898571Y-103532761D01*
X150850952Y-103580380D01*
X150803333Y-103675619D01*
X150803333Y-103866095D01*
X150850952Y-103961333D01*
X150898571Y-104008952D01*
X150993809Y-104056571D01*
%TO.C,J29*%
X200029142Y-138378095D02*
X200076761Y-138425714D01*
X200124380Y-138568571D01*
X200124380Y-138663809D01*
X200076761Y-138806666D01*
X199981523Y-138901904D01*
X199886285Y-138949523D01*
X199695809Y-138997142D01*
X199552952Y-138997142D01*
X199362476Y-138949523D01*
X199267238Y-138901904D01*
X199172000Y-138806666D01*
X199124380Y-138663809D01*
X199124380Y-138568571D01*
X199172000Y-138425714D01*
X199219619Y-138378095D01*
X200124380Y-137806666D02*
X200076761Y-137901904D01*
X200029142Y-137949523D01*
X199933904Y-137997142D01*
X199648190Y-137997142D01*
X199552952Y-137949523D01*
X199505333Y-137901904D01*
X199457714Y-137806666D01*
X199457714Y-137663809D01*
X199505333Y-137568571D01*
X199552952Y-137520952D01*
X199648190Y-137473333D01*
X199933904Y-137473333D01*
X200029142Y-137520952D01*
X200076761Y-137568571D01*
X200124380Y-137663809D01*
X200124380Y-137806666D01*
X199457714Y-137044761D02*
X200124380Y-137044761D01*
X199552952Y-137044761D02*
X199505333Y-136997142D01*
X199457714Y-136901904D01*
X199457714Y-136759047D01*
X199505333Y-136663809D01*
X199600571Y-136616190D01*
X200124380Y-136616190D01*
X199457714Y-136140000D02*
X200124380Y-136140000D01*
X199552952Y-136140000D02*
X199505333Y-136092380D01*
X199457714Y-135997142D01*
X199457714Y-135854285D01*
X199505333Y-135759047D01*
X199600571Y-135711428D01*
X200124380Y-135711428D01*
X200219619Y-135473333D02*
X200219619Y-134711428D01*
X199124380Y-134282857D02*
X199124380Y-134187619D01*
X199172000Y-134092380D01*
X199219619Y-134044761D01*
X199314857Y-133997142D01*
X199505333Y-133949523D01*
X199743428Y-133949523D01*
X199933904Y-133997142D01*
X200029142Y-134044761D01*
X200076761Y-134092380D01*
X200124380Y-134187619D01*
X200124380Y-134282857D01*
X200076761Y-134378095D01*
X200029142Y-134425714D01*
X199933904Y-134473333D01*
X199743428Y-134520952D01*
X199505333Y-134520952D01*
X199314857Y-134473333D01*
X199219619Y-134425714D01*
X199172000Y-134378095D01*
X199124380Y-134282857D01*
X200124380Y-132997142D02*
X200124380Y-133568571D01*
X200124380Y-133282857D02*
X199124380Y-133282857D01*
X199267238Y-133378095D01*
X199362476Y-133473333D01*
X199410095Y-133568571D01*
X200124380Y-132663809D02*
X199457714Y-132140000D01*
X199457714Y-132663809D02*
X200124380Y-132140000D01*
X199124380Y-131568571D02*
X199124380Y-131473333D01*
X199172000Y-131378095D01*
X199219619Y-131330476D01*
X199314857Y-131282857D01*
X199505333Y-131235238D01*
X199743428Y-131235238D01*
X199933904Y-131282857D01*
X200029142Y-131330476D01*
X200076761Y-131378095D01*
X200124380Y-131473333D01*
X200124380Y-131568571D01*
X200076761Y-131663809D01*
X200029142Y-131711428D01*
X199933904Y-131759047D01*
X199743428Y-131806666D01*
X199505333Y-131806666D01*
X199314857Y-131759047D01*
X199219619Y-131711428D01*
X199172000Y-131663809D01*
X199124380Y-131568571D01*
X199219619Y-130854285D02*
X199172000Y-130806666D01*
X199124380Y-130711428D01*
X199124380Y-130473333D01*
X199172000Y-130378095D01*
X199219619Y-130330476D01*
X199314857Y-130282857D01*
X199410095Y-130282857D01*
X199552952Y-130330476D01*
X200124380Y-130901904D01*
X200124380Y-130282857D01*
X197224380Y-135449523D02*
X197938666Y-135449523D01*
X198081523Y-135497142D01*
X198176761Y-135592380D01*
X198224380Y-135735238D01*
X198224380Y-135830476D01*
X197319619Y-135020952D02*
X197272000Y-134973333D01*
X197224380Y-134878095D01*
X197224380Y-134640000D01*
X197272000Y-134544761D01*
X197319619Y-134497142D01*
X197414857Y-134449523D01*
X197510095Y-134449523D01*
X197652952Y-134497142D01*
X198224380Y-135068571D01*
X198224380Y-134449523D01*
X198224380Y-133973333D02*
X198224380Y-133782857D01*
X198176761Y-133687619D01*
X198129142Y-133640000D01*
X197986285Y-133544761D01*
X197795809Y-133497142D01*
X197414857Y-133497142D01*
X197319619Y-133544761D01*
X197272000Y-133592380D01*
X197224380Y-133687619D01*
X197224380Y-133878095D01*
X197272000Y-133973333D01*
X197319619Y-134020952D01*
X197414857Y-134068571D01*
X197652952Y-134068571D01*
X197748190Y-134020952D01*
X197795809Y-133973333D01*
X197843428Y-133878095D01*
X197843428Y-133687619D01*
X197795809Y-133592380D01*
X197748190Y-133544761D01*
X197652952Y-133497142D01*
%TO.C,J7*%
X169429904Y-93857142D02*
X169382285Y-93904761D01*
X169239428Y-93952380D01*
X169144190Y-93952380D01*
X169001333Y-93904761D01*
X168906095Y-93809523D01*
X168858476Y-93714285D01*
X168810857Y-93523809D01*
X168810857Y-93380952D01*
X168858476Y-93190476D01*
X168906095Y-93095238D01*
X169001333Y-93000000D01*
X169144190Y-92952380D01*
X169239428Y-92952380D01*
X169382285Y-93000000D01*
X169429904Y-93047619D01*
X170001333Y-93952380D02*
X169906095Y-93904761D01*
X169858476Y-93857142D01*
X169810857Y-93761904D01*
X169810857Y-93476190D01*
X169858476Y-93380952D01*
X169906095Y-93333333D01*
X170001333Y-93285714D01*
X170144190Y-93285714D01*
X170239428Y-93333333D01*
X170287047Y-93380952D01*
X170334666Y-93476190D01*
X170334666Y-93761904D01*
X170287047Y-93857142D01*
X170239428Y-93904761D01*
X170144190Y-93952380D01*
X170001333Y-93952380D01*
X170763238Y-93285714D02*
X170763238Y-93952380D01*
X170763238Y-93380952D02*
X170810857Y-93333333D01*
X170906095Y-93285714D01*
X171048952Y-93285714D01*
X171144190Y-93333333D01*
X171191809Y-93428571D01*
X171191809Y-93952380D01*
X171668000Y-93285714D02*
X171668000Y-93952380D01*
X171668000Y-93380952D02*
X171715619Y-93333333D01*
X171810857Y-93285714D01*
X171953714Y-93285714D01*
X172048952Y-93333333D01*
X172096571Y-93428571D01*
X172096571Y-93952380D01*
X172334666Y-94047619D02*
X173096571Y-94047619D01*
X173525142Y-92952380D02*
X173620380Y-92952380D01*
X173715619Y-93000000D01*
X173763238Y-93047619D01*
X173810857Y-93142857D01*
X173858476Y-93333333D01*
X173858476Y-93571428D01*
X173810857Y-93761904D01*
X173763238Y-93857142D01*
X173715619Y-93904761D01*
X173620380Y-93952380D01*
X173525142Y-93952380D01*
X173429904Y-93904761D01*
X173382285Y-93857142D01*
X173334666Y-93761904D01*
X173287047Y-93571428D01*
X173287047Y-93333333D01*
X173334666Y-93142857D01*
X173382285Y-93047619D01*
X173429904Y-93000000D01*
X173525142Y-92952380D01*
X174810857Y-93952380D02*
X174239428Y-93952380D01*
X174525142Y-93952380D02*
X174525142Y-92952380D01*
X174429904Y-93095238D01*
X174334666Y-93190476D01*
X174239428Y-93238095D01*
X175144190Y-93952380D02*
X175668000Y-93285714D01*
X175144190Y-93285714D02*
X175668000Y-93952380D01*
X176239428Y-92952380D02*
X176334666Y-92952380D01*
X176429904Y-93000000D01*
X176477523Y-93047619D01*
X176525142Y-93142857D01*
X176572761Y-93333333D01*
X176572761Y-93571428D01*
X176525142Y-93761904D01*
X176477523Y-93857142D01*
X176429904Y-93904761D01*
X176334666Y-93952380D01*
X176239428Y-93952380D01*
X176144190Y-93904761D01*
X176096571Y-93857142D01*
X176048952Y-93761904D01*
X176001333Y-93571428D01*
X176001333Y-93333333D01*
X176048952Y-93142857D01*
X176096571Y-93047619D01*
X176144190Y-93000000D01*
X176239428Y-92952380D01*
X177429904Y-93285714D02*
X177429904Y-93952380D01*
X177191809Y-92904761D02*
X176953714Y-93619047D01*
X177572761Y-93619047D01*
X172834666Y-91052380D02*
X172834666Y-91766666D01*
X172787047Y-91909523D01*
X172691809Y-92004761D01*
X172548952Y-92052380D01*
X172453714Y-92052380D01*
X173215619Y-91052380D02*
X173882285Y-91052380D01*
X173453714Y-92052380D01*
%TO.C,J8*%
X169429904Y-109097142D02*
X169382285Y-109144761D01*
X169239428Y-109192380D01*
X169144190Y-109192380D01*
X169001333Y-109144761D01*
X168906095Y-109049523D01*
X168858476Y-108954285D01*
X168810857Y-108763809D01*
X168810857Y-108620952D01*
X168858476Y-108430476D01*
X168906095Y-108335238D01*
X169001333Y-108240000D01*
X169144190Y-108192380D01*
X169239428Y-108192380D01*
X169382285Y-108240000D01*
X169429904Y-108287619D01*
X170001333Y-109192380D02*
X169906095Y-109144761D01*
X169858476Y-109097142D01*
X169810857Y-109001904D01*
X169810857Y-108716190D01*
X169858476Y-108620952D01*
X169906095Y-108573333D01*
X170001333Y-108525714D01*
X170144190Y-108525714D01*
X170239428Y-108573333D01*
X170287047Y-108620952D01*
X170334666Y-108716190D01*
X170334666Y-109001904D01*
X170287047Y-109097142D01*
X170239428Y-109144761D01*
X170144190Y-109192380D01*
X170001333Y-109192380D01*
X170763238Y-108525714D02*
X170763238Y-109192380D01*
X170763238Y-108620952D02*
X170810857Y-108573333D01*
X170906095Y-108525714D01*
X171048952Y-108525714D01*
X171144190Y-108573333D01*
X171191809Y-108668571D01*
X171191809Y-109192380D01*
X171668000Y-108525714D02*
X171668000Y-109192380D01*
X171668000Y-108620952D02*
X171715619Y-108573333D01*
X171810857Y-108525714D01*
X171953714Y-108525714D01*
X172048952Y-108573333D01*
X172096571Y-108668571D01*
X172096571Y-109192380D01*
X172334666Y-109287619D02*
X173096571Y-109287619D01*
X173525142Y-108192380D02*
X173620380Y-108192380D01*
X173715619Y-108240000D01*
X173763238Y-108287619D01*
X173810857Y-108382857D01*
X173858476Y-108573333D01*
X173858476Y-108811428D01*
X173810857Y-109001904D01*
X173763238Y-109097142D01*
X173715619Y-109144761D01*
X173620380Y-109192380D01*
X173525142Y-109192380D01*
X173429904Y-109144761D01*
X173382285Y-109097142D01*
X173334666Y-109001904D01*
X173287047Y-108811428D01*
X173287047Y-108573333D01*
X173334666Y-108382857D01*
X173382285Y-108287619D01*
X173429904Y-108240000D01*
X173525142Y-108192380D01*
X174810857Y-109192380D02*
X174239428Y-109192380D01*
X174525142Y-109192380D02*
X174525142Y-108192380D01*
X174429904Y-108335238D01*
X174334666Y-108430476D01*
X174239428Y-108478095D01*
X175144190Y-109192380D02*
X175668000Y-108525714D01*
X175144190Y-108525714D02*
X175668000Y-109192380D01*
X176239428Y-108192380D02*
X176334666Y-108192380D01*
X176429904Y-108240000D01*
X176477523Y-108287619D01*
X176525142Y-108382857D01*
X176572761Y-108573333D01*
X176572761Y-108811428D01*
X176525142Y-109001904D01*
X176477523Y-109097142D01*
X176429904Y-109144761D01*
X176334666Y-109192380D01*
X176239428Y-109192380D01*
X176144190Y-109144761D01*
X176096571Y-109097142D01*
X176048952Y-109001904D01*
X176001333Y-108811428D01*
X176001333Y-108573333D01*
X176048952Y-108382857D01*
X176096571Y-108287619D01*
X176144190Y-108240000D01*
X176239428Y-108192380D01*
X177429904Y-108525714D02*
X177429904Y-109192380D01*
X177191809Y-108144761D02*
X176953714Y-108859047D01*
X177572761Y-108859047D01*
X172834666Y-106292380D02*
X172834666Y-107006666D01*
X172787047Y-107149523D01*
X172691809Y-107244761D01*
X172548952Y-107292380D01*
X172453714Y-107292380D01*
X173453714Y-106720952D02*
X173358476Y-106673333D01*
X173310857Y-106625714D01*
X173263238Y-106530476D01*
X173263238Y-106482857D01*
X173310857Y-106387619D01*
X173358476Y-106340000D01*
X173453714Y-106292380D01*
X173644190Y-106292380D01*
X173739428Y-106340000D01*
X173787047Y-106387619D01*
X173834666Y-106482857D01*
X173834666Y-106530476D01*
X173787047Y-106625714D01*
X173739428Y-106673333D01*
X173644190Y-106720952D01*
X173453714Y-106720952D01*
X173358476Y-106768571D01*
X173310857Y-106816190D01*
X173263238Y-106911428D01*
X173263238Y-107101904D01*
X173310857Y-107197142D01*
X173358476Y-107244761D01*
X173453714Y-107292380D01*
X173644190Y-107292380D01*
X173739428Y-107244761D01*
X173787047Y-107197142D01*
X173834666Y-107101904D01*
X173834666Y-106911428D01*
X173787047Y-106816190D01*
X173739428Y-106768571D01*
X173644190Y-106720952D01*
%TO.C,J11*%
X169429904Y-101477142D02*
X169382285Y-101524761D01*
X169239428Y-101572380D01*
X169144190Y-101572380D01*
X169001333Y-101524761D01*
X168906095Y-101429523D01*
X168858476Y-101334285D01*
X168810857Y-101143809D01*
X168810857Y-101000952D01*
X168858476Y-100810476D01*
X168906095Y-100715238D01*
X169001333Y-100620000D01*
X169144190Y-100572380D01*
X169239428Y-100572380D01*
X169382285Y-100620000D01*
X169429904Y-100667619D01*
X170001333Y-101572380D02*
X169906095Y-101524761D01*
X169858476Y-101477142D01*
X169810857Y-101381904D01*
X169810857Y-101096190D01*
X169858476Y-101000952D01*
X169906095Y-100953333D01*
X170001333Y-100905714D01*
X170144190Y-100905714D01*
X170239428Y-100953333D01*
X170287047Y-101000952D01*
X170334666Y-101096190D01*
X170334666Y-101381904D01*
X170287047Y-101477142D01*
X170239428Y-101524761D01*
X170144190Y-101572380D01*
X170001333Y-101572380D01*
X170763238Y-100905714D02*
X170763238Y-101572380D01*
X170763238Y-101000952D02*
X170810857Y-100953333D01*
X170906095Y-100905714D01*
X171048952Y-100905714D01*
X171144190Y-100953333D01*
X171191809Y-101048571D01*
X171191809Y-101572380D01*
X171668000Y-100905714D02*
X171668000Y-101572380D01*
X171668000Y-101000952D02*
X171715619Y-100953333D01*
X171810857Y-100905714D01*
X171953714Y-100905714D01*
X172048952Y-100953333D01*
X172096571Y-101048571D01*
X172096571Y-101572380D01*
X172334666Y-101667619D02*
X173096571Y-101667619D01*
X173525142Y-100572380D02*
X173620380Y-100572380D01*
X173715619Y-100620000D01*
X173763238Y-100667619D01*
X173810857Y-100762857D01*
X173858476Y-100953333D01*
X173858476Y-101191428D01*
X173810857Y-101381904D01*
X173763238Y-101477142D01*
X173715619Y-101524761D01*
X173620380Y-101572380D01*
X173525142Y-101572380D01*
X173429904Y-101524761D01*
X173382285Y-101477142D01*
X173334666Y-101381904D01*
X173287047Y-101191428D01*
X173287047Y-100953333D01*
X173334666Y-100762857D01*
X173382285Y-100667619D01*
X173429904Y-100620000D01*
X173525142Y-100572380D01*
X174810857Y-101572380D02*
X174239428Y-101572380D01*
X174525142Y-101572380D02*
X174525142Y-100572380D01*
X174429904Y-100715238D01*
X174334666Y-100810476D01*
X174239428Y-100858095D01*
X175144190Y-101572380D02*
X175668000Y-100905714D01*
X175144190Y-100905714D02*
X175668000Y-101572380D01*
X176239428Y-100572380D02*
X176334666Y-100572380D01*
X176429904Y-100620000D01*
X176477523Y-100667619D01*
X176525142Y-100762857D01*
X176572761Y-100953333D01*
X176572761Y-101191428D01*
X176525142Y-101381904D01*
X176477523Y-101477142D01*
X176429904Y-101524761D01*
X176334666Y-101572380D01*
X176239428Y-101572380D01*
X176144190Y-101524761D01*
X176096571Y-101477142D01*
X176048952Y-101381904D01*
X176001333Y-101191428D01*
X176001333Y-100953333D01*
X176048952Y-100762857D01*
X176096571Y-100667619D01*
X176144190Y-100620000D01*
X176239428Y-100572380D01*
X177429904Y-100905714D02*
X177429904Y-101572380D01*
X177191809Y-100524761D02*
X176953714Y-101239047D01*
X177572761Y-101239047D01*
X172358476Y-98672380D02*
X172358476Y-99386666D01*
X172310857Y-99529523D01*
X172215619Y-99624761D01*
X172072761Y-99672380D01*
X171977523Y-99672380D01*
X173358476Y-99672380D02*
X172787047Y-99672380D01*
X173072761Y-99672380D02*
X173072761Y-98672380D01*
X172977523Y-98815238D01*
X172882285Y-98910476D01*
X172787047Y-98958095D01*
X174310857Y-99672380D02*
X173739428Y-99672380D01*
X174025142Y-99672380D02*
X174025142Y-98672380D01*
X173929904Y-98815238D01*
X173834666Y-98910476D01*
X173739428Y-98958095D01*
%TO.C,J2*%
X184475904Y-84915142D02*
X184428285Y-84962761D01*
X184285428Y-85010380D01*
X184190190Y-85010380D01*
X184047333Y-84962761D01*
X183952095Y-84867523D01*
X183904476Y-84772285D01*
X183856857Y-84581809D01*
X183856857Y-84438952D01*
X183904476Y-84248476D01*
X183952095Y-84153238D01*
X184047333Y-84058000D01*
X184190190Y-84010380D01*
X184285428Y-84010380D01*
X184428285Y-84058000D01*
X184475904Y-84105619D01*
X185047333Y-85010380D02*
X184952095Y-84962761D01*
X184904476Y-84915142D01*
X184856857Y-84819904D01*
X184856857Y-84534190D01*
X184904476Y-84438952D01*
X184952095Y-84391333D01*
X185047333Y-84343714D01*
X185190190Y-84343714D01*
X185285428Y-84391333D01*
X185333047Y-84438952D01*
X185380666Y-84534190D01*
X185380666Y-84819904D01*
X185333047Y-84915142D01*
X185285428Y-84962761D01*
X185190190Y-85010380D01*
X185047333Y-85010380D01*
X185809238Y-84343714D02*
X185809238Y-85010380D01*
X185809238Y-84438952D02*
X185856857Y-84391333D01*
X185952095Y-84343714D01*
X186094952Y-84343714D01*
X186190190Y-84391333D01*
X186237809Y-84486571D01*
X186237809Y-85010380D01*
X186714000Y-84343714D02*
X186714000Y-85010380D01*
X186714000Y-84438952D02*
X186761619Y-84391333D01*
X186856857Y-84343714D01*
X186999714Y-84343714D01*
X187094952Y-84391333D01*
X187142571Y-84486571D01*
X187142571Y-85010380D01*
X187380666Y-85105619D02*
X188142571Y-85105619D01*
X188571142Y-84010380D02*
X188666380Y-84010380D01*
X188761619Y-84058000D01*
X188809238Y-84105619D01*
X188856857Y-84200857D01*
X188904476Y-84391333D01*
X188904476Y-84629428D01*
X188856857Y-84819904D01*
X188809238Y-84915142D01*
X188761619Y-84962761D01*
X188666380Y-85010380D01*
X188571142Y-85010380D01*
X188475904Y-84962761D01*
X188428285Y-84915142D01*
X188380666Y-84819904D01*
X188333047Y-84629428D01*
X188333047Y-84391333D01*
X188380666Y-84200857D01*
X188428285Y-84105619D01*
X188475904Y-84058000D01*
X188571142Y-84010380D01*
X189856857Y-85010380D02*
X189285428Y-85010380D01*
X189571142Y-85010380D02*
X189571142Y-84010380D01*
X189475904Y-84153238D01*
X189380666Y-84248476D01*
X189285428Y-84296095D01*
X190190190Y-85010380D02*
X190714000Y-84343714D01*
X190190190Y-84343714D02*
X190714000Y-85010380D01*
X191285428Y-84010380D02*
X191380666Y-84010380D01*
X191475904Y-84058000D01*
X191523523Y-84105619D01*
X191571142Y-84200857D01*
X191618761Y-84391333D01*
X191618761Y-84629428D01*
X191571142Y-84819904D01*
X191523523Y-84915142D01*
X191475904Y-84962761D01*
X191380666Y-85010380D01*
X191285428Y-85010380D01*
X191190190Y-84962761D01*
X191142571Y-84915142D01*
X191094952Y-84819904D01*
X191047333Y-84629428D01*
X191047333Y-84391333D01*
X191094952Y-84200857D01*
X191142571Y-84105619D01*
X191190190Y-84058000D01*
X191285428Y-84010380D01*
X192475904Y-84010380D02*
X192285428Y-84010380D01*
X192190190Y-84058000D01*
X192142571Y-84105619D01*
X192047333Y-84248476D01*
X191999714Y-84438952D01*
X191999714Y-84819904D01*
X192047333Y-84915142D01*
X192094952Y-84962761D01*
X192190190Y-85010380D01*
X192380666Y-85010380D01*
X192475904Y-84962761D01*
X192523523Y-84915142D01*
X192571142Y-84819904D01*
X192571142Y-84581809D01*
X192523523Y-84486571D01*
X192475904Y-84438952D01*
X192380666Y-84391333D01*
X192190190Y-84391333D01*
X192094952Y-84438952D01*
X192047333Y-84486571D01*
X191999714Y-84581809D01*
X187666380Y-75625333D02*
X188380666Y-75625333D01*
X188523523Y-75672952D01*
X188618761Y-75768190D01*
X188666380Y-75911047D01*
X188666380Y-76006285D01*
X187761619Y-75196761D02*
X187714000Y-75149142D01*
X187666380Y-75053904D01*
X187666380Y-74815809D01*
X187714000Y-74720571D01*
X187761619Y-74672952D01*
X187856857Y-74625333D01*
X187952095Y-74625333D01*
X188094952Y-74672952D01*
X188666380Y-75244380D01*
X188666380Y-74625333D01*
%TO.C,J4*%
X108533142Y-106588095D02*
X108580761Y-106635714D01*
X108628380Y-106778571D01*
X108628380Y-106873809D01*
X108580761Y-107016666D01*
X108485523Y-107111904D01*
X108390285Y-107159523D01*
X108199809Y-107207142D01*
X108056952Y-107207142D01*
X107866476Y-107159523D01*
X107771238Y-107111904D01*
X107676000Y-107016666D01*
X107628380Y-106873809D01*
X107628380Y-106778571D01*
X107676000Y-106635714D01*
X107723619Y-106588095D01*
X108628380Y-106016666D02*
X108580761Y-106111904D01*
X108533142Y-106159523D01*
X108437904Y-106207142D01*
X108152190Y-106207142D01*
X108056952Y-106159523D01*
X108009333Y-106111904D01*
X107961714Y-106016666D01*
X107961714Y-105873809D01*
X108009333Y-105778571D01*
X108056952Y-105730952D01*
X108152190Y-105683333D01*
X108437904Y-105683333D01*
X108533142Y-105730952D01*
X108580761Y-105778571D01*
X108628380Y-105873809D01*
X108628380Y-106016666D01*
X107961714Y-105254761D02*
X108628380Y-105254761D01*
X108056952Y-105254761D02*
X108009333Y-105207142D01*
X107961714Y-105111904D01*
X107961714Y-104969047D01*
X108009333Y-104873809D01*
X108104571Y-104826190D01*
X108628380Y-104826190D01*
X107961714Y-104350000D02*
X108628380Y-104350000D01*
X108056952Y-104350000D02*
X108009333Y-104302380D01*
X107961714Y-104207142D01*
X107961714Y-104064285D01*
X108009333Y-103969047D01*
X108104571Y-103921428D01*
X108628380Y-103921428D01*
X108723619Y-103683333D02*
X108723619Y-102921428D01*
X107628380Y-102492857D02*
X107628380Y-102397619D01*
X107676000Y-102302380D01*
X107723619Y-102254761D01*
X107818857Y-102207142D01*
X108009333Y-102159523D01*
X108247428Y-102159523D01*
X108437904Y-102207142D01*
X108533142Y-102254761D01*
X108580761Y-102302380D01*
X108628380Y-102397619D01*
X108628380Y-102492857D01*
X108580761Y-102588095D01*
X108533142Y-102635714D01*
X108437904Y-102683333D01*
X108247428Y-102730952D01*
X108009333Y-102730952D01*
X107818857Y-102683333D01*
X107723619Y-102635714D01*
X107676000Y-102588095D01*
X107628380Y-102492857D01*
X108628380Y-101207142D02*
X108628380Y-101778571D01*
X108628380Y-101492857D02*
X107628380Y-101492857D01*
X107771238Y-101588095D01*
X107866476Y-101683333D01*
X107914095Y-101778571D01*
X108628380Y-100873809D02*
X107961714Y-100350000D01*
X107961714Y-100873809D02*
X108628380Y-100350000D01*
X107628380Y-99778571D02*
X107628380Y-99683333D01*
X107676000Y-99588095D01*
X107723619Y-99540476D01*
X107818857Y-99492857D01*
X108009333Y-99445238D01*
X108247428Y-99445238D01*
X108437904Y-99492857D01*
X108533142Y-99540476D01*
X108580761Y-99588095D01*
X108628380Y-99683333D01*
X108628380Y-99778571D01*
X108580761Y-99873809D01*
X108533142Y-99921428D01*
X108437904Y-99969047D01*
X108247428Y-100016666D01*
X108009333Y-100016666D01*
X107818857Y-99969047D01*
X107723619Y-99921428D01*
X107676000Y-99873809D01*
X107628380Y-99778571D01*
X107723619Y-99064285D02*
X107676000Y-99016666D01*
X107628380Y-98921428D01*
X107628380Y-98683333D01*
X107676000Y-98588095D01*
X107723619Y-98540476D01*
X107818857Y-98492857D01*
X107914095Y-98492857D01*
X108056952Y-98540476D01*
X108628380Y-99111904D01*
X108628380Y-98492857D01*
X109528380Y-103183333D02*
X110242666Y-103183333D01*
X110385523Y-103230952D01*
X110480761Y-103326190D01*
X110528380Y-103469047D01*
X110528380Y-103564285D01*
X109861714Y-102278571D02*
X110528380Y-102278571D01*
X109480761Y-102516666D02*
X110195047Y-102754761D01*
X110195047Y-102135714D01*
%TO.C,J1*%
X170553714Y-79724380D02*
X170553714Y-78724380D01*
X170887047Y-79438666D01*
X171220380Y-78724380D01*
X171220380Y-79724380D01*
X171696571Y-79724380D02*
X171696571Y-79057714D01*
X171696571Y-78724380D02*
X171648952Y-78772000D01*
X171696571Y-78819619D01*
X171744190Y-78772000D01*
X171696571Y-78724380D01*
X171696571Y-78819619D01*
X172601333Y-79676761D02*
X172506095Y-79724380D01*
X172315619Y-79724380D01*
X172220380Y-79676761D01*
X172172761Y-79629142D01*
X172125142Y-79533904D01*
X172125142Y-79248190D01*
X172172761Y-79152952D01*
X172220380Y-79105333D01*
X172315619Y-79057714D01*
X172506095Y-79057714D01*
X172601333Y-79105333D01*
X173029904Y-79724380D02*
X173029904Y-79057714D01*
X173029904Y-79248190D02*
X173077523Y-79152952D01*
X173125142Y-79105333D01*
X173220380Y-79057714D01*
X173315619Y-79057714D01*
X173791809Y-79724380D02*
X173696571Y-79676761D01*
X173648952Y-79629142D01*
X173601333Y-79533904D01*
X173601333Y-79248190D01*
X173648952Y-79152952D01*
X173696571Y-79105333D01*
X173791809Y-79057714D01*
X173934666Y-79057714D01*
X174029904Y-79105333D01*
X174077523Y-79152952D01*
X174125142Y-79248190D01*
X174125142Y-79533904D01*
X174077523Y-79629142D01*
X174029904Y-79676761D01*
X173934666Y-79724380D01*
X173791809Y-79724380D01*
X174315619Y-79819619D02*
X175077523Y-79819619D01*
X175268000Y-79676761D02*
X175410857Y-79724380D01*
X175648952Y-79724380D01*
X175744190Y-79676761D01*
X175791809Y-79629142D01*
X175839428Y-79533904D01*
X175839428Y-79438666D01*
X175791809Y-79343428D01*
X175744190Y-79295809D01*
X175648952Y-79248190D01*
X175458476Y-79200571D01*
X175363238Y-79152952D01*
X175315619Y-79105333D01*
X175268000Y-79010095D01*
X175268000Y-78914857D01*
X175315619Y-78819619D01*
X175363238Y-78772000D01*
X175458476Y-78724380D01*
X175696571Y-78724380D01*
X175839428Y-78772000D01*
X176268000Y-79724380D02*
X176268000Y-78724380D01*
X176506095Y-78724380D01*
X176648952Y-78772000D01*
X176744190Y-78867238D01*
X176791809Y-78962476D01*
X176839428Y-79152952D01*
X176839428Y-79295809D01*
X176791809Y-79486285D01*
X176744190Y-79581523D01*
X176648952Y-79676761D01*
X176506095Y-79724380D01*
X176268000Y-79724380D01*
X177029904Y-79819619D02*
X177791809Y-79819619D01*
X178601333Y-79629142D02*
X178553714Y-79676761D01*
X178410857Y-79724380D01*
X178315619Y-79724380D01*
X178172761Y-79676761D01*
X178077523Y-79581523D01*
X178029904Y-79486285D01*
X177982285Y-79295809D01*
X177982285Y-79152952D01*
X178029904Y-78962476D01*
X178077523Y-78867238D01*
X178172761Y-78772000D01*
X178315619Y-78724380D01*
X178410857Y-78724380D01*
X178553714Y-78772000D01*
X178601333Y-78819619D01*
X179458476Y-79724380D02*
X179458476Y-79200571D01*
X179410857Y-79105333D01*
X179315619Y-79057714D01*
X179125142Y-79057714D01*
X179029904Y-79105333D01*
X179458476Y-79676761D02*
X179363238Y-79724380D01*
X179125142Y-79724380D01*
X179029904Y-79676761D01*
X178982285Y-79581523D01*
X178982285Y-79486285D01*
X179029904Y-79391047D01*
X179125142Y-79343428D01*
X179363238Y-79343428D01*
X179458476Y-79295809D01*
X179934666Y-79724380D02*
X179934666Y-79057714D01*
X179934666Y-79248190D02*
X179982285Y-79152952D01*
X180029904Y-79105333D01*
X180125142Y-79057714D01*
X180220380Y-79057714D01*
X180982285Y-79724380D02*
X180982285Y-78724380D01*
X180982285Y-79676761D02*
X180887047Y-79724380D01*
X180696571Y-79724380D01*
X180601333Y-79676761D01*
X180553714Y-79629142D01*
X180506095Y-79533904D01*
X180506095Y-79248190D01*
X180553714Y-79152952D01*
X180601333Y-79105333D01*
X180696571Y-79057714D01*
X180887047Y-79057714D01*
X180982285Y-79105333D01*
X175434666Y-71334380D02*
X175434666Y-72048666D01*
X175387047Y-72191523D01*
X175291809Y-72286761D01*
X175148952Y-72334380D01*
X175053714Y-72334380D01*
X176434666Y-72334380D02*
X175863238Y-72334380D01*
X176148952Y-72334380D02*
X176148952Y-71334380D01*
X176053714Y-71477238D01*
X175958476Y-71572476D01*
X175863238Y-71620095D01*
%TO.C,J3*%
X184475904Y-92075142D02*
X184428285Y-92122761D01*
X184285428Y-92170380D01*
X184190190Y-92170380D01*
X184047333Y-92122761D01*
X183952095Y-92027523D01*
X183904476Y-91932285D01*
X183856857Y-91741809D01*
X183856857Y-91598952D01*
X183904476Y-91408476D01*
X183952095Y-91313238D01*
X184047333Y-91218000D01*
X184190190Y-91170380D01*
X184285428Y-91170380D01*
X184428285Y-91218000D01*
X184475904Y-91265619D01*
X185047333Y-92170380D02*
X184952095Y-92122761D01*
X184904476Y-92075142D01*
X184856857Y-91979904D01*
X184856857Y-91694190D01*
X184904476Y-91598952D01*
X184952095Y-91551333D01*
X185047333Y-91503714D01*
X185190190Y-91503714D01*
X185285428Y-91551333D01*
X185333047Y-91598952D01*
X185380666Y-91694190D01*
X185380666Y-91979904D01*
X185333047Y-92075142D01*
X185285428Y-92122761D01*
X185190190Y-92170380D01*
X185047333Y-92170380D01*
X185809238Y-91503714D02*
X185809238Y-92170380D01*
X185809238Y-91598952D02*
X185856857Y-91551333D01*
X185952095Y-91503714D01*
X186094952Y-91503714D01*
X186190190Y-91551333D01*
X186237809Y-91646571D01*
X186237809Y-92170380D01*
X186714000Y-91503714D02*
X186714000Y-92170380D01*
X186714000Y-91598952D02*
X186761619Y-91551333D01*
X186856857Y-91503714D01*
X186999714Y-91503714D01*
X187094952Y-91551333D01*
X187142571Y-91646571D01*
X187142571Y-92170380D01*
X187380666Y-92265619D02*
X188142571Y-92265619D01*
X188571142Y-91170380D02*
X188666380Y-91170380D01*
X188761619Y-91218000D01*
X188809238Y-91265619D01*
X188856857Y-91360857D01*
X188904476Y-91551333D01*
X188904476Y-91789428D01*
X188856857Y-91979904D01*
X188809238Y-92075142D01*
X188761619Y-92122761D01*
X188666380Y-92170380D01*
X188571142Y-92170380D01*
X188475904Y-92122761D01*
X188428285Y-92075142D01*
X188380666Y-91979904D01*
X188333047Y-91789428D01*
X188333047Y-91551333D01*
X188380666Y-91360857D01*
X188428285Y-91265619D01*
X188475904Y-91218000D01*
X188571142Y-91170380D01*
X189856857Y-92170380D02*
X189285428Y-92170380D01*
X189571142Y-92170380D02*
X189571142Y-91170380D01*
X189475904Y-91313238D01*
X189380666Y-91408476D01*
X189285428Y-91456095D01*
X190190190Y-92170380D02*
X190714000Y-91503714D01*
X190190190Y-91503714D02*
X190714000Y-92170380D01*
X191285428Y-91170380D02*
X191380666Y-91170380D01*
X191475904Y-91218000D01*
X191523523Y-91265619D01*
X191571142Y-91360857D01*
X191618761Y-91551333D01*
X191618761Y-91789428D01*
X191571142Y-91979904D01*
X191523523Y-92075142D01*
X191475904Y-92122761D01*
X191380666Y-92170380D01*
X191285428Y-92170380D01*
X191190190Y-92122761D01*
X191142571Y-92075142D01*
X191094952Y-91979904D01*
X191047333Y-91789428D01*
X191047333Y-91551333D01*
X191094952Y-91360857D01*
X191142571Y-91265619D01*
X191190190Y-91218000D01*
X191285428Y-91170380D01*
X192190190Y-91598952D02*
X192094952Y-91551333D01*
X192047333Y-91503714D01*
X191999714Y-91408476D01*
X191999714Y-91360857D01*
X192047333Y-91265619D01*
X192094952Y-91218000D01*
X192190190Y-91170380D01*
X192380666Y-91170380D01*
X192475904Y-91218000D01*
X192523523Y-91265619D01*
X192571142Y-91360857D01*
X192571142Y-91408476D01*
X192523523Y-91503714D01*
X192475904Y-91551333D01*
X192380666Y-91598952D01*
X192190190Y-91598952D01*
X192094952Y-91646571D01*
X192047333Y-91694190D01*
X191999714Y-91789428D01*
X191999714Y-91979904D01*
X192047333Y-92075142D01*
X192094952Y-92122761D01*
X192190190Y-92170380D01*
X192380666Y-92170380D01*
X192475904Y-92122761D01*
X192523523Y-92075142D01*
X192571142Y-91979904D01*
X192571142Y-91789428D01*
X192523523Y-91694190D01*
X192475904Y-91646571D01*
X192380666Y-91598952D01*
X187666380Y-103711333D02*
X188380666Y-103711333D01*
X188523523Y-103758952D01*
X188618761Y-103854190D01*
X188666380Y-103997047D01*
X188666380Y-104092285D01*
X187666380Y-103330380D02*
X187666380Y-102711333D01*
X188047333Y-103044666D01*
X188047333Y-102901809D01*
X188094952Y-102806571D01*
X188142571Y-102758952D01*
X188237809Y-102711333D01*
X188475904Y-102711333D01*
X188571142Y-102758952D01*
X188618761Y-102806571D01*
X188666380Y-102901809D01*
X188666380Y-103187523D01*
X188618761Y-103282761D01*
X188571142Y-103330380D01*
%TO.C,U3*%
X105036952Y-113228380D02*
X105036952Y-112561714D01*
X105036952Y-112752190D02*
X105084571Y-112656952D01*
X105132190Y-112609333D01*
X105227428Y-112561714D01*
X105322666Y-112561714D01*
X105798857Y-113228380D02*
X105703619Y-113180761D01*
X105656000Y-113133142D01*
X105608380Y-113037904D01*
X105608380Y-112752190D01*
X105656000Y-112656952D01*
X105703619Y-112609333D01*
X105798857Y-112561714D01*
X105941714Y-112561714D01*
X106036952Y-112609333D01*
X106084571Y-112656952D01*
X106132190Y-112752190D01*
X106132190Y-113037904D01*
X106084571Y-113133142D01*
X106036952Y-113180761D01*
X105941714Y-113228380D01*
X105798857Y-113228380D01*
X106417904Y-112561714D02*
X106798857Y-112561714D01*
X106560761Y-112228380D02*
X106560761Y-113085523D01*
X106608380Y-113180761D01*
X106703619Y-113228380D01*
X106798857Y-113228380D01*
X106894095Y-113323619D02*
X107656000Y-113323619D01*
X107894095Y-112561714D02*
X107894095Y-113561714D01*
X107894095Y-112609333D02*
X107989333Y-112561714D01*
X108179809Y-112561714D01*
X108275047Y-112609333D01*
X108322666Y-112656952D01*
X108370285Y-112752190D01*
X108370285Y-113037904D01*
X108322666Y-113133142D01*
X108275047Y-113180761D01*
X108179809Y-113228380D01*
X107989333Y-113228380D01*
X107894095Y-113180761D01*
X108941714Y-113228380D02*
X108846476Y-113180761D01*
X108798857Y-113133142D01*
X108751238Y-113037904D01*
X108751238Y-112752190D01*
X108798857Y-112656952D01*
X108846476Y-112609333D01*
X108941714Y-112561714D01*
X109084571Y-112561714D01*
X109179809Y-112609333D01*
X109227428Y-112656952D01*
X109275047Y-112752190D01*
X109275047Y-113037904D01*
X109227428Y-113133142D01*
X109179809Y-113180761D01*
X109084571Y-113228380D01*
X108941714Y-113228380D01*
X109560761Y-112561714D02*
X109941714Y-112561714D01*
X109703619Y-112228380D02*
X109703619Y-113085523D01*
X109751238Y-113180761D01*
X109846476Y-113228380D01*
X109941714Y-113228380D01*
X110036952Y-113323619D02*
X110798857Y-113323619D01*
X111036952Y-113228380D02*
X111036952Y-112561714D01*
X111036952Y-112752190D02*
X111084571Y-112656952D01*
X111132190Y-112609333D01*
X111227428Y-112561714D01*
X111322666Y-112561714D01*
X111798857Y-113228380D02*
X111703619Y-113180761D01*
X111656000Y-113133142D01*
X111608380Y-113037904D01*
X111608380Y-112752190D01*
X111656000Y-112656952D01*
X111703619Y-112609333D01*
X111798857Y-112561714D01*
X111941714Y-112561714D01*
X112036952Y-112609333D01*
X112084571Y-112656952D01*
X112132190Y-112752190D01*
X112132190Y-113037904D01*
X112084571Y-113133142D01*
X112036952Y-113180761D01*
X111941714Y-113228380D01*
X111798857Y-113228380D01*
X112417904Y-112561714D02*
X112798857Y-112561714D01*
X112560761Y-112228380D02*
X112560761Y-113085523D01*
X112608380Y-113180761D01*
X112703619Y-113228380D01*
X112798857Y-113228380D01*
X112894095Y-113323619D02*
X113656000Y-113323619D01*
X113846476Y-113180761D02*
X113941714Y-113228380D01*
X114132190Y-113228380D01*
X114227428Y-113180761D01*
X114275047Y-113085523D01*
X114275047Y-113037904D01*
X114227428Y-112942666D01*
X114132190Y-112895047D01*
X113989333Y-112895047D01*
X113894095Y-112847428D01*
X113846476Y-112752190D01*
X113846476Y-112704571D01*
X113894095Y-112609333D01*
X113989333Y-112561714D01*
X114132190Y-112561714D01*
X114227428Y-112609333D01*
X114608380Y-112561714D02*
X114798857Y-113228380D01*
X114989333Y-112752190D01*
X115179809Y-113228380D01*
X115370285Y-112561714D01*
%TO.C,U5*%
X129481428Y-131270380D02*
X129481428Y-132079904D01*
X129529047Y-132175142D01*
X129576666Y-132222761D01*
X129671904Y-132270380D01*
X129862380Y-132270380D01*
X129957619Y-132222761D01*
X130005238Y-132175142D01*
X130052857Y-132079904D01*
X130052857Y-131270380D01*
X130529047Y-132270380D02*
X130529047Y-131270380D01*
X130767142Y-131270380D01*
X130910000Y-131318000D01*
X131005238Y-131413238D01*
X131052857Y-131508476D01*
X131100476Y-131698952D01*
X131100476Y-131841809D01*
X131052857Y-132032285D01*
X131005238Y-132127523D01*
X130910000Y-132222761D01*
X130767142Y-132270380D01*
X130529047Y-132270380D01*
X131481428Y-131984666D02*
X131957619Y-131984666D01*
X131386190Y-132270380D02*
X131719523Y-131270380D01*
X132052857Y-132270380D01*
X132910000Y-132270380D02*
X132338571Y-132270380D01*
X132624285Y-132270380D02*
X132624285Y-131270380D01*
X132529047Y-131413238D01*
X132433809Y-131508476D01*
X132338571Y-131556095D01*
X133243333Y-131270380D02*
X133862380Y-131270380D01*
X133529047Y-131651333D01*
X133671904Y-131651333D01*
X133767142Y-131698952D01*
X133814761Y-131746571D01*
X133862380Y-131841809D01*
X133862380Y-132079904D01*
X133814761Y-132175142D01*
X133767142Y-132222761D01*
X133671904Y-132270380D01*
X133386190Y-132270380D01*
X133290952Y-132222761D01*
X133243333Y-132175142D01*
X134195714Y-131270380D02*
X134814761Y-131270380D01*
X134481428Y-131651333D01*
X134624285Y-131651333D01*
X134719523Y-131698952D01*
X134767142Y-131746571D01*
X134814761Y-131841809D01*
X134814761Y-132079904D01*
X134767142Y-132175142D01*
X134719523Y-132222761D01*
X134624285Y-132270380D01*
X134338571Y-132270380D01*
X134243333Y-132222761D01*
X134195714Y-132175142D01*
X135671904Y-131603714D02*
X135671904Y-132270380D01*
X135433809Y-131222761D02*
X135195714Y-131937047D01*
X135814761Y-131937047D01*
X135957619Y-132365619D02*
X136719523Y-132365619D01*
X136910000Y-131984666D02*
X137386190Y-131984666D01*
X136814761Y-132270380D02*
X137148095Y-131270380D01*
X137481428Y-132270380D01*
X137814761Y-132270380D02*
X137814761Y-131270380D01*
X138052857Y-131270380D01*
X138195714Y-131318000D01*
X138290952Y-131413238D01*
X138338571Y-131508476D01*
X138386190Y-131698952D01*
X138386190Y-131841809D01*
X138338571Y-132032285D01*
X138290952Y-132127523D01*
X138195714Y-132222761D01*
X138052857Y-132270380D01*
X137814761Y-132270380D01*
X138767142Y-131984666D02*
X139243333Y-131984666D01*
X138671904Y-132270380D02*
X139005238Y-131270380D01*
X139338571Y-132270380D01*
X140005238Y-131746571D02*
X139671904Y-131746571D01*
X139671904Y-132270380D02*
X139671904Y-131270380D01*
X140148095Y-131270380D01*
X141100476Y-132270380D02*
X140767142Y-131794190D01*
X140529047Y-132270380D02*
X140529047Y-131270380D01*
X140910000Y-131270380D01*
X141005238Y-131318000D01*
X141052857Y-131365619D01*
X141100476Y-131460857D01*
X141100476Y-131603714D01*
X141052857Y-131698952D01*
X141005238Y-131746571D01*
X140910000Y-131794190D01*
X140529047Y-131794190D01*
X141529047Y-131270380D02*
X141529047Y-132079904D01*
X141576666Y-132175142D01*
X141624285Y-132222761D01*
X141719523Y-132270380D01*
X141910000Y-132270380D01*
X142005238Y-132222761D01*
X142052857Y-132175142D01*
X142100476Y-132079904D01*
X142100476Y-131270380D01*
X142576666Y-132270380D02*
X142576666Y-131270380D01*
X142910000Y-131270380D02*
X143481428Y-131270380D01*
X143195714Y-132270380D02*
X143195714Y-131270380D01*
%TO.C,U1*%
X164584619Y-133770666D02*
X165060809Y-133770666D01*
X164489380Y-134056380D02*
X164822714Y-133056380D01*
X165156047Y-134056380D01*
X165917952Y-133389714D02*
X165917952Y-134056380D01*
X165489380Y-133389714D02*
X165489380Y-133913523D01*
X165537000Y-134008761D01*
X165632238Y-134056380D01*
X165775095Y-134056380D01*
X165870333Y-134008761D01*
X165917952Y-133961142D01*
X166822714Y-134056380D02*
X166822714Y-133056380D01*
X166822714Y-134008761D02*
X166727476Y-134056380D01*
X166537000Y-134056380D01*
X166441761Y-134008761D01*
X166394142Y-133961142D01*
X166346523Y-133865904D01*
X166346523Y-133580190D01*
X166394142Y-133484952D01*
X166441761Y-133437333D01*
X166537000Y-133389714D01*
X166727476Y-133389714D01*
X166822714Y-133437333D01*
X167298904Y-134056380D02*
X167298904Y-133389714D01*
X167298904Y-133056380D02*
X167251285Y-133104000D01*
X167298904Y-133151619D01*
X167346523Y-133104000D01*
X167298904Y-133056380D01*
X167298904Y-133151619D01*
X167917952Y-134056380D02*
X167822714Y-134008761D01*
X167775095Y-133961142D01*
X167727476Y-133865904D01*
X167727476Y-133580190D01*
X167775095Y-133484952D01*
X167822714Y-133437333D01*
X167917952Y-133389714D01*
X168060809Y-133389714D01*
X168156047Y-133437333D01*
X168203666Y-133484952D01*
X168251285Y-133580190D01*
X168251285Y-133865904D01*
X168203666Y-133961142D01*
X168156047Y-134008761D01*
X168060809Y-134056380D01*
X167917952Y-134056380D01*
X168441761Y-134151619D02*
X169203666Y-134151619D01*
X169775095Y-133532571D02*
X169441761Y-133532571D01*
X169441761Y-134056380D02*
X169441761Y-133056380D01*
X169917952Y-133056380D01*
X170727476Y-134056380D02*
X170727476Y-133532571D01*
X170679857Y-133437333D01*
X170584619Y-133389714D01*
X170394142Y-133389714D01*
X170298904Y-133437333D01*
X170727476Y-134008761D02*
X170632238Y-134056380D01*
X170394142Y-134056380D01*
X170298904Y-134008761D01*
X170251285Y-133913523D01*
X170251285Y-133818285D01*
X170298904Y-133723047D01*
X170394142Y-133675428D01*
X170632238Y-133675428D01*
X170727476Y-133627809D01*
X171632238Y-134008761D02*
X171537000Y-134056380D01*
X171346523Y-134056380D01*
X171251285Y-134008761D01*
X171203666Y-133961142D01*
X171156047Y-133865904D01*
X171156047Y-133580190D01*
X171203666Y-133484952D01*
X171251285Y-133437333D01*
X171346523Y-133389714D01*
X171537000Y-133389714D01*
X171632238Y-133437333D01*
X172060809Y-134056380D02*
X172060809Y-133389714D01*
X172060809Y-133056380D02*
X172013190Y-133104000D01*
X172060809Y-133151619D01*
X172108428Y-133104000D01*
X172060809Y-133056380D01*
X172060809Y-133151619D01*
X172679857Y-134056380D02*
X172584619Y-134008761D01*
X172537000Y-133913523D01*
X172537000Y-133056380D01*
X173441761Y-134008761D02*
X173346523Y-134056380D01*
X173156047Y-134056380D01*
X173060809Y-134008761D01*
X173013190Y-133913523D01*
X173013190Y-133532571D01*
X173060809Y-133437333D01*
X173156047Y-133389714D01*
X173346523Y-133389714D01*
X173441761Y-133437333D01*
X173489380Y-133532571D01*
X173489380Y-133627809D01*
X173013190Y-133723047D01*
X184150095Y-139406380D02*
X184150095Y-140215904D01*
X184197714Y-140311142D01*
X184245333Y-140358761D01*
X184340571Y-140406380D01*
X184531047Y-140406380D01*
X184626285Y-140358761D01*
X184673904Y-140311142D01*
X184721523Y-140215904D01*
X184721523Y-139406380D01*
X185721523Y-140406380D02*
X185150095Y-140406380D01*
X185435809Y-140406380D02*
X185435809Y-139406380D01*
X185340571Y-139549238D01*
X185245333Y-139644476D01*
X185150095Y-139692095D01*
%TD*%
M02*
