%TF.GenerationSoftware,KiCad,Pcbnew,(5.1.6)-1*%
%TF.CreationDate,2020-12-23T09:12:27+01:00*%
%TF.ProjectId,03_La_Boite_A_Meuh,30335f4c-615f-4426-9f69-74655f415f4d,rev?*%
%TF.SameCoordinates,Original*%
%TF.FileFunction,Other,Fab,Top*%
%FSLAX46Y46*%
G04 Gerber Fmt 4.6, Leading zero omitted, Abs format (unit mm)*
G04 Created by KiCad (PCBNEW (5.1.6)-1) date 2020-12-23 09:12:27*
%MOMM*%
%LPD*%
G01*
G04 APERTURE LIST*
%TA.AperFunction,Profile*%
%ADD10C,0.150000*%
%TD*%
%ADD11C,0.100000*%
%ADD12C,0.120000*%
%ADD13C,0.150000*%
%ADD14C,0.060000*%
%ADD15C,0.075000*%
%ADD16C,0.110000*%
G04 APERTURE END LIST*
D10*
X180000000Y-55000000D02*
X195000000Y-55000000D01*
X180000000Y-64500000D02*
X180000000Y-55000000D01*
X157000000Y-64500000D02*
X180000000Y-64500000D01*
X157000000Y-55000000D02*
X157000000Y-64500000D01*
X195000000Y-55000000D02*
G75*
G02*
X200000000Y-60000000I0J-5000000D01*
G01*
X200000000Y-150000000D02*
G75*
G02*
X195000000Y-155000000I-5000000J0D01*
G01*
X105000000Y-155000000D02*
G75*
G02*
X100000000Y-150000000I0J5000000D01*
G01*
X100000000Y-60000000D02*
G75*
G02*
X105000000Y-55000000I5000000J0D01*
G01*
X100000000Y-150000000D02*
X100000000Y-60000000D01*
X195000000Y-155000000D02*
X105000000Y-155000000D01*
X200000000Y-60000000D02*
X200000000Y-150000000D01*
X105000000Y-55000000D02*
X157000000Y-55000000D01*
D11*
%TO.C,C1*%
X173400000Y-119300000D02*
X172600000Y-119300000D01*
X172600000Y-119300000D02*
X172600000Y-117700000D01*
X172600000Y-117700000D02*
X173400000Y-117700000D01*
X173400000Y-117700000D02*
X173400000Y-119300000D01*
%TO.C,C2*%
X171400000Y-119300000D02*
X170600000Y-119300000D01*
X170600000Y-119300000D02*
X170600000Y-117700000D01*
X170600000Y-117700000D02*
X171400000Y-117700000D01*
X171400000Y-117700000D02*
X171400000Y-119300000D01*
%TO.C,C3*%
X186200000Y-118400000D02*
X186200000Y-117600000D01*
X186200000Y-117600000D02*
X187800000Y-117600000D01*
X187800000Y-117600000D02*
X187800000Y-118400000D01*
X187800000Y-118400000D02*
X186200000Y-118400000D01*
%TO.C,C4*%
X186600000Y-131200000D02*
X187400000Y-131200000D01*
X187400000Y-131200000D02*
X187400000Y-132800000D01*
X187400000Y-132800000D02*
X186600000Y-132800000D01*
X186600000Y-132800000D02*
X186600000Y-131200000D01*
%TO.C,C5*%
X184600000Y-131200000D02*
X185400000Y-131200000D01*
X185400000Y-131200000D02*
X185400000Y-132800000D01*
X185400000Y-132800000D02*
X184600000Y-132800000D01*
X184600000Y-132800000D02*
X184600000Y-131200000D01*
%TO.C,C6*%
X187900000Y-106175000D02*
X187100000Y-106175000D01*
X187100000Y-106175000D02*
X187100000Y-104575000D01*
X187100000Y-104575000D02*
X187900000Y-104575000D01*
X187900000Y-104575000D02*
X187900000Y-106175000D01*
%TO.C,J1*%
X153550000Y-117150000D02*
X153550000Y-122900000D01*
X153550000Y-122900000D02*
X160950000Y-122900000D01*
X160950000Y-122900000D02*
X160950000Y-117150000D01*
X160950000Y-117150000D02*
X153550000Y-117150000D01*
X155375000Y-117150000D02*
X156000000Y-118150000D01*
X156000000Y-118150000D02*
X156625000Y-117150000D01*
%TO.C,J2*%
X153550000Y-124150000D02*
X153550000Y-129900000D01*
X153550000Y-129900000D02*
X160950000Y-129900000D01*
X160950000Y-129900000D02*
X160950000Y-124150000D01*
X160950000Y-124150000D02*
X153550000Y-124150000D01*
X155375000Y-124150000D02*
X156000000Y-125150000D01*
X156000000Y-125150000D02*
X156625000Y-124150000D01*
%TO.C,J3*%
X153550000Y-138150000D02*
X153550000Y-143900000D01*
X153550000Y-143900000D02*
X160950000Y-143900000D01*
X160950000Y-143900000D02*
X160950000Y-138150000D01*
X160950000Y-138150000D02*
X153550000Y-138150000D01*
X155375000Y-138150000D02*
X156000000Y-139150000D01*
X156000000Y-139150000D02*
X156625000Y-138150000D01*
%TO.C,J4*%
X183150000Y-143950000D02*
X188900000Y-143950000D01*
X188900000Y-143950000D02*
X188900000Y-136550000D01*
X188900000Y-136550000D02*
X183150000Y-136550000D01*
X183150000Y-136550000D02*
X183150000Y-143950000D01*
X183150000Y-142125000D02*
X184150000Y-141500000D01*
X184150000Y-141500000D02*
X183150000Y-140875000D01*
%TO.C,J5*%
X153550000Y-131150000D02*
X153550000Y-136900000D01*
X153550000Y-136900000D02*
X160950000Y-136900000D01*
X160950000Y-136900000D02*
X160950000Y-131150000D01*
X160950000Y-131150000D02*
X153550000Y-131150000D01*
X155375000Y-131150000D02*
X156000000Y-132150000D01*
X156000000Y-132150000D02*
X156625000Y-131150000D01*
%TO.C,J9*%
X159865000Y-68230000D02*
X161770000Y-68230000D01*
X161770000Y-68230000D02*
X161770000Y-70770000D01*
X161770000Y-70770000D02*
X159230000Y-70770000D01*
X159230000Y-70770000D02*
X159230000Y-68865000D01*
X159230000Y-68865000D02*
X159865000Y-68230000D01*
%TO.C,J10*%
X176865000Y-71230000D02*
X178770000Y-71230000D01*
X178770000Y-71230000D02*
X178770000Y-73770000D01*
X178770000Y-73770000D02*
X176230000Y-73770000D01*
X176230000Y-73770000D02*
X176230000Y-71865000D01*
X176230000Y-71865000D02*
X176865000Y-71230000D01*
%TO.C,J12*%
X172365000Y-73730000D02*
X174270000Y-73730000D01*
X174270000Y-73730000D02*
X174270000Y-76270000D01*
X174270000Y-76270000D02*
X171730000Y-76270000D01*
X171730000Y-76270000D02*
X171730000Y-74365000D01*
X171730000Y-74365000D02*
X172365000Y-73730000D01*
%TO.C,J13*%
X176865000Y-78730000D02*
X178770000Y-78730000D01*
X178770000Y-78730000D02*
X178770000Y-81270000D01*
X178770000Y-81270000D02*
X176230000Y-81270000D01*
X176230000Y-81270000D02*
X176230000Y-79365000D01*
X176230000Y-79365000D02*
X176865000Y-78730000D01*
%TO.C,J14*%
X172365000Y-81230000D02*
X174270000Y-81230000D01*
X174270000Y-81230000D02*
X174270000Y-83770000D01*
X174270000Y-83770000D02*
X171730000Y-83770000D01*
X171730000Y-83770000D02*
X171730000Y-81865000D01*
X171730000Y-81865000D02*
X172365000Y-81230000D01*
%TO.C,J15*%
X176865000Y-83730000D02*
X178770000Y-83730000D01*
X178770000Y-83730000D02*
X178770000Y-86270000D01*
X178770000Y-86270000D02*
X176230000Y-86270000D01*
X176230000Y-86270000D02*
X176230000Y-84365000D01*
X176230000Y-84365000D02*
X176865000Y-83730000D01*
%TO.C,J16*%
X172365000Y-86230000D02*
X174270000Y-86230000D01*
X174270000Y-86230000D02*
X174270000Y-88770000D01*
X174270000Y-88770000D02*
X171730000Y-88770000D01*
X171730000Y-88770000D02*
X171730000Y-86865000D01*
X171730000Y-86865000D02*
X172365000Y-86230000D01*
%TO.C,J17*%
X176865000Y-89230000D02*
X178770000Y-89230000D01*
X178770000Y-89230000D02*
X178770000Y-91770000D01*
X178770000Y-91770000D02*
X176230000Y-91770000D01*
X176230000Y-91770000D02*
X176230000Y-89865000D01*
X176230000Y-89865000D02*
X176865000Y-89230000D01*
%TO.C,J18*%
X146550000Y-79150000D02*
X146550000Y-84900000D01*
X146550000Y-84900000D02*
X153950000Y-84900000D01*
X153950000Y-84900000D02*
X153950000Y-79150000D01*
X153950000Y-79150000D02*
X146550000Y-79150000D01*
X148375000Y-79150000D02*
X149000000Y-80150000D01*
X149000000Y-80150000D02*
X149625000Y-79150000D01*
%TO.C,J19*%
X172365000Y-91730000D02*
X174270000Y-91730000D01*
X174270000Y-91730000D02*
X174270000Y-94270000D01*
X174270000Y-94270000D02*
X171730000Y-94270000D01*
X171730000Y-94270000D02*
X171730000Y-92365000D01*
X171730000Y-92365000D02*
X172365000Y-91730000D01*
%TO.C,J20*%
X176865000Y-94230000D02*
X178770000Y-94230000D01*
X178770000Y-94230000D02*
X178770000Y-96770000D01*
X178770000Y-96770000D02*
X176230000Y-96770000D01*
X176230000Y-96770000D02*
X176230000Y-94865000D01*
X176230000Y-94865000D02*
X176865000Y-94230000D01*
%TO.C,J21*%
X159365000Y-94230000D02*
X161270000Y-94230000D01*
X161270000Y-94230000D02*
X161270000Y-96770000D01*
X161270000Y-96770000D02*
X158730000Y-96770000D01*
X158730000Y-96770000D02*
X158730000Y-94865000D01*
X158730000Y-94865000D02*
X159365000Y-94230000D01*
%TO.C,J22*%
X172365000Y-96730000D02*
X174270000Y-96730000D01*
X174270000Y-96730000D02*
X174270000Y-99270000D01*
X174270000Y-99270000D02*
X171730000Y-99270000D01*
X171730000Y-99270000D02*
X171730000Y-97365000D01*
X171730000Y-97365000D02*
X172365000Y-96730000D01*
%TO.C,J23*%
X163865000Y-96730000D02*
X165770000Y-96730000D01*
X165770000Y-96730000D02*
X165770000Y-99270000D01*
X165770000Y-99270000D02*
X163230000Y-99270000D01*
X163230000Y-99270000D02*
X163230000Y-97365000D01*
X163230000Y-97365000D02*
X163865000Y-96730000D01*
%TO.C,J24*%
X176865000Y-101730000D02*
X178770000Y-101730000D01*
X178770000Y-101730000D02*
X178770000Y-104270000D01*
X178770000Y-104270000D02*
X176230000Y-104270000D01*
X176230000Y-104270000D02*
X176230000Y-102365000D01*
X176230000Y-102365000D02*
X176865000Y-101730000D01*
%TO.C,J25*%
X159365000Y-99230000D02*
X161270000Y-99230000D01*
X161270000Y-99230000D02*
X161270000Y-101770000D01*
X161270000Y-101770000D02*
X158730000Y-101770000D01*
X158730000Y-101770000D02*
X158730000Y-99865000D01*
X158730000Y-99865000D02*
X159365000Y-99230000D01*
%TO.C,J26*%
X141950000Y-93350000D02*
X141950000Y-87600000D01*
X141950000Y-87600000D02*
X134550000Y-87600000D01*
X134550000Y-87600000D02*
X134550000Y-93350000D01*
X134550000Y-93350000D02*
X141950000Y-93350000D01*
X140125000Y-93350000D02*
X139500000Y-92350000D01*
X139500000Y-92350000D02*
X138875000Y-93350000D01*
%TO.C,J27*%
X151350000Y-127550000D02*
X145600000Y-127550000D01*
X145600000Y-127550000D02*
X145600000Y-134950000D01*
X145600000Y-134950000D02*
X151350000Y-134950000D01*
X151350000Y-134950000D02*
X151350000Y-127550000D01*
X151350000Y-129375000D02*
X150350000Y-130000000D01*
X150350000Y-130000000D02*
X151350000Y-130625000D01*
%TO.C,J28*%
X138000000Y-150700000D02*
X133050000Y-150700000D01*
X133050000Y-150700000D02*
X133050000Y-139200000D01*
X133050000Y-139200000D02*
X134250000Y-139200000D01*
X134250000Y-139200000D02*
X134250000Y-143700000D01*
X134250000Y-143700000D02*
X138000000Y-143700000D01*
X138000000Y-150700000D02*
X142950000Y-150700000D01*
X142950000Y-150700000D02*
X142950000Y-139200000D01*
X142950000Y-139200000D02*
X141750000Y-139200000D01*
X141750000Y-139200000D02*
X141750000Y-143700000D01*
X141750000Y-143700000D02*
X138000000Y-143700000D01*
X134875000Y-143700000D02*
X135500000Y-142700000D01*
X135500000Y-142700000D02*
X136125000Y-143700000D01*
%TO.C,J29*%
X168350000Y-115550000D02*
X162600000Y-115550000D01*
X162600000Y-115550000D02*
X162600000Y-122950000D01*
X162600000Y-122950000D02*
X168350000Y-122950000D01*
X168350000Y-122950000D02*
X168350000Y-115550000D01*
X168350000Y-117375000D02*
X167350000Y-118000000D01*
X167350000Y-118000000D02*
X168350000Y-118625000D01*
%TO.C,Q1*%
X148700000Y-90950000D02*
X148700000Y-88500000D01*
X148150000Y-91520000D02*
X147300000Y-91520000D01*
X148700000Y-90950000D02*
X148150000Y-91520000D01*
X147300000Y-91520000D02*
X147300000Y-88480000D01*
X148700000Y-88480000D02*
X147300000Y-88480000D01*
%TO.C,R1*%
X182700000Y-118400000D02*
X182700000Y-117600000D01*
X182700000Y-117600000D02*
X184300000Y-117600000D01*
X184300000Y-117600000D02*
X184300000Y-118400000D01*
X184300000Y-118400000D02*
X182700000Y-118400000D01*
%TO.C,R2*%
X186600000Y-127200000D02*
X187400000Y-127200000D01*
X187400000Y-127200000D02*
X187400000Y-128800000D01*
X187400000Y-128800000D02*
X186600000Y-128800000D01*
X186600000Y-128800000D02*
X186600000Y-127200000D01*
%TO.C,R3*%
X183100000Y-123200000D02*
X183900000Y-123200000D01*
X183900000Y-123200000D02*
X183900000Y-124800000D01*
X183900000Y-124800000D02*
X183100000Y-124800000D01*
X183100000Y-124800000D02*
X183100000Y-123200000D01*
%TO.C,R4*%
X184600000Y-127200000D02*
X185400000Y-127200000D01*
X185400000Y-127200000D02*
X185400000Y-128800000D01*
X185400000Y-128800000D02*
X184600000Y-128800000D01*
X184600000Y-128800000D02*
X184600000Y-127200000D01*
%TO.C,R5*%
X184300000Y-119600000D02*
X184300000Y-120400000D01*
X184300000Y-120400000D02*
X182700000Y-120400000D01*
X182700000Y-120400000D02*
X182700000Y-119600000D01*
X182700000Y-119600000D02*
X184300000Y-119600000D01*
%TO.C,R6*%
X187900000Y-110300000D02*
X187100000Y-110300000D01*
X187100000Y-110300000D02*
X187100000Y-108700000D01*
X187100000Y-108700000D02*
X187900000Y-108700000D01*
X187900000Y-108700000D02*
X187900000Y-110300000D01*
%TO.C,R7*%
X184900000Y-68800000D02*
X184100000Y-68800000D01*
X184100000Y-68800000D02*
X184100000Y-67200000D01*
X184100000Y-67200000D02*
X184900000Y-67200000D01*
X184900000Y-67200000D02*
X184900000Y-68800000D01*
%TO.C,R8*%
X158700000Y-80400000D02*
X158700000Y-79600000D01*
X158700000Y-79600000D02*
X160300000Y-79600000D01*
X160300000Y-79600000D02*
X160300000Y-80400000D01*
X160300000Y-80400000D02*
X158700000Y-80400000D01*
%TO.C,R9*%
X158700000Y-73400000D02*
X158700000Y-72600000D01*
X158700000Y-72600000D02*
X160300000Y-72600000D01*
X160300000Y-72600000D02*
X160300000Y-73400000D01*
X160300000Y-73400000D02*
X158700000Y-73400000D01*
%TO.C,R10*%
X165700000Y-74900000D02*
X165700000Y-74100000D01*
X165700000Y-74100000D02*
X167300000Y-74100000D01*
X167300000Y-74100000D02*
X167300000Y-74900000D01*
X167300000Y-74900000D02*
X165700000Y-74900000D01*
%TO.C,R11*%
X164200000Y-77900000D02*
X164200000Y-77100000D01*
X164200000Y-77100000D02*
X165800000Y-77100000D01*
X165800000Y-77100000D02*
X165800000Y-77900000D01*
X165800000Y-77900000D02*
X164200000Y-77900000D01*
%TO.C,R12*%
X152300000Y-86600000D02*
X152300000Y-87400000D01*
X152300000Y-87400000D02*
X150700000Y-87400000D01*
X150700000Y-87400000D02*
X150700000Y-86600000D01*
X150700000Y-86600000D02*
X152300000Y-86600000D01*
%TO.C,R13*%
X149825000Y-99400000D02*
X149825000Y-98600000D01*
X149825000Y-98600000D02*
X151425000Y-98600000D01*
X151425000Y-98600000D02*
X151425000Y-99400000D01*
X151425000Y-99400000D02*
X149825000Y-99400000D01*
%TO.C,R14*%
X151400000Y-105800000D02*
X150600000Y-105800000D01*
X150600000Y-105800000D02*
X150600000Y-104200000D01*
X150600000Y-104200000D02*
X151400000Y-104200000D01*
X151400000Y-104200000D02*
X151400000Y-105800000D01*
%TO.C,R15*%
X152600000Y-104075000D02*
X153400000Y-104075000D01*
X153400000Y-104075000D02*
X153400000Y-105675000D01*
X153400000Y-105675000D02*
X152600000Y-105675000D01*
X152600000Y-105675000D02*
X152600000Y-104075000D01*
%TO.C,R16*%
X145175000Y-89600000D02*
X145175000Y-90400000D01*
X145175000Y-90400000D02*
X143575000Y-90400000D01*
X143575000Y-90400000D02*
X143575000Y-89600000D01*
X143575000Y-89600000D02*
X145175000Y-89600000D01*
%TO.C,R17*%
X152300000Y-90600000D02*
X152300000Y-91400000D01*
X152300000Y-91400000D02*
X150700000Y-91400000D01*
X150700000Y-91400000D02*
X150700000Y-90600000D01*
X150700000Y-90600000D02*
X152300000Y-90600000D01*
%TO.C,R18*%
X150700000Y-89400000D02*
X150700000Y-88600000D01*
X150700000Y-88600000D02*
X152300000Y-88600000D01*
X152300000Y-88600000D02*
X152300000Y-89400000D01*
X152300000Y-89400000D02*
X150700000Y-89400000D01*
%TO.C,U3*%
X178250000Y-120000000D02*
X176000000Y-120000000D01*
X176000000Y-120000000D02*
X176000000Y-117000000D01*
X176000000Y-117000000D02*
X179000000Y-117000000D01*
X179000000Y-117000000D02*
X179000000Y-119250000D01*
X179000000Y-119250000D02*
X178250000Y-120000000D01*
D12*
%TO.C,U4*%
X144580000Y-110760000D02*
X144580000Y-137430000D01*
X144580000Y-137430000D02*
X110290000Y-137430000D01*
X144580000Y-110760000D02*
X144580000Y-94250000D01*
X144580000Y-94250000D02*
X110290000Y-94250000D01*
X110290000Y-94250000D02*
X110290000Y-137430000D01*
D11*
%TO.C,J6*%
X146150000Y-120450000D02*
X151900000Y-120450000D01*
X151900000Y-120450000D02*
X151900000Y-108050000D01*
X151900000Y-108050000D02*
X146150000Y-108050000D01*
X146150000Y-108050000D02*
X146150000Y-120450000D01*
X146150000Y-118625000D02*
X147150000Y-118000000D01*
X147150000Y-118000000D02*
X146150000Y-117375000D01*
%TO.C,J7*%
X133121000Y-66232000D02*
X133121000Y-71982000D01*
X133121000Y-71982000D02*
X145521000Y-71982000D01*
X145521000Y-71982000D02*
X145521000Y-66232000D01*
X145521000Y-66232000D02*
X133121000Y-66232000D01*
X134946000Y-66232000D02*
X135571000Y-67232000D01*
X135571000Y-67232000D02*
X136196000Y-66232000D01*
%TO.C,J8*%
X133095001Y-80329000D02*
X133095001Y-86079000D01*
X133095001Y-86079000D02*
X145495001Y-86079000D01*
X145495001Y-86079000D02*
X145495001Y-80329000D01*
X145495001Y-80329000D02*
X133095001Y-80329000D01*
X134920001Y-80329000D02*
X135545001Y-81329000D01*
X135545001Y-81329000D02*
X136170001Y-80329000D01*
%TO.C,J11*%
X133095001Y-73305001D02*
X133095001Y-79055001D01*
X133095001Y-79055001D02*
X145495001Y-79055001D01*
X145495001Y-79055001D02*
X145495001Y-73305001D01*
X145495001Y-73305001D02*
X133095001Y-73305001D01*
X134920001Y-73305001D02*
X135545001Y-74305001D01*
X135545001Y-74305001D02*
X136170001Y-73305001D01*
%TD*%
%TO.C,H3*%
D13*
X188428571Y-154652380D02*
X188428571Y-153652380D01*
X188761904Y-154366666D01*
X189095238Y-153652380D01*
X189095238Y-154652380D01*
X189714285Y-154652380D02*
X189619047Y-154604761D01*
X189571428Y-154557142D01*
X189523809Y-154461904D01*
X189523809Y-154176190D01*
X189571428Y-154080952D01*
X189619047Y-154033333D01*
X189714285Y-153985714D01*
X189857142Y-153985714D01*
X189952380Y-154033333D01*
X190000000Y-154080952D01*
X190047619Y-154176190D01*
X190047619Y-154461904D01*
X190000000Y-154557142D01*
X189952380Y-154604761D01*
X189857142Y-154652380D01*
X189714285Y-154652380D01*
X190904761Y-153985714D02*
X190904761Y-154652380D01*
X190476190Y-153985714D02*
X190476190Y-154509523D01*
X190523809Y-154604761D01*
X190619047Y-154652380D01*
X190761904Y-154652380D01*
X190857142Y-154604761D01*
X190904761Y-154557142D01*
X191380952Y-153985714D02*
X191380952Y-154652380D01*
X191380952Y-154080952D02*
X191428571Y-154033333D01*
X191523809Y-153985714D01*
X191666666Y-153985714D01*
X191761904Y-154033333D01*
X191809523Y-154128571D01*
X191809523Y-154652380D01*
X192142857Y-153985714D02*
X192523809Y-153985714D01*
X192285714Y-153652380D02*
X192285714Y-154509523D01*
X192333333Y-154604761D01*
X192428571Y-154652380D01*
X192523809Y-154652380D01*
X192857142Y-154652380D02*
X192857142Y-153985714D01*
X192857142Y-153652380D02*
X192809523Y-153700000D01*
X192857142Y-153747619D01*
X192904761Y-153700000D01*
X192857142Y-153652380D01*
X192857142Y-153747619D01*
X193333333Y-153985714D02*
X193333333Y-154652380D01*
X193333333Y-154080952D02*
X193380952Y-154033333D01*
X193476190Y-153985714D01*
X193619047Y-153985714D01*
X193714285Y-154033333D01*
X193761904Y-154128571D01*
X193761904Y-154652380D01*
X194666666Y-153985714D02*
X194666666Y-154795238D01*
X194619047Y-154890476D01*
X194571428Y-154938095D01*
X194476190Y-154985714D01*
X194333333Y-154985714D01*
X194238095Y-154938095D01*
X194666666Y-154604761D02*
X194571428Y-154652380D01*
X194380952Y-154652380D01*
X194285714Y-154604761D01*
X194238095Y-154557142D01*
X194190476Y-154461904D01*
X194190476Y-154176190D01*
X194238095Y-154080952D01*
X194285714Y-154033333D01*
X194380952Y-153985714D01*
X194571428Y-153985714D01*
X194666666Y-154033333D01*
X195142857Y-154652380D02*
X195142857Y-153652380D01*
X195142857Y-154128571D02*
X195714285Y-154128571D01*
X195714285Y-154652380D02*
X195714285Y-153652380D01*
X196333333Y-154652380D02*
X196238095Y-154604761D01*
X196190476Y-154557142D01*
X196142857Y-154461904D01*
X196142857Y-154176190D01*
X196190476Y-154080952D01*
X196238095Y-154033333D01*
X196333333Y-153985714D01*
X196476190Y-153985714D01*
X196571428Y-154033333D01*
X196619047Y-154080952D01*
X196666666Y-154176190D01*
X196666666Y-154461904D01*
X196619047Y-154557142D01*
X196571428Y-154604761D01*
X196476190Y-154652380D01*
X196333333Y-154652380D01*
X197238095Y-154652380D02*
X197142857Y-154604761D01*
X197095238Y-154509523D01*
X197095238Y-153652380D01*
X198000000Y-154604761D02*
X197904761Y-154652380D01*
X197714285Y-154652380D01*
X197619047Y-154604761D01*
X197571428Y-154509523D01*
X197571428Y-154128571D01*
X197619047Y-154033333D01*
X197714285Y-153985714D01*
X197904761Y-153985714D01*
X198000000Y-154033333D01*
X198047619Y-154128571D01*
X198047619Y-154223809D01*
X197571428Y-154319047D01*
X198238095Y-154747619D02*
X199000000Y-154747619D01*
X199238095Y-154652380D02*
X199238095Y-153652380D01*
X199619047Y-153652380D01*
X199714285Y-153700000D01*
X199761904Y-153747619D01*
X199809523Y-153842857D01*
X199809523Y-153985714D01*
X199761904Y-154080952D01*
X199714285Y-154128571D01*
X199619047Y-154176190D01*
X199238095Y-154176190D01*
X200666666Y-154652380D02*
X200666666Y-154128571D01*
X200619047Y-154033333D01*
X200523809Y-153985714D01*
X200333333Y-153985714D01*
X200238095Y-154033333D01*
X200666666Y-154604761D02*
X200571428Y-154652380D01*
X200333333Y-154652380D01*
X200238095Y-154604761D01*
X200190476Y-154509523D01*
X200190476Y-154414285D01*
X200238095Y-154319047D01*
X200333333Y-154271428D01*
X200571428Y-154271428D01*
X200666666Y-154223809D01*
X201571428Y-154652380D02*
X201571428Y-153652380D01*
X201571428Y-154604761D02*
X201476190Y-154652380D01*
X201285714Y-154652380D01*
X201190476Y-154604761D01*
X201142857Y-154557142D01*
X201095238Y-154461904D01*
X201095238Y-154176190D01*
X201142857Y-154080952D01*
X201190476Y-154033333D01*
X201285714Y-153985714D01*
X201476190Y-153985714D01*
X201571428Y-154033333D01*
X194538095Y-150452380D02*
X194538095Y-149452380D01*
X194538095Y-149928571D02*
X195109523Y-149928571D01*
X195109523Y-150452380D02*
X195109523Y-149452380D01*
X195490476Y-149452380D02*
X196109523Y-149452380D01*
X195776190Y-149833333D01*
X195919047Y-149833333D01*
X196014285Y-149880952D01*
X196061904Y-149928571D01*
X196109523Y-150023809D01*
X196109523Y-150261904D01*
X196061904Y-150357142D01*
X196014285Y-150404761D01*
X195919047Y-150452380D01*
X195633333Y-150452380D01*
X195538095Y-150404761D01*
X195490476Y-150357142D01*
%TO.C,H1*%
X98428571Y-64652380D02*
X98428571Y-63652380D01*
X98761904Y-64366666D01*
X99095238Y-63652380D01*
X99095238Y-64652380D01*
X99714285Y-64652380D02*
X99619047Y-64604761D01*
X99571428Y-64557142D01*
X99523809Y-64461904D01*
X99523809Y-64176190D01*
X99571428Y-64080952D01*
X99619047Y-64033333D01*
X99714285Y-63985714D01*
X99857142Y-63985714D01*
X99952380Y-64033333D01*
X100000000Y-64080952D01*
X100047619Y-64176190D01*
X100047619Y-64461904D01*
X100000000Y-64557142D01*
X99952380Y-64604761D01*
X99857142Y-64652380D01*
X99714285Y-64652380D01*
X100904761Y-63985714D02*
X100904761Y-64652380D01*
X100476190Y-63985714D02*
X100476190Y-64509523D01*
X100523809Y-64604761D01*
X100619047Y-64652380D01*
X100761904Y-64652380D01*
X100857142Y-64604761D01*
X100904761Y-64557142D01*
X101380952Y-63985714D02*
X101380952Y-64652380D01*
X101380952Y-64080952D02*
X101428571Y-64033333D01*
X101523809Y-63985714D01*
X101666666Y-63985714D01*
X101761904Y-64033333D01*
X101809523Y-64128571D01*
X101809523Y-64652380D01*
X102142857Y-63985714D02*
X102523809Y-63985714D01*
X102285714Y-63652380D02*
X102285714Y-64509523D01*
X102333333Y-64604761D01*
X102428571Y-64652380D01*
X102523809Y-64652380D01*
X102857142Y-64652380D02*
X102857142Y-63985714D01*
X102857142Y-63652380D02*
X102809523Y-63700000D01*
X102857142Y-63747619D01*
X102904761Y-63700000D01*
X102857142Y-63652380D01*
X102857142Y-63747619D01*
X103333333Y-63985714D02*
X103333333Y-64652380D01*
X103333333Y-64080952D02*
X103380952Y-64033333D01*
X103476190Y-63985714D01*
X103619047Y-63985714D01*
X103714285Y-64033333D01*
X103761904Y-64128571D01*
X103761904Y-64652380D01*
X104666666Y-63985714D02*
X104666666Y-64795238D01*
X104619047Y-64890476D01*
X104571428Y-64938095D01*
X104476190Y-64985714D01*
X104333333Y-64985714D01*
X104238095Y-64938095D01*
X104666666Y-64604761D02*
X104571428Y-64652380D01*
X104380952Y-64652380D01*
X104285714Y-64604761D01*
X104238095Y-64557142D01*
X104190476Y-64461904D01*
X104190476Y-64176190D01*
X104238095Y-64080952D01*
X104285714Y-64033333D01*
X104380952Y-63985714D01*
X104571428Y-63985714D01*
X104666666Y-64033333D01*
X105142857Y-64652380D02*
X105142857Y-63652380D01*
X105142857Y-64128571D02*
X105714285Y-64128571D01*
X105714285Y-64652380D02*
X105714285Y-63652380D01*
X106333333Y-64652380D02*
X106238095Y-64604761D01*
X106190476Y-64557142D01*
X106142857Y-64461904D01*
X106142857Y-64176190D01*
X106190476Y-64080952D01*
X106238095Y-64033333D01*
X106333333Y-63985714D01*
X106476190Y-63985714D01*
X106571428Y-64033333D01*
X106619047Y-64080952D01*
X106666666Y-64176190D01*
X106666666Y-64461904D01*
X106619047Y-64557142D01*
X106571428Y-64604761D01*
X106476190Y-64652380D01*
X106333333Y-64652380D01*
X107238095Y-64652380D02*
X107142857Y-64604761D01*
X107095238Y-64509523D01*
X107095238Y-63652380D01*
X108000000Y-64604761D02*
X107904761Y-64652380D01*
X107714285Y-64652380D01*
X107619047Y-64604761D01*
X107571428Y-64509523D01*
X107571428Y-64128571D01*
X107619047Y-64033333D01*
X107714285Y-63985714D01*
X107904761Y-63985714D01*
X108000000Y-64033333D01*
X108047619Y-64128571D01*
X108047619Y-64223809D01*
X107571428Y-64319047D01*
X108238095Y-64747619D02*
X109000000Y-64747619D01*
X109238095Y-64652380D02*
X109238095Y-63652380D01*
X109619047Y-63652380D01*
X109714285Y-63700000D01*
X109761904Y-63747619D01*
X109809523Y-63842857D01*
X109809523Y-63985714D01*
X109761904Y-64080952D01*
X109714285Y-64128571D01*
X109619047Y-64176190D01*
X109238095Y-64176190D01*
X110666666Y-64652380D02*
X110666666Y-64128571D01*
X110619047Y-64033333D01*
X110523809Y-63985714D01*
X110333333Y-63985714D01*
X110238095Y-64033333D01*
X110666666Y-64604761D02*
X110571428Y-64652380D01*
X110333333Y-64652380D01*
X110238095Y-64604761D01*
X110190476Y-64509523D01*
X110190476Y-64414285D01*
X110238095Y-64319047D01*
X110333333Y-64271428D01*
X110571428Y-64271428D01*
X110666666Y-64223809D01*
X111571428Y-64652380D02*
X111571428Y-63652380D01*
X111571428Y-64604761D02*
X111476190Y-64652380D01*
X111285714Y-64652380D01*
X111190476Y-64604761D01*
X111142857Y-64557142D01*
X111095238Y-64461904D01*
X111095238Y-64176190D01*
X111142857Y-64080952D01*
X111190476Y-64033333D01*
X111285714Y-63985714D01*
X111476190Y-63985714D01*
X111571428Y-64033333D01*
X104538095Y-60452380D02*
X104538095Y-59452380D01*
X104538095Y-59928571D02*
X105109523Y-59928571D01*
X105109523Y-60452380D02*
X105109523Y-59452380D01*
X106109523Y-60452380D02*
X105538095Y-60452380D01*
X105823809Y-60452380D02*
X105823809Y-59452380D01*
X105728571Y-59595238D01*
X105633333Y-59690476D01*
X105538095Y-59738095D01*
%TO.C,H2*%
X188428571Y-64652380D02*
X188428571Y-63652380D01*
X188761904Y-64366666D01*
X189095238Y-63652380D01*
X189095238Y-64652380D01*
X189714285Y-64652380D02*
X189619047Y-64604761D01*
X189571428Y-64557142D01*
X189523809Y-64461904D01*
X189523809Y-64176190D01*
X189571428Y-64080952D01*
X189619047Y-64033333D01*
X189714285Y-63985714D01*
X189857142Y-63985714D01*
X189952380Y-64033333D01*
X190000000Y-64080952D01*
X190047619Y-64176190D01*
X190047619Y-64461904D01*
X190000000Y-64557142D01*
X189952380Y-64604761D01*
X189857142Y-64652380D01*
X189714285Y-64652380D01*
X190904761Y-63985714D02*
X190904761Y-64652380D01*
X190476190Y-63985714D02*
X190476190Y-64509523D01*
X190523809Y-64604761D01*
X190619047Y-64652380D01*
X190761904Y-64652380D01*
X190857142Y-64604761D01*
X190904761Y-64557142D01*
X191380952Y-63985714D02*
X191380952Y-64652380D01*
X191380952Y-64080952D02*
X191428571Y-64033333D01*
X191523809Y-63985714D01*
X191666666Y-63985714D01*
X191761904Y-64033333D01*
X191809523Y-64128571D01*
X191809523Y-64652380D01*
X192142857Y-63985714D02*
X192523809Y-63985714D01*
X192285714Y-63652380D02*
X192285714Y-64509523D01*
X192333333Y-64604761D01*
X192428571Y-64652380D01*
X192523809Y-64652380D01*
X192857142Y-64652380D02*
X192857142Y-63985714D01*
X192857142Y-63652380D02*
X192809523Y-63700000D01*
X192857142Y-63747619D01*
X192904761Y-63700000D01*
X192857142Y-63652380D01*
X192857142Y-63747619D01*
X193333333Y-63985714D02*
X193333333Y-64652380D01*
X193333333Y-64080952D02*
X193380952Y-64033333D01*
X193476190Y-63985714D01*
X193619047Y-63985714D01*
X193714285Y-64033333D01*
X193761904Y-64128571D01*
X193761904Y-64652380D01*
X194666666Y-63985714D02*
X194666666Y-64795238D01*
X194619047Y-64890476D01*
X194571428Y-64938095D01*
X194476190Y-64985714D01*
X194333333Y-64985714D01*
X194238095Y-64938095D01*
X194666666Y-64604761D02*
X194571428Y-64652380D01*
X194380952Y-64652380D01*
X194285714Y-64604761D01*
X194238095Y-64557142D01*
X194190476Y-64461904D01*
X194190476Y-64176190D01*
X194238095Y-64080952D01*
X194285714Y-64033333D01*
X194380952Y-63985714D01*
X194571428Y-63985714D01*
X194666666Y-64033333D01*
X195142857Y-64652380D02*
X195142857Y-63652380D01*
X195142857Y-64128571D02*
X195714285Y-64128571D01*
X195714285Y-64652380D02*
X195714285Y-63652380D01*
X196333333Y-64652380D02*
X196238095Y-64604761D01*
X196190476Y-64557142D01*
X196142857Y-64461904D01*
X196142857Y-64176190D01*
X196190476Y-64080952D01*
X196238095Y-64033333D01*
X196333333Y-63985714D01*
X196476190Y-63985714D01*
X196571428Y-64033333D01*
X196619047Y-64080952D01*
X196666666Y-64176190D01*
X196666666Y-64461904D01*
X196619047Y-64557142D01*
X196571428Y-64604761D01*
X196476190Y-64652380D01*
X196333333Y-64652380D01*
X197238095Y-64652380D02*
X197142857Y-64604761D01*
X197095238Y-64509523D01*
X197095238Y-63652380D01*
X198000000Y-64604761D02*
X197904761Y-64652380D01*
X197714285Y-64652380D01*
X197619047Y-64604761D01*
X197571428Y-64509523D01*
X197571428Y-64128571D01*
X197619047Y-64033333D01*
X197714285Y-63985714D01*
X197904761Y-63985714D01*
X198000000Y-64033333D01*
X198047619Y-64128571D01*
X198047619Y-64223809D01*
X197571428Y-64319047D01*
X198238095Y-64747619D02*
X199000000Y-64747619D01*
X199238095Y-64652380D02*
X199238095Y-63652380D01*
X199619047Y-63652380D01*
X199714285Y-63700000D01*
X199761904Y-63747619D01*
X199809523Y-63842857D01*
X199809523Y-63985714D01*
X199761904Y-64080952D01*
X199714285Y-64128571D01*
X199619047Y-64176190D01*
X199238095Y-64176190D01*
X200666666Y-64652380D02*
X200666666Y-64128571D01*
X200619047Y-64033333D01*
X200523809Y-63985714D01*
X200333333Y-63985714D01*
X200238095Y-64033333D01*
X200666666Y-64604761D02*
X200571428Y-64652380D01*
X200333333Y-64652380D01*
X200238095Y-64604761D01*
X200190476Y-64509523D01*
X200190476Y-64414285D01*
X200238095Y-64319047D01*
X200333333Y-64271428D01*
X200571428Y-64271428D01*
X200666666Y-64223809D01*
X201571428Y-64652380D02*
X201571428Y-63652380D01*
X201571428Y-64604761D02*
X201476190Y-64652380D01*
X201285714Y-64652380D01*
X201190476Y-64604761D01*
X201142857Y-64557142D01*
X201095238Y-64461904D01*
X201095238Y-64176190D01*
X201142857Y-64080952D01*
X201190476Y-64033333D01*
X201285714Y-63985714D01*
X201476190Y-63985714D01*
X201571428Y-64033333D01*
X194538095Y-60452380D02*
X194538095Y-59452380D01*
X194538095Y-59928571D02*
X195109523Y-59928571D01*
X195109523Y-60452380D02*
X195109523Y-59452380D01*
X195538095Y-59547619D02*
X195585714Y-59500000D01*
X195680952Y-59452380D01*
X195919047Y-59452380D01*
X196014285Y-59500000D01*
X196061904Y-59547619D01*
X196109523Y-59642857D01*
X196109523Y-59738095D01*
X196061904Y-59880952D01*
X195490476Y-60452380D01*
X196109523Y-60452380D01*
%TO.C,H4*%
X98428571Y-154652380D02*
X98428571Y-153652380D01*
X98761904Y-154366666D01*
X99095238Y-153652380D01*
X99095238Y-154652380D01*
X99714285Y-154652380D02*
X99619047Y-154604761D01*
X99571428Y-154557142D01*
X99523809Y-154461904D01*
X99523809Y-154176190D01*
X99571428Y-154080952D01*
X99619047Y-154033333D01*
X99714285Y-153985714D01*
X99857142Y-153985714D01*
X99952380Y-154033333D01*
X100000000Y-154080952D01*
X100047619Y-154176190D01*
X100047619Y-154461904D01*
X100000000Y-154557142D01*
X99952380Y-154604761D01*
X99857142Y-154652380D01*
X99714285Y-154652380D01*
X100904761Y-153985714D02*
X100904761Y-154652380D01*
X100476190Y-153985714D02*
X100476190Y-154509523D01*
X100523809Y-154604761D01*
X100619047Y-154652380D01*
X100761904Y-154652380D01*
X100857142Y-154604761D01*
X100904761Y-154557142D01*
X101380952Y-153985714D02*
X101380952Y-154652380D01*
X101380952Y-154080952D02*
X101428571Y-154033333D01*
X101523809Y-153985714D01*
X101666666Y-153985714D01*
X101761904Y-154033333D01*
X101809523Y-154128571D01*
X101809523Y-154652380D01*
X102142857Y-153985714D02*
X102523809Y-153985714D01*
X102285714Y-153652380D02*
X102285714Y-154509523D01*
X102333333Y-154604761D01*
X102428571Y-154652380D01*
X102523809Y-154652380D01*
X102857142Y-154652380D02*
X102857142Y-153985714D01*
X102857142Y-153652380D02*
X102809523Y-153700000D01*
X102857142Y-153747619D01*
X102904761Y-153700000D01*
X102857142Y-153652380D01*
X102857142Y-153747619D01*
X103333333Y-153985714D02*
X103333333Y-154652380D01*
X103333333Y-154080952D02*
X103380952Y-154033333D01*
X103476190Y-153985714D01*
X103619047Y-153985714D01*
X103714285Y-154033333D01*
X103761904Y-154128571D01*
X103761904Y-154652380D01*
X104666666Y-153985714D02*
X104666666Y-154795238D01*
X104619047Y-154890476D01*
X104571428Y-154938095D01*
X104476190Y-154985714D01*
X104333333Y-154985714D01*
X104238095Y-154938095D01*
X104666666Y-154604761D02*
X104571428Y-154652380D01*
X104380952Y-154652380D01*
X104285714Y-154604761D01*
X104238095Y-154557142D01*
X104190476Y-154461904D01*
X104190476Y-154176190D01*
X104238095Y-154080952D01*
X104285714Y-154033333D01*
X104380952Y-153985714D01*
X104571428Y-153985714D01*
X104666666Y-154033333D01*
X105142857Y-154652380D02*
X105142857Y-153652380D01*
X105142857Y-154128571D02*
X105714285Y-154128571D01*
X105714285Y-154652380D02*
X105714285Y-153652380D01*
X106333333Y-154652380D02*
X106238095Y-154604761D01*
X106190476Y-154557142D01*
X106142857Y-154461904D01*
X106142857Y-154176190D01*
X106190476Y-154080952D01*
X106238095Y-154033333D01*
X106333333Y-153985714D01*
X106476190Y-153985714D01*
X106571428Y-154033333D01*
X106619047Y-154080952D01*
X106666666Y-154176190D01*
X106666666Y-154461904D01*
X106619047Y-154557142D01*
X106571428Y-154604761D01*
X106476190Y-154652380D01*
X106333333Y-154652380D01*
X107238095Y-154652380D02*
X107142857Y-154604761D01*
X107095238Y-154509523D01*
X107095238Y-153652380D01*
X108000000Y-154604761D02*
X107904761Y-154652380D01*
X107714285Y-154652380D01*
X107619047Y-154604761D01*
X107571428Y-154509523D01*
X107571428Y-154128571D01*
X107619047Y-154033333D01*
X107714285Y-153985714D01*
X107904761Y-153985714D01*
X108000000Y-154033333D01*
X108047619Y-154128571D01*
X108047619Y-154223809D01*
X107571428Y-154319047D01*
X108238095Y-154747619D02*
X109000000Y-154747619D01*
X109238095Y-154652380D02*
X109238095Y-153652380D01*
X109619047Y-153652380D01*
X109714285Y-153700000D01*
X109761904Y-153747619D01*
X109809523Y-153842857D01*
X109809523Y-153985714D01*
X109761904Y-154080952D01*
X109714285Y-154128571D01*
X109619047Y-154176190D01*
X109238095Y-154176190D01*
X110666666Y-154652380D02*
X110666666Y-154128571D01*
X110619047Y-154033333D01*
X110523809Y-153985714D01*
X110333333Y-153985714D01*
X110238095Y-154033333D01*
X110666666Y-154604761D02*
X110571428Y-154652380D01*
X110333333Y-154652380D01*
X110238095Y-154604761D01*
X110190476Y-154509523D01*
X110190476Y-154414285D01*
X110238095Y-154319047D01*
X110333333Y-154271428D01*
X110571428Y-154271428D01*
X110666666Y-154223809D01*
X111571428Y-154652380D02*
X111571428Y-153652380D01*
X111571428Y-154604761D02*
X111476190Y-154652380D01*
X111285714Y-154652380D01*
X111190476Y-154604761D01*
X111142857Y-154557142D01*
X111095238Y-154461904D01*
X111095238Y-154176190D01*
X111142857Y-154080952D01*
X111190476Y-154033333D01*
X111285714Y-153985714D01*
X111476190Y-153985714D01*
X111571428Y-154033333D01*
X104538095Y-150452380D02*
X104538095Y-149452380D01*
X104538095Y-149928571D02*
X105109523Y-149928571D01*
X105109523Y-150452380D02*
X105109523Y-149452380D01*
X106014285Y-149785714D02*
X106014285Y-150452380D01*
X105776190Y-149404761D02*
X105538095Y-150119047D01*
X106157142Y-150119047D01*
%TO.C,C1*%
X174882380Y-119095238D02*
X174882380Y-119666666D01*
X174882380Y-119380952D02*
X173882380Y-119380952D01*
X174025238Y-119476190D01*
X174120476Y-119571428D01*
X174168095Y-119666666D01*
X174215714Y-118238095D02*
X174882380Y-118238095D01*
X174215714Y-118666666D02*
X174739523Y-118666666D01*
X174834761Y-118619047D01*
X174882380Y-118523809D01*
X174882380Y-118380952D01*
X174834761Y-118285714D01*
X174787142Y-118238095D01*
X174358571Y-117428571D02*
X174358571Y-117761904D01*
X174882380Y-117761904D02*
X173882380Y-117761904D01*
X173882380Y-117285714D01*
D14*
X173142857Y-118566666D02*
X173161904Y-118585714D01*
X173180952Y-118642857D01*
X173180952Y-118680952D01*
X173161904Y-118738095D01*
X173123809Y-118776190D01*
X173085714Y-118795238D01*
X173009523Y-118814285D01*
X172952380Y-118814285D01*
X172876190Y-118795238D01*
X172838095Y-118776190D01*
X172800000Y-118738095D01*
X172780952Y-118680952D01*
X172780952Y-118642857D01*
X172800000Y-118585714D01*
X172819047Y-118566666D01*
X173180952Y-118185714D02*
X173180952Y-118414285D01*
X173180952Y-118300000D02*
X172780952Y-118300000D01*
X172838095Y-118338095D01*
X172876190Y-118376190D01*
X172895238Y-118414285D01*
%TO.C,C2*%
D13*
X172882380Y-120047619D02*
X172882380Y-120619047D01*
X172882380Y-120333333D02*
X171882380Y-120333333D01*
X172025238Y-120428571D01*
X172120476Y-120523809D01*
X172168095Y-120619047D01*
X171882380Y-119428571D02*
X171882380Y-119333333D01*
X171930000Y-119238095D01*
X171977619Y-119190476D01*
X172072857Y-119142857D01*
X172263333Y-119095238D01*
X172501428Y-119095238D01*
X172691904Y-119142857D01*
X172787142Y-119190476D01*
X172834761Y-119238095D01*
X172882380Y-119333333D01*
X172882380Y-119428571D01*
X172834761Y-119523809D01*
X172787142Y-119571428D01*
X172691904Y-119619047D01*
X172501428Y-119666666D01*
X172263333Y-119666666D01*
X172072857Y-119619047D01*
X171977619Y-119571428D01*
X171930000Y-119523809D01*
X171882380Y-119428571D01*
X171882380Y-118476190D02*
X171882380Y-118380952D01*
X171930000Y-118285714D01*
X171977619Y-118238095D01*
X172072857Y-118190476D01*
X172263333Y-118142857D01*
X172501428Y-118142857D01*
X172691904Y-118190476D01*
X172787142Y-118238095D01*
X172834761Y-118285714D01*
X172882380Y-118380952D01*
X172882380Y-118476190D01*
X172834761Y-118571428D01*
X172787142Y-118619047D01*
X172691904Y-118666666D01*
X172501428Y-118714285D01*
X172263333Y-118714285D01*
X172072857Y-118666666D01*
X171977619Y-118619047D01*
X171930000Y-118571428D01*
X171882380Y-118476190D01*
X172215714Y-117714285D02*
X172882380Y-117714285D01*
X172310952Y-117714285D02*
X172263333Y-117666666D01*
X172215714Y-117571428D01*
X172215714Y-117428571D01*
X172263333Y-117333333D01*
X172358571Y-117285714D01*
X172882380Y-117285714D01*
X172358571Y-116476190D02*
X172358571Y-116809523D01*
X172882380Y-116809523D02*
X171882380Y-116809523D01*
X171882380Y-116333333D01*
D14*
X171142857Y-118566666D02*
X171161904Y-118585714D01*
X171180952Y-118642857D01*
X171180952Y-118680952D01*
X171161904Y-118738095D01*
X171123809Y-118776190D01*
X171085714Y-118795238D01*
X171009523Y-118814285D01*
X170952380Y-118814285D01*
X170876190Y-118795238D01*
X170838095Y-118776190D01*
X170800000Y-118738095D01*
X170780952Y-118680952D01*
X170780952Y-118642857D01*
X170800000Y-118585714D01*
X170819047Y-118566666D01*
X170819047Y-118414285D02*
X170800000Y-118395238D01*
X170780952Y-118357142D01*
X170780952Y-118261904D01*
X170800000Y-118223809D01*
X170819047Y-118204761D01*
X170857142Y-118185714D01*
X170895238Y-118185714D01*
X170952380Y-118204761D01*
X171180952Y-118433333D01*
X171180952Y-118185714D01*
%TO.C,C3*%
D13*
X185452380Y-119882380D02*
X184880952Y-119882380D01*
X185166666Y-119882380D02*
X185166666Y-118882380D01*
X185071428Y-119025238D01*
X184976190Y-119120476D01*
X184880952Y-119168095D01*
X186071428Y-118882380D02*
X186166666Y-118882380D01*
X186261904Y-118930000D01*
X186309523Y-118977619D01*
X186357142Y-119072857D01*
X186404761Y-119263333D01*
X186404761Y-119501428D01*
X186357142Y-119691904D01*
X186309523Y-119787142D01*
X186261904Y-119834761D01*
X186166666Y-119882380D01*
X186071428Y-119882380D01*
X185976190Y-119834761D01*
X185928571Y-119787142D01*
X185880952Y-119691904D01*
X185833333Y-119501428D01*
X185833333Y-119263333D01*
X185880952Y-119072857D01*
X185928571Y-118977619D01*
X185976190Y-118930000D01*
X186071428Y-118882380D01*
X187023809Y-118882380D02*
X187119047Y-118882380D01*
X187214285Y-118930000D01*
X187261904Y-118977619D01*
X187309523Y-119072857D01*
X187357142Y-119263333D01*
X187357142Y-119501428D01*
X187309523Y-119691904D01*
X187261904Y-119787142D01*
X187214285Y-119834761D01*
X187119047Y-119882380D01*
X187023809Y-119882380D01*
X186928571Y-119834761D01*
X186880952Y-119787142D01*
X186833333Y-119691904D01*
X186785714Y-119501428D01*
X186785714Y-119263333D01*
X186833333Y-119072857D01*
X186880952Y-118977619D01*
X186928571Y-118930000D01*
X187023809Y-118882380D01*
X187785714Y-119215714D02*
X187785714Y-119882380D01*
X187785714Y-119310952D02*
X187833333Y-119263333D01*
X187928571Y-119215714D01*
X188071428Y-119215714D01*
X188166666Y-119263333D01*
X188214285Y-119358571D01*
X188214285Y-119882380D01*
X189023809Y-119358571D02*
X188690476Y-119358571D01*
X188690476Y-119882380D02*
X188690476Y-118882380D01*
X189166666Y-118882380D01*
D14*
X186933333Y-118142857D02*
X186914285Y-118161904D01*
X186857142Y-118180952D01*
X186819047Y-118180952D01*
X186761904Y-118161904D01*
X186723809Y-118123809D01*
X186704761Y-118085714D01*
X186685714Y-118009523D01*
X186685714Y-117952380D01*
X186704761Y-117876190D01*
X186723809Y-117838095D01*
X186761904Y-117800000D01*
X186819047Y-117780952D01*
X186857142Y-117780952D01*
X186914285Y-117800000D01*
X186933333Y-117819047D01*
X187066666Y-117780952D02*
X187314285Y-117780952D01*
X187180952Y-117933333D01*
X187238095Y-117933333D01*
X187276190Y-117952380D01*
X187295238Y-117971428D01*
X187314285Y-118009523D01*
X187314285Y-118104761D01*
X187295238Y-118142857D01*
X187276190Y-118161904D01*
X187238095Y-118180952D01*
X187123809Y-118180952D01*
X187085714Y-118161904D01*
X187066666Y-118142857D01*
%TO.C,C4*%
D13*
X186022380Y-133547619D02*
X186022380Y-134119047D01*
X186022380Y-133833333D02*
X185022380Y-133833333D01*
X185165238Y-133928571D01*
X185260476Y-134023809D01*
X185308095Y-134119047D01*
X185022380Y-132928571D02*
X185022380Y-132833333D01*
X185070000Y-132738095D01*
X185117619Y-132690476D01*
X185212857Y-132642857D01*
X185403333Y-132595238D01*
X185641428Y-132595238D01*
X185831904Y-132642857D01*
X185927142Y-132690476D01*
X185974761Y-132738095D01*
X186022380Y-132833333D01*
X186022380Y-132928571D01*
X185974761Y-133023809D01*
X185927142Y-133071428D01*
X185831904Y-133119047D01*
X185641428Y-133166666D01*
X185403333Y-133166666D01*
X185212857Y-133119047D01*
X185117619Y-133071428D01*
X185070000Y-133023809D01*
X185022380Y-132928571D01*
X185022380Y-131976190D02*
X185022380Y-131880952D01*
X185070000Y-131785714D01*
X185117619Y-131738095D01*
X185212857Y-131690476D01*
X185403333Y-131642857D01*
X185641428Y-131642857D01*
X185831904Y-131690476D01*
X185927142Y-131738095D01*
X185974761Y-131785714D01*
X186022380Y-131880952D01*
X186022380Y-131976190D01*
X185974761Y-132071428D01*
X185927142Y-132119047D01*
X185831904Y-132166666D01*
X185641428Y-132214285D01*
X185403333Y-132214285D01*
X185212857Y-132166666D01*
X185117619Y-132119047D01*
X185070000Y-132071428D01*
X185022380Y-131976190D01*
X185355714Y-131214285D02*
X186022380Y-131214285D01*
X185450952Y-131214285D02*
X185403333Y-131166666D01*
X185355714Y-131071428D01*
X185355714Y-130928571D01*
X185403333Y-130833333D01*
X185498571Y-130785714D01*
X186022380Y-130785714D01*
X185498571Y-129976190D02*
X185498571Y-130309523D01*
X186022380Y-130309523D02*
X185022380Y-130309523D01*
X185022380Y-129833333D01*
D14*
X187142857Y-132066666D02*
X187161904Y-132085714D01*
X187180952Y-132142857D01*
X187180952Y-132180952D01*
X187161904Y-132238095D01*
X187123809Y-132276190D01*
X187085714Y-132295238D01*
X187009523Y-132314285D01*
X186952380Y-132314285D01*
X186876190Y-132295238D01*
X186838095Y-132276190D01*
X186800000Y-132238095D01*
X186780952Y-132180952D01*
X186780952Y-132142857D01*
X186800000Y-132085714D01*
X186819047Y-132066666D01*
X186914285Y-131723809D02*
X187180952Y-131723809D01*
X186761904Y-131819047D02*
X187047619Y-131914285D01*
X187047619Y-131666666D01*
%TO.C,C5*%
D13*
X184022380Y-133547619D02*
X184022380Y-134119047D01*
X184022380Y-133833333D02*
X183022380Y-133833333D01*
X183165238Y-133928571D01*
X183260476Y-134023809D01*
X183308095Y-134119047D01*
X183022380Y-132928571D02*
X183022380Y-132833333D01*
X183070000Y-132738095D01*
X183117619Y-132690476D01*
X183212857Y-132642857D01*
X183403333Y-132595238D01*
X183641428Y-132595238D01*
X183831904Y-132642857D01*
X183927142Y-132690476D01*
X183974761Y-132738095D01*
X184022380Y-132833333D01*
X184022380Y-132928571D01*
X183974761Y-133023809D01*
X183927142Y-133071428D01*
X183831904Y-133119047D01*
X183641428Y-133166666D01*
X183403333Y-133166666D01*
X183212857Y-133119047D01*
X183117619Y-133071428D01*
X183070000Y-133023809D01*
X183022380Y-132928571D01*
X183022380Y-131976190D02*
X183022380Y-131880952D01*
X183070000Y-131785714D01*
X183117619Y-131738095D01*
X183212857Y-131690476D01*
X183403333Y-131642857D01*
X183641428Y-131642857D01*
X183831904Y-131690476D01*
X183927142Y-131738095D01*
X183974761Y-131785714D01*
X184022380Y-131880952D01*
X184022380Y-131976190D01*
X183974761Y-132071428D01*
X183927142Y-132119047D01*
X183831904Y-132166666D01*
X183641428Y-132214285D01*
X183403333Y-132214285D01*
X183212857Y-132166666D01*
X183117619Y-132119047D01*
X183070000Y-132071428D01*
X183022380Y-131976190D01*
X183355714Y-131214285D02*
X184022380Y-131214285D01*
X183450952Y-131214285D02*
X183403333Y-131166666D01*
X183355714Y-131071428D01*
X183355714Y-130928571D01*
X183403333Y-130833333D01*
X183498571Y-130785714D01*
X184022380Y-130785714D01*
X183498571Y-129976190D02*
X183498571Y-130309523D01*
X184022380Y-130309523D02*
X183022380Y-130309523D01*
X183022380Y-129833333D01*
D14*
X185142857Y-132066666D02*
X185161904Y-132085714D01*
X185180952Y-132142857D01*
X185180952Y-132180952D01*
X185161904Y-132238095D01*
X185123809Y-132276190D01*
X185085714Y-132295238D01*
X185009523Y-132314285D01*
X184952380Y-132314285D01*
X184876190Y-132295238D01*
X184838095Y-132276190D01*
X184800000Y-132238095D01*
X184780952Y-132180952D01*
X184780952Y-132142857D01*
X184800000Y-132085714D01*
X184819047Y-132066666D01*
X184780952Y-131704761D02*
X184780952Y-131895238D01*
X184971428Y-131914285D01*
X184952380Y-131895238D01*
X184933333Y-131857142D01*
X184933333Y-131761904D01*
X184952380Y-131723809D01*
X184971428Y-131704761D01*
X185009523Y-131685714D01*
X185104761Y-131685714D01*
X185142857Y-131704761D01*
X185161904Y-131723809D01*
X185180952Y-131761904D01*
X185180952Y-131857142D01*
X185161904Y-131895238D01*
X185142857Y-131914285D01*
%TO.C,C6*%
D13*
X189382380Y-106922619D02*
X189382380Y-107494047D01*
X189382380Y-107208333D02*
X188382380Y-107208333D01*
X188525238Y-107303571D01*
X188620476Y-107398809D01*
X188668095Y-107494047D01*
X188382380Y-106303571D02*
X188382380Y-106208333D01*
X188430000Y-106113095D01*
X188477619Y-106065476D01*
X188572857Y-106017857D01*
X188763333Y-105970238D01*
X189001428Y-105970238D01*
X189191904Y-106017857D01*
X189287142Y-106065476D01*
X189334761Y-106113095D01*
X189382380Y-106208333D01*
X189382380Y-106303571D01*
X189334761Y-106398809D01*
X189287142Y-106446428D01*
X189191904Y-106494047D01*
X189001428Y-106541666D01*
X188763333Y-106541666D01*
X188572857Y-106494047D01*
X188477619Y-106446428D01*
X188430000Y-106398809D01*
X188382380Y-106303571D01*
X188382380Y-105351190D02*
X188382380Y-105255952D01*
X188430000Y-105160714D01*
X188477619Y-105113095D01*
X188572857Y-105065476D01*
X188763333Y-105017857D01*
X189001428Y-105017857D01*
X189191904Y-105065476D01*
X189287142Y-105113095D01*
X189334761Y-105160714D01*
X189382380Y-105255952D01*
X189382380Y-105351190D01*
X189334761Y-105446428D01*
X189287142Y-105494047D01*
X189191904Y-105541666D01*
X189001428Y-105589285D01*
X188763333Y-105589285D01*
X188572857Y-105541666D01*
X188477619Y-105494047D01*
X188430000Y-105446428D01*
X188382380Y-105351190D01*
X188715714Y-104589285D02*
X189382380Y-104589285D01*
X188810952Y-104589285D02*
X188763333Y-104541666D01*
X188715714Y-104446428D01*
X188715714Y-104303571D01*
X188763333Y-104208333D01*
X188858571Y-104160714D01*
X189382380Y-104160714D01*
X188858571Y-103351190D02*
X188858571Y-103684523D01*
X189382380Y-103684523D02*
X188382380Y-103684523D01*
X188382380Y-103208333D01*
D14*
X187642857Y-105441666D02*
X187661904Y-105460714D01*
X187680952Y-105517857D01*
X187680952Y-105555952D01*
X187661904Y-105613095D01*
X187623809Y-105651190D01*
X187585714Y-105670238D01*
X187509523Y-105689285D01*
X187452380Y-105689285D01*
X187376190Y-105670238D01*
X187338095Y-105651190D01*
X187300000Y-105613095D01*
X187280952Y-105555952D01*
X187280952Y-105517857D01*
X187300000Y-105460714D01*
X187319047Y-105441666D01*
X187280952Y-105098809D02*
X187280952Y-105175000D01*
X187300000Y-105213095D01*
X187319047Y-105232142D01*
X187376190Y-105270238D01*
X187452380Y-105289285D01*
X187604761Y-105289285D01*
X187642857Y-105270238D01*
X187661904Y-105251190D01*
X187680952Y-105213095D01*
X187680952Y-105136904D01*
X187661904Y-105098809D01*
X187642857Y-105079761D01*
X187604761Y-105060714D01*
X187509523Y-105060714D01*
X187471428Y-105079761D01*
X187452380Y-105098809D01*
X187433333Y-105136904D01*
X187433333Y-105213095D01*
X187452380Y-105251190D01*
X187471428Y-105270238D01*
X187509523Y-105289285D01*
%TO.C,J1*%
D13*
X153511904Y-124457142D02*
X153464285Y-124504761D01*
X153321428Y-124552380D01*
X153226190Y-124552380D01*
X153083333Y-124504761D01*
X152988095Y-124409523D01*
X152940476Y-124314285D01*
X152892857Y-124123809D01*
X152892857Y-123980952D01*
X152940476Y-123790476D01*
X152988095Y-123695238D01*
X153083333Y-123600000D01*
X153226190Y-123552380D01*
X153321428Y-123552380D01*
X153464285Y-123600000D01*
X153511904Y-123647619D01*
X154083333Y-124552380D02*
X153988095Y-124504761D01*
X153940476Y-124457142D01*
X153892857Y-124361904D01*
X153892857Y-124076190D01*
X153940476Y-123980952D01*
X153988095Y-123933333D01*
X154083333Y-123885714D01*
X154226190Y-123885714D01*
X154321428Y-123933333D01*
X154369047Y-123980952D01*
X154416666Y-124076190D01*
X154416666Y-124361904D01*
X154369047Y-124457142D01*
X154321428Y-124504761D01*
X154226190Y-124552380D01*
X154083333Y-124552380D01*
X154845238Y-123885714D02*
X154845238Y-124552380D01*
X154845238Y-123980952D02*
X154892857Y-123933333D01*
X154988095Y-123885714D01*
X155130952Y-123885714D01*
X155226190Y-123933333D01*
X155273809Y-124028571D01*
X155273809Y-124552380D01*
X155750000Y-123885714D02*
X155750000Y-124552380D01*
X155750000Y-123980952D02*
X155797619Y-123933333D01*
X155892857Y-123885714D01*
X156035714Y-123885714D01*
X156130952Y-123933333D01*
X156178571Y-124028571D01*
X156178571Y-124552380D01*
X156416666Y-124647619D02*
X157178571Y-124647619D01*
X157607142Y-123552380D02*
X157702380Y-123552380D01*
X157797619Y-123600000D01*
X157845238Y-123647619D01*
X157892857Y-123742857D01*
X157940476Y-123933333D01*
X157940476Y-124171428D01*
X157892857Y-124361904D01*
X157845238Y-124457142D01*
X157797619Y-124504761D01*
X157702380Y-124552380D01*
X157607142Y-124552380D01*
X157511904Y-124504761D01*
X157464285Y-124457142D01*
X157416666Y-124361904D01*
X157369047Y-124171428D01*
X157369047Y-123933333D01*
X157416666Y-123742857D01*
X157464285Y-123647619D01*
X157511904Y-123600000D01*
X157607142Y-123552380D01*
X158892857Y-124552380D02*
X158321428Y-124552380D01*
X158607142Y-124552380D02*
X158607142Y-123552380D01*
X158511904Y-123695238D01*
X158416666Y-123790476D01*
X158321428Y-123838095D01*
X159226190Y-124552380D02*
X159750000Y-123885714D01*
X159226190Y-123885714D02*
X159750000Y-124552380D01*
X160321428Y-123552380D02*
X160416666Y-123552380D01*
X160511904Y-123600000D01*
X160559523Y-123647619D01*
X160607142Y-123742857D01*
X160654761Y-123933333D01*
X160654761Y-124171428D01*
X160607142Y-124361904D01*
X160559523Y-124457142D01*
X160511904Y-124504761D01*
X160416666Y-124552380D01*
X160321428Y-124552380D01*
X160226190Y-124504761D01*
X160178571Y-124457142D01*
X160130952Y-124361904D01*
X160083333Y-124171428D01*
X160083333Y-123933333D01*
X160130952Y-123742857D01*
X160178571Y-123647619D01*
X160226190Y-123600000D01*
X160321428Y-123552380D01*
X161035714Y-123647619D02*
X161083333Y-123600000D01*
X161178571Y-123552380D01*
X161416666Y-123552380D01*
X161511904Y-123600000D01*
X161559523Y-123647619D01*
X161607142Y-123742857D01*
X161607142Y-123838095D01*
X161559523Y-123980952D01*
X160988095Y-124552380D01*
X161607142Y-124552380D01*
X156916666Y-121652380D02*
X156916666Y-122366666D01*
X156869047Y-122509523D01*
X156773809Y-122604761D01*
X156630952Y-122652380D01*
X156535714Y-122652380D01*
X157916666Y-122652380D02*
X157345238Y-122652380D01*
X157630952Y-122652380D02*
X157630952Y-121652380D01*
X157535714Y-121795238D01*
X157440476Y-121890476D01*
X157345238Y-121938095D01*
%TO.C,J2*%
X153511904Y-131457142D02*
X153464285Y-131504761D01*
X153321428Y-131552380D01*
X153226190Y-131552380D01*
X153083333Y-131504761D01*
X152988095Y-131409523D01*
X152940476Y-131314285D01*
X152892857Y-131123809D01*
X152892857Y-130980952D01*
X152940476Y-130790476D01*
X152988095Y-130695238D01*
X153083333Y-130600000D01*
X153226190Y-130552380D01*
X153321428Y-130552380D01*
X153464285Y-130600000D01*
X153511904Y-130647619D01*
X154083333Y-131552380D02*
X153988095Y-131504761D01*
X153940476Y-131457142D01*
X153892857Y-131361904D01*
X153892857Y-131076190D01*
X153940476Y-130980952D01*
X153988095Y-130933333D01*
X154083333Y-130885714D01*
X154226190Y-130885714D01*
X154321428Y-130933333D01*
X154369047Y-130980952D01*
X154416666Y-131076190D01*
X154416666Y-131361904D01*
X154369047Y-131457142D01*
X154321428Y-131504761D01*
X154226190Y-131552380D01*
X154083333Y-131552380D01*
X154845238Y-130885714D02*
X154845238Y-131552380D01*
X154845238Y-130980952D02*
X154892857Y-130933333D01*
X154988095Y-130885714D01*
X155130952Y-130885714D01*
X155226190Y-130933333D01*
X155273809Y-131028571D01*
X155273809Y-131552380D01*
X155750000Y-130885714D02*
X155750000Y-131552380D01*
X155750000Y-130980952D02*
X155797619Y-130933333D01*
X155892857Y-130885714D01*
X156035714Y-130885714D01*
X156130952Y-130933333D01*
X156178571Y-131028571D01*
X156178571Y-131552380D01*
X156416666Y-131647619D02*
X157178571Y-131647619D01*
X157607142Y-130552380D02*
X157702380Y-130552380D01*
X157797619Y-130600000D01*
X157845238Y-130647619D01*
X157892857Y-130742857D01*
X157940476Y-130933333D01*
X157940476Y-131171428D01*
X157892857Y-131361904D01*
X157845238Y-131457142D01*
X157797619Y-131504761D01*
X157702380Y-131552380D01*
X157607142Y-131552380D01*
X157511904Y-131504761D01*
X157464285Y-131457142D01*
X157416666Y-131361904D01*
X157369047Y-131171428D01*
X157369047Y-130933333D01*
X157416666Y-130742857D01*
X157464285Y-130647619D01*
X157511904Y-130600000D01*
X157607142Y-130552380D01*
X158892857Y-131552380D02*
X158321428Y-131552380D01*
X158607142Y-131552380D02*
X158607142Y-130552380D01*
X158511904Y-130695238D01*
X158416666Y-130790476D01*
X158321428Y-130838095D01*
X159226190Y-131552380D02*
X159750000Y-130885714D01*
X159226190Y-130885714D02*
X159750000Y-131552380D01*
X160321428Y-130552380D02*
X160416666Y-130552380D01*
X160511904Y-130600000D01*
X160559523Y-130647619D01*
X160607142Y-130742857D01*
X160654761Y-130933333D01*
X160654761Y-131171428D01*
X160607142Y-131361904D01*
X160559523Y-131457142D01*
X160511904Y-131504761D01*
X160416666Y-131552380D01*
X160321428Y-131552380D01*
X160226190Y-131504761D01*
X160178571Y-131457142D01*
X160130952Y-131361904D01*
X160083333Y-131171428D01*
X160083333Y-130933333D01*
X160130952Y-130742857D01*
X160178571Y-130647619D01*
X160226190Y-130600000D01*
X160321428Y-130552380D01*
X161035714Y-130647619D02*
X161083333Y-130600000D01*
X161178571Y-130552380D01*
X161416666Y-130552380D01*
X161511904Y-130600000D01*
X161559523Y-130647619D01*
X161607142Y-130742857D01*
X161607142Y-130838095D01*
X161559523Y-130980952D01*
X160988095Y-131552380D01*
X161607142Y-131552380D01*
X156916666Y-128652380D02*
X156916666Y-129366666D01*
X156869047Y-129509523D01*
X156773809Y-129604761D01*
X156630952Y-129652380D01*
X156535714Y-129652380D01*
X157345238Y-128747619D02*
X157392857Y-128700000D01*
X157488095Y-128652380D01*
X157726190Y-128652380D01*
X157821428Y-128700000D01*
X157869047Y-128747619D01*
X157916666Y-128842857D01*
X157916666Y-128938095D01*
X157869047Y-129080952D01*
X157297619Y-129652380D01*
X157916666Y-129652380D01*
%TO.C,J3*%
X153511904Y-145457142D02*
X153464285Y-145504761D01*
X153321428Y-145552380D01*
X153226190Y-145552380D01*
X153083333Y-145504761D01*
X152988095Y-145409523D01*
X152940476Y-145314285D01*
X152892857Y-145123809D01*
X152892857Y-144980952D01*
X152940476Y-144790476D01*
X152988095Y-144695238D01*
X153083333Y-144600000D01*
X153226190Y-144552380D01*
X153321428Y-144552380D01*
X153464285Y-144600000D01*
X153511904Y-144647619D01*
X154083333Y-145552380D02*
X153988095Y-145504761D01*
X153940476Y-145457142D01*
X153892857Y-145361904D01*
X153892857Y-145076190D01*
X153940476Y-144980952D01*
X153988095Y-144933333D01*
X154083333Y-144885714D01*
X154226190Y-144885714D01*
X154321428Y-144933333D01*
X154369047Y-144980952D01*
X154416666Y-145076190D01*
X154416666Y-145361904D01*
X154369047Y-145457142D01*
X154321428Y-145504761D01*
X154226190Y-145552380D01*
X154083333Y-145552380D01*
X154845238Y-144885714D02*
X154845238Y-145552380D01*
X154845238Y-144980952D02*
X154892857Y-144933333D01*
X154988095Y-144885714D01*
X155130952Y-144885714D01*
X155226190Y-144933333D01*
X155273809Y-145028571D01*
X155273809Y-145552380D01*
X155750000Y-144885714D02*
X155750000Y-145552380D01*
X155750000Y-144980952D02*
X155797619Y-144933333D01*
X155892857Y-144885714D01*
X156035714Y-144885714D01*
X156130952Y-144933333D01*
X156178571Y-145028571D01*
X156178571Y-145552380D01*
X156416666Y-145647619D02*
X157178571Y-145647619D01*
X157607142Y-144552380D02*
X157702380Y-144552380D01*
X157797619Y-144600000D01*
X157845238Y-144647619D01*
X157892857Y-144742857D01*
X157940476Y-144933333D01*
X157940476Y-145171428D01*
X157892857Y-145361904D01*
X157845238Y-145457142D01*
X157797619Y-145504761D01*
X157702380Y-145552380D01*
X157607142Y-145552380D01*
X157511904Y-145504761D01*
X157464285Y-145457142D01*
X157416666Y-145361904D01*
X157369047Y-145171428D01*
X157369047Y-144933333D01*
X157416666Y-144742857D01*
X157464285Y-144647619D01*
X157511904Y-144600000D01*
X157607142Y-144552380D01*
X158892857Y-145552380D02*
X158321428Y-145552380D01*
X158607142Y-145552380D02*
X158607142Y-144552380D01*
X158511904Y-144695238D01*
X158416666Y-144790476D01*
X158321428Y-144838095D01*
X159226190Y-145552380D02*
X159750000Y-144885714D01*
X159226190Y-144885714D02*
X159750000Y-145552380D01*
X160321428Y-144552380D02*
X160416666Y-144552380D01*
X160511904Y-144600000D01*
X160559523Y-144647619D01*
X160607142Y-144742857D01*
X160654761Y-144933333D01*
X160654761Y-145171428D01*
X160607142Y-145361904D01*
X160559523Y-145457142D01*
X160511904Y-145504761D01*
X160416666Y-145552380D01*
X160321428Y-145552380D01*
X160226190Y-145504761D01*
X160178571Y-145457142D01*
X160130952Y-145361904D01*
X160083333Y-145171428D01*
X160083333Y-144933333D01*
X160130952Y-144742857D01*
X160178571Y-144647619D01*
X160226190Y-144600000D01*
X160321428Y-144552380D01*
X161035714Y-144647619D02*
X161083333Y-144600000D01*
X161178571Y-144552380D01*
X161416666Y-144552380D01*
X161511904Y-144600000D01*
X161559523Y-144647619D01*
X161607142Y-144742857D01*
X161607142Y-144838095D01*
X161559523Y-144980952D01*
X160988095Y-145552380D01*
X161607142Y-145552380D01*
X156916666Y-142652380D02*
X156916666Y-143366666D01*
X156869047Y-143509523D01*
X156773809Y-143604761D01*
X156630952Y-143652380D01*
X156535714Y-143652380D01*
X157297619Y-142652380D02*
X157916666Y-142652380D01*
X157583333Y-143033333D01*
X157726190Y-143033333D01*
X157821428Y-143080952D01*
X157869047Y-143128571D01*
X157916666Y-143223809D01*
X157916666Y-143461904D01*
X157869047Y-143557142D01*
X157821428Y-143604761D01*
X157726190Y-143652380D01*
X157440476Y-143652380D01*
X157345238Y-143604761D01*
X157297619Y-143557142D01*
%TO.C,J4*%
X190457142Y-143988095D02*
X190504761Y-144035714D01*
X190552380Y-144178571D01*
X190552380Y-144273809D01*
X190504761Y-144416666D01*
X190409523Y-144511904D01*
X190314285Y-144559523D01*
X190123809Y-144607142D01*
X189980952Y-144607142D01*
X189790476Y-144559523D01*
X189695238Y-144511904D01*
X189600000Y-144416666D01*
X189552380Y-144273809D01*
X189552380Y-144178571D01*
X189600000Y-144035714D01*
X189647619Y-143988095D01*
X190552380Y-143416666D02*
X190504761Y-143511904D01*
X190457142Y-143559523D01*
X190361904Y-143607142D01*
X190076190Y-143607142D01*
X189980952Y-143559523D01*
X189933333Y-143511904D01*
X189885714Y-143416666D01*
X189885714Y-143273809D01*
X189933333Y-143178571D01*
X189980952Y-143130952D01*
X190076190Y-143083333D01*
X190361904Y-143083333D01*
X190457142Y-143130952D01*
X190504761Y-143178571D01*
X190552380Y-143273809D01*
X190552380Y-143416666D01*
X189885714Y-142654761D02*
X190552380Y-142654761D01*
X189980952Y-142654761D02*
X189933333Y-142607142D01*
X189885714Y-142511904D01*
X189885714Y-142369047D01*
X189933333Y-142273809D01*
X190028571Y-142226190D01*
X190552380Y-142226190D01*
X189885714Y-141750000D02*
X190552380Y-141750000D01*
X189980952Y-141750000D02*
X189933333Y-141702380D01*
X189885714Y-141607142D01*
X189885714Y-141464285D01*
X189933333Y-141369047D01*
X190028571Y-141321428D01*
X190552380Y-141321428D01*
X190647619Y-141083333D02*
X190647619Y-140321428D01*
X189552380Y-139892857D02*
X189552380Y-139797619D01*
X189600000Y-139702380D01*
X189647619Y-139654761D01*
X189742857Y-139607142D01*
X189933333Y-139559523D01*
X190171428Y-139559523D01*
X190361904Y-139607142D01*
X190457142Y-139654761D01*
X190504761Y-139702380D01*
X190552380Y-139797619D01*
X190552380Y-139892857D01*
X190504761Y-139988095D01*
X190457142Y-140035714D01*
X190361904Y-140083333D01*
X190171428Y-140130952D01*
X189933333Y-140130952D01*
X189742857Y-140083333D01*
X189647619Y-140035714D01*
X189600000Y-139988095D01*
X189552380Y-139892857D01*
X190552380Y-138607142D02*
X190552380Y-139178571D01*
X190552380Y-138892857D02*
X189552380Y-138892857D01*
X189695238Y-138988095D01*
X189790476Y-139083333D01*
X189838095Y-139178571D01*
X190552380Y-138273809D02*
X189885714Y-137750000D01*
X189885714Y-138273809D02*
X190552380Y-137750000D01*
X189552380Y-137178571D02*
X189552380Y-137083333D01*
X189600000Y-136988095D01*
X189647619Y-136940476D01*
X189742857Y-136892857D01*
X189933333Y-136845238D01*
X190171428Y-136845238D01*
X190361904Y-136892857D01*
X190457142Y-136940476D01*
X190504761Y-136988095D01*
X190552380Y-137083333D01*
X190552380Y-137178571D01*
X190504761Y-137273809D01*
X190457142Y-137321428D01*
X190361904Y-137369047D01*
X190171428Y-137416666D01*
X189933333Y-137416666D01*
X189742857Y-137369047D01*
X189647619Y-137321428D01*
X189600000Y-137273809D01*
X189552380Y-137178571D01*
X189647619Y-136464285D02*
X189600000Y-136416666D01*
X189552380Y-136321428D01*
X189552380Y-136083333D01*
X189600000Y-135988095D01*
X189647619Y-135940476D01*
X189742857Y-135892857D01*
X189838095Y-135892857D01*
X189980952Y-135940476D01*
X190552380Y-136511904D01*
X190552380Y-135892857D01*
X187652380Y-140583333D02*
X188366666Y-140583333D01*
X188509523Y-140630952D01*
X188604761Y-140726190D01*
X188652380Y-140869047D01*
X188652380Y-140964285D01*
X187985714Y-139678571D02*
X188652380Y-139678571D01*
X187604761Y-139916666D02*
X188319047Y-140154761D01*
X188319047Y-139535714D01*
%TO.C,J5*%
X153511904Y-138457142D02*
X153464285Y-138504761D01*
X153321428Y-138552380D01*
X153226190Y-138552380D01*
X153083333Y-138504761D01*
X152988095Y-138409523D01*
X152940476Y-138314285D01*
X152892857Y-138123809D01*
X152892857Y-137980952D01*
X152940476Y-137790476D01*
X152988095Y-137695238D01*
X153083333Y-137600000D01*
X153226190Y-137552380D01*
X153321428Y-137552380D01*
X153464285Y-137600000D01*
X153511904Y-137647619D01*
X154083333Y-138552380D02*
X153988095Y-138504761D01*
X153940476Y-138457142D01*
X153892857Y-138361904D01*
X153892857Y-138076190D01*
X153940476Y-137980952D01*
X153988095Y-137933333D01*
X154083333Y-137885714D01*
X154226190Y-137885714D01*
X154321428Y-137933333D01*
X154369047Y-137980952D01*
X154416666Y-138076190D01*
X154416666Y-138361904D01*
X154369047Y-138457142D01*
X154321428Y-138504761D01*
X154226190Y-138552380D01*
X154083333Y-138552380D01*
X154845238Y-137885714D02*
X154845238Y-138552380D01*
X154845238Y-137980952D02*
X154892857Y-137933333D01*
X154988095Y-137885714D01*
X155130952Y-137885714D01*
X155226190Y-137933333D01*
X155273809Y-138028571D01*
X155273809Y-138552380D01*
X155750000Y-137885714D02*
X155750000Y-138552380D01*
X155750000Y-137980952D02*
X155797619Y-137933333D01*
X155892857Y-137885714D01*
X156035714Y-137885714D01*
X156130952Y-137933333D01*
X156178571Y-138028571D01*
X156178571Y-138552380D01*
X156416666Y-138647619D02*
X157178571Y-138647619D01*
X157607142Y-137552380D02*
X157702380Y-137552380D01*
X157797619Y-137600000D01*
X157845238Y-137647619D01*
X157892857Y-137742857D01*
X157940476Y-137933333D01*
X157940476Y-138171428D01*
X157892857Y-138361904D01*
X157845238Y-138457142D01*
X157797619Y-138504761D01*
X157702380Y-138552380D01*
X157607142Y-138552380D01*
X157511904Y-138504761D01*
X157464285Y-138457142D01*
X157416666Y-138361904D01*
X157369047Y-138171428D01*
X157369047Y-137933333D01*
X157416666Y-137742857D01*
X157464285Y-137647619D01*
X157511904Y-137600000D01*
X157607142Y-137552380D01*
X158892857Y-138552380D02*
X158321428Y-138552380D01*
X158607142Y-138552380D02*
X158607142Y-137552380D01*
X158511904Y-137695238D01*
X158416666Y-137790476D01*
X158321428Y-137838095D01*
X159226190Y-138552380D02*
X159750000Y-137885714D01*
X159226190Y-137885714D02*
X159750000Y-138552380D01*
X160321428Y-137552380D02*
X160416666Y-137552380D01*
X160511904Y-137600000D01*
X160559523Y-137647619D01*
X160607142Y-137742857D01*
X160654761Y-137933333D01*
X160654761Y-138171428D01*
X160607142Y-138361904D01*
X160559523Y-138457142D01*
X160511904Y-138504761D01*
X160416666Y-138552380D01*
X160321428Y-138552380D01*
X160226190Y-138504761D01*
X160178571Y-138457142D01*
X160130952Y-138361904D01*
X160083333Y-138171428D01*
X160083333Y-137933333D01*
X160130952Y-137742857D01*
X160178571Y-137647619D01*
X160226190Y-137600000D01*
X160321428Y-137552380D01*
X161035714Y-137647619D02*
X161083333Y-137600000D01*
X161178571Y-137552380D01*
X161416666Y-137552380D01*
X161511904Y-137600000D01*
X161559523Y-137647619D01*
X161607142Y-137742857D01*
X161607142Y-137838095D01*
X161559523Y-137980952D01*
X160988095Y-138552380D01*
X161607142Y-138552380D01*
X156916666Y-135652380D02*
X156916666Y-136366666D01*
X156869047Y-136509523D01*
X156773809Y-136604761D01*
X156630952Y-136652380D01*
X156535714Y-136652380D01*
X157869047Y-135652380D02*
X157392857Y-135652380D01*
X157345238Y-136128571D01*
X157392857Y-136080952D01*
X157488095Y-136033333D01*
X157726190Y-136033333D01*
X157821428Y-136080952D01*
X157869047Y-136128571D01*
X157916666Y-136223809D01*
X157916666Y-136461904D01*
X157869047Y-136557142D01*
X157821428Y-136604761D01*
X157726190Y-136652380D01*
X157488095Y-136652380D01*
X157392857Y-136604761D01*
X157345238Y-136557142D01*
%TO.C,J9*%
X156761904Y-72187142D02*
X156714285Y-72234761D01*
X156571428Y-72282380D01*
X156476190Y-72282380D01*
X156333333Y-72234761D01*
X156238095Y-72139523D01*
X156190476Y-72044285D01*
X156142857Y-71853809D01*
X156142857Y-71710952D01*
X156190476Y-71520476D01*
X156238095Y-71425238D01*
X156333333Y-71330000D01*
X156476190Y-71282380D01*
X156571428Y-71282380D01*
X156714285Y-71330000D01*
X156761904Y-71377619D01*
X157333333Y-72282380D02*
X157238095Y-72234761D01*
X157190476Y-72187142D01*
X157142857Y-72091904D01*
X157142857Y-71806190D01*
X157190476Y-71710952D01*
X157238095Y-71663333D01*
X157333333Y-71615714D01*
X157476190Y-71615714D01*
X157571428Y-71663333D01*
X157619047Y-71710952D01*
X157666666Y-71806190D01*
X157666666Y-72091904D01*
X157619047Y-72187142D01*
X157571428Y-72234761D01*
X157476190Y-72282380D01*
X157333333Y-72282380D01*
X158095238Y-71615714D02*
X158095238Y-72282380D01*
X158095238Y-71710952D02*
X158142857Y-71663333D01*
X158238095Y-71615714D01*
X158380952Y-71615714D01*
X158476190Y-71663333D01*
X158523809Y-71758571D01*
X158523809Y-72282380D01*
X159000000Y-71615714D02*
X159000000Y-72282380D01*
X159000000Y-71710952D02*
X159047619Y-71663333D01*
X159142857Y-71615714D01*
X159285714Y-71615714D01*
X159380952Y-71663333D01*
X159428571Y-71758571D01*
X159428571Y-72282380D01*
X159666666Y-72377619D02*
X160428571Y-72377619D01*
X160857142Y-71282380D02*
X160952380Y-71282380D01*
X161047619Y-71330000D01*
X161095238Y-71377619D01*
X161142857Y-71472857D01*
X161190476Y-71663333D01*
X161190476Y-71901428D01*
X161142857Y-72091904D01*
X161095238Y-72187142D01*
X161047619Y-72234761D01*
X160952380Y-72282380D01*
X160857142Y-72282380D01*
X160761904Y-72234761D01*
X160714285Y-72187142D01*
X160666666Y-72091904D01*
X160619047Y-71901428D01*
X160619047Y-71663333D01*
X160666666Y-71472857D01*
X160714285Y-71377619D01*
X160761904Y-71330000D01*
X160857142Y-71282380D01*
X162142857Y-72282380D02*
X161571428Y-72282380D01*
X161857142Y-72282380D02*
X161857142Y-71282380D01*
X161761904Y-71425238D01*
X161666666Y-71520476D01*
X161571428Y-71568095D01*
X162476190Y-72282380D02*
X163000000Y-71615714D01*
X162476190Y-71615714D02*
X163000000Y-72282380D01*
X163571428Y-71282380D02*
X163666666Y-71282380D01*
X163761904Y-71330000D01*
X163809523Y-71377619D01*
X163857142Y-71472857D01*
X163904761Y-71663333D01*
X163904761Y-71901428D01*
X163857142Y-72091904D01*
X163809523Y-72187142D01*
X163761904Y-72234761D01*
X163666666Y-72282380D01*
X163571428Y-72282380D01*
X163476190Y-72234761D01*
X163428571Y-72187142D01*
X163380952Y-72091904D01*
X163333333Y-71901428D01*
X163333333Y-71663333D01*
X163380952Y-71472857D01*
X163428571Y-71377619D01*
X163476190Y-71330000D01*
X163571428Y-71282380D01*
X164857142Y-72282380D02*
X164285714Y-72282380D01*
X164571428Y-72282380D02*
X164571428Y-71282380D01*
X164476190Y-71425238D01*
X164380952Y-71520476D01*
X164285714Y-71568095D01*
X159952380Y-69833333D02*
X160666666Y-69833333D01*
X160809523Y-69880952D01*
X160904761Y-69976190D01*
X160952380Y-70119047D01*
X160952380Y-70214285D01*
X160952380Y-69309523D02*
X160952380Y-69119047D01*
X160904761Y-69023809D01*
X160857142Y-68976190D01*
X160714285Y-68880952D01*
X160523809Y-68833333D01*
X160142857Y-68833333D01*
X160047619Y-68880952D01*
X160000000Y-68928571D01*
X159952380Y-69023809D01*
X159952380Y-69214285D01*
X160000000Y-69309523D01*
X160047619Y-69357142D01*
X160142857Y-69404761D01*
X160380952Y-69404761D01*
X160476190Y-69357142D01*
X160523809Y-69309523D01*
X160571428Y-69214285D01*
X160571428Y-69023809D01*
X160523809Y-68928571D01*
X160476190Y-68880952D01*
X160380952Y-68833333D01*
%TO.C,J10*%
X173761904Y-75187142D02*
X173714285Y-75234761D01*
X173571428Y-75282380D01*
X173476190Y-75282380D01*
X173333333Y-75234761D01*
X173238095Y-75139523D01*
X173190476Y-75044285D01*
X173142857Y-74853809D01*
X173142857Y-74710952D01*
X173190476Y-74520476D01*
X173238095Y-74425238D01*
X173333333Y-74330000D01*
X173476190Y-74282380D01*
X173571428Y-74282380D01*
X173714285Y-74330000D01*
X173761904Y-74377619D01*
X174333333Y-75282380D02*
X174238095Y-75234761D01*
X174190476Y-75187142D01*
X174142857Y-75091904D01*
X174142857Y-74806190D01*
X174190476Y-74710952D01*
X174238095Y-74663333D01*
X174333333Y-74615714D01*
X174476190Y-74615714D01*
X174571428Y-74663333D01*
X174619047Y-74710952D01*
X174666666Y-74806190D01*
X174666666Y-75091904D01*
X174619047Y-75187142D01*
X174571428Y-75234761D01*
X174476190Y-75282380D01*
X174333333Y-75282380D01*
X175095238Y-74615714D02*
X175095238Y-75282380D01*
X175095238Y-74710952D02*
X175142857Y-74663333D01*
X175238095Y-74615714D01*
X175380952Y-74615714D01*
X175476190Y-74663333D01*
X175523809Y-74758571D01*
X175523809Y-75282380D01*
X176000000Y-74615714D02*
X176000000Y-75282380D01*
X176000000Y-74710952D02*
X176047619Y-74663333D01*
X176142857Y-74615714D01*
X176285714Y-74615714D01*
X176380952Y-74663333D01*
X176428571Y-74758571D01*
X176428571Y-75282380D01*
X176666666Y-75377619D02*
X177428571Y-75377619D01*
X177857142Y-74282380D02*
X177952380Y-74282380D01*
X178047619Y-74330000D01*
X178095238Y-74377619D01*
X178142857Y-74472857D01*
X178190476Y-74663333D01*
X178190476Y-74901428D01*
X178142857Y-75091904D01*
X178095238Y-75187142D01*
X178047619Y-75234761D01*
X177952380Y-75282380D01*
X177857142Y-75282380D01*
X177761904Y-75234761D01*
X177714285Y-75187142D01*
X177666666Y-75091904D01*
X177619047Y-74901428D01*
X177619047Y-74663333D01*
X177666666Y-74472857D01*
X177714285Y-74377619D01*
X177761904Y-74330000D01*
X177857142Y-74282380D01*
X179142857Y-75282380D02*
X178571428Y-75282380D01*
X178857142Y-75282380D02*
X178857142Y-74282380D01*
X178761904Y-74425238D01*
X178666666Y-74520476D01*
X178571428Y-74568095D01*
X179476190Y-75282380D02*
X180000000Y-74615714D01*
X179476190Y-74615714D02*
X180000000Y-75282380D01*
X180571428Y-74282380D02*
X180666666Y-74282380D01*
X180761904Y-74330000D01*
X180809523Y-74377619D01*
X180857142Y-74472857D01*
X180904761Y-74663333D01*
X180904761Y-74901428D01*
X180857142Y-75091904D01*
X180809523Y-75187142D01*
X180761904Y-75234761D01*
X180666666Y-75282380D01*
X180571428Y-75282380D01*
X180476190Y-75234761D01*
X180428571Y-75187142D01*
X180380952Y-75091904D01*
X180333333Y-74901428D01*
X180333333Y-74663333D01*
X180380952Y-74472857D01*
X180428571Y-74377619D01*
X180476190Y-74330000D01*
X180571428Y-74282380D01*
X181857142Y-75282380D02*
X181285714Y-75282380D01*
X181571428Y-75282380D02*
X181571428Y-74282380D01*
X181476190Y-74425238D01*
X181380952Y-74520476D01*
X181285714Y-74568095D01*
X176952380Y-73309523D02*
X177666666Y-73309523D01*
X177809523Y-73357142D01*
X177904761Y-73452380D01*
X177952380Y-73595238D01*
X177952380Y-73690476D01*
X177952380Y-72309523D02*
X177952380Y-72880952D01*
X177952380Y-72595238D02*
X176952380Y-72595238D01*
X177095238Y-72690476D01*
X177190476Y-72785714D01*
X177238095Y-72880952D01*
X176952380Y-71690476D02*
X176952380Y-71595238D01*
X177000000Y-71500000D01*
X177047619Y-71452380D01*
X177142857Y-71404761D01*
X177333333Y-71357142D01*
X177571428Y-71357142D01*
X177761904Y-71404761D01*
X177857142Y-71452380D01*
X177904761Y-71500000D01*
X177952380Y-71595238D01*
X177952380Y-71690476D01*
X177904761Y-71785714D01*
X177857142Y-71833333D01*
X177761904Y-71880952D01*
X177571428Y-71928571D01*
X177333333Y-71928571D01*
X177142857Y-71880952D01*
X177047619Y-71833333D01*
X177000000Y-71785714D01*
X176952380Y-71690476D01*
%TO.C,J12*%
X169261904Y-77687142D02*
X169214285Y-77734761D01*
X169071428Y-77782380D01*
X168976190Y-77782380D01*
X168833333Y-77734761D01*
X168738095Y-77639523D01*
X168690476Y-77544285D01*
X168642857Y-77353809D01*
X168642857Y-77210952D01*
X168690476Y-77020476D01*
X168738095Y-76925238D01*
X168833333Y-76830000D01*
X168976190Y-76782380D01*
X169071428Y-76782380D01*
X169214285Y-76830000D01*
X169261904Y-76877619D01*
X169833333Y-77782380D02*
X169738095Y-77734761D01*
X169690476Y-77687142D01*
X169642857Y-77591904D01*
X169642857Y-77306190D01*
X169690476Y-77210952D01*
X169738095Y-77163333D01*
X169833333Y-77115714D01*
X169976190Y-77115714D01*
X170071428Y-77163333D01*
X170119047Y-77210952D01*
X170166666Y-77306190D01*
X170166666Y-77591904D01*
X170119047Y-77687142D01*
X170071428Y-77734761D01*
X169976190Y-77782380D01*
X169833333Y-77782380D01*
X170595238Y-77115714D02*
X170595238Y-77782380D01*
X170595238Y-77210952D02*
X170642857Y-77163333D01*
X170738095Y-77115714D01*
X170880952Y-77115714D01*
X170976190Y-77163333D01*
X171023809Y-77258571D01*
X171023809Y-77782380D01*
X171500000Y-77115714D02*
X171500000Y-77782380D01*
X171500000Y-77210952D02*
X171547619Y-77163333D01*
X171642857Y-77115714D01*
X171785714Y-77115714D01*
X171880952Y-77163333D01*
X171928571Y-77258571D01*
X171928571Y-77782380D01*
X172166666Y-77877619D02*
X172928571Y-77877619D01*
X173357142Y-76782380D02*
X173452380Y-76782380D01*
X173547619Y-76830000D01*
X173595238Y-76877619D01*
X173642857Y-76972857D01*
X173690476Y-77163333D01*
X173690476Y-77401428D01*
X173642857Y-77591904D01*
X173595238Y-77687142D01*
X173547619Y-77734761D01*
X173452380Y-77782380D01*
X173357142Y-77782380D01*
X173261904Y-77734761D01*
X173214285Y-77687142D01*
X173166666Y-77591904D01*
X173119047Y-77401428D01*
X173119047Y-77163333D01*
X173166666Y-76972857D01*
X173214285Y-76877619D01*
X173261904Y-76830000D01*
X173357142Y-76782380D01*
X174642857Y-77782380D02*
X174071428Y-77782380D01*
X174357142Y-77782380D02*
X174357142Y-76782380D01*
X174261904Y-76925238D01*
X174166666Y-77020476D01*
X174071428Y-77068095D01*
X174976190Y-77782380D02*
X175500000Y-77115714D01*
X174976190Y-77115714D02*
X175500000Y-77782380D01*
X176071428Y-76782380D02*
X176166666Y-76782380D01*
X176261904Y-76830000D01*
X176309523Y-76877619D01*
X176357142Y-76972857D01*
X176404761Y-77163333D01*
X176404761Y-77401428D01*
X176357142Y-77591904D01*
X176309523Y-77687142D01*
X176261904Y-77734761D01*
X176166666Y-77782380D01*
X176071428Y-77782380D01*
X175976190Y-77734761D01*
X175928571Y-77687142D01*
X175880952Y-77591904D01*
X175833333Y-77401428D01*
X175833333Y-77163333D01*
X175880952Y-76972857D01*
X175928571Y-76877619D01*
X175976190Y-76830000D01*
X176071428Y-76782380D01*
X177357142Y-77782380D02*
X176785714Y-77782380D01*
X177071428Y-77782380D02*
X177071428Y-76782380D01*
X176976190Y-76925238D01*
X176880952Y-77020476D01*
X176785714Y-77068095D01*
X172452380Y-75809523D02*
X173166666Y-75809523D01*
X173309523Y-75857142D01*
X173404761Y-75952380D01*
X173452380Y-76095238D01*
X173452380Y-76190476D01*
X173452380Y-74809523D02*
X173452380Y-75380952D01*
X173452380Y-75095238D02*
X172452380Y-75095238D01*
X172595238Y-75190476D01*
X172690476Y-75285714D01*
X172738095Y-75380952D01*
X172547619Y-74428571D02*
X172500000Y-74380952D01*
X172452380Y-74285714D01*
X172452380Y-74047619D01*
X172500000Y-73952380D01*
X172547619Y-73904761D01*
X172642857Y-73857142D01*
X172738095Y-73857142D01*
X172880952Y-73904761D01*
X173452380Y-74476190D01*
X173452380Y-73857142D01*
%TO.C,J13*%
X173761904Y-82687142D02*
X173714285Y-82734761D01*
X173571428Y-82782380D01*
X173476190Y-82782380D01*
X173333333Y-82734761D01*
X173238095Y-82639523D01*
X173190476Y-82544285D01*
X173142857Y-82353809D01*
X173142857Y-82210952D01*
X173190476Y-82020476D01*
X173238095Y-81925238D01*
X173333333Y-81830000D01*
X173476190Y-81782380D01*
X173571428Y-81782380D01*
X173714285Y-81830000D01*
X173761904Y-81877619D01*
X174333333Y-82782380D02*
X174238095Y-82734761D01*
X174190476Y-82687142D01*
X174142857Y-82591904D01*
X174142857Y-82306190D01*
X174190476Y-82210952D01*
X174238095Y-82163333D01*
X174333333Y-82115714D01*
X174476190Y-82115714D01*
X174571428Y-82163333D01*
X174619047Y-82210952D01*
X174666666Y-82306190D01*
X174666666Y-82591904D01*
X174619047Y-82687142D01*
X174571428Y-82734761D01*
X174476190Y-82782380D01*
X174333333Y-82782380D01*
X175095238Y-82115714D02*
X175095238Y-82782380D01*
X175095238Y-82210952D02*
X175142857Y-82163333D01*
X175238095Y-82115714D01*
X175380952Y-82115714D01*
X175476190Y-82163333D01*
X175523809Y-82258571D01*
X175523809Y-82782380D01*
X176000000Y-82115714D02*
X176000000Y-82782380D01*
X176000000Y-82210952D02*
X176047619Y-82163333D01*
X176142857Y-82115714D01*
X176285714Y-82115714D01*
X176380952Y-82163333D01*
X176428571Y-82258571D01*
X176428571Y-82782380D01*
X176666666Y-82877619D02*
X177428571Y-82877619D01*
X177857142Y-81782380D02*
X177952380Y-81782380D01*
X178047619Y-81830000D01*
X178095238Y-81877619D01*
X178142857Y-81972857D01*
X178190476Y-82163333D01*
X178190476Y-82401428D01*
X178142857Y-82591904D01*
X178095238Y-82687142D01*
X178047619Y-82734761D01*
X177952380Y-82782380D01*
X177857142Y-82782380D01*
X177761904Y-82734761D01*
X177714285Y-82687142D01*
X177666666Y-82591904D01*
X177619047Y-82401428D01*
X177619047Y-82163333D01*
X177666666Y-81972857D01*
X177714285Y-81877619D01*
X177761904Y-81830000D01*
X177857142Y-81782380D01*
X179142857Y-82782380D02*
X178571428Y-82782380D01*
X178857142Y-82782380D02*
X178857142Y-81782380D01*
X178761904Y-81925238D01*
X178666666Y-82020476D01*
X178571428Y-82068095D01*
X179476190Y-82782380D02*
X180000000Y-82115714D01*
X179476190Y-82115714D02*
X180000000Y-82782380D01*
X180571428Y-81782380D02*
X180666666Y-81782380D01*
X180761904Y-81830000D01*
X180809523Y-81877619D01*
X180857142Y-81972857D01*
X180904761Y-82163333D01*
X180904761Y-82401428D01*
X180857142Y-82591904D01*
X180809523Y-82687142D01*
X180761904Y-82734761D01*
X180666666Y-82782380D01*
X180571428Y-82782380D01*
X180476190Y-82734761D01*
X180428571Y-82687142D01*
X180380952Y-82591904D01*
X180333333Y-82401428D01*
X180333333Y-82163333D01*
X180380952Y-81972857D01*
X180428571Y-81877619D01*
X180476190Y-81830000D01*
X180571428Y-81782380D01*
X181857142Y-82782380D02*
X181285714Y-82782380D01*
X181571428Y-82782380D02*
X181571428Y-81782380D01*
X181476190Y-81925238D01*
X181380952Y-82020476D01*
X181285714Y-82068095D01*
X176952380Y-80809523D02*
X177666666Y-80809523D01*
X177809523Y-80857142D01*
X177904761Y-80952380D01*
X177952380Y-81095238D01*
X177952380Y-81190476D01*
X177952380Y-79809523D02*
X177952380Y-80380952D01*
X177952380Y-80095238D02*
X176952380Y-80095238D01*
X177095238Y-80190476D01*
X177190476Y-80285714D01*
X177238095Y-80380952D01*
X176952380Y-79476190D02*
X176952380Y-78857142D01*
X177333333Y-79190476D01*
X177333333Y-79047619D01*
X177380952Y-78952380D01*
X177428571Y-78904761D01*
X177523809Y-78857142D01*
X177761904Y-78857142D01*
X177857142Y-78904761D01*
X177904761Y-78952380D01*
X177952380Y-79047619D01*
X177952380Y-79333333D01*
X177904761Y-79428571D01*
X177857142Y-79476190D01*
%TO.C,J14*%
X169261904Y-85187142D02*
X169214285Y-85234761D01*
X169071428Y-85282380D01*
X168976190Y-85282380D01*
X168833333Y-85234761D01*
X168738095Y-85139523D01*
X168690476Y-85044285D01*
X168642857Y-84853809D01*
X168642857Y-84710952D01*
X168690476Y-84520476D01*
X168738095Y-84425238D01*
X168833333Y-84330000D01*
X168976190Y-84282380D01*
X169071428Y-84282380D01*
X169214285Y-84330000D01*
X169261904Y-84377619D01*
X169833333Y-85282380D02*
X169738095Y-85234761D01*
X169690476Y-85187142D01*
X169642857Y-85091904D01*
X169642857Y-84806190D01*
X169690476Y-84710952D01*
X169738095Y-84663333D01*
X169833333Y-84615714D01*
X169976190Y-84615714D01*
X170071428Y-84663333D01*
X170119047Y-84710952D01*
X170166666Y-84806190D01*
X170166666Y-85091904D01*
X170119047Y-85187142D01*
X170071428Y-85234761D01*
X169976190Y-85282380D01*
X169833333Y-85282380D01*
X170595238Y-84615714D02*
X170595238Y-85282380D01*
X170595238Y-84710952D02*
X170642857Y-84663333D01*
X170738095Y-84615714D01*
X170880952Y-84615714D01*
X170976190Y-84663333D01*
X171023809Y-84758571D01*
X171023809Y-85282380D01*
X171500000Y-84615714D02*
X171500000Y-85282380D01*
X171500000Y-84710952D02*
X171547619Y-84663333D01*
X171642857Y-84615714D01*
X171785714Y-84615714D01*
X171880952Y-84663333D01*
X171928571Y-84758571D01*
X171928571Y-85282380D01*
X172166666Y-85377619D02*
X172928571Y-85377619D01*
X173357142Y-84282380D02*
X173452380Y-84282380D01*
X173547619Y-84330000D01*
X173595238Y-84377619D01*
X173642857Y-84472857D01*
X173690476Y-84663333D01*
X173690476Y-84901428D01*
X173642857Y-85091904D01*
X173595238Y-85187142D01*
X173547619Y-85234761D01*
X173452380Y-85282380D01*
X173357142Y-85282380D01*
X173261904Y-85234761D01*
X173214285Y-85187142D01*
X173166666Y-85091904D01*
X173119047Y-84901428D01*
X173119047Y-84663333D01*
X173166666Y-84472857D01*
X173214285Y-84377619D01*
X173261904Y-84330000D01*
X173357142Y-84282380D01*
X174642857Y-85282380D02*
X174071428Y-85282380D01*
X174357142Y-85282380D02*
X174357142Y-84282380D01*
X174261904Y-84425238D01*
X174166666Y-84520476D01*
X174071428Y-84568095D01*
X174976190Y-85282380D02*
X175500000Y-84615714D01*
X174976190Y-84615714D02*
X175500000Y-85282380D01*
X176071428Y-84282380D02*
X176166666Y-84282380D01*
X176261904Y-84330000D01*
X176309523Y-84377619D01*
X176357142Y-84472857D01*
X176404761Y-84663333D01*
X176404761Y-84901428D01*
X176357142Y-85091904D01*
X176309523Y-85187142D01*
X176261904Y-85234761D01*
X176166666Y-85282380D01*
X176071428Y-85282380D01*
X175976190Y-85234761D01*
X175928571Y-85187142D01*
X175880952Y-85091904D01*
X175833333Y-84901428D01*
X175833333Y-84663333D01*
X175880952Y-84472857D01*
X175928571Y-84377619D01*
X175976190Y-84330000D01*
X176071428Y-84282380D01*
X177357142Y-85282380D02*
X176785714Y-85282380D01*
X177071428Y-85282380D02*
X177071428Y-84282380D01*
X176976190Y-84425238D01*
X176880952Y-84520476D01*
X176785714Y-84568095D01*
X172452380Y-83309523D02*
X173166666Y-83309523D01*
X173309523Y-83357142D01*
X173404761Y-83452380D01*
X173452380Y-83595238D01*
X173452380Y-83690476D01*
X173452380Y-82309523D02*
X173452380Y-82880952D01*
X173452380Y-82595238D02*
X172452380Y-82595238D01*
X172595238Y-82690476D01*
X172690476Y-82785714D01*
X172738095Y-82880952D01*
X172785714Y-81452380D02*
X173452380Y-81452380D01*
X172404761Y-81690476D02*
X173119047Y-81928571D01*
X173119047Y-81309523D01*
%TO.C,J15*%
X173761904Y-87687142D02*
X173714285Y-87734761D01*
X173571428Y-87782380D01*
X173476190Y-87782380D01*
X173333333Y-87734761D01*
X173238095Y-87639523D01*
X173190476Y-87544285D01*
X173142857Y-87353809D01*
X173142857Y-87210952D01*
X173190476Y-87020476D01*
X173238095Y-86925238D01*
X173333333Y-86830000D01*
X173476190Y-86782380D01*
X173571428Y-86782380D01*
X173714285Y-86830000D01*
X173761904Y-86877619D01*
X174333333Y-87782380D02*
X174238095Y-87734761D01*
X174190476Y-87687142D01*
X174142857Y-87591904D01*
X174142857Y-87306190D01*
X174190476Y-87210952D01*
X174238095Y-87163333D01*
X174333333Y-87115714D01*
X174476190Y-87115714D01*
X174571428Y-87163333D01*
X174619047Y-87210952D01*
X174666666Y-87306190D01*
X174666666Y-87591904D01*
X174619047Y-87687142D01*
X174571428Y-87734761D01*
X174476190Y-87782380D01*
X174333333Y-87782380D01*
X175095238Y-87115714D02*
X175095238Y-87782380D01*
X175095238Y-87210952D02*
X175142857Y-87163333D01*
X175238095Y-87115714D01*
X175380952Y-87115714D01*
X175476190Y-87163333D01*
X175523809Y-87258571D01*
X175523809Y-87782380D01*
X176000000Y-87115714D02*
X176000000Y-87782380D01*
X176000000Y-87210952D02*
X176047619Y-87163333D01*
X176142857Y-87115714D01*
X176285714Y-87115714D01*
X176380952Y-87163333D01*
X176428571Y-87258571D01*
X176428571Y-87782380D01*
X176666666Y-87877619D02*
X177428571Y-87877619D01*
X177857142Y-86782380D02*
X177952380Y-86782380D01*
X178047619Y-86830000D01*
X178095238Y-86877619D01*
X178142857Y-86972857D01*
X178190476Y-87163333D01*
X178190476Y-87401428D01*
X178142857Y-87591904D01*
X178095238Y-87687142D01*
X178047619Y-87734761D01*
X177952380Y-87782380D01*
X177857142Y-87782380D01*
X177761904Y-87734761D01*
X177714285Y-87687142D01*
X177666666Y-87591904D01*
X177619047Y-87401428D01*
X177619047Y-87163333D01*
X177666666Y-86972857D01*
X177714285Y-86877619D01*
X177761904Y-86830000D01*
X177857142Y-86782380D01*
X179142857Y-87782380D02*
X178571428Y-87782380D01*
X178857142Y-87782380D02*
X178857142Y-86782380D01*
X178761904Y-86925238D01*
X178666666Y-87020476D01*
X178571428Y-87068095D01*
X179476190Y-87782380D02*
X180000000Y-87115714D01*
X179476190Y-87115714D02*
X180000000Y-87782380D01*
X180571428Y-86782380D02*
X180666666Y-86782380D01*
X180761904Y-86830000D01*
X180809523Y-86877619D01*
X180857142Y-86972857D01*
X180904761Y-87163333D01*
X180904761Y-87401428D01*
X180857142Y-87591904D01*
X180809523Y-87687142D01*
X180761904Y-87734761D01*
X180666666Y-87782380D01*
X180571428Y-87782380D01*
X180476190Y-87734761D01*
X180428571Y-87687142D01*
X180380952Y-87591904D01*
X180333333Y-87401428D01*
X180333333Y-87163333D01*
X180380952Y-86972857D01*
X180428571Y-86877619D01*
X180476190Y-86830000D01*
X180571428Y-86782380D01*
X181857142Y-87782380D02*
X181285714Y-87782380D01*
X181571428Y-87782380D02*
X181571428Y-86782380D01*
X181476190Y-86925238D01*
X181380952Y-87020476D01*
X181285714Y-87068095D01*
X176952380Y-85809523D02*
X177666666Y-85809523D01*
X177809523Y-85857142D01*
X177904761Y-85952380D01*
X177952380Y-86095238D01*
X177952380Y-86190476D01*
X177952380Y-84809523D02*
X177952380Y-85380952D01*
X177952380Y-85095238D02*
X176952380Y-85095238D01*
X177095238Y-85190476D01*
X177190476Y-85285714D01*
X177238095Y-85380952D01*
X176952380Y-83904761D02*
X176952380Y-84380952D01*
X177428571Y-84428571D01*
X177380952Y-84380952D01*
X177333333Y-84285714D01*
X177333333Y-84047619D01*
X177380952Y-83952380D01*
X177428571Y-83904761D01*
X177523809Y-83857142D01*
X177761904Y-83857142D01*
X177857142Y-83904761D01*
X177904761Y-83952380D01*
X177952380Y-84047619D01*
X177952380Y-84285714D01*
X177904761Y-84380952D01*
X177857142Y-84428571D01*
%TO.C,J16*%
X169261904Y-90187142D02*
X169214285Y-90234761D01*
X169071428Y-90282380D01*
X168976190Y-90282380D01*
X168833333Y-90234761D01*
X168738095Y-90139523D01*
X168690476Y-90044285D01*
X168642857Y-89853809D01*
X168642857Y-89710952D01*
X168690476Y-89520476D01*
X168738095Y-89425238D01*
X168833333Y-89330000D01*
X168976190Y-89282380D01*
X169071428Y-89282380D01*
X169214285Y-89330000D01*
X169261904Y-89377619D01*
X169833333Y-90282380D02*
X169738095Y-90234761D01*
X169690476Y-90187142D01*
X169642857Y-90091904D01*
X169642857Y-89806190D01*
X169690476Y-89710952D01*
X169738095Y-89663333D01*
X169833333Y-89615714D01*
X169976190Y-89615714D01*
X170071428Y-89663333D01*
X170119047Y-89710952D01*
X170166666Y-89806190D01*
X170166666Y-90091904D01*
X170119047Y-90187142D01*
X170071428Y-90234761D01*
X169976190Y-90282380D01*
X169833333Y-90282380D01*
X170595238Y-89615714D02*
X170595238Y-90282380D01*
X170595238Y-89710952D02*
X170642857Y-89663333D01*
X170738095Y-89615714D01*
X170880952Y-89615714D01*
X170976190Y-89663333D01*
X171023809Y-89758571D01*
X171023809Y-90282380D01*
X171500000Y-89615714D02*
X171500000Y-90282380D01*
X171500000Y-89710952D02*
X171547619Y-89663333D01*
X171642857Y-89615714D01*
X171785714Y-89615714D01*
X171880952Y-89663333D01*
X171928571Y-89758571D01*
X171928571Y-90282380D01*
X172166666Y-90377619D02*
X172928571Y-90377619D01*
X173357142Y-89282380D02*
X173452380Y-89282380D01*
X173547619Y-89330000D01*
X173595238Y-89377619D01*
X173642857Y-89472857D01*
X173690476Y-89663333D01*
X173690476Y-89901428D01*
X173642857Y-90091904D01*
X173595238Y-90187142D01*
X173547619Y-90234761D01*
X173452380Y-90282380D01*
X173357142Y-90282380D01*
X173261904Y-90234761D01*
X173214285Y-90187142D01*
X173166666Y-90091904D01*
X173119047Y-89901428D01*
X173119047Y-89663333D01*
X173166666Y-89472857D01*
X173214285Y-89377619D01*
X173261904Y-89330000D01*
X173357142Y-89282380D01*
X174642857Y-90282380D02*
X174071428Y-90282380D01*
X174357142Y-90282380D02*
X174357142Y-89282380D01*
X174261904Y-89425238D01*
X174166666Y-89520476D01*
X174071428Y-89568095D01*
X174976190Y-90282380D02*
X175500000Y-89615714D01*
X174976190Y-89615714D02*
X175500000Y-90282380D01*
X176071428Y-89282380D02*
X176166666Y-89282380D01*
X176261904Y-89330000D01*
X176309523Y-89377619D01*
X176357142Y-89472857D01*
X176404761Y-89663333D01*
X176404761Y-89901428D01*
X176357142Y-90091904D01*
X176309523Y-90187142D01*
X176261904Y-90234761D01*
X176166666Y-90282380D01*
X176071428Y-90282380D01*
X175976190Y-90234761D01*
X175928571Y-90187142D01*
X175880952Y-90091904D01*
X175833333Y-89901428D01*
X175833333Y-89663333D01*
X175880952Y-89472857D01*
X175928571Y-89377619D01*
X175976190Y-89330000D01*
X176071428Y-89282380D01*
X177357142Y-90282380D02*
X176785714Y-90282380D01*
X177071428Y-90282380D02*
X177071428Y-89282380D01*
X176976190Y-89425238D01*
X176880952Y-89520476D01*
X176785714Y-89568095D01*
X172452380Y-88309523D02*
X173166666Y-88309523D01*
X173309523Y-88357142D01*
X173404761Y-88452380D01*
X173452380Y-88595238D01*
X173452380Y-88690476D01*
X173452380Y-87309523D02*
X173452380Y-87880952D01*
X173452380Y-87595238D02*
X172452380Y-87595238D01*
X172595238Y-87690476D01*
X172690476Y-87785714D01*
X172738095Y-87880952D01*
X172452380Y-86452380D02*
X172452380Y-86642857D01*
X172500000Y-86738095D01*
X172547619Y-86785714D01*
X172690476Y-86880952D01*
X172880952Y-86928571D01*
X173261904Y-86928571D01*
X173357142Y-86880952D01*
X173404761Y-86833333D01*
X173452380Y-86738095D01*
X173452380Y-86547619D01*
X173404761Y-86452380D01*
X173357142Y-86404761D01*
X173261904Y-86357142D01*
X173023809Y-86357142D01*
X172928571Y-86404761D01*
X172880952Y-86452380D01*
X172833333Y-86547619D01*
X172833333Y-86738095D01*
X172880952Y-86833333D01*
X172928571Y-86880952D01*
X173023809Y-86928571D01*
%TO.C,J17*%
X173761904Y-93187142D02*
X173714285Y-93234761D01*
X173571428Y-93282380D01*
X173476190Y-93282380D01*
X173333333Y-93234761D01*
X173238095Y-93139523D01*
X173190476Y-93044285D01*
X173142857Y-92853809D01*
X173142857Y-92710952D01*
X173190476Y-92520476D01*
X173238095Y-92425238D01*
X173333333Y-92330000D01*
X173476190Y-92282380D01*
X173571428Y-92282380D01*
X173714285Y-92330000D01*
X173761904Y-92377619D01*
X174333333Y-93282380D02*
X174238095Y-93234761D01*
X174190476Y-93187142D01*
X174142857Y-93091904D01*
X174142857Y-92806190D01*
X174190476Y-92710952D01*
X174238095Y-92663333D01*
X174333333Y-92615714D01*
X174476190Y-92615714D01*
X174571428Y-92663333D01*
X174619047Y-92710952D01*
X174666666Y-92806190D01*
X174666666Y-93091904D01*
X174619047Y-93187142D01*
X174571428Y-93234761D01*
X174476190Y-93282380D01*
X174333333Y-93282380D01*
X175095238Y-92615714D02*
X175095238Y-93282380D01*
X175095238Y-92710952D02*
X175142857Y-92663333D01*
X175238095Y-92615714D01*
X175380952Y-92615714D01*
X175476190Y-92663333D01*
X175523809Y-92758571D01*
X175523809Y-93282380D01*
X176000000Y-92615714D02*
X176000000Y-93282380D01*
X176000000Y-92710952D02*
X176047619Y-92663333D01*
X176142857Y-92615714D01*
X176285714Y-92615714D01*
X176380952Y-92663333D01*
X176428571Y-92758571D01*
X176428571Y-93282380D01*
X176666666Y-93377619D02*
X177428571Y-93377619D01*
X177857142Y-92282380D02*
X177952380Y-92282380D01*
X178047619Y-92330000D01*
X178095238Y-92377619D01*
X178142857Y-92472857D01*
X178190476Y-92663333D01*
X178190476Y-92901428D01*
X178142857Y-93091904D01*
X178095238Y-93187142D01*
X178047619Y-93234761D01*
X177952380Y-93282380D01*
X177857142Y-93282380D01*
X177761904Y-93234761D01*
X177714285Y-93187142D01*
X177666666Y-93091904D01*
X177619047Y-92901428D01*
X177619047Y-92663333D01*
X177666666Y-92472857D01*
X177714285Y-92377619D01*
X177761904Y-92330000D01*
X177857142Y-92282380D01*
X179142857Y-93282380D02*
X178571428Y-93282380D01*
X178857142Y-93282380D02*
X178857142Y-92282380D01*
X178761904Y-92425238D01*
X178666666Y-92520476D01*
X178571428Y-92568095D01*
X179476190Y-93282380D02*
X180000000Y-92615714D01*
X179476190Y-92615714D02*
X180000000Y-93282380D01*
X180571428Y-92282380D02*
X180666666Y-92282380D01*
X180761904Y-92330000D01*
X180809523Y-92377619D01*
X180857142Y-92472857D01*
X180904761Y-92663333D01*
X180904761Y-92901428D01*
X180857142Y-93091904D01*
X180809523Y-93187142D01*
X180761904Y-93234761D01*
X180666666Y-93282380D01*
X180571428Y-93282380D01*
X180476190Y-93234761D01*
X180428571Y-93187142D01*
X180380952Y-93091904D01*
X180333333Y-92901428D01*
X180333333Y-92663333D01*
X180380952Y-92472857D01*
X180428571Y-92377619D01*
X180476190Y-92330000D01*
X180571428Y-92282380D01*
X181857142Y-93282380D02*
X181285714Y-93282380D01*
X181571428Y-93282380D02*
X181571428Y-92282380D01*
X181476190Y-92425238D01*
X181380952Y-92520476D01*
X181285714Y-92568095D01*
X176952380Y-91309523D02*
X177666666Y-91309523D01*
X177809523Y-91357142D01*
X177904761Y-91452380D01*
X177952380Y-91595238D01*
X177952380Y-91690476D01*
X177952380Y-90309523D02*
X177952380Y-90880952D01*
X177952380Y-90595238D02*
X176952380Y-90595238D01*
X177095238Y-90690476D01*
X177190476Y-90785714D01*
X177238095Y-90880952D01*
X176952380Y-89976190D02*
X176952380Y-89309523D01*
X177952380Y-89738095D01*
%TO.C,J18*%
X146511904Y-86457142D02*
X146464285Y-86504761D01*
X146321428Y-86552380D01*
X146226190Y-86552380D01*
X146083333Y-86504761D01*
X145988095Y-86409523D01*
X145940476Y-86314285D01*
X145892857Y-86123809D01*
X145892857Y-85980952D01*
X145940476Y-85790476D01*
X145988095Y-85695238D01*
X146083333Y-85600000D01*
X146226190Y-85552380D01*
X146321428Y-85552380D01*
X146464285Y-85600000D01*
X146511904Y-85647619D01*
X147083333Y-86552380D02*
X146988095Y-86504761D01*
X146940476Y-86457142D01*
X146892857Y-86361904D01*
X146892857Y-86076190D01*
X146940476Y-85980952D01*
X146988095Y-85933333D01*
X147083333Y-85885714D01*
X147226190Y-85885714D01*
X147321428Y-85933333D01*
X147369047Y-85980952D01*
X147416666Y-86076190D01*
X147416666Y-86361904D01*
X147369047Y-86457142D01*
X147321428Y-86504761D01*
X147226190Y-86552380D01*
X147083333Y-86552380D01*
X147845238Y-85885714D02*
X147845238Y-86552380D01*
X147845238Y-85980952D02*
X147892857Y-85933333D01*
X147988095Y-85885714D01*
X148130952Y-85885714D01*
X148226190Y-85933333D01*
X148273809Y-86028571D01*
X148273809Y-86552380D01*
X148750000Y-85885714D02*
X148750000Y-86552380D01*
X148750000Y-85980952D02*
X148797619Y-85933333D01*
X148892857Y-85885714D01*
X149035714Y-85885714D01*
X149130952Y-85933333D01*
X149178571Y-86028571D01*
X149178571Y-86552380D01*
X149416666Y-86647619D02*
X150178571Y-86647619D01*
X150607142Y-85552380D02*
X150702380Y-85552380D01*
X150797619Y-85600000D01*
X150845238Y-85647619D01*
X150892857Y-85742857D01*
X150940476Y-85933333D01*
X150940476Y-86171428D01*
X150892857Y-86361904D01*
X150845238Y-86457142D01*
X150797619Y-86504761D01*
X150702380Y-86552380D01*
X150607142Y-86552380D01*
X150511904Y-86504761D01*
X150464285Y-86457142D01*
X150416666Y-86361904D01*
X150369047Y-86171428D01*
X150369047Y-85933333D01*
X150416666Y-85742857D01*
X150464285Y-85647619D01*
X150511904Y-85600000D01*
X150607142Y-85552380D01*
X151892857Y-86552380D02*
X151321428Y-86552380D01*
X151607142Y-86552380D02*
X151607142Y-85552380D01*
X151511904Y-85695238D01*
X151416666Y-85790476D01*
X151321428Y-85838095D01*
X152226190Y-86552380D02*
X152750000Y-85885714D01*
X152226190Y-85885714D02*
X152750000Y-86552380D01*
X153321428Y-85552380D02*
X153416666Y-85552380D01*
X153511904Y-85600000D01*
X153559523Y-85647619D01*
X153607142Y-85742857D01*
X153654761Y-85933333D01*
X153654761Y-86171428D01*
X153607142Y-86361904D01*
X153559523Y-86457142D01*
X153511904Y-86504761D01*
X153416666Y-86552380D01*
X153321428Y-86552380D01*
X153226190Y-86504761D01*
X153178571Y-86457142D01*
X153130952Y-86361904D01*
X153083333Y-86171428D01*
X153083333Y-85933333D01*
X153130952Y-85742857D01*
X153178571Y-85647619D01*
X153226190Y-85600000D01*
X153321428Y-85552380D01*
X154035714Y-85647619D02*
X154083333Y-85600000D01*
X154178571Y-85552380D01*
X154416666Y-85552380D01*
X154511904Y-85600000D01*
X154559523Y-85647619D01*
X154607142Y-85742857D01*
X154607142Y-85838095D01*
X154559523Y-85980952D01*
X153988095Y-86552380D01*
X154607142Y-86552380D01*
X149440476Y-83652380D02*
X149440476Y-84366666D01*
X149392857Y-84509523D01*
X149297619Y-84604761D01*
X149154761Y-84652380D01*
X149059523Y-84652380D01*
X150440476Y-84652380D02*
X149869047Y-84652380D01*
X150154761Y-84652380D02*
X150154761Y-83652380D01*
X150059523Y-83795238D01*
X149964285Y-83890476D01*
X149869047Y-83938095D01*
X151011904Y-84080952D02*
X150916666Y-84033333D01*
X150869047Y-83985714D01*
X150821428Y-83890476D01*
X150821428Y-83842857D01*
X150869047Y-83747619D01*
X150916666Y-83700000D01*
X151011904Y-83652380D01*
X151202380Y-83652380D01*
X151297619Y-83700000D01*
X151345238Y-83747619D01*
X151392857Y-83842857D01*
X151392857Y-83890476D01*
X151345238Y-83985714D01*
X151297619Y-84033333D01*
X151202380Y-84080952D01*
X151011904Y-84080952D01*
X150916666Y-84128571D01*
X150869047Y-84176190D01*
X150821428Y-84271428D01*
X150821428Y-84461904D01*
X150869047Y-84557142D01*
X150916666Y-84604761D01*
X151011904Y-84652380D01*
X151202380Y-84652380D01*
X151297619Y-84604761D01*
X151345238Y-84557142D01*
X151392857Y-84461904D01*
X151392857Y-84271428D01*
X151345238Y-84176190D01*
X151297619Y-84128571D01*
X151202380Y-84080952D01*
%TO.C,J19*%
X169261904Y-95687142D02*
X169214285Y-95734761D01*
X169071428Y-95782380D01*
X168976190Y-95782380D01*
X168833333Y-95734761D01*
X168738095Y-95639523D01*
X168690476Y-95544285D01*
X168642857Y-95353809D01*
X168642857Y-95210952D01*
X168690476Y-95020476D01*
X168738095Y-94925238D01*
X168833333Y-94830000D01*
X168976190Y-94782380D01*
X169071428Y-94782380D01*
X169214285Y-94830000D01*
X169261904Y-94877619D01*
X169833333Y-95782380D02*
X169738095Y-95734761D01*
X169690476Y-95687142D01*
X169642857Y-95591904D01*
X169642857Y-95306190D01*
X169690476Y-95210952D01*
X169738095Y-95163333D01*
X169833333Y-95115714D01*
X169976190Y-95115714D01*
X170071428Y-95163333D01*
X170119047Y-95210952D01*
X170166666Y-95306190D01*
X170166666Y-95591904D01*
X170119047Y-95687142D01*
X170071428Y-95734761D01*
X169976190Y-95782380D01*
X169833333Y-95782380D01*
X170595238Y-95115714D02*
X170595238Y-95782380D01*
X170595238Y-95210952D02*
X170642857Y-95163333D01*
X170738095Y-95115714D01*
X170880952Y-95115714D01*
X170976190Y-95163333D01*
X171023809Y-95258571D01*
X171023809Y-95782380D01*
X171500000Y-95115714D02*
X171500000Y-95782380D01*
X171500000Y-95210952D02*
X171547619Y-95163333D01*
X171642857Y-95115714D01*
X171785714Y-95115714D01*
X171880952Y-95163333D01*
X171928571Y-95258571D01*
X171928571Y-95782380D01*
X172166666Y-95877619D02*
X172928571Y-95877619D01*
X173357142Y-94782380D02*
X173452380Y-94782380D01*
X173547619Y-94830000D01*
X173595238Y-94877619D01*
X173642857Y-94972857D01*
X173690476Y-95163333D01*
X173690476Y-95401428D01*
X173642857Y-95591904D01*
X173595238Y-95687142D01*
X173547619Y-95734761D01*
X173452380Y-95782380D01*
X173357142Y-95782380D01*
X173261904Y-95734761D01*
X173214285Y-95687142D01*
X173166666Y-95591904D01*
X173119047Y-95401428D01*
X173119047Y-95163333D01*
X173166666Y-94972857D01*
X173214285Y-94877619D01*
X173261904Y-94830000D01*
X173357142Y-94782380D01*
X174642857Y-95782380D02*
X174071428Y-95782380D01*
X174357142Y-95782380D02*
X174357142Y-94782380D01*
X174261904Y-94925238D01*
X174166666Y-95020476D01*
X174071428Y-95068095D01*
X174976190Y-95782380D02*
X175500000Y-95115714D01*
X174976190Y-95115714D02*
X175500000Y-95782380D01*
X176071428Y-94782380D02*
X176166666Y-94782380D01*
X176261904Y-94830000D01*
X176309523Y-94877619D01*
X176357142Y-94972857D01*
X176404761Y-95163333D01*
X176404761Y-95401428D01*
X176357142Y-95591904D01*
X176309523Y-95687142D01*
X176261904Y-95734761D01*
X176166666Y-95782380D01*
X176071428Y-95782380D01*
X175976190Y-95734761D01*
X175928571Y-95687142D01*
X175880952Y-95591904D01*
X175833333Y-95401428D01*
X175833333Y-95163333D01*
X175880952Y-94972857D01*
X175928571Y-94877619D01*
X175976190Y-94830000D01*
X176071428Y-94782380D01*
X177357142Y-95782380D02*
X176785714Y-95782380D01*
X177071428Y-95782380D02*
X177071428Y-94782380D01*
X176976190Y-94925238D01*
X176880952Y-95020476D01*
X176785714Y-95068095D01*
X172452380Y-93809523D02*
X173166666Y-93809523D01*
X173309523Y-93857142D01*
X173404761Y-93952380D01*
X173452380Y-94095238D01*
X173452380Y-94190476D01*
X173452380Y-92809523D02*
X173452380Y-93380952D01*
X173452380Y-93095238D02*
X172452380Y-93095238D01*
X172595238Y-93190476D01*
X172690476Y-93285714D01*
X172738095Y-93380952D01*
X173452380Y-92333333D02*
X173452380Y-92142857D01*
X173404761Y-92047619D01*
X173357142Y-92000000D01*
X173214285Y-91904761D01*
X173023809Y-91857142D01*
X172642857Y-91857142D01*
X172547619Y-91904761D01*
X172500000Y-91952380D01*
X172452380Y-92047619D01*
X172452380Y-92238095D01*
X172500000Y-92333333D01*
X172547619Y-92380952D01*
X172642857Y-92428571D01*
X172880952Y-92428571D01*
X172976190Y-92380952D01*
X173023809Y-92333333D01*
X173071428Y-92238095D01*
X173071428Y-92047619D01*
X173023809Y-91952380D01*
X172976190Y-91904761D01*
X172880952Y-91857142D01*
%TO.C,J20*%
X173761904Y-98187142D02*
X173714285Y-98234761D01*
X173571428Y-98282380D01*
X173476190Y-98282380D01*
X173333333Y-98234761D01*
X173238095Y-98139523D01*
X173190476Y-98044285D01*
X173142857Y-97853809D01*
X173142857Y-97710952D01*
X173190476Y-97520476D01*
X173238095Y-97425238D01*
X173333333Y-97330000D01*
X173476190Y-97282380D01*
X173571428Y-97282380D01*
X173714285Y-97330000D01*
X173761904Y-97377619D01*
X174333333Y-98282380D02*
X174238095Y-98234761D01*
X174190476Y-98187142D01*
X174142857Y-98091904D01*
X174142857Y-97806190D01*
X174190476Y-97710952D01*
X174238095Y-97663333D01*
X174333333Y-97615714D01*
X174476190Y-97615714D01*
X174571428Y-97663333D01*
X174619047Y-97710952D01*
X174666666Y-97806190D01*
X174666666Y-98091904D01*
X174619047Y-98187142D01*
X174571428Y-98234761D01*
X174476190Y-98282380D01*
X174333333Y-98282380D01*
X175095238Y-97615714D02*
X175095238Y-98282380D01*
X175095238Y-97710952D02*
X175142857Y-97663333D01*
X175238095Y-97615714D01*
X175380952Y-97615714D01*
X175476190Y-97663333D01*
X175523809Y-97758571D01*
X175523809Y-98282380D01*
X176000000Y-97615714D02*
X176000000Y-98282380D01*
X176000000Y-97710952D02*
X176047619Y-97663333D01*
X176142857Y-97615714D01*
X176285714Y-97615714D01*
X176380952Y-97663333D01*
X176428571Y-97758571D01*
X176428571Y-98282380D01*
X176666666Y-98377619D02*
X177428571Y-98377619D01*
X177857142Y-97282380D02*
X177952380Y-97282380D01*
X178047619Y-97330000D01*
X178095238Y-97377619D01*
X178142857Y-97472857D01*
X178190476Y-97663333D01*
X178190476Y-97901428D01*
X178142857Y-98091904D01*
X178095238Y-98187142D01*
X178047619Y-98234761D01*
X177952380Y-98282380D01*
X177857142Y-98282380D01*
X177761904Y-98234761D01*
X177714285Y-98187142D01*
X177666666Y-98091904D01*
X177619047Y-97901428D01*
X177619047Y-97663333D01*
X177666666Y-97472857D01*
X177714285Y-97377619D01*
X177761904Y-97330000D01*
X177857142Y-97282380D01*
X179142857Y-98282380D02*
X178571428Y-98282380D01*
X178857142Y-98282380D02*
X178857142Y-97282380D01*
X178761904Y-97425238D01*
X178666666Y-97520476D01*
X178571428Y-97568095D01*
X179476190Y-98282380D02*
X180000000Y-97615714D01*
X179476190Y-97615714D02*
X180000000Y-98282380D01*
X180571428Y-97282380D02*
X180666666Y-97282380D01*
X180761904Y-97330000D01*
X180809523Y-97377619D01*
X180857142Y-97472857D01*
X180904761Y-97663333D01*
X180904761Y-97901428D01*
X180857142Y-98091904D01*
X180809523Y-98187142D01*
X180761904Y-98234761D01*
X180666666Y-98282380D01*
X180571428Y-98282380D01*
X180476190Y-98234761D01*
X180428571Y-98187142D01*
X180380952Y-98091904D01*
X180333333Y-97901428D01*
X180333333Y-97663333D01*
X180380952Y-97472857D01*
X180428571Y-97377619D01*
X180476190Y-97330000D01*
X180571428Y-97282380D01*
X181857142Y-98282380D02*
X181285714Y-98282380D01*
X181571428Y-98282380D02*
X181571428Y-97282380D01*
X181476190Y-97425238D01*
X181380952Y-97520476D01*
X181285714Y-97568095D01*
X176952380Y-96309523D02*
X177666666Y-96309523D01*
X177809523Y-96357142D01*
X177904761Y-96452380D01*
X177952380Y-96595238D01*
X177952380Y-96690476D01*
X177047619Y-95880952D02*
X177000000Y-95833333D01*
X176952380Y-95738095D01*
X176952380Y-95500000D01*
X177000000Y-95404761D01*
X177047619Y-95357142D01*
X177142857Y-95309523D01*
X177238095Y-95309523D01*
X177380952Y-95357142D01*
X177952380Y-95928571D01*
X177952380Y-95309523D01*
X176952380Y-94690476D02*
X176952380Y-94595238D01*
X177000000Y-94500000D01*
X177047619Y-94452380D01*
X177142857Y-94404761D01*
X177333333Y-94357142D01*
X177571428Y-94357142D01*
X177761904Y-94404761D01*
X177857142Y-94452380D01*
X177904761Y-94500000D01*
X177952380Y-94595238D01*
X177952380Y-94690476D01*
X177904761Y-94785714D01*
X177857142Y-94833333D01*
X177761904Y-94880952D01*
X177571428Y-94928571D01*
X177333333Y-94928571D01*
X177142857Y-94880952D01*
X177047619Y-94833333D01*
X177000000Y-94785714D01*
X176952380Y-94690476D01*
%TO.C,J21*%
X156261904Y-98187142D02*
X156214285Y-98234761D01*
X156071428Y-98282380D01*
X155976190Y-98282380D01*
X155833333Y-98234761D01*
X155738095Y-98139523D01*
X155690476Y-98044285D01*
X155642857Y-97853809D01*
X155642857Y-97710952D01*
X155690476Y-97520476D01*
X155738095Y-97425238D01*
X155833333Y-97330000D01*
X155976190Y-97282380D01*
X156071428Y-97282380D01*
X156214285Y-97330000D01*
X156261904Y-97377619D01*
X156833333Y-98282380D02*
X156738095Y-98234761D01*
X156690476Y-98187142D01*
X156642857Y-98091904D01*
X156642857Y-97806190D01*
X156690476Y-97710952D01*
X156738095Y-97663333D01*
X156833333Y-97615714D01*
X156976190Y-97615714D01*
X157071428Y-97663333D01*
X157119047Y-97710952D01*
X157166666Y-97806190D01*
X157166666Y-98091904D01*
X157119047Y-98187142D01*
X157071428Y-98234761D01*
X156976190Y-98282380D01*
X156833333Y-98282380D01*
X157595238Y-97615714D02*
X157595238Y-98282380D01*
X157595238Y-97710952D02*
X157642857Y-97663333D01*
X157738095Y-97615714D01*
X157880952Y-97615714D01*
X157976190Y-97663333D01*
X158023809Y-97758571D01*
X158023809Y-98282380D01*
X158500000Y-97615714D02*
X158500000Y-98282380D01*
X158500000Y-97710952D02*
X158547619Y-97663333D01*
X158642857Y-97615714D01*
X158785714Y-97615714D01*
X158880952Y-97663333D01*
X158928571Y-97758571D01*
X158928571Y-98282380D01*
X159166666Y-98377619D02*
X159928571Y-98377619D01*
X160357142Y-97282380D02*
X160452380Y-97282380D01*
X160547619Y-97330000D01*
X160595238Y-97377619D01*
X160642857Y-97472857D01*
X160690476Y-97663333D01*
X160690476Y-97901428D01*
X160642857Y-98091904D01*
X160595238Y-98187142D01*
X160547619Y-98234761D01*
X160452380Y-98282380D01*
X160357142Y-98282380D01*
X160261904Y-98234761D01*
X160214285Y-98187142D01*
X160166666Y-98091904D01*
X160119047Y-97901428D01*
X160119047Y-97663333D01*
X160166666Y-97472857D01*
X160214285Y-97377619D01*
X160261904Y-97330000D01*
X160357142Y-97282380D01*
X161642857Y-98282380D02*
X161071428Y-98282380D01*
X161357142Y-98282380D02*
X161357142Y-97282380D01*
X161261904Y-97425238D01*
X161166666Y-97520476D01*
X161071428Y-97568095D01*
X161976190Y-98282380D02*
X162500000Y-97615714D01*
X161976190Y-97615714D02*
X162500000Y-98282380D01*
X163071428Y-97282380D02*
X163166666Y-97282380D01*
X163261904Y-97330000D01*
X163309523Y-97377619D01*
X163357142Y-97472857D01*
X163404761Y-97663333D01*
X163404761Y-97901428D01*
X163357142Y-98091904D01*
X163309523Y-98187142D01*
X163261904Y-98234761D01*
X163166666Y-98282380D01*
X163071428Y-98282380D01*
X162976190Y-98234761D01*
X162928571Y-98187142D01*
X162880952Y-98091904D01*
X162833333Y-97901428D01*
X162833333Y-97663333D01*
X162880952Y-97472857D01*
X162928571Y-97377619D01*
X162976190Y-97330000D01*
X163071428Y-97282380D01*
X164357142Y-98282380D02*
X163785714Y-98282380D01*
X164071428Y-98282380D02*
X164071428Y-97282380D01*
X163976190Y-97425238D01*
X163880952Y-97520476D01*
X163785714Y-97568095D01*
X159452380Y-96309523D02*
X160166666Y-96309523D01*
X160309523Y-96357142D01*
X160404761Y-96452380D01*
X160452380Y-96595238D01*
X160452380Y-96690476D01*
X159547619Y-95880952D02*
X159500000Y-95833333D01*
X159452380Y-95738095D01*
X159452380Y-95500000D01*
X159500000Y-95404761D01*
X159547619Y-95357142D01*
X159642857Y-95309523D01*
X159738095Y-95309523D01*
X159880952Y-95357142D01*
X160452380Y-95928571D01*
X160452380Y-95309523D01*
X160452380Y-94357142D02*
X160452380Y-94928571D01*
X160452380Y-94642857D02*
X159452380Y-94642857D01*
X159595238Y-94738095D01*
X159690476Y-94833333D01*
X159738095Y-94928571D01*
%TO.C,J22*%
X169261904Y-100687142D02*
X169214285Y-100734761D01*
X169071428Y-100782380D01*
X168976190Y-100782380D01*
X168833333Y-100734761D01*
X168738095Y-100639523D01*
X168690476Y-100544285D01*
X168642857Y-100353809D01*
X168642857Y-100210952D01*
X168690476Y-100020476D01*
X168738095Y-99925238D01*
X168833333Y-99830000D01*
X168976190Y-99782380D01*
X169071428Y-99782380D01*
X169214285Y-99830000D01*
X169261904Y-99877619D01*
X169833333Y-100782380D02*
X169738095Y-100734761D01*
X169690476Y-100687142D01*
X169642857Y-100591904D01*
X169642857Y-100306190D01*
X169690476Y-100210952D01*
X169738095Y-100163333D01*
X169833333Y-100115714D01*
X169976190Y-100115714D01*
X170071428Y-100163333D01*
X170119047Y-100210952D01*
X170166666Y-100306190D01*
X170166666Y-100591904D01*
X170119047Y-100687142D01*
X170071428Y-100734761D01*
X169976190Y-100782380D01*
X169833333Y-100782380D01*
X170595238Y-100115714D02*
X170595238Y-100782380D01*
X170595238Y-100210952D02*
X170642857Y-100163333D01*
X170738095Y-100115714D01*
X170880952Y-100115714D01*
X170976190Y-100163333D01*
X171023809Y-100258571D01*
X171023809Y-100782380D01*
X171500000Y-100115714D02*
X171500000Y-100782380D01*
X171500000Y-100210952D02*
X171547619Y-100163333D01*
X171642857Y-100115714D01*
X171785714Y-100115714D01*
X171880952Y-100163333D01*
X171928571Y-100258571D01*
X171928571Y-100782380D01*
X172166666Y-100877619D02*
X172928571Y-100877619D01*
X173357142Y-99782380D02*
X173452380Y-99782380D01*
X173547619Y-99830000D01*
X173595238Y-99877619D01*
X173642857Y-99972857D01*
X173690476Y-100163333D01*
X173690476Y-100401428D01*
X173642857Y-100591904D01*
X173595238Y-100687142D01*
X173547619Y-100734761D01*
X173452380Y-100782380D01*
X173357142Y-100782380D01*
X173261904Y-100734761D01*
X173214285Y-100687142D01*
X173166666Y-100591904D01*
X173119047Y-100401428D01*
X173119047Y-100163333D01*
X173166666Y-99972857D01*
X173214285Y-99877619D01*
X173261904Y-99830000D01*
X173357142Y-99782380D01*
X174642857Y-100782380D02*
X174071428Y-100782380D01*
X174357142Y-100782380D02*
X174357142Y-99782380D01*
X174261904Y-99925238D01*
X174166666Y-100020476D01*
X174071428Y-100068095D01*
X174976190Y-100782380D02*
X175500000Y-100115714D01*
X174976190Y-100115714D02*
X175500000Y-100782380D01*
X176071428Y-99782380D02*
X176166666Y-99782380D01*
X176261904Y-99830000D01*
X176309523Y-99877619D01*
X176357142Y-99972857D01*
X176404761Y-100163333D01*
X176404761Y-100401428D01*
X176357142Y-100591904D01*
X176309523Y-100687142D01*
X176261904Y-100734761D01*
X176166666Y-100782380D01*
X176071428Y-100782380D01*
X175976190Y-100734761D01*
X175928571Y-100687142D01*
X175880952Y-100591904D01*
X175833333Y-100401428D01*
X175833333Y-100163333D01*
X175880952Y-99972857D01*
X175928571Y-99877619D01*
X175976190Y-99830000D01*
X176071428Y-99782380D01*
X177357142Y-100782380D02*
X176785714Y-100782380D01*
X177071428Y-100782380D02*
X177071428Y-99782380D01*
X176976190Y-99925238D01*
X176880952Y-100020476D01*
X176785714Y-100068095D01*
X172452380Y-98809523D02*
X173166666Y-98809523D01*
X173309523Y-98857142D01*
X173404761Y-98952380D01*
X173452380Y-99095238D01*
X173452380Y-99190476D01*
X172547619Y-98380952D02*
X172500000Y-98333333D01*
X172452380Y-98238095D01*
X172452380Y-98000000D01*
X172500000Y-97904761D01*
X172547619Y-97857142D01*
X172642857Y-97809523D01*
X172738095Y-97809523D01*
X172880952Y-97857142D01*
X173452380Y-98428571D01*
X173452380Y-97809523D01*
X172547619Y-97428571D02*
X172500000Y-97380952D01*
X172452380Y-97285714D01*
X172452380Y-97047619D01*
X172500000Y-96952380D01*
X172547619Y-96904761D01*
X172642857Y-96857142D01*
X172738095Y-96857142D01*
X172880952Y-96904761D01*
X173452380Y-97476190D01*
X173452380Y-96857142D01*
%TO.C,J23*%
X160761904Y-100687142D02*
X160714285Y-100734761D01*
X160571428Y-100782380D01*
X160476190Y-100782380D01*
X160333333Y-100734761D01*
X160238095Y-100639523D01*
X160190476Y-100544285D01*
X160142857Y-100353809D01*
X160142857Y-100210952D01*
X160190476Y-100020476D01*
X160238095Y-99925238D01*
X160333333Y-99830000D01*
X160476190Y-99782380D01*
X160571428Y-99782380D01*
X160714285Y-99830000D01*
X160761904Y-99877619D01*
X161333333Y-100782380D02*
X161238095Y-100734761D01*
X161190476Y-100687142D01*
X161142857Y-100591904D01*
X161142857Y-100306190D01*
X161190476Y-100210952D01*
X161238095Y-100163333D01*
X161333333Y-100115714D01*
X161476190Y-100115714D01*
X161571428Y-100163333D01*
X161619047Y-100210952D01*
X161666666Y-100306190D01*
X161666666Y-100591904D01*
X161619047Y-100687142D01*
X161571428Y-100734761D01*
X161476190Y-100782380D01*
X161333333Y-100782380D01*
X162095238Y-100115714D02*
X162095238Y-100782380D01*
X162095238Y-100210952D02*
X162142857Y-100163333D01*
X162238095Y-100115714D01*
X162380952Y-100115714D01*
X162476190Y-100163333D01*
X162523809Y-100258571D01*
X162523809Y-100782380D01*
X163000000Y-100115714D02*
X163000000Y-100782380D01*
X163000000Y-100210952D02*
X163047619Y-100163333D01*
X163142857Y-100115714D01*
X163285714Y-100115714D01*
X163380952Y-100163333D01*
X163428571Y-100258571D01*
X163428571Y-100782380D01*
X163666666Y-100877619D02*
X164428571Y-100877619D01*
X164857142Y-99782380D02*
X164952380Y-99782380D01*
X165047619Y-99830000D01*
X165095238Y-99877619D01*
X165142857Y-99972857D01*
X165190476Y-100163333D01*
X165190476Y-100401428D01*
X165142857Y-100591904D01*
X165095238Y-100687142D01*
X165047619Y-100734761D01*
X164952380Y-100782380D01*
X164857142Y-100782380D01*
X164761904Y-100734761D01*
X164714285Y-100687142D01*
X164666666Y-100591904D01*
X164619047Y-100401428D01*
X164619047Y-100163333D01*
X164666666Y-99972857D01*
X164714285Y-99877619D01*
X164761904Y-99830000D01*
X164857142Y-99782380D01*
X166142857Y-100782380D02*
X165571428Y-100782380D01*
X165857142Y-100782380D02*
X165857142Y-99782380D01*
X165761904Y-99925238D01*
X165666666Y-100020476D01*
X165571428Y-100068095D01*
X166476190Y-100782380D02*
X167000000Y-100115714D01*
X166476190Y-100115714D02*
X167000000Y-100782380D01*
X167571428Y-99782380D02*
X167666666Y-99782380D01*
X167761904Y-99830000D01*
X167809523Y-99877619D01*
X167857142Y-99972857D01*
X167904761Y-100163333D01*
X167904761Y-100401428D01*
X167857142Y-100591904D01*
X167809523Y-100687142D01*
X167761904Y-100734761D01*
X167666666Y-100782380D01*
X167571428Y-100782380D01*
X167476190Y-100734761D01*
X167428571Y-100687142D01*
X167380952Y-100591904D01*
X167333333Y-100401428D01*
X167333333Y-100163333D01*
X167380952Y-99972857D01*
X167428571Y-99877619D01*
X167476190Y-99830000D01*
X167571428Y-99782380D01*
X168857142Y-100782380D02*
X168285714Y-100782380D01*
X168571428Y-100782380D02*
X168571428Y-99782380D01*
X168476190Y-99925238D01*
X168380952Y-100020476D01*
X168285714Y-100068095D01*
X163952380Y-98809523D02*
X164666666Y-98809523D01*
X164809523Y-98857142D01*
X164904761Y-98952380D01*
X164952380Y-99095238D01*
X164952380Y-99190476D01*
X164047619Y-98380952D02*
X164000000Y-98333333D01*
X163952380Y-98238095D01*
X163952380Y-98000000D01*
X164000000Y-97904761D01*
X164047619Y-97857142D01*
X164142857Y-97809523D01*
X164238095Y-97809523D01*
X164380952Y-97857142D01*
X164952380Y-98428571D01*
X164952380Y-97809523D01*
X163952380Y-97476190D02*
X163952380Y-96857142D01*
X164333333Y-97190476D01*
X164333333Y-97047619D01*
X164380952Y-96952380D01*
X164428571Y-96904761D01*
X164523809Y-96857142D01*
X164761904Y-96857142D01*
X164857142Y-96904761D01*
X164904761Y-96952380D01*
X164952380Y-97047619D01*
X164952380Y-97333333D01*
X164904761Y-97428571D01*
X164857142Y-97476190D01*
%TO.C,J24*%
X173761904Y-105687142D02*
X173714285Y-105734761D01*
X173571428Y-105782380D01*
X173476190Y-105782380D01*
X173333333Y-105734761D01*
X173238095Y-105639523D01*
X173190476Y-105544285D01*
X173142857Y-105353809D01*
X173142857Y-105210952D01*
X173190476Y-105020476D01*
X173238095Y-104925238D01*
X173333333Y-104830000D01*
X173476190Y-104782380D01*
X173571428Y-104782380D01*
X173714285Y-104830000D01*
X173761904Y-104877619D01*
X174333333Y-105782380D02*
X174238095Y-105734761D01*
X174190476Y-105687142D01*
X174142857Y-105591904D01*
X174142857Y-105306190D01*
X174190476Y-105210952D01*
X174238095Y-105163333D01*
X174333333Y-105115714D01*
X174476190Y-105115714D01*
X174571428Y-105163333D01*
X174619047Y-105210952D01*
X174666666Y-105306190D01*
X174666666Y-105591904D01*
X174619047Y-105687142D01*
X174571428Y-105734761D01*
X174476190Y-105782380D01*
X174333333Y-105782380D01*
X175095238Y-105115714D02*
X175095238Y-105782380D01*
X175095238Y-105210952D02*
X175142857Y-105163333D01*
X175238095Y-105115714D01*
X175380952Y-105115714D01*
X175476190Y-105163333D01*
X175523809Y-105258571D01*
X175523809Y-105782380D01*
X176000000Y-105115714D02*
X176000000Y-105782380D01*
X176000000Y-105210952D02*
X176047619Y-105163333D01*
X176142857Y-105115714D01*
X176285714Y-105115714D01*
X176380952Y-105163333D01*
X176428571Y-105258571D01*
X176428571Y-105782380D01*
X176666666Y-105877619D02*
X177428571Y-105877619D01*
X177857142Y-104782380D02*
X177952380Y-104782380D01*
X178047619Y-104830000D01*
X178095238Y-104877619D01*
X178142857Y-104972857D01*
X178190476Y-105163333D01*
X178190476Y-105401428D01*
X178142857Y-105591904D01*
X178095238Y-105687142D01*
X178047619Y-105734761D01*
X177952380Y-105782380D01*
X177857142Y-105782380D01*
X177761904Y-105734761D01*
X177714285Y-105687142D01*
X177666666Y-105591904D01*
X177619047Y-105401428D01*
X177619047Y-105163333D01*
X177666666Y-104972857D01*
X177714285Y-104877619D01*
X177761904Y-104830000D01*
X177857142Y-104782380D01*
X179142857Y-105782380D02*
X178571428Y-105782380D01*
X178857142Y-105782380D02*
X178857142Y-104782380D01*
X178761904Y-104925238D01*
X178666666Y-105020476D01*
X178571428Y-105068095D01*
X179476190Y-105782380D02*
X180000000Y-105115714D01*
X179476190Y-105115714D02*
X180000000Y-105782380D01*
X180571428Y-104782380D02*
X180666666Y-104782380D01*
X180761904Y-104830000D01*
X180809523Y-104877619D01*
X180857142Y-104972857D01*
X180904761Y-105163333D01*
X180904761Y-105401428D01*
X180857142Y-105591904D01*
X180809523Y-105687142D01*
X180761904Y-105734761D01*
X180666666Y-105782380D01*
X180571428Y-105782380D01*
X180476190Y-105734761D01*
X180428571Y-105687142D01*
X180380952Y-105591904D01*
X180333333Y-105401428D01*
X180333333Y-105163333D01*
X180380952Y-104972857D01*
X180428571Y-104877619D01*
X180476190Y-104830000D01*
X180571428Y-104782380D01*
X181857142Y-105782380D02*
X181285714Y-105782380D01*
X181571428Y-105782380D02*
X181571428Y-104782380D01*
X181476190Y-104925238D01*
X181380952Y-105020476D01*
X181285714Y-105068095D01*
X176952380Y-103809523D02*
X177666666Y-103809523D01*
X177809523Y-103857142D01*
X177904761Y-103952380D01*
X177952380Y-104095238D01*
X177952380Y-104190476D01*
X177047619Y-103380952D02*
X177000000Y-103333333D01*
X176952380Y-103238095D01*
X176952380Y-103000000D01*
X177000000Y-102904761D01*
X177047619Y-102857142D01*
X177142857Y-102809523D01*
X177238095Y-102809523D01*
X177380952Y-102857142D01*
X177952380Y-103428571D01*
X177952380Y-102809523D01*
X177285714Y-101952380D02*
X177952380Y-101952380D01*
X176904761Y-102190476D02*
X177619047Y-102428571D01*
X177619047Y-101809523D01*
%TO.C,J25*%
X156261904Y-103187142D02*
X156214285Y-103234761D01*
X156071428Y-103282380D01*
X155976190Y-103282380D01*
X155833333Y-103234761D01*
X155738095Y-103139523D01*
X155690476Y-103044285D01*
X155642857Y-102853809D01*
X155642857Y-102710952D01*
X155690476Y-102520476D01*
X155738095Y-102425238D01*
X155833333Y-102330000D01*
X155976190Y-102282380D01*
X156071428Y-102282380D01*
X156214285Y-102330000D01*
X156261904Y-102377619D01*
X156833333Y-103282380D02*
X156738095Y-103234761D01*
X156690476Y-103187142D01*
X156642857Y-103091904D01*
X156642857Y-102806190D01*
X156690476Y-102710952D01*
X156738095Y-102663333D01*
X156833333Y-102615714D01*
X156976190Y-102615714D01*
X157071428Y-102663333D01*
X157119047Y-102710952D01*
X157166666Y-102806190D01*
X157166666Y-103091904D01*
X157119047Y-103187142D01*
X157071428Y-103234761D01*
X156976190Y-103282380D01*
X156833333Y-103282380D01*
X157595238Y-102615714D02*
X157595238Y-103282380D01*
X157595238Y-102710952D02*
X157642857Y-102663333D01*
X157738095Y-102615714D01*
X157880952Y-102615714D01*
X157976190Y-102663333D01*
X158023809Y-102758571D01*
X158023809Y-103282380D01*
X158500000Y-102615714D02*
X158500000Y-103282380D01*
X158500000Y-102710952D02*
X158547619Y-102663333D01*
X158642857Y-102615714D01*
X158785714Y-102615714D01*
X158880952Y-102663333D01*
X158928571Y-102758571D01*
X158928571Y-103282380D01*
X159166666Y-103377619D02*
X159928571Y-103377619D01*
X160357142Y-102282380D02*
X160452380Y-102282380D01*
X160547619Y-102330000D01*
X160595238Y-102377619D01*
X160642857Y-102472857D01*
X160690476Y-102663333D01*
X160690476Y-102901428D01*
X160642857Y-103091904D01*
X160595238Y-103187142D01*
X160547619Y-103234761D01*
X160452380Y-103282380D01*
X160357142Y-103282380D01*
X160261904Y-103234761D01*
X160214285Y-103187142D01*
X160166666Y-103091904D01*
X160119047Y-102901428D01*
X160119047Y-102663333D01*
X160166666Y-102472857D01*
X160214285Y-102377619D01*
X160261904Y-102330000D01*
X160357142Y-102282380D01*
X161642857Y-103282380D02*
X161071428Y-103282380D01*
X161357142Y-103282380D02*
X161357142Y-102282380D01*
X161261904Y-102425238D01*
X161166666Y-102520476D01*
X161071428Y-102568095D01*
X161976190Y-103282380D02*
X162500000Y-102615714D01*
X161976190Y-102615714D02*
X162500000Y-103282380D01*
X163071428Y-102282380D02*
X163166666Y-102282380D01*
X163261904Y-102330000D01*
X163309523Y-102377619D01*
X163357142Y-102472857D01*
X163404761Y-102663333D01*
X163404761Y-102901428D01*
X163357142Y-103091904D01*
X163309523Y-103187142D01*
X163261904Y-103234761D01*
X163166666Y-103282380D01*
X163071428Y-103282380D01*
X162976190Y-103234761D01*
X162928571Y-103187142D01*
X162880952Y-103091904D01*
X162833333Y-102901428D01*
X162833333Y-102663333D01*
X162880952Y-102472857D01*
X162928571Y-102377619D01*
X162976190Y-102330000D01*
X163071428Y-102282380D01*
X164357142Y-103282380D02*
X163785714Y-103282380D01*
X164071428Y-103282380D02*
X164071428Y-102282380D01*
X163976190Y-102425238D01*
X163880952Y-102520476D01*
X163785714Y-102568095D01*
X159452380Y-101309523D02*
X160166666Y-101309523D01*
X160309523Y-101357142D01*
X160404761Y-101452380D01*
X160452380Y-101595238D01*
X160452380Y-101690476D01*
X159547619Y-100880952D02*
X159500000Y-100833333D01*
X159452380Y-100738095D01*
X159452380Y-100500000D01*
X159500000Y-100404761D01*
X159547619Y-100357142D01*
X159642857Y-100309523D01*
X159738095Y-100309523D01*
X159880952Y-100357142D01*
X160452380Y-100928571D01*
X160452380Y-100309523D01*
X159452380Y-99404761D02*
X159452380Y-99880952D01*
X159928571Y-99928571D01*
X159880952Y-99880952D01*
X159833333Y-99785714D01*
X159833333Y-99547619D01*
X159880952Y-99452380D01*
X159928571Y-99404761D01*
X160023809Y-99357142D01*
X160261904Y-99357142D01*
X160357142Y-99404761D01*
X160404761Y-99452380D01*
X160452380Y-99547619D01*
X160452380Y-99785714D01*
X160404761Y-99880952D01*
X160357142Y-99928571D01*
%TO.C,J26*%
X134511904Y-86757142D02*
X134464285Y-86804761D01*
X134321428Y-86852380D01*
X134226190Y-86852380D01*
X134083333Y-86804761D01*
X133988095Y-86709523D01*
X133940476Y-86614285D01*
X133892857Y-86423809D01*
X133892857Y-86280952D01*
X133940476Y-86090476D01*
X133988095Y-85995238D01*
X134083333Y-85900000D01*
X134226190Y-85852380D01*
X134321428Y-85852380D01*
X134464285Y-85900000D01*
X134511904Y-85947619D01*
X135083333Y-86852380D02*
X134988095Y-86804761D01*
X134940476Y-86757142D01*
X134892857Y-86661904D01*
X134892857Y-86376190D01*
X134940476Y-86280952D01*
X134988095Y-86233333D01*
X135083333Y-86185714D01*
X135226190Y-86185714D01*
X135321428Y-86233333D01*
X135369047Y-86280952D01*
X135416666Y-86376190D01*
X135416666Y-86661904D01*
X135369047Y-86757142D01*
X135321428Y-86804761D01*
X135226190Y-86852380D01*
X135083333Y-86852380D01*
X135845238Y-86185714D02*
X135845238Y-86852380D01*
X135845238Y-86280952D02*
X135892857Y-86233333D01*
X135988095Y-86185714D01*
X136130952Y-86185714D01*
X136226190Y-86233333D01*
X136273809Y-86328571D01*
X136273809Y-86852380D01*
X136750000Y-86185714D02*
X136750000Y-86852380D01*
X136750000Y-86280952D02*
X136797619Y-86233333D01*
X136892857Y-86185714D01*
X137035714Y-86185714D01*
X137130952Y-86233333D01*
X137178571Y-86328571D01*
X137178571Y-86852380D01*
X137416666Y-86947619D02*
X138178571Y-86947619D01*
X138607142Y-85852380D02*
X138702380Y-85852380D01*
X138797619Y-85900000D01*
X138845238Y-85947619D01*
X138892857Y-86042857D01*
X138940476Y-86233333D01*
X138940476Y-86471428D01*
X138892857Y-86661904D01*
X138845238Y-86757142D01*
X138797619Y-86804761D01*
X138702380Y-86852380D01*
X138607142Y-86852380D01*
X138511904Y-86804761D01*
X138464285Y-86757142D01*
X138416666Y-86661904D01*
X138369047Y-86471428D01*
X138369047Y-86233333D01*
X138416666Y-86042857D01*
X138464285Y-85947619D01*
X138511904Y-85900000D01*
X138607142Y-85852380D01*
X139892857Y-86852380D02*
X139321428Y-86852380D01*
X139607142Y-86852380D02*
X139607142Y-85852380D01*
X139511904Y-85995238D01*
X139416666Y-86090476D01*
X139321428Y-86138095D01*
X140226190Y-86852380D02*
X140750000Y-86185714D01*
X140226190Y-86185714D02*
X140750000Y-86852380D01*
X141321428Y-85852380D02*
X141416666Y-85852380D01*
X141511904Y-85900000D01*
X141559523Y-85947619D01*
X141607142Y-86042857D01*
X141654761Y-86233333D01*
X141654761Y-86471428D01*
X141607142Y-86661904D01*
X141559523Y-86757142D01*
X141511904Y-86804761D01*
X141416666Y-86852380D01*
X141321428Y-86852380D01*
X141226190Y-86804761D01*
X141178571Y-86757142D01*
X141130952Y-86661904D01*
X141083333Y-86471428D01*
X141083333Y-86233333D01*
X141130952Y-86042857D01*
X141178571Y-85947619D01*
X141226190Y-85900000D01*
X141321428Y-85852380D01*
X142035714Y-85947619D02*
X142083333Y-85900000D01*
X142178571Y-85852380D01*
X142416666Y-85852380D01*
X142511904Y-85900000D01*
X142559523Y-85947619D01*
X142607142Y-86042857D01*
X142607142Y-86138095D01*
X142559523Y-86280952D01*
X141988095Y-86852380D01*
X142607142Y-86852380D01*
X137440476Y-87752380D02*
X137440476Y-88466666D01*
X137392857Y-88609523D01*
X137297619Y-88704761D01*
X137154761Y-88752380D01*
X137059523Y-88752380D01*
X137869047Y-87847619D02*
X137916666Y-87800000D01*
X138011904Y-87752380D01*
X138250000Y-87752380D01*
X138345238Y-87800000D01*
X138392857Y-87847619D01*
X138440476Y-87942857D01*
X138440476Y-88038095D01*
X138392857Y-88180952D01*
X137821428Y-88752380D01*
X138440476Y-88752380D01*
X139297619Y-87752380D02*
X139107142Y-87752380D01*
X139011904Y-87800000D01*
X138964285Y-87847619D01*
X138869047Y-87990476D01*
X138821428Y-88180952D01*
X138821428Y-88561904D01*
X138869047Y-88657142D01*
X138916666Y-88704761D01*
X139011904Y-88752380D01*
X139202380Y-88752380D01*
X139297619Y-88704761D01*
X139345238Y-88657142D01*
X139392857Y-88561904D01*
X139392857Y-88323809D01*
X139345238Y-88228571D01*
X139297619Y-88180952D01*
X139202380Y-88133333D01*
X139011904Y-88133333D01*
X138916666Y-88180952D01*
X138869047Y-88228571D01*
X138821428Y-88323809D01*
%TO.C,J27*%
X144757142Y-134988095D02*
X144804761Y-135035714D01*
X144852380Y-135178571D01*
X144852380Y-135273809D01*
X144804761Y-135416666D01*
X144709523Y-135511904D01*
X144614285Y-135559523D01*
X144423809Y-135607142D01*
X144280952Y-135607142D01*
X144090476Y-135559523D01*
X143995238Y-135511904D01*
X143900000Y-135416666D01*
X143852380Y-135273809D01*
X143852380Y-135178571D01*
X143900000Y-135035714D01*
X143947619Y-134988095D01*
X144852380Y-134416666D02*
X144804761Y-134511904D01*
X144757142Y-134559523D01*
X144661904Y-134607142D01*
X144376190Y-134607142D01*
X144280952Y-134559523D01*
X144233333Y-134511904D01*
X144185714Y-134416666D01*
X144185714Y-134273809D01*
X144233333Y-134178571D01*
X144280952Y-134130952D01*
X144376190Y-134083333D01*
X144661904Y-134083333D01*
X144757142Y-134130952D01*
X144804761Y-134178571D01*
X144852380Y-134273809D01*
X144852380Y-134416666D01*
X144185714Y-133654761D02*
X144852380Y-133654761D01*
X144280952Y-133654761D02*
X144233333Y-133607142D01*
X144185714Y-133511904D01*
X144185714Y-133369047D01*
X144233333Y-133273809D01*
X144328571Y-133226190D01*
X144852380Y-133226190D01*
X144185714Y-132750000D02*
X144852380Y-132750000D01*
X144280952Y-132750000D02*
X144233333Y-132702380D01*
X144185714Y-132607142D01*
X144185714Y-132464285D01*
X144233333Y-132369047D01*
X144328571Y-132321428D01*
X144852380Y-132321428D01*
X144947619Y-132083333D02*
X144947619Y-131321428D01*
X143852380Y-130892857D02*
X143852380Y-130797619D01*
X143900000Y-130702380D01*
X143947619Y-130654761D01*
X144042857Y-130607142D01*
X144233333Y-130559523D01*
X144471428Y-130559523D01*
X144661904Y-130607142D01*
X144757142Y-130654761D01*
X144804761Y-130702380D01*
X144852380Y-130797619D01*
X144852380Y-130892857D01*
X144804761Y-130988095D01*
X144757142Y-131035714D01*
X144661904Y-131083333D01*
X144471428Y-131130952D01*
X144233333Y-131130952D01*
X144042857Y-131083333D01*
X143947619Y-131035714D01*
X143900000Y-130988095D01*
X143852380Y-130892857D01*
X144852380Y-129607142D02*
X144852380Y-130178571D01*
X144852380Y-129892857D02*
X143852380Y-129892857D01*
X143995238Y-129988095D01*
X144090476Y-130083333D01*
X144138095Y-130178571D01*
X144852380Y-129273809D02*
X144185714Y-128750000D01*
X144185714Y-129273809D02*
X144852380Y-128750000D01*
X143852380Y-128178571D02*
X143852380Y-128083333D01*
X143900000Y-127988095D01*
X143947619Y-127940476D01*
X144042857Y-127892857D01*
X144233333Y-127845238D01*
X144471428Y-127845238D01*
X144661904Y-127892857D01*
X144757142Y-127940476D01*
X144804761Y-127988095D01*
X144852380Y-128083333D01*
X144852380Y-128178571D01*
X144804761Y-128273809D01*
X144757142Y-128321428D01*
X144661904Y-128369047D01*
X144471428Y-128416666D01*
X144233333Y-128416666D01*
X144042857Y-128369047D01*
X143947619Y-128321428D01*
X143900000Y-128273809D01*
X143852380Y-128178571D01*
X143947619Y-127464285D02*
X143900000Y-127416666D01*
X143852380Y-127321428D01*
X143852380Y-127083333D01*
X143900000Y-126988095D01*
X143947619Y-126940476D01*
X144042857Y-126892857D01*
X144138095Y-126892857D01*
X144280952Y-126940476D01*
X144852380Y-127511904D01*
X144852380Y-126892857D01*
X145752380Y-132059523D02*
X146466666Y-132059523D01*
X146609523Y-132107142D01*
X146704761Y-132202380D01*
X146752380Y-132345238D01*
X146752380Y-132440476D01*
X145847619Y-131630952D02*
X145800000Y-131583333D01*
X145752380Y-131488095D01*
X145752380Y-131250000D01*
X145800000Y-131154761D01*
X145847619Y-131107142D01*
X145942857Y-131059523D01*
X146038095Y-131059523D01*
X146180952Y-131107142D01*
X146752380Y-131678571D01*
X146752380Y-131059523D01*
X145752380Y-130726190D02*
X145752380Y-130059523D01*
X146752380Y-130488095D01*
%TO.C,J28*%
X134261904Y-152257142D02*
X134214285Y-152304761D01*
X134071428Y-152352380D01*
X133976190Y-152352380D01*
X133833333Y-152304761D01*
X133738095Y-152209523D01*
X133690476Y-152114285D01*
X133642857Y-151923809D01*
X133642857Y-151780952D01*
X133690476Y-151590476D01*
X133738095Y-151495238D01*
X133833333Y-151400000D01*
X133976190Y-151352380D01*
X134071428Y-151352380D01*
X134214285Y-151400000D01*
X134261904Y-151447619D01*
X134833333Y-152352380D02*
X134738095Y-152304761D01*
X134690476Y-152257142D01*
X134642857Y-152161904D01*
X134642857Y-151876190D01*
X134690476Y-151780952D01*
X134738095Y-151733333D01*
X134833333Y-151685714D01*
X134976190Y-151685714D01*
X135071428Y-151733333D01*
X135119047Y-151780952D01*
X135166666Y-151876190D01*
X135166666Y-152161904D01*
X135119047Y-152257142D01*
X135071428Y-152304761D01*
X134976190Y-152352380D01*
X134833333Y-152352380D01*
X135595238Y-151685714D02*
X135595238Y-152352380D01*
X135595238Y-151780952D02*
X135642857Y-151733333D01*
X135738095Y-151685714D01*
X135880952Y-151685714D01*
X135976190Y-151733333D01*
X136023809Y-151828571D01*
X136023809Y-152352380D01*
X136500000Y-151685714D02*
X136500000Y-152352380D01*
X136500000Y-151780952D02*
X136547619Y-151733333D01*
X136642857Y-151685714D01*
X136785714Y-151685714D01*
X136880952Y-151733333D01*
X136928571Y-151828571D01*
X136928571Y-152352380D01*
X137166666Y-152447619D02*
X137928571Y-152447619D01*
X138357142Y-151352380D02*
X138452380Y-151352380D01*
X138547619Y-151400000D01*
X138595238Y-151447619D01*
X138642857Y-151542857D01*
X138690476Y-151733333D01*
X138690476Y-151971428D01*
X138642857Y-152161904D01*
X138595238Y-152257142D01*
X138547619Y-152304761D01*
X138452380Y-152352380D01*
X138357142Y-152352380D01*
X138261904Y-152304761D01*
X138214285Y-152257142D01*
X138166666Y-152161904D01*
X138119047Y-151971428D01*
X138119047Y-151733333D01*
X138166666Y-151542857D01*
X138214285Y-151447619D01*
X138261904Y-151400000D01*
X138357142Y-151352380D01*
X139642857Y-152352380D02*
X139071428Y-152352380D01*
X139357142Y-152352380D02*
X139357142Y-151352380D01*
X139261904Y-151495238D01*
X139166666Y-151590476D01*
X139071428Y-151638095D01*
X139976190Y-152352380D02*
X140500000Y-151685714D01*
X139976190Y-151685714D02*
X140500000Y-152352380D01*
X141071428Y-151352380D02*
X141166666Y-151352380D01*
X141261904Y-151400000D01*
X141309523Y-151447619D01*
X141357142Y-151542857D01*
X141404761Y-151733333D01*
X141404761Y-151971428D01*
X141357142Y-152161904D01*
X141309523Y-152257142D01*
X141261904Y-152304761D01*
X141166666Y-152352380D01*
X141071428Y-152352380D01*
X140976190Y-152304761D01*
X140928571Y-152257142D01*
X140880952Y-152161904D01*
X140833333Y-151971428D01*
X140833333Y-151733333D01*
X140880952Y-151542857D01*
X140928571Y-151447619D01*
X140976190Y-151400000D01*
X141071428Y-151352380D01*
X141738095Y-151352380D02*
X142357142Y-151352380D01*
X142023809Y-151733333D01*
X142166666Y-151733333D01*
X142261904Y-151780952D01*
X142309523Y-151828571D01*
X142357142Y-151923809D01*
X142357142Y-152161904D01*
X142309523Y-152257142D01*
X142261904Y-152304761D01*
X142166666Y-152352380D01*
X141880952Y-152352380D01*
X141785714Y-152304761D01*
X141738095Y-152257142D01*
X137190476Y-144402380D02*
X137190476Y-145116666D01*
X137142857Y-145259523D01*
X137047619Y-145354761D01*
X136904761Y-145402380D01*
X136809523Y-145402380D01*
X137619047Y-144497619D02*
X137666666Y-144450000D01*
X137761904Y-144402380D01*
X138000000Y-144402380D01*
X138095238Y-144450000D01*
X138142857Y-144497619D01*
X138190476Y-144592857D01*
X138190476Y-144688095D01*
X138142857Y-144830952D01*
X137571428Y-145402380D01*
X138190476Y-145402380D01*
X138761904Y-144830952D02*
X138666666Y-144783333D01*
X138619047Y-144735714D01*
X138571428Y-144640476D01*
X138571428Y-144592857D01*
X138619047Y-144497619D01*
X138666666Y-144450000D01*
X138761904Y-144402380D01*
X138952380Y-144402380D01*
X139047619Y-144450000D01*
X139095238Y-144497619D01*
X139142857Y-144592857D01*
X139142857Y-144640476D01*
X139095238Y-144735714D01*
X139047619Y-144783333D01*
X138952380Y-144830952D01*
X138761904Y-144830952D01*
X138666666Y-144878571D01*
X138619047Y-144926190D01*
X138571428Y-145021428D01*
X138571428Y-145211904D01*
X138619047Y-145307142D01*
X138666666Y-145354761D01*
X138761904Y-145402380D01*
X138952380Y-145402380D01*
X139047619Y-145354761D01*
X139095238Y-145307142D01*
X139142857Y-145211904D01*
X139142857Y-145021428D01*
X139095238Y-144926190D01*
X139047619Y-144878571D01*
X138952380Y-144830952D01*
%TO.C,J29*%
X161757142Y-122988095D02*
X161804761Y-123035714D01*
X161852380Y-123178571D01*
X161852380Y-123273809D01*
X161804761Y-123416666D01*
X161709523Y-123511904D01*
X161614285Y-123559523D01*
X161423809Y-123607142D01*
X161280952Y-123607142D01*
X161090476Y-123559523D01*
X160995238Y-123511904D01*
X160900000Y-123416666D01*
X160852380Y-123273809D01*
X160852380Y-123178571D01*
X160900000Y-123035714D01*
X160947619Y-122988095D01*
X161852380Y-122416666D02*
X161804761Y-122511904D01*
X161757142Y-122559523D01*
X161661904Y-122607142D01*
X161376190Y-122607142D01*
X161280952Y-122559523D01*
X161233333Y-122511904D01*
X161185714Y-122416666D01*
X161185714Y-122273809D01*
X161233333Y-122178571D01*
X161280952Y-122130952D01*
X161376190Y-122083333D01*
X161661904Y-122083333D01*
X161757142Y-122130952D01*
X161804761Y-122178571D01*
X161852380Y-122273809D01*
X161852380Y-122416666D01*
X161185714Y-121654761D02*
X161852380Y-121654761D01*
X161280952Y-121654761D02*
X161233333Y-121607142D01*
X161185714Y-121511904D01*
X161185714Y-121369047D01*
X161233333Y-121273809D01*
X161328571Y-121226190D01*
X161852380Y-121226190D01*
X161185714Y-120750000D02*
X161852380Y-120750000D01*
X161280952Y-120750000D02*
X161233333Y-120702380D01*
X161185714Y-120607142D01*
X161185714Y-120464285D01*
X161233333Y-120369047D01*
X161328571Y-120321428D01*
X161852380Y-120321428D01*
X161947619Y-120083333D02*
X161947619Y-119321428D01*
X160852380Y-118892857D02*
X160852380Y-118797619D01*
X160900000Y-118702380D01*
X160947619Y-118654761D01*
X161042857Y-118607142D01*
X161233333Y-118559523D01*
X161471428Y-118559523D01*
X161661904Y-118607142D01*
X161757142Y-118654761D01*
X161804761Y-118702380D01*
X161852380Y-118797619D01*
X161852380Y-118892857D01*
X161804761Y-118988095D01*
X161757142Y-119035714D01*
X161661904Y-119083333D01*
X161471428Y-119130952D01*
X161233333Y-119130952D01*
X161042857Y-119083333D01*
X160947619Y-119035714D01*
X160900000Y-118988095D01*
X160852380Y-118892857D01*
X161852380Y-117607142D02*
X161852380Y-118178571D01*
X161852380Y-117892857D02*
X160852380Y-117892857D01*
X160995238Y-117988095D01*
X161090476Y-118083333D01*
X161138095Y-118178571D01*
X161852380Y-117273809D02*
X161185714Y-116750000D01*
X161185714Y-117273809D02*
X161852380Y-116750000D01*
X160852380Y-116178571D02*
X160852380Y-116083333D01*
X160900000Y-115988095D01*
X160947619Y-115940476D01*
X161042857Y-115892857D01*
X161233333Y-115845238D01*
X161471428Y-115845238D01*
X161661904Y-115892857D01*
X161757142Y-115940476D01*
X161804761Y-115988095D01*
X161852380Y-116083333D01*
X161852380Y-116178571D01*
X161804761Y-116273809D01*
X161757142Y-116321428D01*
X161661904Y-116369047D01*
X161471428Y-116416666D01*
X161233333Y-116416666D01*
X161042857Y-116369047D01*
X160947619Y-116321428D01*
X160900000Y-116273809D01*
X160852380Y-116178571D01*
X160947619Y-115464285D02*
X160900000Y-115416666D01*
X160852380Y-115321428D01*
X160852380Y-115083333D01*
X160900000Y-114988095D01*
X160947619Y-114940476D01*
X161042857Y-114892857D01*
X161138095Y-114892857D01*
X161280952Y-114940476D01*
X161852380Y-115511904D01*
X161852380Y-114892857D01*
X162752380Y-120059523D02*
X163466666Y-120059523D01*
X163609523Y-120107142D01*
X163704761Y-120202380D01*
X163752380Y-120345238D01*
X163752380Y-120440476D01*
X162847619Y-119630952D02*
X162800000Y-119583333D01*
X162752380Y-119488095D01*
X162752380Y-119250000D01*
X162800000Y-119154761D01*
X162847619Y-119107142D01*
X162942857Y-119059523D01*
X163038095Y-119059523D01*
X163180952Y-119107142D01*
X163752380Y-119678571D01*
X163752380Y-119059523D01*
X163752380Y-118583333D02*
X163752380Y-118392857D01*
X163704761Y-118297619D01*
X163657142Y-118250000D01*
X163514285Y-118154761D01*
X163323809Y-118107142D01*
X162942857Y-118107142D01*
X162847619Y-118154761D01*
X162800000Y-118202380D01*
X162752380Y-118297619D01*
X162752380Y-118488095D01*
X162800000Y-118583333D01*
X162847619Y-118630952D01*
X162942857Y-118678571D01*
X163180952Y-118678571D01*
X163276190Y-118630952D01*
X163323809Y-118583333D01*
X163371428Y-118488095D01*
X163371428Y-118297619D01*
X163323809Y-118202380D01*
X163276190Y-118154761D01*
X163180952Y-118107142D01*
%TO.C,Q1*%
X145285714Y-87047619D02*
X145333333Y-87000000D01*
X145428571Y-86952380D01*
X145666666Y-86952380D01*
X145761904Y-87000000D01*
X145809523Y-87047619D01*
X145857142Y-87142857D01*
X145857142Y-87238095D01*
X145809523Y-87380952D01*
X145238095Y-87952380D01*
X145857142Y-87952380D01*
X146285714Y-87952380D02*
X146285714Y-86952380D01*
X146857142Y-87952380D01*
X146857142Y-86952380D01*
X147238095Y-86952380D02*
X147904761Y-86952380D01*
X147476190Y-87952380D01*
X148476190Y-86952380D02*
X148571428Y-86952380D01*
X148666666Y-87000000D01*
X148714285Y-87047619D01*
X148761904Y-87142857D01*
X148809523Y-87333333D01*
X148809523Y-87571428D01*
X148761904Y-87761904D01*
X148714285Y-87857142D01*
X148666666Y-87904761D01*
X148571428Y-87952380D01*
X148476190Y-87952380D01*
X148380952Y-87904761D01*
X148333333Y-87857142D01*
X148285714Y-87761904D01*
X148238095Y-87571428D01*
X148238095Y-87333333D01*
X148285714Y-87142857D01*
X148333333Y-87047619D01*
X148380952Y-87000000D01*
X148476190Y-86952380D01*
X149428571Y-86952380D02*
X149523809Y-86952380D01*
X149619047Y-87000000D01*
X149666666Y-87047619D01*
X149714285Y-87142857D01*
X149761904Y-87333333D01*
X149761904Y-87571428D01*
X149714285Y-87761904D01*
X149666666Y-87857142D01*
X149619047Y-87904761D01*
X149523809Y-87952380D01*
X149428571Y-87952380D01*
X149333333Y-87904761D01*
X149285714Y-87857142D01*
X149238095Y-87761904D01*
X149190476Y-87571428D01*
X149190476Y-87333333D01*
X149238095Y-87142857D01*
X149285714Y-87047619D01*
X149333333Y-87000000D01*
X149428571Y-86952380D01*
X150142857Y-87047619D02*
X150190476Y-87000000D01*
X150285714Y-86952380D01*
X150523809Y-86952380D01*
X150619047Y-87000000D01*
X150666666Y-87047619D01*
X150714285Y-87142857D01*
X150714285Y-87238095D01*
X150666666Y-87380952D01*
X150095238Y-87952380D01*
X150714285Y-87952380D01*
D15*
X148273809Y-90047619D02*
X148250000Y-90095238D01*
X148202380Y-90142857D01*
X148130952Y-90214285D01*
X148107142Y-90261904D01*
X148107142Y-90309523D01*
X148226190Y-90285714D02*
X148202380Y-90333333D01*
X148154761Y-90380952D01*
X148059523Y-90404761D01*
X147892857Y-90404761D01*
X147797619Y-90380952D01*
X147750000Y-90333333D01*
X147726190Y-90285714D01*
X147726190Y-90190476D01*
X147750000Y-90142857D01*
X147797619Y-90095238D01*
X147892857Y-90071428D01*
X148059523Y-90071428D01*
X148154761Y-90095238D01*
X148202380Y-90142857D01*
X148226190Y-90190476D01*
X148226190Y-90285714D01*
X148226190Y-89595238D02*
X148226190Y-89880952D01*
X148226190Y-89738095D02*
X147726190Y-89738095D01*
X147797619Y-89785714D01*
X147845238Y-89833333D01*
X147869047Y-89880952D01*
%TO.C,R1*%
D13*
X182428571Y-119882380D02*
X181857142Y-119882380D01*
X182142857Y-119882380D02*
X182142857Y-118882380D01*
X182047619Y-119025238D01*
X181952380Y-119120476D01*
X181857142Y-119168095D01*
X183047619Y-118882380D02*
X183142857Y-118882380D01*
X183238095Y-118930000D01*
X183285714Y-118977619D01*
X183333333Y-119072857D01*
X183380952Y-119263333D01*
X183380952Y-119501428D01*
X183333333Y-119691904D01*
X183285714Y-119787142D01*
X183238095Y-119834761D01*
X183142857Y-119882380D01*
X183047619Y-119882380D01*
X182952380Y-119834761D01*
X182904761Y-119787142D01*
X182857142Y-119691904D01*
X182809523Y-119501428D01*
X182809523Y-119263333D01*
X182857142Y-119072857D01*
X182904761Y-118977619D01*
X182952380Y-118930000D01*
X183047619Y-118882380D01*
X184000000Y-118882380D02*
X184095238Y-118882380D01*
X184190476Y-118930000D01*
X184238095Y-118977619D01*
X184285714Y-119072857D01*
X184333333Y-119263333D01*
X184333333Y-119501428D01*
X184285714Y-119691904D01*
X184238095Y-119787142D01*
X184190476Y-119834761D01*
X184095238Y-119882380D01*
X184000000Y-119882380D01*
X183904761Y-119834761D01*
X183857142Y-119787142D01*
X183809523Y-119691904D01*
X183761904Y-119501428D01*
X183761904Y-119263333D01*
X183809523Y-119072857D01*
X183857142Y-118977619D01*
X183904761Y-118930000D01*
X184000000Y-118882380D01*
X184761904Y-119882380D02*
X184761904Y-118882380D01*
X184857142Y-119501428D02*
X185142857Y-119882380D01*
X185142857Y-119215714D02*
X184761904Y-119596666D01*
D14*
X183433333Y-118180952D02*
X183300000Y-117990476D01*
X183204761Y-118180952D02*
X183204761Y-117780952D01*
X183357142Y-117780952D01*
X183395238Y-117800000D01*
X183414285Y-117819047D01*
X183433333Y-117857142D01*
X183433333Y-117914285D01*
X183414285Y-117952380D01*
X183395238Y-117971428D01*
X183357142Y-117990476D01*
X183204761Y-117990476D01*
X183814285Y-118180952D02*
X183585714Y-118180952D01*
X183700000Y-118180952D02*
X183700000Y-117780952D01*
X183661904Y-117838095D01*
X183623809Y-117876190D01*
X183585714Y-117895238D01*
%TO.C,R2*%
D13*
X186022380Y-129071428D02*
X186022380Y-129642857D01*
X186022380Y-129357142D02*
X185022380Y-129357142D01*
X185165238Y-129452380D01*
X185260476Y-129547619D01*
X185308095Y-129642857D01*
X185022380Y-128452380D02*
X185022380Y-128357142D01*
X185070000Y-128261904D01*
X185117619Y-128214285D01*
X185212857Y-128166666D01*
X185403333Y-128119047D01*
X185641428Y-128119047D01*
X185831904Y-128166666D01*
X185927142Y-128214285D01*
X185974761Y-128261904D01*
X186022380Y-128357142D01*
X186022380Y-128452380D01*
X185974761Y-128547619D01*
X185927142Y-128595238D01*
X185831904Y-128642857D01*
X185641428Y-128690476D01*
X185403333Y-128690476D01*
X185212857Y-128642857D01*
X185117619Y-128595238D01*
X185070000Y-128547619D01*
X185022380Y-128452380D01*
X185022380Y-127500000D02*
X185022380Y-127404761D01*
X185070000Y-127309523D01*
X185117619Y-127261904D01*
X185212857Y-127214285D01*
X185403333Y-127166666D01*
X185641428Y-127166666D01*
X185831904Y-127214285D01*
X185927142Y-127261904D01*
X185974761Y-127309523D01*
X186022380Y-127404761D01*
X186022380Y-127500000D01*
X185974761Y-127595238D01*
X185927142Y-127642857D01*
X185831904Y-127690476D01*
X185641428Y-127738095D01*
X185403333Y-127738095D01*
X185212857Y-127690476D01*
X185117619Y-127642857D01*
X185070000Y-127595238D01*
X185022380Y-127500000D01*
X186022380Y-126738095D02*
X185022380Y-126738095D01*
X185641428Y-126642857D02*
X186022380Y-126357142D01*
X185355714Y-126357142D02*
X185736666Y-126738095D01*
D14*
X187180952Y-128066666D02*
X186990476Y-128200000D01*
X187180952Y-128295238D02*
X186780952Y-128295238D01*
X186780952Y-128142857D01*
X186800000Y-128104761D01*
X186819047Y-128085714D01*
X186857142Y-128066666D01*
X186914285Y-128066666D01*
X186952380Y-128085714D01*
X186971428Y-128104761D01*
X186990476Y-128142857D01*
X186990476Y-128295238D01*
X186819047Y-127914285D02*
X186800000Y-127895238D01*
X186780952Y-127857142D01*
X186780952Y-127761904D01*
X186800000Y-127723809D01*
X186819047Y-127704761D01*
X186857142Y-127685714D01*
X186895238Y-127685714D01*
X186952380Y-127704761D01*
X187180952Y-127933333D01*
X187180952Y-127685714D01*
%TO.C,R3*%
D13*
X181522380Y-124047619D02*
X181522380Y-123952380D01*
X181570000Y-123857142D01*
X181617619Y-123809523D01*
X181712857Y-123761904D01*
X181903333Y-123714285D01*
X182141428Y-123714285D01*
X182331904Y-123761904D01*
X182427142Y-123809523D01*
X182474761Y-123857142D01*
X182522380Y-123952380D01*
X182522380Y-124047619D01*
X182474761Y-124142857D01*
X182427142Y-124190476D01*
X182331904Y-124238095D01*
X182141428Y-124285714D01*
X181903333Y-124285714D01*
X181712857Y-124238095D01*
X181617619Y-124190476D01*
X181570000Y-124142857D01*
X181522380Y-124047619D01*
D14*
X183680952Y-124066666D02*
X183490476Y-124200000D01*
X183680952Y-124295238D02*
X183280952Y-124295238D01*
X183280952Y-124142857D01*
X183300000Y-124104761D01*
X183319047Y-124085714D01*
X183357142Y-124066666D01*
X183414285Y-124066666D01*
X183452380Y-124085714D01*
X183471428Y-124104761D01*
X183490476Y-124142857D01*
X183490476Y-124295238D01*
X183280952Y-123933333D02*
X183280952Y-123685714D01*
X183433333Y-123819047D01*
X183433333Y-123761904D01*
X183452380Y-123723809D01*
X183471428Y-123704761D01*
X183509523Y-123685714D01*
X183604761Y-123685714D01*
X183642857Y-123704761D01*
X183661904Y-123723809D01*
X183680952Y-123761904D01*
X183680952Y-123876190D01*
X183661904Y-123914285D01*
X183642857Y-123933333D01*
%TO.C,R4*%
D13*
X184022380Y-129071428D02*
X184022380Y-129642857D01*
X184022380Y-129357142D02*
X183022380Y-129357142D01*
X183165238Y-129452380D01*
X183260476Y-129547619D01*
X183308095Y-129642857D01*
X183022380Y-128452380D02*
X183022380Y-128357142D01*
X183070000Y-128261904D01*
X183117619Y-128214285D01*
X183212857Y-128166666D01*
X183403333Y-128119047D01*
X183641428Y-128119047D01*
X183831904Y-128166666D01*
X183927142Y-128214285D01*
X183974761Y-128261904D01*
X184022380Y-128357142D01*
X184022380Y-128452380D01*
X183974761Y-128547619D01*
X183927142Y-128595238D01*
X183831904Y-128642857D01*
X183641428Y-128690476D01*
X183403333Y-128690476D01*
X183212857Y-128642857D01*
X183117619Y-128595238D01*
X183070000Y-128547619D01*
X183022380Y-128452380D01*
X183022380Y-127500000D02*
X183022380Y-127404761D01*
X183070000Y-127309523D01*
X183117619Y-127261904D01*
X183212857Y-127214285D01*
X183403333Y-127166666D01*
X183641428Y-127166666D01*
X183831904Y-127214285D01*
X183927142Y-127261904D01*
X183974761Y-127309523D01*
X184022380Y-127404761D01*
X184022380Y-127500000D01*
X183974761Y-127595238D01*
X183927142Y-127642857D01*
X183831904Y-127690476D01*
X183641428Y-127738095D01*
X183403333Y-127738095D01*
X183212857Y-127690476D01*
X183117619Y-127642857D01*
X183070000Y-127595238D01*
X183022380Y-127500000D01*
X184022380Y-126738095D02*
X183022380Y-126738095D01*
X183641428Y-126642857D02*
X184022380Y-126357142D01*
X183355714Y-126357142D02*
X183736666Y-126738095D01*
D14*
X185180952Y-128066666D02*
X184990476Y-128200000D01*
X185180952Y-128295238D02*
X184780952Y-128295238D01*
X184780952Y-128142857D01*
X184800000Y-128104761D01*
X184819047Y-128085714D01*
X184857142Y-128066666D01*
X184914285Y-128066666D01*
X184952380Y-128085714D01*
X184971428Y-128104761D01*
X184990476Y-128142857D01*
X184990476Y-128295238D01*
X184914285Y-127723809D02*
X185180952Y-127723809D01*
X184761904Y-127819047D02*
X185047619Y-127914285D01*
X185047619Y-127666666D01*
%TO.C,R5*%
D13*
X182428571Y-119022380D02*
X181857142Y-119022380D01*
X182142857Y-119022380D02*
X182142857Y-118022380D01*
X182047619Y-118165238D01*
X181952380Y-118260476D01*
X181857142Y-118308095D01*
X183047619Y-118022380D02*
X183142857Y-118022380D01*
X183238095Y-118070000D01*
X183285714Y-118117619D01*
X183333333Y-118212857D01*
X183380952Y-118403333D01*
X183380952Y-118641428D01*
X183333333Y-118831904D01*
X183285714Y-118927142D01*
X183238095Y-118974761D01*
X183142857Y-119022380D01*
X183047619Y-119022380D01*
X182952380Y-118974761D01*
X182904761Y-118927142D01*
X182857142Y-118831904D01*
X182809523Y-118641428D01*
X182809523Y-118403333D01*
X182857142Y-118212857D01*
X182904761Y-118117619D01*
X182952380Y-118070000D01*
X183047619Y-118022380D01*
X184000000Y-118022380D02*
X184095238Y-118022380D01*
X184190476Y-118070000D01*
X184238095Y-118117619D01*
X184285714Y-118212857D01*
X184333333Y-118403333D01*
X184333333Y-118641428D01*
X184285714Y-118831904D01*
X184238095Y-118927142D01*
X184190476Y-118974761D01*
X184095238Y-119022380D01*
X184000000Y-119022380D01*
X183904761Y-118974761D01*
X183857142Y-118927142D01*
X183809523Y-118831904D01*
X183761904Y-118641428D01*
X183761904Y-118403333D01*
X183809523Y-118212857D01*
X183857142Y-118117619D01*
X183904761Y-118070000D01*
X184000000Y-118022380D01*
X184761904Y-119022380D02*
X184761904Y-118022380D01*
X184857142Y-118641428D02*
X185142857Y-119022380D01*
X185142857Y-118355714D02*
X184761904Y-118736666D01*
D14*
X183433333Y-120180952D02*
X183300000Y-119990476D01*
X183204761Y-120180952D02*
X183204761Y-119780952D01*
X183357142Y-119780952D01*
X183395238Y-119800000D01*
X183414285Y-119819047D01*
X183433333Y-119857142D01*
X183433333Y-119914285D01*
X183414285Y-119952380D01*
X183395238Y-119971428D01*
X183357142Y-119990476D01*
X183204761Y-119990476D01*
X183795238Y-119780952D02*
X183604761Y-119780952D01*
X183585714Y-119971428D01*
X183604761Y-119952380D01*
X183642857Y-119933333D01*
X183738095Y-119933333D01*
X183776190Y-119952380D01*
X183795238Y-119971428D01*
X183814285Y-120009523D01*
X183814285Y-120104761D01*
X183795238Y-120142857D01*
X183776190Y-120161904D01*
X183738095Y-120180952D01*
X183642857Y-120180952D01*
X183604761Y-120161904D01*
X183585714Y-120142857D01*
%TO.C,R6*%
D13*
X189382380Y-110571428D02*
X189382380Y-111142857D01*
X189382380Y-110857142D02*
X188382380Y-110857142D01*
X188525238Y-110952380D01*
X188620476Y-111047619D01*
X188668095Y-111142857D01*
X188382380Y-109952380D02*
X188382380Y-109857142D01*
X188430000Y-109761904D01*
X188477619Y-109714285D01*
X188572857Y-109666666D01*
X188763333Y-109619047D01*
X189001428Y-109619047D01*
X189191904Y-109666666D01*
X189287142Y-109714285D01*
X189334761Y-109761904D01*
X189382380Y-109857142D01*
X189382380Y-109952380D01*
X189334761Y-110047619D01*
X189287142Y-110095238D01*
X189191904Y-110142857D01*
X189001428Y-110190476D01*
X188763333Y-110190476D01*
X188572857Y-110142857D01*
X188477619Y-110095238D01*
X188430000Y-110047619D01*
X188382380Y-109952380D01*
X188382380Y-109000000D02*
X188382380Y-108904761D01*
X188430000Y-108809523D01*
X188477619Y-108761904D01*
X188572857Y-108714285D01*
X188763333Y-108666666D01*
X189001428Y-108666666D01*
X189191904Y-108714285D01*
X189287142Y-108761904D01*
X189334761Y-108809523D01*
X189382380Y-108904761D01*
X189382380Y-109000000D01*
X189334761Y-109095238D01*
X189287142Y-109142857D01*
X189191904Y-109190476D01*
X189001428Y-109238095D01*
X188763333Y-109238095D01*
X188572857Y-109190476D01*
X188477619Y-109142857D01*
X188430000Y-109095238D01*
X188382380Y-109000000D01*
X189382380Y-108238095D02*
X188382380Y-108238095D01*
X189001428Y-108142857D02*
X189382380Y-107857142D01*
X188715714Y-107857142D02*
X189096666Y-108238095D01*
D14*
X187680952Y-109566666D02*
X187490476Y-109700000D01*
X187680952Y-109795238D02*
X187280952Y-109795238D01*
X187280952Y-109642857D01*
X187300000Y-109604761D01*
X187319047Y-109585714D01*
X187357142Y-109566666D01*
X187414285Y-109566666D01*
X187452380Y-109585714D01*
X187471428Y-109604761D01*
X187490476Y-109642857D01*
X187490476Y-109795238D01*
X187280952Y-109223809D02*
X187280952Y-109300000D01*
X187300000Y-109338095D01*
X187319047Y-109357142D01*
X187376190Y-109395238D01*
X187452380Y-109414285D01*
X187604761Y-109414285D01*
X187642857Y-109395238D01*
X187661904Y-109376190D01*
X187680952Y-109338095D01*
X187680952Y-109261904D01*
X187661904Y-109223809D01*
X187642857Y-109204761D01*
X187604761Y-109185714D01*
X187509523Y-109185714D01*
X187471428Y-109204761D01*
X187452380Y-109223809D01*
X187433333Y-109261904D01*
X187433333Y-109338095D01*
X187452380Y-109376190D01*
X187471428Y-109395238D01*
X187509523Y-109414285D01*
%TO.C,R7*%
D13*
X186382380Y-68595238D02*
X186382380Y-69166666D01*
X186382380Y-68880952D02*
X185382380Y-68880952D01*
X185525238Y-68976190D01*
X185620476Y-69071428D01*
X185668095Y-69166666D01*
X185382380Y-67976190D02*
X185382380Y-67880952D01*
X185430000Y-67785714D01*
X185477619Y-67738095D01*
X185572857Y-67690476D01*
X185763333Y-67642857D01*
X186001428Y-67642857D01*
X186191904Y-67690476D01*
X186287142Y-67738095D01*
X186334761Y-67785714D01*
X186382380Y-67880952D01*
X186382380Y-67976190D01*
X186334761Y-68071428D01*
X186287142Y-68119047D01*
X186191904Y-68166666D01*
X186001428Y-68214285D01*
X185763333Y-68214285D01*
X185572857Y-68166666D01*
X185477619Y-68119047D01*
X185430000Y-68071428D01*
X185382380Y-67976190D01*
X186382380Y-67214285D02*
X185382380Y-67214285D01*
X186001428Y-67119047D02*
X186382380Y-66833333D01*
X185715714Y-66833333D02*
X186096666Y-67214285D01*
D14*
X184680952Y-68066666D02*
X184490476Y-68200000D01*
X184680952Y-68295238D02*
X184280952Y-68295238D01*
X184280952Y-68142857D01*
X184300000Y-68104761D01*
X184319047Y-68085714D01*
X184357142Y-68066666D01*
X184414285Y-68066666D01*
X184452380Y-68085714D01*
X184471428Y-68104761D01*
X184490476Y-68142857D01*
X184490476Y-68295238D01*
X184280952Y-67933333D02*
X184280952Y-67666666D01*
X184680952Y-67838095D01*
%TO.C,R8*%
D13*
X158333333Y-80977619D02*
X158380952Y-80930000D01*
X158476190Y-80882380D01*
X158714285Y-80882380D01*
X158809523Y-80930000D01*
X158857142Y-80977619D01*
X158904761Y-81072857D01*
X158904761Y-81168095D01*
X158857142Y-81310952D01*
X158285714Y-81882380D01*
X158904761Y-81882380D01*
X159333333Y-81882380D02*
X159333333Y-80882380D01*
X159428571Y-81501428D02*
X159714285Y-81882380D01*
X159714285Y-81215714D02*
X159333333Y-81596666D01*
X160095238Y-80977619D02*
X160142857Y-80930000D01*
X160238095Y-80882380D01*
X160476190Y-80882380D01*
X160571428Y-80930000D01*
X160619047Y-80977619D01*
X160666666Y-81072857D01*
X160666666Y-81168095D01*
X160619047Y-81310952D01*
X160047619Y-81882380D01*
X160666666Y-81882380D01*
D14*
X159433333Y-80180952D02*
X159300000Y-79990476D01*
X159204761Y-80180952D02*
X159204761Y-79780952D01*
X159357142Y-79780952D01*
X159395238Y-79800000D01*
X159414285Y-79819047D01*
X159433333Y-79857142D01*
X159433333Y-79914285D01*
X159414285Y-79952380D01*
X159395238Y-79971428D01*
X159357142Y-79990476D01*
X159204761Y-79990476D01*
X159661904Y-79952380D02*
X159623809Y-79933333D01*
X159604761Y-79914285D01*
X159585714Y-79876190D01*
X159585714Y-79857142D01*
X159604761Y-79819047D01*
X159623809Y-79800000D01*
X159661904Y-79780952D01*
X159738095Y-79780952D01*
X159776190Y-79800000D01*
X159795238Y-79819047D01*
X159814285Y-79857142D01*
X159814285Y-79876190D01*
X159795238Y-79914285D01*
X159776190Y-79933333D01*
X159738095Y-79952380D01*
X159661904Y-79952380D01*
X159623809Y-79971428D01*
X159604761Y-79990476D01*
X159585714Y-80028571D01*
X159585714Y-80104761D01*
X159604761Y-80142857D01*
X159623809Y-80161904D01*
X159661904Y-80180952D01*
X159738095Y-80180952D01*
X159776190Y-80161904D01*
X159795238Y-80142857D01*
X159814285Y-80104761D01*
X159814285Y-80028571D01*
X159795238Y-79990476D01*
X159776190Y-79971428D01*
X159738095Y-79952380D01*
%TO.C,R9*%
D13*
X158333333Y-73977619D02*
X158380952Y-73930000D01*
X158476190Y-73882380D01*
X158714285Y-73882380D01*
X158809523Y-73930000D01*
X158857142Y-73977619D01*
X158904761Y-74072857D01*
X158904761Y-74168095D01*
X158857142Y-74310952D01*
X158285714Y-74882380D01*
X158904761Y-74882380D01*
X159333333Y-74882380D02*
X159333333Y-73882380D01*
X159428571Y-74501428D02*
X159714285Y-74882380D01*
X159714285Y-74215714D02*
X159333333Y-74596666D01*
X160095238Y-73977619D02*
X160142857Y-73930000D01*
X160238095Y-73882380D01*
X160476190Y-73882380D01*
X160571428Y-73930000D01*
X160619047Y-73977619D01*
X160666666Y-74072857D01*
X160666666Y-74168095D01*
X160619047Y-74310952D01*
X160047619Y-74882380D01*
X160666666Y-74882380D01*
D14*
X159433333Y-73180952D02*
X159300000Y-72990476D01*
X159204761Y-73180952D02*
X159204761Y-72780952D01*
X159357142Y-72780952D01*
X159395238Y-72800000D01*
X159414285Y-72819047D01*
X159433333Y-72857142D01*
X159433333Y-72914285D01*
X159414285Y-72952380D01*
X159395238Y-72971428D01*
X159357142Y-72990476D01*
X159204761Y-72990476D01*
X159623809Y-73180952D02*
X159700000Y-73180952D01*
X159738095Y-73161904D01*
X159757142Y-73142857D01*
X159795238Y-73085714D01*
X159814285Y-73009523D01*
X159814285Y-72857142D01*
X159795238Y-72819047D01*
X159776190Y-72800000D01*
X159738095Y-72780952D01*
X159661904Y-72780952D01*
X159623809Y-72800000D01*
X159604761Y-72819047D01*
X159585714Y-72857142D01*
X159585714Y-72952380D01*
X159604761Y-72990476D01*
X159623809Y-73009523D01*
X159661904Y-73028571D01*
X159738095Y-73028571D01*
X159776190Y-73009523D01*
X159795238Y-72990476D01*
X159814285Y-72952380D01*
%TO.C,R10*%
D13*
X166452380Y-75382380D02*
X166547619Y-75382380D01*
X166642857Y-75430000D01*
X166690476Y-75477619D01*
X166738095Y-75572857D01*
X166785714Y-75763333D01*
X166785714Y-76001428D01*
X166738095Y-76191904D01*
X166690476Y-76287142D01*
X166642857Y-76334761D01*
X166547619Y-76382380D01*
X166452380Y-76382380D01*
X166357142Y-76334761D01*
X166309523Y-76287142D01*
X166261904Y-76191904D01*
X166214285Y-76001428D01*
X166214285Y-75763333D01*
X166261904Y-75572857D01*
X166309523Y-75477619D01*
X166357142Y-75430000D01*
X166452380Y-75382380D01*
D14*
X166242857Y-74680952D02*
X166109523Y-74490476D01*
X166014285Y-74680952D02*
X166014285Y-74280952D01*
X166166666Y-74280952D01*
X166204761Y-74300000D01*
X166223809Y-74319047D01*
X166242857Y-74357142D01*
X166242857Y-74414285D01*
X166223809Y-74452380D01*
X166204761Y-74471428D01*
X166166666Y-74490476D01*
X166014285Y-74490476D01*
X166623809Y-74680952D02*
X166395238Y-74680952D01*
X166509523Y-74680952D02*
X166509523Y-74280952D01*
X166471428Y-74338095D01*
X166433333Y-74376190D01*
X166395238Y-74395238D01*
X166871428Y-74280952D02*
X166909523Y-74280952D01*
X166947619Y-74300000D01*
X166966666Y-74319047D01*
X166985714Y-74357142D01*
X167004761Y-74433333D01*
X167004761Y-74528571D01*
X166985714Y-74604761D01*
X166966666Y-74642857D01*
X166947619Y-74661904D01*
X166909523Y-74680952D01*
X166871428Y-74680952D01*
X166833333Y-74661904D01*
X166814285Y-74642857D01*
X166795238Y-74604761D01*
X166776190Y-74528571D01*
X166776190Y-74433333D01*
X166795238Y-74357142D01*
X166814285Y-74319047D01*
X166833333Y-74300000D01*
X166871428Y-74280952D01*
%TO.C,R11*%
D13*
X164952380Y-78382380D02*
X165047619Y-78382380D01*
X165142857Y-78430000D01*
X165190476Y-78477619D01*
X165238095Y-78572857D01*
X165285714Y-78763333D01*
X165285714Y-79001428D01*
X165238095Y-79191904D01*
X165190476Y-79287142D01*
X165142857Y-79334761D01*
X165047619Y-79382380D01*
X164952380Y-79382380D01*
X164857142Y-79334761D01*
X164809523Y-79287142D01*
X164761904Y-79191904D01*
X164714285Y-79001428D01*
X164714285Y-78763333D01*
X164761904Y-78572857D01*
X164809523Y-78477619D01*
X164857142Y-78430000D01*
X164952380Y-78382380D01*
D14*
X164742857Y-77680952D02*
X164609523Y-77490476D01*
X164514285Y-77680952D02*
X164514285Y-77280952D01*
X164666666Y-77280952D01*
X164704761Y-77300000D01*
X164723809Y-77319047D01*
X164742857Y-77357142D01*
X164742857Y-77414285D01*
X164723809Y-77452380D01*
X164704761Y-77471428D01*
X164666666Y-77490476D01*
X164514285Y-77490476D01*
X165123809Y-77680952D02*
X164895238Y-77680952D01*
X165009523Y-77680952D02*
X165009523Y-77280952D01*
X164971428Y-77338095D01*
X164933333Y-77376190D01*
X164895238Y-77395238D01*
X165504761Y-77680952D02*
X165276190Y-77680952D01*
X165390476Y-77680952D02*
X165390476Y-77280952D01*
X165352380Y-77338095D01*
X165314285Y-77376190D01*
X165276190Y-77395238D01*
%TO.C,R12*%
D13*
X150428571Y-86022380D02*
X149857142Y-86022380D01*
X150142857Y-86022380D02*
X150142857Y-85022380D01*
X150047619Y-85165238D01*
X149952380Y-85260476D01*
X149857142Y-85308095D01*
X151047619Y-85022380D02*
X151142857Y-85022380D01*
X151238095Y-85070000D01*
X151285714Y-85117619D01*
X151333333Y-85212857D01*
X151380952Y-85403333D01*
X151380952Y-85641428D01*
X151333333Y-85831904D01*
X151285714Y-85927142D01*
X151238095Y-85974761D01*
X151142857Y-86022380D01*
X151047619Y-86022380D01*
X150952380Y-85974761D01*
X150904761Y-85927142D01*
X150857142Y-85831904D01*
X150809523Y-85641428D01*
X150809523Y-85403333D01*
X150857142Y-85212857D01*
X150904761Y-85117619D01*
X150952380Y-85070000D01*
X151047619Y-85022380D01*
X152000000Y-85022380D02*
X152095238Y-85022380D01*
X152190476Y-85070000D01*
X152238095Y-85117619D01*
X152285714Y-85212857D01*
X152333333Y-85403333D01*
X152333333Y-85641428D01*
X152285714Y-85831904D01*
X152238095Y-85927142D01*
X152190476Y-85974761D01*
X152095238Y-86022380D01*
X152000000Y-86022380D01*
X151904761Y-85974761D01*
X151857142Y-85927142D01*
X151809523Y-85831904D01*
X151761904Y-85641428D01*
X151761904Y-85403333D01*
X151809523Y-85212857D01*
X151857142Y-85117619D01*
X151904761Y-85070000D01*
X152000000Y-85022380D01*
X152761904Y-86022380D02*
X152761904Y-85022380D01*
X152857142Y-85641428D02*
X153142857Y-86022380D01*
X153142857Y-85355714D02*
X152761904Y-85736666D01*
D14*
X151242857Y-87180952D02*
X151109523Y-86990476D01*
X151014285Y-87180952D02*
X151014285Y-86780952D01*
X151166666Y-86780952D01*
X151204761Y-86800000D01*
X151223809Y-86819047D01*
X151242857Y-86857142D01*
X151242857Y-86914285D01*
X151223809Y-86952380D01*
X151204761Y-86971428D01*
X151166666Y-86990476D01*
X151014285Y-86990476D01*
X151623809Y-87180952D02*
X151395238Y-87180952D01*
X151509523Y-87180952D02*
X151509523Y-86780952D01*
X151471428Y-86838095D01*
X151433333Y-86876190D01*
X151395238Y-86895238D01*
X151776190Y-86819047D02*
X151795238Y-86800000D01*
X151833333Y-86780952D01*
X151928571Y-86780952D01*
X151966666Y-86800000D01*
X151985714Y-86819047D01*
X152004761Y-86857142D01*
X152004761Y-86895238D01*
X151985714Y-86952380D01*
X151757142Y-87180952D01*
X152004761Y-87180952D01*
%TO.C,R13*%
D13*
X150029761Y-100882380D02*
X149458333Y-100882380D01*
X149744047Y-100882380D02*
X149744047Y-99882380D01*
X149648809Y-100025238D01*
X149553571Y-100120476D01*
X149458333Y-100168095D01*
X150648809Y-99882380D02*
X150744047Y-99882380D01*
X150839285Y-99930000D01*
X150886904Y-99977619D01*
X150934523Y-100072857D01*
X150982142Y-100263333D01*
X150982142Y-100501428D01*
X150934523Y-100691904D01*
X150886904Y-100787142D01*
X150839285Y-100834761D01*
X150744047Y-100882380D01*
X150648809Y-100882380D01*
X150553571Y-100834761D01*
X150505952Y-100787142D01*
X150458333Y-100691904D01*
X150410714Y-100501428D01*
X150410714Y-100263333D01*
X150458333Y-100072857D01*
X150505952Y-99977619D01*
X150553571Y-99930000D01*
X150648809Y-99882380D01*
X151410714Y-100882380D02*
X151410714Y-99882380D01*
X151505952Y-100501428D02*
X151791666Y-100882380D01*
X151791666Y-100215714D02*
X151410714Y-100596666D01*
D14*
X150367857Y-99180952D02*
X150234523Y-98990476D01*
X150139285Y-99180952D02*
X150139285Y-98780952D01*
X150291666Y-98780952D01*
X150329761Y-98800000D01*
X150348809Y-98819047D01*
X150367857Y-98857142D01*
X150367857Y-98914285D01*
X150348809Y-98952380D01*
X150329761Y-98971428D01*
X150291666Y-98990476D01*
X150139285Y-98990476D01*
X150748809Y-99180952D02*
X150520238Y-99180952D01*
X150634523Y-99180952D02*
X150634523Y-98780952D01*
X150596428Y-98838095D01*
X150558333Y-98876190D01*
X150520238Y-98895238D01*
X150882142Y-98780952D02*
X151129761Y-98780952D01*
X150996428Y-98933333D01*
X151053571Y-98933333D01*
X151091666Y-98952380D01*
X151110714Y-98971428D01*
X151129761Y-99009523D01*
X151129761Y-99104761D01*
X151110714Y-99142857D01*
X151091666Y-99161904D01*
X151053571Y-99180952D01*
X150939285Y-99180952D01*
X150901190Y-99161904D01*
X150882142Y-99142857D01*
%TO.C,R14*%
D13*
X152882380Y-105595238D02*
X152882380Y-106166666D01*
X152882380Y-105880952D02*
X151882380Y-105880952D01*
X152025238Y-105976190D01*
X152120476Y-106071428D01*
X152168095Y-106166666D01*
X151882380Y-104976190D02*
X151882380Y-104880952D01*
X151930000Y-104785714D01*
X151977619Y-104738095D01*
X152072857Y-104690476D01*
X152263333Y-104642857D01*
X152501428Y-104642857D01*
X152691904Y-104690476D01*
X152787142Y-104738095D01*
X152834761Y-104785714D01*
X152882380Y-104880952D01*
X152882380Y-104976190D01*
X152834761Y-105071428D01*
X152787142Y-105119047D01*
X152691904Y-105166666D01*
X152501428Y-105214285D01*
X152263333Y-105214285D01*
X152072857Y-105166666D01*
X151977619Y-105119047D01*
X151930000Y-105071428D01*
X151882380Y-104976190D01*
X152882380Y-104214285D02*
X151882380Y-104214285D01*
X152501428Y-104119047D02*
X152882380Y-103833333D01*
X152215714Y-103833333D02*
X152596666Y-104214285D01*
D14*
X151180952Y-105257142D02*
X150990476Y-105390476D01*
X151180952Y-105485714D02*
X150780952Y-105485714D01*
X150780952Y-105333333D01*
X150800000Y-105295238D01*
X150819047Y-105276190D01*
X150857142Y-105257142D01*
X150914285Y-105257142D01*
X150952380Y-105276190D01*
X150971428Y-105295238D01*
X150990476Y-105333333D01*
X150990476Y-105485714D01*
X151180952Y-104876190D02*
X151180952Y-105104761D01*
X151180952Y-104990476D02*
X150780952Y-104990476D01*
X150838095Y-105028571D01*
X150876190Y-105066666D01*
X150895238Y-105104761D01*
X150914285Y-104533333D02*
X151180952Y-104533333D01*
X150761904Y-104628571D02*
X151047619Y-104723809D01*
X151047619Y-104476190D01*
%TO.C,R15*%
D13*
X151117619Y-106041666D02*
X151070000Y-105994047D01*
X151022380Y-105898809D01*
X151022380Y-105660714D01*
X151070000Y-105565476D01*
X151117619Y-105517857D01*
X151212857Y-105470238D01*
X151308095Y-105470238D01*
X151450952Y-105517857D01*
X152022380Y-106089285D01*
X152022380Y-105470238D01*
X151117619Y-105089285D02*
X151070000Y-105041666D01*
X151022380Y-104946428D01*
X151022380Y-104708333D01*
X151070000Y-104613095D01*
X151117619Y-104565476D01*
X151212857Y-104517857D01*
X151308095Y-104517857D01*
X151450952Y-104565476D01*
X152022380Y-105136904D01*
X152022380Y-104517857D01*
X152022380Y-104089285D02*
X151022380Y-104089285D01*
X151641428Y-103994047D02*
X152022380Y-103708333D01*
X151355714Y-103708333D02*
X151736666Y-104089285D01*
D14*
X153180952Y-105132142D02*
X152990476Y-105265476D01*
X153180952Y-105360714D02*
X152780952Y-105360714D01*
X152780952Y-105208333D01*
X152800000Y-105170238D01*
X152819047Y-105151190D01*
X152857142Y-105132142D01*
X152914285Y-105132142D01*
X152952380Y-105151190D01*
X152971428Y-105170238D01*
X152990476Y-105208333D01*
X152990476Y-105360714D01*
X153180952Y-104751190D02*
X153180952Y-104979761D01*
X153180952Y-104865476D02*
X152780952Y-104865476D01*
X152838095Y-104903571D01*
X152876190Y-104941666D01*
X152895238Y-104979761D01*
X152780952Y-104389285D02*
X152780952Y-104579761D01*
X152971428Y-104598809D01*
X152952380Y-104579761D01*
X152933333Y-104541666D01*
X152933333Y-104446428D01*
X152952380Y-104408333D01*
X152971428Y-104389285D01*
X153009523Y-104370238D01*
X153104761Y-104370238D01*
X153142857Y-104389285D01*
X153161904Y-104408333D01*
X153180952Y-104446428D01*
X153180952Y-104541666D01*
X153161904Y-104579761D01*
X153142857Y-104598809D01*
%TO.C,R16*%
D13*
X144255952Y-89022380D02*
X143684523Y-89022380D01*
X143970238Y-89022380D02*
X143970238Y-88022380D01*
X143875000Y-88165238D01*
X143779761Y-88260476D01*
X143684523Y-88308095D01*
X144684523Y-89022380D02*
X144684523Y-88022380D01*
X144779761Y-88641428D02*
X145065476Y-89022380D01*
X145065476Y-88355714D02*
X144684523Y-88736666D01*
D14*
X144117857Y-90180952D02*
X143984523Y-89990476D01*
X143889285Y-90180952D02*
X143889285Y-89780952D01*
X144041666Y-89780952D01*
X144079761Y-89800000D01*
X144098809Y-89819047D01*
X144117857Y-89857142D01*
X144117857Y-89914285D01*
X144098809Y-89952380D01*
X144079761Y-89971428D01*
X144041666Y-89990476D01*
X143889285Y-89990476D01*
X144498809Y-90180952D02*
X144270238Y-90180952D01*
X144384523Y-90180952D02*
X144384523Y-89780952D01*
X144346428Y-89838095D01*
X144308333Y-89876190D01*
X144270238Y-89895238D01*
X144841666Y-89780952D02*
X144765476Y-89780952D01*
X144727380Y-89800000D01*
X144708333Y-89819047D01*
X144670238Y-89876190D01*
X144651190Y-89952380D01*
X144651190Y-90104761D01*
X144670238Y-90142857D01*
X144689285Y-90161904D01*
X144727380Y-90180952D01*
X144803571Y-90180952D01*
X144841666Y-90161904D01*
X144860714Y-90142857D01*
X144879761Y-90104761D01*
X144879761Y-90009523D01*
X144860714Y-89971428D01*
X144841666Y-89952380D01*
X144803571Y-89933333D01*
X144727380Y-89933333D01*
X144689285Y-89952380D01*
X144670238Y-89971428D01*
X144651190Y-90009523D01*
%TO.C,R17*%
D13*
X150833333Y-90022380D02*
X150261904Y-90022380D01*
X150547619Y-90022380D02*
X150547619Y-89022380D01*
X150452380Y-89165238D01*
X150357142Y-89260476D01*
X150261904Y-89308095D01*
X151452380Y-89022380D02*
X151547619Y-89022380D01*
X151642857Y-89070000D01*
X151690476Y-89117619D01*
X151738095Y-89212857D01*
X151785714Y-89403333D01*
X151785714Y-89641428D01*
X151738095Y-89831904D01*
X151690476Y-89927142D01*
X151642857Y-89974761D01*
X151547619Y-90022380D01*
X151452380Y-90022380D01*
X151357142Y-89974761D01*
X151309523Y-89927142D01*
X151261904Y-89831904D01*
X151214285Y-89641428D01*
X151214285Y-89403333D01*
X151261904Y-89212857D01*
X151309523Y-89117619D01*
X151357142Y-89070000D01*
X151452380Y-89022380D01*
X152404761Y-89022380D02*
X152500000Y-89022380D01*
X152595238Y-89070000D01*
X152642857Y-89117619D01*
X152690476Y-89212857D01*
X152738095Y-89403333D01*
X152738095Y-89641428D01*
X152690476Y-89831904D01*
X152642857Y-89927142D01*
X152595238Y-89974761D01*
X152500000Y-90022380D01*
X152404761Y-90022380D01*
X152309523Y-89974761D01*
X152261904Y-89927142D01*
X152214285Y-89831904D01*
X152166666Y-89641428D01*
X152166666Y-89403333D01*
X152214285Y-89212857D01*
X152261904Y-89117619D01*
X152309523Y-89070000D01*
X152404761Y-89022380D01*
D14*
X151242857Y-91180952D02*
X151109523Y-90990476D01*
X151014285Y-91180952D02*
X151014285Y-90780952D01*
X151166666Y-90780952D01*
X151204761Y-90800000D01*
X151223809Y-90819047D01*
X151242857Y-90857142D01*
X151242857Y-90914285D01*
X151223809Y-90952380D01*
X151204761Y-90971428D01*
X151166666Y-90990476D01*
X151014285Y-90990476D01*
X151623809Y-91180952D02*
X151395238Y-91180952D01*
X151509523Y-91180952D02*
X151509523Y-90780952D01*
X151471428Y-90838095D01*
X151433333Y-90876190D01*
X151395238Y-90895238D01*
X151757142Y-90780952D02*
X152023809Y-90780952D01*
X151852380Y-91180952D01*
%TO.C,R18*%
D13*
X150428571Y-90882380D02*
X149857142Y-90882380D01*
X150142857Y-90882380D02*
X150142857Y-89882380D01*
X150047619Y-90025238D01*
X149952380Y-90120476D01*
X149857142Y-90168095D01*
X151047619Y-89882380D02*
X151142857Y-89882380D01*
X151238095Y-89930000D01*
X151285714Y-89977619D01*
X151333333Y-90072857D01*
X151380952Y-90263333D01*
X151380952Y-90501428D01*
X151333333Y-90691904D01*
X151285714Y-90787142D01*
X151238095Y-90834761D01*
X151142857Y-90882380D01*
X151047619Y-90882380D01*
X150952380Y-90834761D01*
X150904761Y-90787142D01*
X150857142Y-90691904D01*
X150809523Y-90501428D01*
X150809523Y-90263333D01*
X150857142Y-90072857D01*
X150904761Y-89977619D01*
X150952380Y-89930000D01*
X151047619Y-89882380D01*
X152000000Y-89882380D02*
X152095238Y-89882380D01*
X152190476Y-89930000D01*
X152238095Y-89977619D01*
X152285714Y-90072857D01*
X152333333Y-90263333D01*
X152333333Y-90501428D01*
X152285714Y-90691904D01*
X152238095Y-90787142D01*
X152190476Y-90834761D01*
X152095238Y-90882380D01*
X152000000Y-90882380D01*
X151904761Y-90834761D01*
X151857142Y-90787142D01*
X151809523Y-90691904D01*
X151761904Y-90501428D01*
X151761904Y-90263333D01*
X151809523Y-90072857D01*
X151857142Y-89977619D01*
X151904761Y-89930000D01*
X152000000Y-89882380D01*
X152761904Y-90882380D02*
X152761904Y-89882380D01*
X152857142Y-90501428D02*
X153142857Y-90882380D01*
X153142857Y-90215714D02*
X152761904Y-90596666D01*
D14*
X151242857Y-89180952D02*
X151109523Y-88990476D01*
X151014285Y-89180952D02*
X151014285Y-88780952D01*
X151166666Y-88780952D01*
X151204761Y-88800000D01*
X151223809Y-88819047D01*
X151242857Y-88857142D01*
X151242857Y-88914285D01*
X151223809Y-88952380D01*
X151204761Y-88971428D01*
X151166666Y-88990476D01*
X151014285Y-88990476D01*
X151623809Y-89180952D02*
X151395238Y-89180952D01*
X151509523Y-89180952D02*
X151509523Y-88780952D01*
X151471428Y-88838095D01*
X151433333Y-88876190D01*
X151395238Y-88895238D01*
X151852380Y-88952380D02*
X151814285Y-88933333D01*
X151795238Y-88914285D01*
X151776190Y-88876190D01*
X151776190Y-88857142D01*
X151795238Y-88819047D01*
X151814285Y-88800000D01*
X151852380Y-88780952D01*
X151928571Y-88780952D01*
X151966666Y-88800000D01*
X151985714Y-88819047D01*
X152004761Y-88857142D01*
X152004761Y-88876190D01*
X151985714Y-88914285D01*
X151966666Y-88933333D01*
X151928571Y-88952380D01*
X151852380Y-88952380D01*
X151814285Y-88971428D01*
X151795238Y-88990476D01*
X151776190Y-89028571D01*
X151776190Y-89104761D01*
X151795238Y-89142857D01*
X151814285Y-89161904D01*
X151852380Y-89180952D01*
X151928571Y-89180952D01*
X151966666Y-89161904D01*
X151985714Y-89142857D01*
X152004761Y-89104761D01*
X152004761Y-89028571D01*
X151985714Y-88990476D01*
X151966666Y-88971428D01*
X151928571Y-88952380D01*
%TO.C,U3*%
D13*
X173000000Y-116502380D02*
X173000000Y-115502380D01*
X173380952Y-115502380D01*
X173476190Y-115550000D01*
X173523809Y-115597619D01*
X173571428Y-115692857D01*
X173571428Y-115835714D01*
X173523809Y-115930952D01*
X173476190Y-115978571D01*
X173380952Y-116026190D01*
X173000000Y-116026190D01*
X173952380Y-116216666D02*
X174428571Y-116216666D01*
X173857142Y-116502380D02*
X174190476Y-115502380D01*
X174523809Y-116502380D01*
X174857142Y-116502380D02*
X174857142Y-115502380D01*
X175190476Y-116216666D01*
X175523809Y-115502380D01*
X175523809Y-116502380D01*
X176142857Y-115930952D02*
X176047619Y-115883333D01*
X176000000Y-115835714D01*
X175952380Y-115740476D01*
X175952380Y-115692857D01*
X176000000Y-115597619D01*
X176047619Y-115550000D01*
X176142857Y-115502380D01*
X176333333Y-115502380D01*
X176428571Y-115550000D01*
X176476190Y-115597619D01*
X176523809Y-115692857D01*
X176523809Y-115740476D01*
X176476190Y-115835714D01*
X176428571Y-115883333D01*
X176333333Y-115930952D01*
X176142857Y-115930952D01*
X176047619Y-115978571D01*
X176000000Y-116026190D01*
X175952380Y-116121428D01*
X175952380Y-116311904D01*
X176000000Y-116407142D01*
X176047619Y-116454761D01*
X176142857Y-116502380D01*
X176333333Y-116502380D01*
X176428571Y-116454761D01*
X176476190Y-116407142D01*
X176523809Y-116311904D01*
X176523809Y-116121428D01*
X176476190Y-116026190D01*
X176428571Y-115978571D01*
X176333333Y-115930952D01*
X176857142Y-115502380D02*
X177476190Y-115502380D01*
X177142857Y-115883333D01*
X177285714Y-115883333D01*
X177380952Y-115930952D01*
X177428571Y-115978571D01*
X177476190Y-116073809D01*
X177476190Y-116311904D01*
X177428571Y-116407142D01*
X177380952Y-116454761D01*
X177285714Y-116502380D01*
X177000000Y-116502380D01*
X176904761Y-116454761D01*
X176857142Y-116407142D01*
X178095238Y-115502380D02*
X178190476Y-115502380D01*
X178285714Y-115550000D01*
X178333333Y-115597619D01*
X178380952Y-115692857D01*
X178428571Y-115883333D01*
X178428571Y-116121428D01*
X178380952Y-116311904D01*
X178333333Y-116407142D01*
X178285714Y-116454761D01*
X178190476Y-116502380D01*
X178095238Y-116502380D01*
X178000000Y-116454761D01*
X177952380Y-116407142D01*
X177904761Y-116311904D01*
X177857142Y-116121428D01*
X177857142Y-115883333D01*
X177904761Y-115692857D01*
X177952380Y-115597619D01*
X178000000Y-115550000D01*
X178095238Y-115502380D01*
X178809523Y-115597619D02*
X178857142Y-115550000D01*
X178952380Y-115502380D01*
X179190476Y-115502380D01*
X179285714Y-115550000D01*
X179333333Y-115597619D01*
X179380952Y-115692857D01*
X179380952Y-115788095D01*
X179333333Y-115930952D01*
X178761904Y-116502380D01*
X179380952Y-116502380D01*
X179761904Y-116216666D02*
X180238095Y-116216666D01*
X179666666Y-116502380D02*
X180000000Y-115502380D01*
X180333333Y-116502380D01*
X180619047Y-116216666D02*
X181095238Y-116216666D01*
X180523809Y-116502380D02*
X180857142Y-115502380D01*
X181190476Y-116502380D01*
X181476190Y-116454761D02*
X181619047Y-116502380D01*
X181857142Y-116502380D01*
X181952380Y-116454761D01*
X182000000Y-116407142D01*
X182047619Y-116311904D01*
X182047619Y-116216666D01*
X182000000Y-116121428D01*
X181952380Y-116073809D01*
X181857142Y-116026190D01*
X181666666Y-115978571D01*
X181571428Y-115930952D01*
X181523809Y-115883333D01*
X181476190Y-115788095D01*
X181476190Y-115692857D01*
X181523809Y-115597619D01*
X181571428Y-115550000D01*
X181666666Y-115502380D01*
X181904761Y-115502380D01*
X182047619Y-115550000D01*
D16*
X176928571Y-118089285D02*
X176928571Y-118696428D01*
X176964285Y-118767857D01*
X177000000Y-118803571D01*
X177071428Y-118839285D01*
X177214285Y-118839285D01*
X177285714Y-118803571D01*
X177321428Y-118767857D01*
X177357142Y-118696428D01*
X177357142Y-118089285D01*
X177642857Y-118089285D02*
X178107142Y-118089285D01*
X177857142Y-118375000D01*
X177964285Y-118375000D01*
X178035714Y-118410714D01*
X178071428Y-118446428D01*
X178107142Y-118517857D01*
X178107142Y-118696428D01*
X178071428Y-118767857D01*
X178035714Y-118803571D01*
X177964285Y-118839285D01*
X177750000Y-118839285D01*
X177678571Y-118803571D01*
X177642857Y-118767857D01*
%TO.C,U4*%
D13*
X127681428Y-125928571D02*
X127824285Y-125976190D01*
X127871904Y-126023809D01*
X127919523Y-126119047D01*
X127919523Y-126261904D01*
X127871904Y-126357142D01*
X127824285Y-126404761D01*
X127729047Y-126452380D01*
X127348095Y-126452380D01*
X127348095Y-125452380D01*
X127681428Y-125452380D01*
X127776666Y-125500000D01*
X127824285Y-125547619D01*
X127871904Y-125642857D01*
X127871904Y-125738095D01*
X127824285Y-125833333D01*
X127776666Y-125880952D01*
X127681428Y-125928571D01*
X127348095Y-125928571D01*
X128776666Y-126452380D02*
X128776666Y-125928571D01*
X128729047Y-125833333D01*
X128633809Y-125785714D01*
X128443333Y-125785714D01*
X128348095Y-125833333D01*
X128776666Y-126404761D02*
X128681428Y-126452380D01*
X128443333Y-126452380D01*
X128348095Y-126404761D01*
X128300476Y-126309523D01*
X128300476Y-126214285D01*
X128348095Y-126119047D01*
X128443333Y-126071428D01*
X128681428Y-126071428D01*
X128776666Y-126023809D01*
X129110000Y-125785714D02*
X129490952Y-125785714D01*
X129252857Y-125452380D02*
X129252857Y-126309523D01*
X129300476Y-126404761D01*
X129395714Y-126452380D01*
X129490952Y-126452380D01*
X129681428Y-125785714D02*
X130062380Y-125785714D01*
X129824285Y-125452380D02*
X129824285Y-126309523D01*
X129871904Y-126404761D01*
X129967142Y-126452380D01*
X130062380Y-126452380D01*
X130157619Y-126547619D02*
X130919523Y-126547619D01*
X131110000Y-126166666D02*
X131586190Y-126166666D01*
X131014761Y-126452380D02*
X131348095Y-125452380D01*
X131681428Y-126452380D01*
X132157619Y-126452380D02*
X132062380Y-126404761D01*
X132014761Y-126309523D01*
X132014761Y-125452380D01*
X132538571Y-126452380D02*
X132538571Y-125785714D01*
X132538571Y-125452380D02*
X132490952Y-125500000D01*
X132538571Y-125547619D01*
X132586190Y-125500000D01*
X132538571Y-125452380D01*
X132538571Y-125547619D01*
X133014761Y-126452380D02*
X133014761Y-125785714D01*
X133014761Y-125880952D02*
X133062380Y-125833333D01*
X133157619Y-125785714D01*
X133300476Y-125785714D01*
X133395714Y-125833333D01*
X133443333Y-125928571D01*
X133443333Y-126452380D01*
X133443333Y-125928571D02*
X133490952Y-125833333D01*
X133586190Y-125785714D01*
X133729047Y-125785714D01*
X133824285Y-125833333D01*
X133871904Y-125928571D01*
X133871904Y-126452380D01*
X138738095Y-125452380D02*
X138738095Y-126261904D01*
X138785714Y-126357142D01*
X138833333Y-126404761D01*
X138928571Y-126452380D01*
X139119047Y-126452380D01*
X139214285Y-126404761D01*
X139261904Y-126357142D01*
X139309523Y-126261904D01*
X139309523Y-125452380D01*
X140214285Y-125785714D02*
X140214285Y-126452380D01*
X139976190Y-125404761D02*
X139738095Y-126119047D01*
X140357142Y-126119047D01*
%TO.C,J6*%
X153457142Y-117988095D02*
X153504761Y-118035714D01*
X153552380Y-118178571D01*
X153552380Y-118273809D01*
X153504761Y-118416666D01*
X153409523Y-118511904D01*
X153314285Y-118559523D01*
X153123809Y-118607142D01*
X152980952Y-118607142D01*
X152790476Y-118559523D01*
X152695238Y-118511904D01*
X152600000Y-118416666D01*
X152552380Y-118273809D01*
X152552380Y-118178571D01*
X152600000Y-118035714D01*
X152647619Y-117988095D01*
X153552380Y-117416666D02*
X153504761Y-117511904D01*
X153457142Y-117559523D01*
X153361904Y-117607142D01*
X153076190Y-117607142D01*
X152980952Y-117559523D01*
X152933333Y-117511904D01*
X152885714Y-117416666D01*
X152885714Y-117273809D01*
X152933333Y-117178571D01*
X152980952Y-117130952D01*
X153076190Y-117083333D01*
X153361904Y-117083333D01*
X153457142Y-117130952D01*
X153504761Y-117178571D01*
X153552380Y-117273809D01*
X153552380Y-117416666D01*
X152885714Y-116654761D02*
X153552380Y-116654761D01*
X152980952Y-116654761D02*
X152933333Y-116607142D01*
X152885714Y-116511904D01*
X152885714Y-116369047D01*
X152933333Y-116273809D01*
X153028571Y-116226190D01*
X153552380Y-116226190D01*
X152885714Y-115750000D02*
X153552380Y-115750000D01*
X152980952Y-115750000D02*
X152933333Y-115702380D01*
X152885714Y-115607142D01*
X152885714Y-115464285D01*
X152933333Y-115369047D01*
X153028571Y-115321428D01*
X153552380Y-115321428D01*
X153647619Y-115083333D02*
X153647619Y-114321428D01*
X152552380Y-113892857D02*
X152552380Y-113797619D01*
X152600000Y-113702380D01*
X152647619Y-113654761D01*
X152742857Y-113607142D01*
X152933333Y-113559523D01*
X153171428Y-113559523D01*
X153361904Y-113607142D01*
X153457142Y-113654761D01*
X153504761Y-113702380D01*
X153552380Y-113797619D01*
X153552380Y-113892857D01*
X153504761Y-113988095D01*
X153457142Y-114035714D01*
X153361904Y-114083333D01*
X153171428Y-114130952D01*
X152933333Y-114130952D01*
X152742857Y-114083333D01*
X152647619Y-114035714D01*
X152600000Y-113988095D01*
X152552380Y-113892857D01*
X153552380Y-112607142D02*
X153552380Y-113178571D01*
X153552380Y-112892857D02*
X152552380Y-112892857D01*
X152695238Y-112988095D01*
X152790476Y-113083333D01*
X152838095Y-113178571D01*
X153552380Y-112273809D02*
X152885714Y-111750000D01*
X152885714Y-112273809D02*
X153552380Y-111750000D01*
X152552380Y-111178571D02*
X152552380Y-111083333D01*
X152600000Y-110988095D01*
X152647619Y-110940476D01*
X152742857Y-110892857D01*
X152933333Y-110845238D01*
X153171428Y-110845238D01*
X153361904Y-110892857D01*
X153457142Y-110940476D01*
X153504761Y-110988095D01*
X153552380Y-111083333D01*
X153552380Y-111178571D01*
X153504761Y-111273809D01*
X153457142Y-111321428D01*
X153361904Y-111369047D01*
X153171428Y-111416666D01*
X152933333Y-111416666D01*
X152742857Y-111369047D01*
X152647619Y-111321428D01*
X152600000Y-111273809D01*
X152552380Y-111178571D01*
X152885714Y-109988095D02*
X153552380Y-109988095D01*
X152504761Y-110226190D02*
X153219047Y-110464285D01*
X153219047Y-109845238D01*
X150652380Y-114583333D02*
X151366666Y-114583333D01*
X151509523Y-114630952D01*
X151604761Y-114726190D01*
X151652380Y-114869047D01*
X151652380Y-114964285D01*
X150652380Y-113678571D02*
X150652380Y-113869047D01*
X150700000Y-113964285D01*
X150747619Y-114011904D01*
X150890476Y-114107142D01*
X151080952Y-114154761D01*
X151461904Y-114154761D01*
X151557142Y-114107142D01*
X151604761Y-114059523D01*
X151652380Y-113964285D01*
X151652380Y-113773809D01*
X151604761Y-113678571D01*
X151557142Y-113630952D01*
X151461904Y-113583333D01*
X151223809Y-113583333D01*
X151128571Y-113630952D01*
X151080952Y-113678571D01*
X151033333Y-113773809D01*
X151033333Y-113964285D01*
X151080952Y-114059523D01*
X151128571Y-114107142D01*
X151223809Y-114154761D01*
%TO.C,J7*%
X135582904Y-73539142D02*
X135535285Y-73586761D01*
X135392428Y-73634380D01*
X135297190Y-73634380D01*
X135154333Y-73586761D01*
X135059095Y-73491523D01*
X135011476Y-73396285D01*
X134963857Y-73205809D01*
X134963857Y-73062952D01*
X135011476Y-72872476D01*
X135059095Y-72777238D01*
X135154333Y-72682000D01*
X135297190Y-72634380D01*
X135392428Y-72634380D01*
X135535285Y-72682000D01*
X135582904Y-72729619D01*
X136154333Y-73634380D02*
X136059095Y-73586761D01*
X136011476Y-73539142D01*
X135963857Y-73443904D01*
X135963857Y-73158190D01*
X136011476Y-73062952D01*
X136059095Y-73015333D01*
X136154333Y-72967714D01*
X136297190Y-72967714D01*
X136392428Y-73015333D01*
X136440047Y-73062952D01*
X136487666Y-73158190D01*
X136487666Y-73443904D01*
X136440047Y-73539142D01*
X136392428Y-73586761D01*
X136297190Y-73634380D01*
X136154333Y-73634380D01*
X136916238Y-72967714D02*
X136916238Y-73634380D01*
X136916238Y-73062952D02*
X136963857Y-73015333D01*
X137059095Y-72967714D01*
X137201952Y-72967714D01*
X137297190Y-73015333D01*
X137344809Y-73110571D01*
X137344809Y-73634380D01*
X137821000Y-72967714D02*
X137821000Y-73634380D01*
X137821000Y-73062952D02*
X137868619Y-73015333D01*
X137963857Y-72967714D01*
X138106714Y-72967714D01*
X138201952Y-73015333D01*
X138249571Y-73110571D01*
X138249571Y-73634380D01*
X138487666Y-73729619D02*
X139249571Y-73729619D01*
X139678142Y-72634380D02*
X139773380Y-72634380D01*
X139868619Y-72682000D01*
X139916238Y-72729619D01*
X139963857Y-72824857D01*
X140011476Y-73015333D01*
X140011476Y-73253428D01*
X139963857Y-73443904D01*
X139916238Y-73539142D01*
X139868619Y-73586761D01*
X139773380Y-73634380D01*
X139678142Y-73634380D01*
X139582904Y-73586761D01*
X139535285Y-73539142D01*
X139487666Y-73443904D01*
X139440047Y-73253428D01*
X139440047Y-73015333D01*
X139487666Y-72824857D01*
X139535285Y-72729619D01*
X139582904Y-72682000D01*
X139678142Y-72634380D01*
X140963857Y-73634380D02*
X140392428Y-73634380D01*
X140678142Y-73634380D02*
X140678142Y-72634380D01*
X140582904Y-72777238D01*
X140487666Y-72872476D01*
X140392428Y-72920095D01*
X141297190Y-73634380D02*
X141821000Y-72967714D01*
X141297190Y-72967714D02*
X141821000Y-73634380D01*
X142392428Y-72634380D02*
X142487666Y-72634380D01*
X142582904Y-72682000D01*
X142630523Y-72729619D01*
X142678142Y-72824857D01*
X142725761Y-73015333D01*
X142725761Y-73253428D01*
X142678142Y-73443904D01*
X142630523Y-73539142D01*
X142582904Y-73586761D01*
X142487666Y-73634380D01*
X142392428Y-73634380D01*
X142297190Y-73586761D01*
X142249571Y-73539142D01*
X142201952Y-73443904D01*
X142154333Y-73253428D01*
X142154333Y-73015333D01*
X142201952Y-72824857D01*
X142249571Y-72729619D01*
X142297190Y-72682000D01*
X142392428Y-72634380D01*
X143582904Y-72967714D02*
X143582904Y-73634380D01*
X143344809Y-72586761D02*
X143106714Y-73301047D01*
X143725761Y-73301047D01*
X138987666Y-70734380D02*
X138987666Y-71448666D01*
X138940047Y-71591523D01*
X138844809Y-71686761D01*
X138701952Y-71734380D01*
X138606714Y-71734380D01*
X139368619Y-70734380D02*
X140035285Y-70734380D01*
X139606714Y-71734380D01*
%TO.C,J8*%
X135556905Y-87636142D02*
X135509286Y-87683761D01*
X135366429Y-87731380D01*
X135271191Y-87731380D01*
X135128334Y-87683761D01*
X135033096Y-87588523D01*
X134985477Y-87493285D01*
X134937858Y-87302809D01*
X134937858Y-87159952D01*
X134985477Y-86969476D01*
X135033096Y-86874238D01*
X135128334Y-86779000D01*
X135271191Y-86731380D01*
X135366429Y-86731380D01*
X135509286Y-86779000D01*
X135556905Y-86826619D01*
X136128334Y-87731380D02*
X136033096Y-87683761D01*
X135985477Y-87636142D01*
X135937858Y-87540904D01*
X135937858Y-87255190D01*
X135985477Y-87159952D01*
X136033096Y-87112333D01*
X136128334Y-87064714D01*
X136271191Y-87064714D01*
X136366429Y-87112333D01*
X136414048Y-87159952D01*
X136461667Y-87255190D01*
X136461667Y-87540904D01*
X136414048Y-87636142D01*
X136366429Y-87683761D01*
X136271191Y-87731380D01*
X136128334Y-87731380D01*
X136890239Y-87064714D02*
X136890239Y-87731380D01*
X136890239Y-87159952D02*
X136937858Y-87112333D01*
X137033096Y-87064714D01*
X137175953Y-87064714D01*
X137271191Y-87112333D01*
X137318810Y-87207571D01*
X137318810Y-87731380D01*
X137795001Y-87064714D02*
X137795001Y-87731380D01*
X137795001Y-87159952D02*
X137842620Y-87112333D01*
X137937858Y-87064714D01*
X138080715Y-87064714D01*
X138175953Y-87112333D01*
X138223572Y-87207571D01*
X138223572Y-87731380D01*
X138461667Y-87826619D02*
X139223572Y-87826619D01*
X139652143Y-86731380D02*
X139747381Y-86731380D01*
X139842620Y-86779000D01*
X139890239Y-86826619D01*
X139937858Y-86921857D01*
X139985477Y-87112333D01*
X139985477Y-87350428D01*
X139937858Y-87540904D01*
X139890239Y-87636142D01*
X139842620Y-87683761D01*
X139747381Y-87731380D01*
X139652143Y-87731380D01*
X139556905Y-87683761D01*
X139509286Y-87636142D01*
X139461667Y-87540904D01*
X139414048Y-87350428D01*
X139414048Y-87112333D01*
X139461667Y-86921857D01*
X139509286Y-86826619D01*
X139556905Y-86779000D01*
X139652143Y-86731380D01*
X140937858Y-87731380D02*
X140366429Y-87731380D01*
X140652143Y-87731380D02*
X140652143Y-86731380D01*
X140556905Y-86874238D01*
X140461667Y-86969476D01*
X140366429Y-87017095D01*
X141271191Y-87731380D02*
X141795001Y-87064714D01*
X141271191Y-87064714D02*
X141795001Y-87731380D01*
X142366429Y-86731380D02*
X142461667Y-86731380D01*
X142556905Y-86779000D01*
X142604524Y-86826619D01*
X142652143Y-86921857D01*
X142699762Y-87112333D01*
X142699762Y-87350428D01*
X142652143Y-87540904D01*
X142604524Y-87636142D01*
X142556905Y-87683761D01*
X142461667Y-87731380D01*
X142366429Y-87731380D01*
X142271191Y-87683761D01*
X142223572Y-87636142D01*
X142175953Y-87540904D01*
X142128334Y-87350428D01*
X142128334Y-87112333D01*
X142175953Y-86921857D01*
X142223572Y-86826619D01*
X142271191Y-86779000D01*
X142366429Y-86731380D01*
X143556905Y-87064714D02*
X143556905Y-87731380D01*
X143318810Y-86683761D02*
X143080715Y-87398047D01*
X143699762Y-87398047D01*
X138961667Y-84831380D02*
X138961667Y-85545666D01*
X138914048Y-85688523D01*
X138818810Y-85783761D01*
X138675953Y-85831380D01*
X138580715Y-85831380D01*
X139580715Y-85259952D02*
X139485477Y-85212333D01*
X139437858Y-85164714D01*
X139390239Y-85069476D01*
X139390239Y-85021857D01*
X139437858Y-84926619D01*
X139485477Y-84879000D01*
X139580715Y-84831380D01*
X139771191Y-84831380D01*
X139866429Y-84879000D01*
X139914048Y-84926619D01*
X139961667Y-85021857D01*
X139961667Y-85069476D01*
X139914048Y-85164714D01*
X139866429Y-85212333D01*
X139771191Y-85259952D01*
X139580715Y-85259952D01*
X139485477Y-85307571D01*
X139437858Y-85355190D01*
X139390239Y-85450428D01*
X139390239Y-85640904D01*
X139437858Y-85736142D01*
X139485477Y-85783761D01*
X139580715Y-85831380D01*
X139771191Y-85831380D01*
X139866429Y-85783761D01*
X139914048Y-85736142D01*
X139961667Y-85640904D01*
X139961667Y-85450428D01*
X139914048Y-85355190D01*
X139866429Y-85307571D01*
X139771191Y-85259952D01*
%TO.C,J11*%
X135556905Y-80612143D02*
X135509286Y-80659762D01*
X135366429Y-80707381D01*
X135271191Y-80707381D01*
X135128334Y-80659762D01*
X135033096Y-80564524D01*
X134985477Y-80469286D01*
X134937858Y-80278810D01*
X134937858Y-80135953D01*
X134985477Y-79945477D01*
X135033096Y-79850239D01*
X135128334Y-79755001D01*
X135271191Y-79707381D01*
X135366429Y-79707381D01*
X135509286Y-79755001D01*
X135556905Y-79802620D01*
X136128334Y-80707381D02*
X136033096Y-80659762D01*
X135985477Y-80612143D01*
X135937858Y-80516905D01*
X135937858Y-80231191D01*
X135985477Y-80135953D01*
X136033096Y-80088334D01*
X136128334Y-80040715D01*
X136271191Y-80040715D01*
X136366429Y-80088334D01*
X136414048Y-80135953D01*
X136461667Y-80231191D01*
X136461667Y-80516905D01*
X136414048Y-80612143D01*
X136366429Y-80659762D01*
X136271191Y-80707381D01*
X136128334Y-80707381D01*
X136890239Y-80040715D02*
X136890239Y-80707381D01*
X136890239Y-80135953D02*
X136937858Y-80088334D01*
X137033096Y-80040715D01*
X137175953Y-80040715D01*
X137271191Y-80088334D01*
X137318810Y-80183572D01*
X137318810Y-80707381D01*
X137795001Y-80040715D02*
X137795001Y-80707381D01*
X137795001Y-80135953D02*
X137842620Y-80088334D01*
X137937858Y-80040715D01*
X138080715Y-80040715D01*
X138175953Y-80088334D01*
X138223572Y-80183572D01*
X138223572Y-80707381D01*
X138461667Y-80802620D02*
X139223572Y-80802620D01*
X139652143Y-79707381D02*
X139747381Y-79707381D01*
X139842620Y-79755001D01*
X139890239Y-79802620D01*
X139937858Y-79897858D01*
X139985477Y-80088334D01*
X139985477Y-80326429D01*
X139937858Y-80516905D01*
X139890239Y-80612143D01*
X139842620Y-80659762D01*
X139747381Y-80707381D01*
X139652143Y-80707381D01*
X139556905Y-80659762D01*
X139509286Y-80612143D01*
X139461667Y-80516905D01*
X139414048Y-80326429D01*
X139414048Y-80088334D01*
X139461667Y-79897858D01*
X139509286Y-79802620D01*
X139556905Y-79755001D01*
X139652143Y-79707381D01*
X140937858Y-80707381D02*
X140366429Y-80707381D01*
X140652143Y-80707381D02*
X140652143Y-79707381D01*
X140556905Y-79850239D01*
X140461667Y-79945477D01*
X140366429Y-79993096D01*
X141271191Y-80707381D02*
X141795001Y-80040715D01*
X141271191Y-80040715D02*
X141795001Y-80707381D01*
X142366429Y-79707381D02*
X142461667Y-79707381D01*
X142556905Y-79755001D01*
X142604524Y-79802620D01*
X142652143Y-79897858D01*
X142699762Y-80088334D01*
X142699762Y-80326429D01*
X142652143Y-80516905D01*
X142604524Y-80612143D01*
X142556905Y-80659762D01*
X142461667Y-80707381D01*
X142366429Y-80707381D01*
X142271191Y-80659762D01*
X142223572Y-80612143D01*
X142175953Y-80516905D01*
X142128334Y-80326429D01*
X142128334Y-80088334D01*
X142175953Y-79897858D01*
X142223572Y-79802620D01*
X142271191Y-79755001D01*
X142366429Y-79707381D01*
X143556905Y-80040715D02*
X143556905Y-80707381D01*
X143318810Y-79659762D02*
X143080715Y-80374048D01*
X143699762Y-80374048D01*
X138485477Y-77807381D02*
X138485477Y-78521667D01*
X138437858Y-78664524D01*
X138342620Y-78759762D01*
X138199762Y-78807381D01*
X138104524Y-78807381D01*
X139485477Y-78807381D02*
X138914048Y-78807381D01*
X139199762Y-78807381D02*
X139199762Y-77807381D01*
X139104524Y-77950239D01*
X139009286Y-78045477D01*
X138914048Y-78093096D01*
X140437858Y-78807381D02*
X139866429Y-78807381D01*
X140152143Y-78807381D02*
X140152143Y-77807381D01*
X140056905Y-77950239D01*
X139961667Y-78045477D01*
X139866429Y-78093096D01*
%TD*%
M02*
