%TF.GenerationSoftware,KiCad,Pcbnew,(5.1.6)-1*%
%TF.CreationDate,2021-04-07T10:22:09+02:00*%
%TF.ProjectId,03_La_Boite_A_Meuh,30335f4c-615f-4426-9f69-74655f415f4d,rev?*%
%TF.SameCoordinates,Original*%
%TF.FileFunction,Legend,Top*%
%TF.FilePolarity,Positive*%
%FSLAX46Y46*%
G04 Gerber Fmt 4.6, Leading zero omitted, Abs format (unit mm)*
G04 Created by KiCad (PCBNEW (5.1.6)-1) date 2021-04-07 10:22:09*
%MOMM*%
%LPD*%
G01*
G04 APERTURE LIST*
%ADD10C,0.500000*%
%ADD11C,0.150000*%
%ADD12C,0.750000*%
%ADD13C,0.375000*%
%TA.AperFunction,Profile*%
%ADD14C,0.150000*%
%TD*%
%ADD15C,0.200000*%
%ADD16C,0.127000*%
%ADD17C,0.120000*%
%ADD18C,0.015000*%
G04 APERTURE END LIST*
D10*
X107854761Y-143495238D02*
X107854761Y-144447619D01*
X105854761Y-144447619D01*
X107854761Y-141971428D02*
X106807142Y-141971428D01*
X106616666Y-142066666D01*
X106521428Y-142257142D01*
X106521428Y-142638095D01*
X106616666Y-142828571D01*
X107759523Y-141971428D02*
X107854761Y-142161904D01*
X107854761Y-142638095D01*
X107759523Y-142828571D01*
X107569047Y-142923809D01*
X107378571Y-142923809D01*
X107188095Y-142828571D01*
X107092857Y-142638095D01*
X107092857Y-142161904D01*
X106997619Y-141971428D01*
X106807142Y-138828571D02*
X106902380Y-138542857D01*
X106997619Y-138447619D01*
X107188095Y-138352380D01*
X107473809Y-138352380D01*
X107664285Y-138447619D01*
X107759523Y-138542857D01*
X107854761Y-138733333D01*
X107854761Y-139495238D01*
X105854761Y-139495238D01*
X105854761Y-138828571D01*
X105950000Y-138638095D01*
X106045238Y-138542857D01*
X106235714Y-138447619D01*
X106426190Y-138447619D01*
X106616666Y-138542857D01*
X106711904Y-138638095D01*
X106807142Y-138828571D01*
X106807142Y-139495238D01*
X107854761Y-137209523D02*
X107759523Y-137400000D01*
X107664285Y-137495238D01*
X107473809Y-137590476D01*
X106902380Y-137590476D01*
X106711904Y-137495238D01*
X106616666Y-137400000D01*
X106521428Y-137209523D01*
X106521428Y-136923809D01*
X106616666Y-136733333D01*
X106711904Y-136638095D01*
X106902380Y-136542857D01*
X107473809Y-136542857D01*
X107664285Y-136638095D01*
X107759523Y-136733333D01*
X107854761Y-136923809D01*
X107854761Y-137209523D01*
X107854761Y-135685714D02*
X106521428Y-135685714D01*
X105854761Y-135685714D02*
X105950000Y-135780952D01*
X106045238Y-135685714D01*
X105950000Y-135590476D01*
X105854761Y-135685714D01*
X106045238Y-135685714D01*
X106521428Y-135019047D02*
X106521428Y-134257142D01*
X105854761Y-134733333D02*
X107569047Y-134733333D01*
X107759523Y-134638095D01*
X107854761Y-134447619D01*
X107854761Y-134257142D01*
X107759523Y-132828571D02*
X107854761Y-133019047D01*
X107854761Y-133400000D01*
X107759523Y-133590476D01*
X107569047Y-133685714D01*
X106807142Y-133685714D01*
X106616666Y-133590476D01*
X106521428Y-133400000D01*
X106521428Y-133019047D01*
X106616666Y-132828571D01*
X106807142Y-132733333D01*
X106997619Y-132733333D01*
X107188095Y-133685714D01*
X107854761Y-129495238D02*
X106807142Y-129495238D01*
X106616666Y-129590476D01*
X106521428Y-129780952D01*
X106521428Y-130161904D01*
X106616666Y-130352380D01*
X107759523Y-129495238D02*
X107854761Y-129685714D01*
X107854761Y-130161904D01*
X107759523Y-130352380D01*
X107569047Y-130447619D01*
X107378571Y-130447619D01*
X107188095Y-130352380D01*
X107092857Y-130161904D01*
X107092857Y-129685714D01*
X106997619Y-129495238D01*
X107854761Y-127019047D02*
X105854761Y-127019047D01*
X107283333Y-126352380D01*
X105854761Y-125685714D01*
X107854761Y-125685714D01*
X107759523Y-123971428D02*
X107854761Y-124161904D01*
X107854761Y-124542857D01*
X107759523Y-124733333D01*
X107569047Y-124828571D01*
X106807142Y-124828571D01*
X106616666Y-124733333D01*
X106521428Y-124542857D01*
X106521428Y-124161904D01*
X106616666Y-123971428D01*
X106807142Y-123876190D01*
X106997619Y-123876190D01*
X107188095Y-124828571D01*
X106521428Y-122161904D02*
X107854761Y-122161904D01*
X106521428Y-123019047D02*
X107569047Y-123019047D01*
X107759523Y-122923809D01*
X107854761Y-122733333D01*
X107854761Y-122447619D01*
X107759523Y-122257142D01*
X107664285Y-122161904D01*
X107854761Y-121209523D02*
X105854761Y-121209523D01*
X107854761Y-120352380D02*
X106807142Y-120352380D01*
X106616666Y-120447619D01*
X106521428Y-120638095D01*
X106521428Y-120923809D01*
X106616666Y-121114285D01*
X106711904Y-121209523D01*
X109545238Y-141161904D02*
X109450000Y-141066666D01*
X109354761Y-140876190D01*
X109354761Y-140400000D01*
X109450000Y-140209523D01*
X109545238Y-140114285D01*
X109735714Y-140019047D01*
X109926190Y-140019047D01*
X110211904Y-140114285D01*
X111354761Y-141257142D01*
X111354761Y-140019047D01*
X109354761Y-138780952D02*
X109354761Y-138590476D01*
X109450000Y-138400000D01*
X109545238Y-138304761D01*
X109735714Y-138209523D01*
X110116666Y-138114285D01*
X110592857Y-138114285D01*
X110973809Y-138209523D01*
X111164285Y-138304761D01*
X111259523Y-138400000D01*
X111354761Y-138590476D01*
X111354761Y-138780952D01*
X111259523Y-138971428D01*
X111164285Y-139066666D01*
X110973809Y-139161904D01*
X110592857Y-139257142D01*
X110116666Y-139257142D01*
X109735714Y-139161904D01*
X109545238Y-139066666D01*
X109450000Y-138971428D01*
X109354761Y-138780952D01*
X109545238Y-137352380D02*
X109450000Y-137257142D01*
X109354761Y-137066666D01*
X109354761Y-136590476D01*
X109450000Y-136400000D01*
X109545238Y-136304761D01*
X109735714Y-136209523D01*
X109926190Y-136209523D01*
X110211904Y-136304761D01*
X111354761Y-137447619D01*
X111354761Y-136209523D01*
X111354761Y-134304761D02*
X111354761Y-135447619D01*
X111354761Y-134876190D02*
X109354761Y-134876190D01*
X109640476Y-135066666D01*
X109830952Y-135257142D01*
X109926190Y-135447619D01*
X109354761Y-131542857D02*
X109354761Y-131352380D01*
X109450000Y-131161904D01*
X109545238Y-131066666D01*
X109735714Y-130971428D01*
X110116666Y-130876190D01*
X110592857Y-130876190D01*
X110973809Y-130971428D01*
X111164285Y-131066666D01*
X111259523Y-131161904D01*
X111354761Y-131352380D01*
X111354761Y-131542857D01*
X111259523Y-131733333D01*
X111164285Y-131828571D01*
X110973809Y-131923809D01*
X110592857Y-132019047D01*
X110116666Y-132019047D01*
X109735714Y-131923809D01*
X109545238Y-131828571D01*
X109450000Y-131733333D01*
X109354761Y-131542857D01*
X110021428Y-129161904D02*
X111354761Y-129161904D01*
X109259523Y-129638095D02*
X110688095Y-130114285D01*
X110688095Y-128876190D01*
X109354761Y-126209523D02*
X109354761Y-126019047D01*
X109450000Y-125828571D01*
X109545238Y-125733333D01*
X109735714Y-125638095D01*
X110116666Y-125542857D01*
X110592857Y-125542857D01*
X110973809Y-125638095D01*
X111164285Y-125733333D01*
X111259523Y-125828571D01*
X111354761Y-126019047D01*
X111354761Y-126209523D01*
X111259523Y-126400000D01*
X111164285Y-126495238D01*
X110973809Y-126590476D01*
X110592857Y-126685714D01*
X110116666Y-126685714D01*
X109735714Y-126590476D01*
X109545238Y-126495238D01*
X109450000Y-126400000D01*
X109354761Y-126209523D01*
X109354761Y-124876190D02*
X109354761Y-123542857D01*
X111354761Y-124400000D01*
D11*
X157480095Y-111768000D02*
X157384857Y-111720380D01*
X157242000Y-111720380D01*
X157099142Y-111768000D01*
X157003904Y-111863238D01*
X156956285Y-111958476D01*
X156908666Y-112148952D01*
X156908666Y-112291809D01*
X156956285Y-112482285D01*
X157003904Y-112577523D01*
X157099142Y-112672761D01*
X157242000Y-112720380D01*
X157337238Y-112720380D01*
X157480095Y-112672761D01*
X157527714Y-112625142D01*
X157527714Y-112291809D01*
X157337238Y-112291809D01*
X157956285Y-112720380D02*
X157956285Y-111720380D01*
X158527714Y-112720380D01*
X158527714Y-111720380D01*
X159003904Y-112720380D02*
X159003904Y-111720380D01*
X159242000Y-111720380D01*
X159384857Y-111768000D01*
X159480095Y-111863238D01*
X159527714Y-111958476D01*
X159575333Y-112148952D01*
X159575333Y-112291809D01*
X159527714Y-112482285D01*
X159480095Y-112577523D01*
X159384857Y-112672761D01*
X159242000Y-112720380D01*
X159003904Y-112720380D01*
X157543523Y-105370380D02*
X157067333Y-105370380D01*
X157019714Y-105846571D01*
X157067333Y-105798952D01*
X157162571Y-105751333D01*
X157400666Y-105751333D01*
X157495904Y-105798952D01*
X157543523Y-105846571D01*
X157591142Y-105941809D01*
X157591142Y-106179904D01*
X157543523Y-106275142D01*
X157495904Y-106322761D01*
X157400666Y-106370380D01*
X157162571Y-106370380D01*
X157067333Y-106322761D01*
X157019714Y-106275142D01*
X157876857Y-105370380D02*
X158210190Y-106370380D01*
X158543523Y-105370380D01*
X177442761Y-86050285D02*
X177490380Y-85907428D01*
X177490380Y-85669333D01*
X177442761Y-85574095D01*
X177395142Y-85526476D01*
X177299904Y-85478857D01*
X177204666Y-85478857D01*
X177109428Y-85526476D01*
X177061809Y-85574095D01*
X177014190Y-85669333D01*
X176966571Y-85859809D01*
X176918952Y-85955047D01*
X176871333Y-86002666D01*
X176776095Y-86050285D01*
X176680857Y-86050285D01*
X176585619Y-86002666D01*
X176538000Y-85955047D01*
X176490380Y-85859809D01*
X176490380Y-85621714D01*
X176538000Y-85478857D01*
X177490380Y-85050285D02*
X176490380Y-85050285D01*
X176490380Y-84812190D01*
X176538000Y-84669333D01*
X176633238Y-84574095D01*
X176728476Y-84526476D01*
X176918952Y-84478857D01*
X177061809Y-84478857D01*
X177252285Y-84526476D01*
X177347523Y-84574095D01*
X177442761Y-84669333D01*
X177490380Y-84812190D01*
X177490380Y-85050285D01*
X177204666Y-84097904D02*
X177204666Y-83621714D01*
X177490380Y-84193142D02*
X176490380Y-83859809D01*
X177490380Y-83526476D01*
X174648761Y-86026476D02*
X174696380Y-85883619D01*
X174696380Y-85645523D01*
X174648761Y-85550285D01*
X174601142Y-85502666D01*
X174505904Y-85455047D01*
X174410666Y-85455047D01*
X174315428Y-85502666D01*
X174267809Y-85550285D01*
X174220190Y-85645523D01*
X174172571Y-85836000D01*
X174124952Y-85931238D01*
X174077333Y-85978857D01*
X173982095Y-86026476D01*
X173886857Y-86026476D01*
X173791619Y-85978857D01*
X173744000Y-85931238D01*
X173696380Y-85836000D01*
X173696380Y-85597904D01*
X173744000Y-85455047D01*
X174601142Y-84455047D02*
X174648761Y-84502666D01*
X174696380Y-84645523D01*
X174696380Y-84740761D01*
X174648761Y-84883619D01*
X174553523Y-84978857D01*
X174458285Y-85026476D01*
X174267809Y-85074095D01*
X174124952Y-85074095D01*
X173934476Y-85026476D01*
X173839238Y-84978857D01*
X173744000Y-84883619D01*
X173696380Y-84740761D01*
X173696380Y-84645523D01*
X173744000Y-84502666D01*
X173791619Y-84455047D01*
X174696380Y-83550285D02*
X174696380Y-84026476D01*
X173696380Y-84026476D01*
X171410380Y-85820095D02*
X171410380Y-85201047D01*
X171791333Y-85534380D01*
X171791333Y-85391523D01*
X171838952Y-85296285D01*
X171886571Y-85248666D01*
X171981809Y-85201047D01*
X172219904Y-85201047D01*
X172315142Y-85248666D01*
X172362761Y-85296285D01*
X172410380Y-85391523D01*
X172410380Y-85677238D01*
X172362761Y-85772476D01*
X172315142Y-85820095D01*
X171410380Y-84915333D02*
X172410380Y-84582000D01*
X171410380Y-84248666D01*
X171410380Y-84010571D02*
X171410380Y-83391523D01*
X171791333Y-83724857D01*
X171791333Y-83582000D01*
X171838952Y-83486761D01*
X171886571Y-83439142D01*
X171981809Y-83391523D01*
X172219904Y-83391523D01*
X172315142Y-83439142D01*
X172362761Y-83486761D01*
X172410380Y-83582000D01*
X172410380Y-83867714D01*
X172362761Y-83962952D01*
X172315142Y-84010571D01*
X168918000Y-85343904D02*
X168870380Y-85439142D01*
X168870380Y-85582000D01*
X168918000Y-85724857D01*
X169013238Y-85820095D01*
X169108476Y-85867714D01*
X169298952Y-85915333D01*
X169441809Y-85915333D01*
X169632285Y-85867714D01*
X169727523Y-85820095D01*
X169822761Y-85724857D01*
X169870380Y-85582000D01*
X169870380Y-85486761D01*
X169822761Y-85343904D01*
X169775142Y-85296285D01*
X169441809Y-85296285D01*
X169441809Y-85486761D01*
X169870380Y-84867714D02*
X168870380Y-84867714D01*
X169870380Y-84296285D01*
X168870380Y-84296285D01*
X169870380Y-83820095D02*
X168870380Y-83820095D01*
X168870380Y-83582000D01*
X168918000Y-83439142D01*
X169013238Y-83343904D01*
X169108476Y-83296285D01*
X169298952Y-83248666D01*
X169441809Y-83248666D01*
X169632285Y-83296285D01*
X169727523Y-83343904D01*
X169822761Y-83439142D01*
X169870380Y-83582000D01*
X169870380Y-83820095D01*
X190627142Y-82446761D02*
X190770000Y-82494380D01*
X191008095Y-82494380D01*
X191103333Y-82446761D01*
X191150952Y-82399142D01*
X191198571Y-82303904D01*
X191198571Y-82208666D01*
X191150952Y-82113428D01*
X191103333Y-82065809D01*
X191008095Y-82018190D01*
X190817619Y-81970571D01*
X190722380Y-81922952D01*
X190674761Y-81875333D01*
X190627142Y-81780095D01*
X190627142Y-81684857D01*
X190674761Y-81589619D01*
X190722380Y-81542000D01*
X190817619Y-81494380D01*
X191055714Y-81494380D01*
X191198571Y-81542000D01*
X191627142Y-81970571D02*
X191960476Y-81970571D01*
X192103333Y-82494380D02*
X191627142Y-82494380D01*
X191627142Y-81494380D01*
X192103333Y-81494380D01*
X193008095Y-82494380D02*
X192531904Y-82494380D01*
X192531904Y-81494380D01*
X190262285Y-79446380D02*
X190262285Y-78779714D01*
X190262285Y-78874952D02*
X190309904Y-78827333D01*
X190405142Y-78779714D01*
X190548000Y-78779714D01*
X190643238Y-78827333D01*
X190690857Y-78922571D01*
X190690857Y-79446380D01*
X190690857Y-78922571D02*
X190738476Y-78827333D01*
X190833714Y-78779714D01*
X190976571Y-78779714D01*
X191071809Y-78827333D01*
X191119428Y-78922571D01*
X191119428Y-79446380D01*
X191595619Y-79446380D02*
X191595619Y-78779714D01*
X191595619Y-78446380D02*
X191548000Y-78494000D01*
X191595619Y-78541619D01*
X191643238Y-78494000D01*
X191595619Y-78446380D01*
X191595619Y-78541619D01*
X192500380Y-79398761D02*
X192405142Y-79446380D01*
X192214666Y-79446380D01*
X192119428Y-79398761D01*
X192071809Y-79351142D01*
X192024190Y-79255904D01*
X192024190Y-78970190D01*
X192071809Y-78874952D01*
X192119428Y-78827333D01*
X192214666Y-78779714D01*
X192405142Y-78779714D01*
X192500380Y-78827333D01*
X192690857Y-79541619D02*
X193452761Y-79541619D01*
X194167047Y-79446380D02*
X193690857Y-79446380D01*
X193690857Y-78446380D01*
X195071809Y-79446380D02*
X194738476Y-78970190D01*
X194500380Y-79446380D02*
X194500380Y-78446380D01*
X194881333Y-78446380D01*
X194976571Y-78494000D01*
X195024190Y-78541619D01*
X195071809Y-78636857D01*
X195071809Y-78779714D01*
X195024190Y-78874952D01*
X194976571Y-78922571D01*
X194881333Y-78970190D01*
X194500380Y-78970190D01*
X196071809Y-79351142D02*
X196024190Y-79398761D01*
X195881333Y-79446380D01*
X195786095Y-79446380D01*
X195643238Y-79398761D01*
X195548000Y-79303523D01*
X195500380Y-79208285D01*
X195452761Y-79017809D01*
X195452761Y-78874952D01*
X195500380Y-78684476D01*
X195548000Y-78589238D01*
X195643238Y-78494000D01*
X195786095Y-78446380D01*
X195881333Y-78446380D01*
X196024190Y-78494000D01*
X196071809Y-78541619D01*
X196976571Y-79446380D02*
X196500380Y-79446380D01*
X196500380Y-78446380D01*
X190143238Y-76906380D02*
X190143238Y-76239714D01*
X190143238Y-76334952D02*
X190190857Y-76287333D01*
X190286095Y-76239714D01*
X190428952Y-76239714D01*
X190524190Y-76287333D01*
X190571809Y-76382571D01*
X190571809Y-76906380D01*
X190571809Y-76382571D02*
X190619428Y-76287333D01*
X190714666Y-76239714D01*
X190857523Y-76239714D01*
X190952761Y-76287333D01*
X191000380Y-76382571D01*
X191000380Y-76906380D01*
X191476571Y-76906380D02*
X191476571Y-76239714D01*
X191476571Y-75906380D02*
X191428952Y-75954000D01*
X191476571Y-76001619D01*
X191524190Y-75954000D01*
X191476571Y-75906380D01*
X191476571Y-76001619D01*
X192381333Y-76858761D02*
X192286095Y-76906380D01*
X192095619Y-76906380D01*
X192000380Y-76858761D01*
X191952761Y-76811142D01*
X191905142Y-76715904D01*
X191905142Y-76430190D01*
X191952761Y-76334952D01*
X192000380Y-76287333D01*
X192095619Y-76239714D01*
X192286095Y-76239714D01*
X192381333Y-76287333D01*
X192571809Y-77001619D02*
X193333714Y-77001619D01*
X193571809Y-76906380D02*
X193571809Y-75906380D01*
X193809904Y-75906380D01*
X193952761Y-75954000D01*
X194048000Y-76049238D01*
X194095619Y-76144476D01*
X194143238Y-76334952D01*
X194143238Y-76477809D01*
X194095619Y-76668285D01*
X194048000Y-76763523D01*
X193952761Y-76858761D01*
X193809904Y-76906380D01*
X193571809Y-76906380D01*
X194762285Y-75906380D02*
X194952761Y-75906380D01*
X195048000Y-75954000D01*
X195143238Y-76049238D01*
X195190857Y-76239714D01*
X195190857Y-76573047D01*
X195143238Y-76763523D01*
X195048000Y-76858761D01*
X194952761Y-76906380D01*
X194762285Y-76906380D01*
X194667047Y-76858761D01*
X194571809Y-76763523D01*
X194524190Y-76573047D01*
X194524190Y-76239714D01*
X194571809Y-76049238D01*
X194667047Y-75954000D01*
X194762285Y-75906380D01*
X195619428Y-75906380D02*
X195619428Y-76715904D01*
X195667047Y-76811142D01*
X195714666Y-76858761D01*
X195809904Y-76906380D01*
X196000380Y-76906380D01*
X196095619Y-76858761D01*
X196143238Y-76811142D01*
X196190857Y-76715904D01*
X196190857Y-75906380D01*
X196524190Y-75906380D02*
X197095619Y-75906380D01*
X196809904Y-76906380D02*
X196809904Y-75906380D01*
X190167047Y-74620380D02*
X190167047Y-73953714D01*
X190167047Y-74048952D02*
X190214666Y-74001333D01*
X190309904Y-73953714D01*
X190452761Y-73953714D01*
X190548000Y-74001333D01*
X190595619Y-74096571D01*
X190595619Y-74620380D01*
X190595619Y-74096571D02*
X190643238Y-74001333D01*
X190738476Y-73953714D01*
X190881333Y-73953714D01*
X190976571Y-74001333D01*
X191024190Y-74096571D01*
X191024190Y-74620380D01*
X191500380Y-74620380D02*
X191500380Y-73953714D01*
X191500380Y-73620380D02*
X191452761Y-73668000D01*
X191500380Y-73715619D01*
X191548000Y-73668000D01*
X191500380Y-73620380D01*
X191500380Y-73715619D01*
X192405142Y-74572761D02*
X192309904Y-74620380D01*
X192119428Y-74620380D01*
X192024190Y-74572761D01*
X191976571Y-74525142D01*
X191928952Y-74429904D01*
X191928952Y-74144190D01*
X191976571Y-74048952D01*
X192024190Y-74001333D01*
X192119428Y-73953714D01*
X192309904Y-73953714D01*
X192405142Y-74001333D01*
X192595619Y-74715619D02*
X193357523Y-74715619D01*
X193928952Y-74096571D02*
X194071809Y-74144190D01*
X194119428Y-74191809D01*
X194167047Y-74287047D01*
X194167047Y-74429904D01*
X194119428Y-74525142D01*
X194071809Y-74572761D01*
X193976571Y-74620380D01*
X193595619Y-74620380D01*
X193595619Y-73620380D01*
X193928952Y-73620380D01*
X194024190Y-73668000D01*
X194071809Y-73715619D01*
X194119428Y-73810857D01*
X194119428Y-73906095D01*
X194071809Y-74001333D01*
X194024190Y-74048952D01*
X193928952Y-74096571D01*
X193595619Y-74096571D01*
X195167047Y-74525142D02*
X195119428Y-74572761D01*
X194976571Y-74620380D01*
X194881333Y-74620380D01*
X194738476Y-74572761D01*
X194643238Y-74477523D01*
X194595619Y-74382285D01*
X194548000Y-74191809D01*
X194548000Y-74048952D01*
X194595619Y-73858476D01*
X194643238Y-73763238D01*
X194738476Y-73668000D01*
X194881333Y-73620380D01*
X194976571Y-73620380D01*
X195119428Y-73668000D01*
X195167047Y-73715619D01*
X196071809Y-74620380D02*
X195595619Y-74620380D01*
X195595619Y-73620380D01*
X196405142Y-74620380D02*
X196405142Y-73620380D01*
X196976571Y-74620380D02*
X196548000Y-74048952D01*
X196976571Y-73620380D02*
X196405142Y-74191809D01*
X191008095Y-71128000D02*
X190912857Y-71080380D01*
X190770000Y-71080380D01*
X190627142Y-71128000D01*
X190531904Y-71223238D01*
X190484285Y-71318476D01*
X190436666Y-71508952D01*
X190436666Y-71651809D01*
X190484285Y-71842285D01*
X190531904Y-71937523D01*
X190627142Y-72032761D01*
X190770000Y-72080380D01*
X190865238Y-72080380D01*
X191008095Y-72032761D01*
X191055714Y-71985142D01*
X191055714Y-71651809D01*
X190865238Y-71651809D01*
X191484285Y-72080380D02*
X191484285Y-71080380D01*
X192055714Y-72080380D01*
X192055714Y-71080380D01*
X192531904Y-72080380D02*
X192531904Y-71080380D01*
X192770000Y-71080380D01*
X192912857Y-71128000D01*
X193008095Y-71223238D01*
X193055714Y-71318476D01*
X193103333Y-71508952D01*
X193103333Y-71651809D01*
X193055714Y-71842285D01*
X193008095Y-71937523D01*
X192912857Y-72032761D01*
X192770000Y-72080380D01*
X192531904Y-72080380D01*
X190531904Y-68540380D02*
X191150952Y-68540380D01*
X190817619Y-68921333D01*
X190960476Y-68921333D01*
X191055714Y-68968952D01*
X191103333Y-69016571D01*
X191150952Y-69111809D01*
X191150952Y-69349904D01*
X191103333Y-69445142D01*
X191055714Y-69492761D01*
X190960476Y-69540380D01*
X190674761Y-69540380D01*
X190579523Y-69492761D01*
X190531904Y-69445142D01*
X191436666Y-68540380D02*
X191770000Y-69540380D01*
X192103333Y-68540380D01*
X192341428Y-68540380D02*
X192960476Y-68540380D01*
X192627142Y-68921333D01*
X192770000Y-68921333D01*
X192865238Y-68968952D01*
X192912857Y-69016571D01*
X192960476Y-69111809D01*
X192960476Y-69349904D01*
X192912857Y-69445142D01*
X192865238Y-69492761D01*
X192770000Y-69540380D01*
X192484285Y-69540380D01*
X192389047Y-69492761D01*
X192341428Y-69445142D01*
X190230476Y-112672761D02*
X190373333Y-112720380D01*
X190611428Y-112720380D01*
X190706666Y-112672761D01*
X190754285Y-112625142D01*
X190801904Y-112529904D01*
X190801904Y-112434666D01*
X190754285Y-112339428D01*
X190706666Y-112291809D01*
X190611428Y-112244190D01*
X190420952Y-112196571D01*
X190325714Y-112148952D01*
X190278095Y-112101333D01*
X190230476Y-112006095D01*
X190230476Y-111910857D01*
X190278095Y-111815619D01*
X190325714Y-111768000D01*
X190420952Y-111720380D01*
X190659047Y-111720380D01*
X190801904Y-111768000D01*
X191230476Y-112720380D02*
X191230476Y-111720380D01*
X191611428Y-111720380D01*
X191706666Y-111768000D01*
X191754285Y-111815619D01*
X191801904Y-111910857D01*
X191801904Y-112053714D01*
X191754285Y-112148952D01*
X191706666Y-112196571D01*
X191611428Y-112244190D01*
X191230476Y-112244190D01*
X192230476Y-112720380D02*
X192230476Y-111720380D01*
X192468571Y-112815619D02*
X193230476Y-112815619D01*
X193420952Y-112672761D02*
X193563809Y-112720380D01*
X193801904Y-112720380D01*
X193897142Y-112672761D01*
X193944761Y-112625142D01*
X193992380Y-112529904D01*
X193992380Y-112434666D01*
X193944761Y-112339428D01*
X193897142Y-112291809D01*
X193801904Y-112244190D01*
X193611428Y-112196571D01*
X193516190Y-112148952D01*
X193468571Y-112101333D01*
X193420952Y-112006095D01*
X193420952Y-111910857D01*
X193468571Y-111815619D01*
X193516190Y-111768000D01*
X193611428Y-111720380D01*
X193849523Y-111720380D01*
X193992380Y-111768000D01*
X194420952Y-112720380D02*
X194420952Y-111720380D01*
X194659047Y-111720380D01*
X194801904Y-111768000D01*
X194897142Y-111863238D01*
X194944761Y-111958476D01*
X194992380Y-112148952D01*
X194992380Y-112291809D01*
X194944761Y-112482285D01*
X194897142Y-112577523D01*
X194801904Y-112672761D01*
X194659047Y-112720380D01*
X194420952Y-112720380D01*
X195373333Y-112434666D02*
X195849523Y-112434666D01*
X195278095Y-112720380D02*
X195611428Y-111720380D01*
X195944761Y-112720380D01*
X190230476Y-110132761D02*
X190373333Y-110180380D01*
X190611428Y-110180380D01*
X190706666Y-110132761D01*
X190754285Y-110085142D01*
X190801904Y-109989904D01*
X190801904Y-109894666D01*
X190754285Y-109799428D01*
X190706666Y-109751809D01*
X190611428Y-109704190D01*
X190420952Y-109656571D01*
X190325714Y-109608952D01*
X190278095Y-109561333D01*
X190230476Y-109466095D01*
X190230476Y-109370857D01*
X190278095Y-109275619D01*
X190325714Y-109228000D01*
X190420952Y-109180380D01*
X190659047Y-109180380D01*
X190801904Y-109228000D01*
X191230476Y-110180380D02*
X191230476Y-109180380D01*
X191611428Y-109180380D01*
X191706666Y-109228000D01*
X191754285Y-109275619D01*
X191801904Y-109370857D01*
X191801904Y-109513714D01*
X191754285Y-109608952D01*
X191706666Y-109656571D01*
X191611428Y-109704190D01*
X191230476Y-109704190D01*
X192230476Y-110180380D02*
X192230476Y-109180380D01*
X192468571Y-110275619D02*
X193230476Y-110275619D01*
X194040000Y-110085142D02*
X193992380Y-110132761D01*
X193849523Y-110180380D01*
X193754285Y-110180380D01*
X193611428Y-110132761D01*
X193516190Y-110037523D01*
X193468571Y-109942285D01*
X193420952Y-109751809D01*
X193420952Y-109608952D01*
X193468571Y-109418476D01*
X193516190Y-109323238D01*
X193611428Y-109228000D01*
X193754285Y-109180380D01*
X193849523Y-109180380D01*
X193992380Y-109228000D01*
X194040000Y-109275619D01*
X194944761Y-110180380D02*
X194468571Y-110180380D01*
X194468571Y-109180380D01*
X195278095Y-110180380D02*
X195278095Y-109180380D01*
X195849523Y-110180380D02*
X195420952Y-109608952D01*
X195849523Y-109180380D02*
X195278095Y-109751809D01*
X190333714Y-107592761D02*
X190476571Y-107640380D01*
X190714666Y-107640380D01*
X190809904Y-107592761D01*
X190857523Y-107545142D01*
X190905142Y-107449904D01*
X190905142Y-107354666D01*
X190857523Y-107259428D01*
X190809904Y-107211809D01*
X190714666Y-107164190D01*
X190524190Y-107116571D01*
X190428952Y-107068952D01*
X190381333Y-107021333D01*
X190333714Y-106926095D01*
X190333714Y-106830857D01*
X190381333Y-106735619D01*
X190428952Y-106688000D01*
X190524190Y-106640380D01*
X190762285Y-106640380D01*
X190905142Y-106688000D01*
X191333714Y-107640380D02*
X191333714Y-106640380D01*
X191714666Y-106640380D01*
X191809904Y-106688000D01*
X191857523Y-106735619D01*
X191905142Y-106830857D01*
X191905142Y-106973714D01*
X191857523Y-107068952D01*
X191809904Y-107116571D01*
X191714666Y-107164190D01*
X191333714Y-107164190D01*
X192333714Y-107640380D02*
X192333714Y-106640380D01*
X192571809Y-107735619D02*
X193333714Y-107735619D01*
X193571809Y-107640380D02*
X193571809Y-106640380D01*
X193905142Y-107354666D01*
X194238476Y-106640380D01*
X194238476Y-107640380D01*
X194905142Y-106640380D02*
X195095619Y-106640380D01*
X195190857Y-106688000D01*
X195286095Y-106783238D01*
X195333714Y-106973714D01*
X195333714Y-107307047D01*
X195286095Y-107497523D01*
X195190857Y-107592761D01*
X195095619Y-107640380D01*
X194905142Y-107640380D01*
X194809904Y-107592761D01*
X194714666Y-107497523D01*
X194667047Y-107307047D01*
X194667047Y-106973714D01*
X194714666Y-106783238D01*
X194809904Y-106688000D01*
X194905142Y-106640380D01*
X195714666Y-107592761D02*
X195857523Y-107640380D01*
X196095619Y-107640380D01*
X196190857Y-107592761D01*
X196238476Y-107545142D01*
X196286095Y-107449904D01*
X196286095Y-107354666D01*
X196238476Y-107259428D01*
X196190857Y-107211809D01*
X196095619Y-107164190D01*
X195905142Y-107116571D01*
X195809904Y-107068952D01*
X195762285Y-107021333D01*
X195714666Y-106926095D01*
X195714666Y-106830857D01*
X195762285Y-106735619D01*
X195809904Y-106688000D01*
X195905142Y-106640380D01*
X196143238Y-106640380D01*
X196286095Y-106688000D01*
X196714666Y-107640380D02*
X196714666Y-106640380D01*
X190333714Y-105052761D02*
X190476571Y-105100380D01*
X190714666Y-105100380D01*
X190809904Y-105052761D01*
X190857523Y-105005142D01*
X190905142Y-104909904D01*
X190905142Y-104814666D01*
X190857523Y-104719428D01*
X190809904Y-104671809D01*
X190714666Y-104624190D01*
X190524190Y-104576571D01*
X190428952Y-104528952D01*
X190381333Y-104481333D01*
X190333714Y-104386095D01*
X190333714Y-104290857D01*
X190381333Y-104195619D01*
X190428952Y-104148000D01*
X190524190Y-104100380D01*
X190762285Y-104100380D01*
X190905142Y-104148000D01*
X191333714Y-105100380D02*
X191333714Y-104100380D01*
X191714666Y-104100380D01*
X191809904Y-104148000D01*
X191857523Y-104195619D01*
X191905142Y-104290857D01*
X191905142Y-104433714D01*
X191857523Y-104528952D01*
X191809904Y-104576571D01*
X191714666Y-104624190D01*
X191333714Y-104624190D01*
X192333714Y-105100380D02*
X192333714Y-104100380D01*
X192571809Y-105195619D02*
X193333714Y-105195619D01*
X193571809Y-105100380D02*
X193571809Y-104100380D01*
X193905142Y-104814666D01*
X194238476Y-104100380D01*
X194238476Y-105100380D01*
X194714666Y-105100380D02*
X194714666Y-104100380D01*
X195143238Y-105052761D02*
X195286095Y-105100380D01*
X195524190Y-105100380D01*
X195619428Y-105052761D01*
X195667047Y-105005142D01*
X195714666Y-104909904D01*
X195714666Y-104814666D01*
X195667047Y-104719428D01*
X195619428Y-104671809D01*
X195524190Y-104624190D01*
X195333714Y-104576571D01*
X195238476Y-104528952D01*
X195190857Y-104481333D01*
X195143238Y-104386095D01*
X195143238Y-104290857D01*
X195190857Y-104195619D01*
X195238476Y-104148000D01*
X195333714Y-104100380D01*
X195571809Y-104100380D01*
X195714666Y-104148000D01*
X196333714Y-104100380D02*
X196524190Y-104100380D01*
X196619428Y-104148000D01*
X196714666Y-104243238D01*
X196762285Y-104433714D01*
X196762285Y-104767047D01*
X196714666Y-104957523D01*
X196619428Y-105052761D01*
X196524190Y-105100380D01*
X196333714Y-105100380D01*
X196238476Y-105052761D01*
X196143238Y-104957523D01*
X196095619Y-104767047D01*
X196095619Y-104433714D01*
X196143238Y-104243238D01*
X196238476Y-104148000D01*
X196333714Y-104100380D01*
X190746190Y-102560380D02*
X190746190Y-101560380D01*
X191793809Y-102560380D02*
X191460476Y-102084190D01*
X191222380Y-102560380D02*
X191222380Y-101560380D01*
X191603333Y-101560380D01*
X191698571Y-101608000D01*
X191746190Y-101655619D01*
X191793809Y-101750857D01*
X191793809Y-101893714D01*
X191746190Y-101988952D01*
X191698571Y-102036571D01*
X191603333Y-102084190D01*
X191222380Y-102084190D01*
X192889047Y-102655619D02*
X192793809Y-102608000D01*
X192698571Y-102512761D01*
X192555714Y-102369904D01*
X192460476Y-102322285D01*
X192365238Y-102322285D01*
X192412857Y-102560380D02*
X192317619Y-102512761D01*
X192222380Y-102417523D01*
X192174761Y-102227047D01*
X192174761Y-101893714D01*
X192222380Y-101703238D01*
X192317619Y-101608000D01*
X192412857Y-101560380D01*
X192603333Y-101560380D01*
X192698571Y-101608000D01*
X192793809Y-101703238D01*
X192841428Y-101893714D01*
X192841428Y-102227047D01*
X192793809Y-102417523D01*
X192698571Y-102512761D01*
X192603333Y-102560380D01*
X192412857Y-102560380D01*
X191008095Y-99068000D02*
X190912857Y-99020380D01*
X190770000Y-99020380D01*
X190627142Y-99068000D01*
X190531904Y-99163238D01*
X190484285Y-99258476D01*
X190436666Y-99448952D01*
X190436666Y-99591809D01*
X190484285Y-99782285D01*
X190531904Y-99877523D01*
X190627142Y-99972761D01*
X190770000Y-100020380D01*
X190865238Y-100020380D01*
X191008095Y-99972761D01*
X191055714Y-99925142D01*
X191055714Y-99591809D01*
X190865238Y-99591809D01*
X191484285Y-100020380D02*
X191484285Y-99020380D01*
X192055714Y-100020380D01*
X192055714Y-99020380D01*
X192531904Y-100020380D02*
X192531904Y-99020380D01*
X192770000Y-99020380D01*
X192912857Y-99068000D01*
X193008095Y-99163238D01*
X193055714Y-99258476D01*
X193103333Y-99448952D01*
X193103333Y-99591809D01*
X193055714Y-99782285D01*
X193008095Y-99877523D01*
X192912857Y-99972761D01*
X192770000Y-100020380D01*
X192531904Y-100020380D01*
X190532095Y-97432761D02*
X190674952Y-97480380D01*
X190913047Y-97480380D01*
X191008285Y-97432761D01*
X191055904Y-97385142D01*
X191103523Y-97289904D01*
X191103523Y-97194666D01*
X191055904Y-97099428D01*
X191008285Y-97051809D01*
X190913047Y-97004190D01*
X190722571Y-96956571D01*
X190627333Y-96908952D01*
X190579714Y-96861333D01*
X190532095Y-96766095D01*
X190532095Y-96670857D01*
X190579714Y-96575619D01*
X190627333Y-96528000D01*
X190722571Y-96480380D01*
X190960666Y-96480380D01*
X191103523Y-96528000D01*
X191532095Y-97480380D02*
X191532095Y-96480380D01*
X191913047Y-96480380D01*
X192008285Y-96528000D01*
X192055904Y-96575619D01*
X192103523Y-96670857D01*
X192103523Y-96813714D01*
X192055904Y-96908952D01*
X192008285Y-96956571D01*
X191913047Y-97004190D01*
X191532095Y-97004190D01*
X192532095Y-97480380D02*
X192532095Y-96480380D01*
X192770190Y-97575619D02*
X193532095Y-97575619D01*
X194341619Y-97480380D02*
X194008285Y-97004190D01*
X193770190Y-97480380D02*
X193770190Y-96480380D01*
X194151142Y-96480380D01*
X194246380Y-96528000D01*
X194294000Y-96575619D01*
X194341619Y-96670857D01*
X194341619Y-96813714D01*
X194294000Y-96908952D01*
X194246380Y-96956571D01*
X194151142Y-97004190D01*
X193770190Y-97004190D01*
X194722571Y-97432761D02*
X194865428Y-97480380D01*
X195103523Y-97480380D01*
X195198761Y-97432761D01*
X195246380Y-97385142D01*
X195294000Y-97289904D01*
X195294000Y-97194666D01*
X195246380Y-97099428D01*
X195198761Y-97051809D01*
X195103523Y-97004190D01*
X194913047Y-96956571D01*
X194817809Y-96908952D01*
X194770190Y-96861333D01*
X194722571Y-96766095D01*
X194722571Y-96670857D01*
X194770190Y-96575619D01*
X194817809Y-96528000D01*
X194913047Y-96480380D01*
X195151142Y-96480380D01*
X195294000Y-96528000D01*
X195579714Y-96480380D02*
X196151142Y-96480380D01*
X195865428Y-97480380D02*
X195865428Y-96480380D01*
X191039904Y-94194380D02*
X191658952Y-94194380D01*
X191325619Y-94575333D01*
X191468476Y-94575333D01*
X191563714Y-94622952D01*
X191611333Y-94670571D01*
X191658952Y-94765809D01*
X191658952Y-95003904D01*
X191611333Y-95099142D01*
X191563714Y-95146761D01*
X191468476Y-95194380D01*
X191182761Y-95194380D01*
X191087523Y-95146761D01*
X191039904Y-95099142D01*
X191944666Y-94194380D02*
X192278000Y-95194380D01*
X192611333Y-94194380D01*
X192849428Y-94194380D02*
X193468476Y-94194380D01*
X193135142Y-94575333D01*
X193278000Y-94575333D01*
X193373238Y-94622952D01*
X193420857Y-94670571D01*
X193468476Y-94765809D01*
X193468476Y-95003904D01*
X193420857Y-95099142D01*
X193373238Y-95146761D01*
X193278000Y-95194380D01*
X192992285Y-95194380D01*
X192897047Y-95146761D01*
X192849428Y-95099142D01*
X199080380Y-76001428D02*
X198080380Y-76001428D01*
X198794666Y-75668095D01*
X198080380Y-75334761D01*
X199080380Y-75334761D01*
X199080380Y-74858571D02*
X198080380Y-74858571D01*
X198985142Y-73810952D02*
X199032761Y-73858571D01*
X199080380Y-74001428D01*
X199080380Y-74096666D01*
X199032761Y-74239523D01*
X198937523Y-74334761D01*
X198842285Y-74382380D01*
X198651809Y-74430000D01*
X198508952Y-74430000D01*
X198318476Y-74382380D01*
X198223238Y-74334761D01*
X198128000Y-74239523D01*
X198080380Y-74096666D01*
X198080380Y-74001428D01*
X198128000Y-73858571D01*
X198175619Y-73810952D01*
D10*
X111045809Y-96631142D02*
X111331523Y-96726380D01*
X111426761Y-96821619D01*
X111522000Y-97012095D01*
X111522000Y-97297809D01*
X111426761Y-97488285D01*
X111331523Y-97583523D01*
X111141047Y-97678761D01*
X110379142Y-97678761D01*
X110379142Y-95678761D01*
X111045809Y-95678761D01*
X111236285Y-95774000D01*
X111331523Y-95869238D01*
X111426761Y-96059714D01*
X111426761Y-96250190D01*
X111331523Y-96440666D01*
X111236285Y-96535904D01*
X111045809Y-96631142D01*
X110379142Y-96631142D01*
X112283904Y-97107333D02*
X113236285Y-97107333D01*
X112093428Y-97678761D02*
X112760095Y-95678761D01*
X113426761Y-97678761D01*
X113807714Y-95678761D02*
X114950571Y-95678761D01*
X114379142Y-97678761D02*
X114379142Y-95678761D01*
X101476190Y-90754761D02*
X101476190Y-92373809D01*
X101571428Y-92564285D01*
X101666666Y-92659523D01*
X101857142Y-92754761D01*
X102238095Y-92754761D01*
X102428571Y-92659523D01*
X102523809Y-92564285D01*
X102619047Y-92373809D01*
X102619047Y-90754761D01*
X103476190Y-92659523D02*
X103761904Y-92754761D01*
X104238095Y-92754761D01*
X104428571Y-92659523D01*
X104523809Y-92564285D01*
X104619047Y-92373809D01*
X104619047Y-92183333D01*
X104523809Y-91992857D01*
X104428571Y-91897619D01*
X104238095Y-91802380D01*
X103857142Y-91707142D01*
X103666666Y-91611904D01*
X103571428Y-91516666D01*
X103476190Y-91326190D01*
X103476190Y-91135714D01*
X103571428Y-90945238D01*
X103666666Y-90850000D01*
X103857142Y-90754761D01*
X104333333Y-90754761D01*
X104619047Y-90850000D01*
X106142857Y-91707142D02*
X106428571Y-91802380D01*
X106523809Y-91897619D01*
X106619047Y-92088095D01*
X106619047Y-92373809D01*
X106523809Y-92564285D01*
X106428571Y-92659523D01*
X106238095Y-92754761D01*
X105476190Y-92754761D01*
X105476190Y-90754761D01*
X106142857Y-90754761D01*
X106333333Y-90850000D01*
X106428571Y-90945238D01*
X106523809Y-91135714D01*
X106523809Y-91326190D01*
X106428571Y-91516666D01*
X106333333Y-91611904D01*
X106142857Y-91707142D01*
X105476190Y-91707142D01*
X101095238Y-94254761D02*
X101761904Y-96254761D01*
X102428571Y-94254761D01*
X103857142Y-96159523D02*
X103666666Y-96254761D01*
X103285714Y-96254761D01*
X103095238Y-96159523D01*
X103000000Y-95969047D01*
X103000000Y-95207142D01*
X103095238Y-95016666D01*
X103285714Y-94921428D01*
X103666666Y-94921428D01*
X103857142Y-95016666D01*
X103952380Y-95207142D01*
X103952380Y-95397619D01*
X103000000Y-95588095D01*
X104619047Y-96254761D02*
X105666666Y-94921428D01*
X104619047Y-94921428D02*
X105666666Y-96254761D01*
X106142857Y-94921428D02*
X106904761Y-94921428D01*
X106428571Y-94254761D02*
X106428571Y-95969047D01*
X106523809Y-96159523D01*
X106714285Y-96254761D01*
X106904761Y-96254761D01*
D12*
X169791428Y-113117142D02*
X169791428Y-110117142D01*
X171077142Y-110402857D02*
X171220000Y-110260000D01*
X171505714Y-110117142D01*
X172220000Y-110117142D01*
X172505714Y-110260000D01*
X172648571Y-110402857D01*
X172791428Y-110688571D01*
X172791428Y-110974285D01*
X172648571Y-111402857D01*
X170934285Y-113117142D01*
X172791428Y-113117142D01*
X175791428Y-112831428D02*
X175648571Y-112974285D01*
X175220000Y-113117142D01*
X174934285Y-113117142D01*
X174505714Y-112974285D01*
X174220000Y-112688571D01*
X174077142Y-112402857D01*
X173934285Y-111831428D01*
X173934285Y-111402857D01*
X174077142Y-110831428D01*
X174220000Y-110545714D01*
X174505714Y-110260000D01*
X174934285Y-110117142D01*
X175220000Y-110117142D01*
X175648571Y-110260000D01*
X175791428Y-110402857D01*
D11*
X114524857Y-152952380D02*
X114524857Y-151952380D01*
X114953428Y-152952380D02*
X114953428Y-152428571D01*
X114905809Y-152333333D01*
X114810571Y-152285714D01*
X114667714Y-152285714D01*
X114572476Y-152333333D01*
X114524857Y-152380952D01*
X115286761Y-152285714D02*
X115667714Y-152285714D01*
X115429619Y-151952380D02*
X115429619Y-152809523D01*
X115477238Y-152904761D01*
X115572476Y-152952380D01*
X115667714Y-152952380D01*
X115858190Y-152285714D02*
X116239142Y-152285714D01*
X116001047Y-151952380D02*
X116001047Y-152809523D01*
X116048666Y-152904761D01*
X116143904Y-152952380D01*
X116239142Y-152952380D01*
X116572476Y-152285714D02*
X116572476Y-153285714D01*
X116572476Y-152333333D02*
X116667714Y-152285714D01*
X116858190Y-152285714D01*
X116953428Y-152333333D01*
X117001047Y-152380952D01*
X117048666Y-152476190D01*
X117048666Y-152761904D01*
X117001047Y-152857142D01*
X116953428Y-152904761D01*
X116858190Y-152952380D01*
X116667714Y-152952380D01*
X116572476Y-152904761D01*
X117429619Y-152904761D02*
X117524857Y-152952380D01*
X117715333Y-152952380D01*
X117810571Y-152904761D01*
X117858190Y-152809523D01*
X117858190Y-152761904D01*
X117810571Y-152666666D01*
X117715333Y-152619047D01*
X117572476Y-152619047D01*
X117477238Y-152571428D01*
X117429619Y-152476190D01*
X117429619Y-152428571D01*
X117477238Y-152333333D01*
X117572476Y-152285714D01*
X117715333Y-152285714D01*
X117810571Y-152333333D01*
X118286761Y-152857142D02*
X118334380Y-152904761D01*
X118286761Y-152952380D01*
X118239142Y-152904761D01*
X118286761Y-152857142D01*
X118286761Y-152952380D01*
X118286761Y-152333333D02*
X118334380Y-152380952D01*
X118286761Y-152428571D01*
X118239142Y-152380952D01*
X118286761Y-152333333D01*
X118286761Y-152428571D01*
X119477238Y-151904761D02*
X118620095Y-153190476D01*
X120524857Y-151904761D02*
X119667714Y-153190476D01*
X121286761Y-152285714D02*
X121286761Y-153095238D01*
X121239142Y-153190476D01*
X121191523Y-153238095D01*
X121096285Y-153285714D01*
X120953428Y-153285714D01*
X120858190Y-153238095D01*
X121286761Y-152904761D02*
X121191523Y-152952380D01*
X121001047Y-152952380D01*
X120905809Y-152904761D01*
X120858190Y-152857142D01*
X120810571Y-152761904D01*
X120810571Y-152476190D01*
X120858190Y-152380952D01*
X120905809Y-152333333D01*
X121001047Y-152285714D01*
X121191523Y-152285714D01*
X121286761Y-152333333D01*
X121762952Y-152952380D02*
X121762952Y-152285714D01*
X121762952Y-151952380D02*
X121715333Y-152000000D01*
X121762952Y-152047619D01*
X121810571Y-152000000D01*
X121762952Y-151952380D01*
X121762952Y-152047619D01*
X122096285Y-152285714D02*
X122477238Y-152285714D01*
X122239142Y-151952380D02*
X122239142Y-152809523D01*
X122286761Y-152904761D01*
X122382000Y-152952380D01*
X122477238Y-152952380D01*
X122810571Y-152952380D02*
X122810571Y-151952380D01*
X123239142Y-152952380D02*
X123239142Y-152428571D01*
X123191523Y-152333333D01*
X123096285Y-152285714D01*
X122953428Y-152285714D01*
X122858190Y-152333333D01*
X122810571Y-152380952D01*
X124143904Y-152285714D02*
X124143904Y-152952380D01*
X123715333Y-152285714D02*
X123715333Y-152809523D01*
X123762952Y-152904761D01*
X123858190Y-152952380D01*
X124001047Y-152952380D01*
X124096285Y-152904761D01*
X124143904Y-152857142D01*
X124620095Y-152952380D02*
X124620095Y-151952380D01*
X124620095Y-152333333D02*
X124715333Y-152285714D01*
X124905809Y-152285714D01*
X125001047Y-152333333D01*
X125048666Y-152380952D01*
X125096285Y-152476190D01*
X125096285Y-152761904D01*
X125048666Y-152857142D01*
X125001047Y-152904761D01*
X124905809Y-152952380D01*
X124715333Y-152952380D01*
X124620095Y-152904761D01*
X125524857Y-152857142D02*
X125572476Y-152904761D01*
X125524857Y-152952380D01*
X125477238Y-152904761D01*
X125524857Y-152857142D01*
X125524857Y-152952380D01*
X126429619Y-152904761D02*
X126334380Y-152952380D01*
X126143904Y-152952380D01*
X126048666Y-152904761D01*
X126001047Y-152857142D01*
X125953428Y-152761904D01*
X125953428Y-152476190D01*
X126001047Y-152380952D01*
X126048666Y-152333333D01*
X126143904Y-152285714D01*
X126334380Y-152285714D01*
X126429619Y-152333333D01*
X127001047Y-152952380D02*
X126905809Y-152904761D01*
X126858190Y-152857142D01*
X126810571Y-152761904D01*
X126810571Y-152476190D01*
X126858190Y-152380952D01*
X126905809Y-152333333D01*
X127001047Y-152285714D01*
X127143904Y-152285714D01*
X127239142Y-152333333D01*
X127286761Y-152380952D01*
X127334380Y-152476190D01*
X127334380Y-152761904D01*
X127286761Y-152857142D01*
X127239142Y-152904761D01*
X127143904Y-152952380D01*
X127001047Y-152952380D01*
X127762952Y-152952380D02*
X127762952Y-152285714D01*
X127762952Y-152380952D02*
X127810571Y-152333333D01*
X127905809Y-152285714D01*
X128048666Y-152285714D01*
X128143904Y-152333333D01*
X128191523Y-152428571D01*
X128191523Y-152952380D01*
X128191523Y-152428571D02*
X128239142Y-152333333D01*
X128334380Y-152285714D01*
X128477238Y-152285714D01*
X128572476Y-152333333D01*
X128620095Y-152428571D01*
X128620095Y-152952380D01*
X129810571Y-151904761D02*
X128953428Y-153190476D01*
X130001047Y-151952380D02*
X130572476Y-151952380D01*
X130286761Y-152952380D02*
X130286761Y-151952380D01*
X130905809Y-152952380D02*
X130905809Y-151952380D01*
X131334380Y-152952380D02*
X131334380Y-152428571D01*
X131286761Y-152333333D01*
X131191523Y-152285714D01*
X131048666Y-152285714D01*
X130953428Y-152333333D01*
X130905809Y-152380952D01*
X131810571Y-152952380D02*
X131810571Y-152285714D01*
X131810571Y-151952380D02*
X131762952Y-152000000D01*
X131810571Y-152047619D01*
X131858190Y-152000000D01*
X131810571Y-151952380D01*
X131810571Y-152047619D01*
X132667714Y-152904761D02*
X132572476Y-152952380D01*
X132382000Y-152952380D01*
X132286761Y-152904761D01*
X132239142Y-152809523D01*
X132239142Y-152428571D01*
X132286761Y-152333333D01*
X132382000Y-152285714D01*
X132572476Y-152285714D01*
X132667714Y-152333333D01*
X132715333Y-152428571D01*
X132715333Y-152523809D01*
X132239142Y-152619047D01*
X133143904Y-152952380D02*
X133143904Y-152285714D01*
X133143904Y-152476190D02*
X133191523Y-152380952D01*
X133239142Y-152333333D01*
X133334380Y-152285714D01*
X133429619Y-152285714D01*
X133762952Y-152952380D02*
X133762952Y-152285714D01*
X133762952Y-152476190D02*
X133810571Y-152380952D01*
X133858190Y-152333333D01*
X133953428Y-152285714D01*
X134048666Y-152285714D01*
X134286761Y-152285714D02*
X134524857Y-152952380D01*
X134762952Y-152285714D02*
X134524857Y-152952380D01*
X134429619Y-153190476D01*
X134382000Y-153238095D01*
X134286761Y-153285714D01*
X135334380Y-151952380D02*
X135524857Y-151952380D01*
X135620095Y-152000000D01*
X135715333Y-152095238D01*
X135762952Y-152285714D01*
X135762952Y-152619047D01*
X135715333Y-152809523D01*
X135620095Y-152904761D01*
X135524857Y-152952380D01*
X135334380Y-152952380D01*
X135239142Y-152904761D01*
X135143904Y-152809523D01*
X135096285Y-152619047D01*
X135096285Y-152285714D01*
X135143904Y-152095238D01*
X135239142Y-152000000D01*
X135334380Y-151952380D01*
X136191523Y-152952380D02*
X136191523Y-152285714D01*
X136191523Y-152476190D02*
X136239142Y-152380952D01*
X136286761Y-152333333D01*
X136382000Y-152285714D01*
X136477238Y-152285714D01*
X136953428Y-152952380D02*
X136858190Y-152904761D01*
X136810571Y-152809523D01*
X136810571Y-151952380D01*
X137762952Y-152952380D02*
X137762952Y-152428571D01*
X137715333Y-152333333D01*
X137620095Y-152285714D01*
X137429619Y-152285714D01*
X137334380Y-152333333D01*
X137762952Y-152904761D02*
X137667714Y-152952380D01*
X137429619Y-152952380D01*
X137334380Y-152904761D01*
X137286761Y-152809523D01*
X137286761Y-152714285D01*
X137334380Y-152619047D01*
X137429619Y-152571428D01*
X137667714Y-152571428D01*
X137762952Y-152523809D01*
X138239142Y-152285714D02*
X138239142Y-152952380D01*
X138239142Y-152380952D02*
X138286761Y-152333333D01*
X138382000Y-152285714D01*
X138524857Y-152285714D01*
X138620095Y-152333333D01*
X138667714Y-152428571D01*
X138667714Y-152952380D01*
X139572476Y-152952380D02*
X139572476Y-151952380D01*
X139572476Y-152904761D02*
X139477238Y-152952380D01*
X139286761Y-152952380D01*
X139191523Y-152904761D01*
X139143904Y-152857142D01*
X139096285Y-152761904D01*
X139096285Y-152476190D01*
X139143904Y-152380952D01*
X139191523Y-152333333D01*
X139286761Y-152285714D01*
X139477238Y-152285714D01*
X139572476Y-152333333D01*
X140048666Y-152952380D02*
X140048666Y-152285714D01*
X140048666Y-151952380D02*
X140001047Y-152000000D01*
X140048666Y-152047619D01*
X140096285Y-152000000D01*
X140048666Y-151952380D01*
X140048666Y-152047619D01*
X141239142Y-151904761D02*
X140382000Y-153190476D01*
X141762952Y-151952380D02*
X141858190Y-151952380D01*
X141953428Y-152000000D01*
X142001047Y-152047619D01*
X142048666Y-152142857D01*
X142096285Y-152333333D01*
X142096285Y-152571428D01*
X142048666Y-152761904D01*
X142001047Y-152857142D01*
X141953428Y-152904761D01*
X141858190Y-152952380D01*
X141762952Y-152952380D01*
X141667714Y-152904761D01*
X141620095Y-152857142D01*
X141572476Y-152761904D01*
X141524857Y-152571428D01*
X141524857Y-152333333D01*
X141572476Y-152142857D01*
X141620095Y-152047619D01*
X141667714Y-152000000D01*
X141762952Y-151952380D01*
X142429619Y-151952380D02*
X143048666Y-151952380D01*
X142715333Y-152333333D01*
X142858190Y-152333333D01*
X142953428Y-152380952D01*
X143001047Y-152428571D01*
X143048666Y-152523809D01*
X143048666Y-152761904D01*
X143001047Y-152857142D01*
X142953428Y-152904761D01*
X142858190Y-152952380D01*
X142572476Y-152952380D01*
X142477238Y-152904761D01*
X142429619Y-152857142D01*
X143239142Y-153047619D02*
X144001047Y-153047619D01*
X144715333Y-152952380D02*
X144239142Y-152952380D01*
X144239142Y-151952380D01*
X145477238Y-152952380D02*
X145477238Y-152428571D01*
X145429619Y-152333333D01*
X145334380Y-152285714D01*
X145143904Y-152285714D01*
X145048666Y-152333333D01*
X145477238Y-152904761D02*
X145382000Y-152952380D01*
X145143904Y-152952380D01*
X145048666Y-152904761D01*
X145001047Y-152809523D01*
X145001047Y-152714285D01*
X145048666Y-152619047D01*
X145143904Y-152571428D01*
X145382000Y-152571428D01*
X145477238Y-152523809D01*
X145715333Y-153047619D02*
X146477238Y-153047619D01*
X147048666Y-152428571D02*
X147191523Y-152476190D01*
X147239142Y-152523809D01*
X147286761Y-152619047D01*
X147286761Y-152761904D01*
X147239142Y-152857142D01*
X147191523Y-152904761D01*
X147096285Y-152952380D01*
X146715333Y-152952380D01*
X146715333Y-151952380D01*
X147048666Y-151952380D01*
X147143904Y-152000000D01*
X147191523Y-152047619D01*
X147239142Y-152142857D01*
X147239142Y-152238095D01*
X147191523Y-152333333D01*
X147143904Y-152380952D01*
X147048666Y-152428571D01*
X146715333Y-152428571D01*
X147858190Y-152952380D02*
X147762952Y-152904761D01*
X147715333Y-152857142D01*
X147667714Y-152761904D01*
X147667714Y-152476190D01*
X147715333Y-152380952D01*
X147762952Y-152333333D01*
X147858190Y-152285714D01*
X148001047Y-152285714D01*
X148096285Y-152333333D01*
X148143904Y-152380952D01*
X148191523Y-152476190D01*
X148191523Y-152761904D01*
X148143904Y-152857142D01*
X148096285Y-152904761D01*
X148001047Y-152952380D01*
X147858190Y-152952380D01*
X148620095Y-152952380D02*
X148620095Y-152285714D01*
X148620095Y-151952380D02*
X148572476Y-152000000D01*
X148620095Y-152047619D01*
X148667714Y-152000000D01*
X148620095Y-151952380D01*
X148620095Y-152047619D01*
X148953428Y-152285714D02*
X149334380Y-152285714D01*
X149096285Y-151952380D02*
X149096285Y-152809523D01*
X149143904Y-152904761D01*
X149239142Y-152952380D01*
X149334380Y-152952380D01*
X150048666Y-152904761D02*
X149953428Y-152952380D01*
X149762952Y-152952380D01*
X149667714Y-152904761D01*
X149620095Y-152809523D01*
X149620095Y-152428571D01*
X149667714Y-152333333D01*
X149762952Y-152285714D01*
X149953428Y-152285714D01*
X150048666Y-152333333D01*
X150096285Y-152428571D01*
X150096285Y-152523809D01*
X149620095Y-152619047D01*
X150286761Y-153047619D02*
X151048666Y-153047619D01*
X151239142Y-152666666D02*
X151715333Y-152666666D01*
X151143904Y-152952380D02*
X151477238Y-151952380D01*
X151810571Y-152952380D01*
X151905809Y-153047619D02*
X152667714Y-153047619D01*
X152905809Y-152952380D02*
X152905809Y-151952380D01*
X153239142Y-152666666D01*
X153572476Y-151952380D01*
X153572476Y-152952380D01*
X154429619Y-152904761D02*
X154334380Y-152952380D01*
X154143904Y-152952380D01*
X154048666Y-152904761D01*
X154001047Y-152809523D01*
X154001047Y-152428571D01*
X154048666Y-152333333D01*
X154143904Y-152285714D01*
X154334380Y-152285714D01*
X154429619Y-152333333D01*
X154477238Y-152428571D01*
X154477238Y-152523809D01*
X154001047Y-152619047D01*
X155334380Y-152285714D02*
X155334380Y-152952380D01*
X154905809Y-152285714D02*
X154905809Y-152809523D01*
X154953428Y-152904761D01*
X155048666Y-152952380D01*
X155191523Y-152952380D01*
X155286761Y-152904761D01*
X155334380Y-152857142D01*
X155810571Y-152952380D02*
X155810571Y-151952380D01*
X156239142Y-152952380D02*
X156239142Y-152428571D01*
X156191523Y-152333333D01*
X156096285Y-152285714D01*
X155953428Y-152285714D01*
X155858190Y-152333333D01*
X155810571Y-152380952D01*
D13*
X157492285Y-114954857D02*
X157706571Y-115026285D01*
X157778000Y-115097714D01*
X157849428Y-115240571D01*
X157849428Y-115454857D01*
X157778000Y-115597714D01*
X157706571Y-115669142D01*
X157563714Y-115740571D01*
X156992285Y-115740571D01*
X156992285Y-114240571D01*
X157492285Y-114240571D01*
X157635142Y-114312000D01*
X157706571Y-114383428D01*
X157778000Y-114526285D01*
X157778000Y-114669142D01*
X157706571Y-114812000D01*
X157635142Y-114883428D01*
X157492285Y-114954857D01*
X156992285Y-114954857D01*
X158706571Y-115740571D02*
X158563714Y-115669142D01*
X158492285Y-115597714D01*
X158420857Y-115454857D01*
X158420857Y-115026285D01*
X158492285Y-114883428D01*
X158563714Y-114812000D01*
X158706571Y-114740571D01*
X158920857Y-114740571D01*
X159063714Y-114812000D01*
X159135142Y-114883428D01*
X159206571Y-115026285D01*
X159206571Y-115454857D01*
X159135142Y-115597714D01*
X159063714Y-115669142D01*
X158920857Y-115740571D01*
X158706571Y-115740571D01*
X160492285Y-114740571D02*
X160492285Y-115740571D01*
X159849428Y-114740571D02*
X159849428Y-115526285D01*
X159920857Y-115669142D01*
X160063714Y-115740571D01*
X160278000Y-115740571D01*
X160420857Y-115669142D01*
X160492285Y-115597714D01*
X160992285Y-114740571D02*
X161563714Y-114740571D01*
X161206571Y-114240571D02*
X161206571Y-115526285D01*
X161278000Y-115669142D01*
X161420857Y-115740571D01*
X161563714Y-115740571D01*
X162278000Y-115740571D02*
X162135142Y-115669142D01*
X162063714Y-115597714D01*
X161992285Y-115454857D01*
X161992285Y-115026285D01*
X162063714Y-114883428D01*
X162135142Y-114812000D01*
X162278000Y-114740571D01*
X162492285Y-114740571D01*
X162635142Y-114812000D01*
X162706571Y-114883428D01*
X162778000Y-115026285D01*
X162778000Y-115454857D01*
X162706571Y-115597714D01*
X162635142Y-115669142D01*
X162492285Y-115740571D01*
X162278000Y-115740571D01*
X163420857Y-114740571D02*
X163420857Y-115740571D01*
X163420857Y-114883428D02*
X163492285Y-114812000D01*
X163635142Y-114740571D01*
X163849428Y-114740571D01*
X163992285Y-114812000D01*
X164063714Y-114954857D01*
X164063714Y-115740571D01*
D10*
X157972285Y-104282761D02*
X157019904Y-104282761D01*
X157019904Y-102282761D01*
X158638952Y-103235142D02*
X159305619Y-103235142D01*
X159591333Y-104282761D02*
X158638952Y-104282761D01*
X158638952Y-102282761D01*
X159591333Y-102282761D01*
X160448476Y-104282761D02*
X160448476Y-102282761D01*
X160924666Y-102282761D01*
X161210380Y-102378000D01*
X161400857Y-102568476D01*
X161496095Y-102758952D01*
X161591333Y-103139904D01*
X161591333Y-103425619D01*
X161496095Y-103806571D01*
X161400857Y-103997047D01*
X161210380Y-104187523D01*
X160924666Y-104282761D01*
X160448476Y-104282761D01*
D14*
X180000000Y-55000000D02*
X195000000Y-55000000D01*
X157000000Y-55000000D02*
X180000000Y-55000000D01*
X195000000Y-55000000D02*
G75*
G02*
X200000000Y-60000000I0J-5000000D01*
G01*
X200000000Y-150000000D02*
G75*
G02*
X195000000Y-155000000I-5000000J0D01*
G01*
X105000000Y-155000000D02*
G75*
G02*
X100000000Y-150000000I0J5000000D01*
G01*
X100000000Y-60000000D02*
G75*
G02*
X105000000Y-55000000I5000000J0D01*
G01*
X100000000Y-150000000D02*
X100000000Y-60000000D01*
X195000000Y-155000000D02*
X105000000Y-155000000D01*
X200000000Y-60000000D02*
X200000000Y-150000000D01*
X105000000Y-55000000D02*
X157000000Y-55000000D01*
D15*
%TO.C,U2*%
X157182000Y-62900000D02*
G75*
G03*
X157182000Y-62900000I-100000J0D01*
G01*
D16*
X158212000Y-63520000D02*
X110012000Y-63520000D01*
X110012000Y-91420000D02*
X158212000Y-91420000D01*
X158212000Y-91420000D02*
X158212000Y-86470000D01*
X158212000Y-68470000D02*
X158212000Y-63520000D01*
X158212000Y-68470000D02*
X164412000Y-68470000D01*
X164412000Y-68470000D02*
X164412000Y-86470000D01*
X164412000Y-86470000D02*
X158212000Y-86470000D01*
X110012000Y-63520000D02*
X110012000Y-73400000D01*
X110012000Y-73400000D02*
X109112000Y-73400000D01*
X109112000Y-73400000D02*
X109112000Y-81530000D01*
X109112000Y-81530000D02*
X110012000Y-81530000D01*
X110012000Y-81530000D02*
X110012000Y-91420000D01*
D17*
%TO.C,U4*%
X116586000Y-111506000D02*
X116586000Y-92456000D01*
X116586000Y-92456000D02*
X148336000Y-92456000D01*
X148336000Y-92456000D02*
X148336000Y-117856000D01*
X148336000Y-117856000D02*
X116586000Y-117856000D01*
X116586000Y-117856000D02*
X116586000Y-111506000D01*
D11*
%TO.C,J9*%
X107302000Y-103654000D02*
X107302000Y-104379000D01*
X107302000Y-100054000D02*
X107302000Y-99329000D01*
X107727000Y-100054000D02*
X107302000Y-100054000D01*
X107727000Y-100779000D02*
X107727000Y-100054000D01*
X104152000Y-106004000D02*
X105552000Y-106004000D01*
X101602000Y-106004000D02*
X101752000Y-106004000D01*
X101602000Y-105704000D02*
X101602000Y-106004000D01*
X101152000Y-105704000D02*
X101602000Y-105704000D01*
X101602000Y-98004000D02*
X101152000Y-98004000D01*
X101602000Y-97704000D02*
X101602000Y-98004000D01*
X101752000Y-97704000D02*
X101602000Y-97704000D01*
X105552000Y-97704000D02*
X104152000Y-97704000D01*
D17*
%TO.C,J18*%
X156420000Y-109418000D02*
X155170000Y-109418000D01*
X156420000Y-110668000D02*
X156420000Y-109418000D01*
X150920000Y-116568000D02*
X150920000Y-113518000D01*
X153870000Y-116568000D02*
X150920000Y-116568000D01*
X153870000Y-117318000D02*
X153870000Y-116568000D01*
X150920000Y-110468000D02*
X150920000Y-113518000D01*
X153870000Y-110468000D02*
X150920000Y-110468000D01*
X153870000Y-109718000D02*
X153870000Y-110468000D01*
X156120000Y-117318000D02*
X156120000Y-115518000D01*
X155370000Y-117318000D02*
X156120000Y-117318000D01*
X155370000Y-115518000D02*
X155370000Y-117318000D01*
X156120000Y-115518000D02*
X155370000Y-115518000D01*
X156120000Y-111518000D02*
X156120000Y-109718000D01*
X155370000Y-111518000D02*
X156120000Y-111518000D01*
X155370000Y-109718000D02*
X155370000Y-111518000D01*
X156120000Y-109718000D02*
X155370000Y-109718000D01*
X156120000Y-114018000D02*
X156120000Y-113018000D01*
X155370000Y-114018000D02*
X156120000Y-114018000D01*
X155370000Y-113018000D02*
X155370000Y-114018000D01*
X156120000Y-113018000D02*
X155370000Y-113018000D01*
X156130000Y-117328000D02*
X156130000Y-109708000D01*
X150160000Y-117328000D02*
X156130000Y-117328000D01*
X150160000Y-109708000D02*
X150160000Y-117328000D01*
X156130000Y-109708000D02*
X150160000Y-109708000D01*
%TO.C,J26*%
X156420000Y-100528000D02*
X155170000Y-100528000D01*
X156420000Y-101778000D02*
X156420000Y-100528000D01*
X150920000Y-107678000D02*
X150920000Y-104628000D01*
X153870000Y-107678000D02*
X150920000Y-107678000D01*
X153870000Y-108428000D02*
X153870000Y-107678000D01*
X150920000Y-101578000D02*
X150920000Y-104628000D01*
X153870000Y-101578000D02*
X150920000Y-101578000D01*
X153870000Y-100828000D02*
X153870000Y-101578000D01*
X156120000Y-108428000D02*
X156120000Y-106628000D01*
X155370000Y-108428000D02*
X156120000Y-108428000D01*
X155370000Y-106628000D02*
X155370000Y-108428000D01*
X156120000Y-106628000D02*
X155370000Y-106628000D01*
X156120000Y-102628000D02*
X156120000Y-100828000D01*
X155370000Y-102628000D02*
X156120000Y-102628000D01*
X155370000Y-100828000D02*
X155370000Y-102628000D01*
X156120000Y-100828000D02*
X155370000Y-100828000D01*
X156120000Y-105128000D02*
X156120000Y-104128000D01*
X155370000Y-105128000D02*
X156120000Y-105128000D01*
X155370000Y-104128000D02*
X155370000Y-105128000D01*
X156120000Y-104128000D02*
X155370000Y-104128000D01*
X156130000Y-108438000D02*
X156130000Y-100818000D01*
X150160000Y-108438000D02*
X156130000Y-108438000D01*
X150160000Y-100818000D02*
X150160000Y-108438000D01*
X156130000Y-100818000D02*
X150160000Y-100818000D01*
%TO.C,J29*%
X192322000Y-138740000D02*
X193572000Y-138740000D01*
X192322000Y-137490000D02*
X192322000Y-138740000D01*
X197822000Y-131590000D02*
X197822000Y-134640000D01*
X194872000Y-131590000D02*
X197822000Y-131590000D01*
X194872000Y-130840000D02*
X194872000Y-131590000D01*
X197822000Y-137690000D02*
X197822000Y-134640000D01*
X194872000Y-137690000D02*
X197822000Y-137690000D01*
X194872000Y-138440000D02*
X194872000Y-137690000D01*
X192622000Y-130840000D02*
X192622000Y-132640000D01*
X193372000Y-130840000D02*
X192622000Y-130840000D01*
X193372000Y-132640000D02*
X193372000Y-130840000D01*
X192622000Y-132640000D02*
X193372000Y-132640000D01*
X192622000Y-136640000D02*
X192622000Y-138440000D01*
X193372000Y-136640000D02*
X192622000Y-136640000D01*
X193372000Y-138440000D02*
X193372000Y-136640000D01*
X192622000Y-138440000D02*
X193372000Y-138440000D01*
X192622000Y-134140000D02*
X192622000Y-135140000D01*
X193372000Y-134140000D02*
X192622000Y-134140000D01*
X193372000Y-135140000D02*
X193372000Y-134140000D01*
X192622000Y-135140000D02*
X193372000Y-135140000D01*
X192612000Y-130830000D02*
X192612000Y-138450000D01*
X198582000Y-130830000D02*
X192612000Y-130830000D01*
X198582000Y-138450000D02*
X198582000Y-130830000D01*
X192612000Y-138450000D02*
X198582000Y-138450000D01*
%TO.C,J7*%
X166568000Y-86150000D02*
X166568000Y-87400000D01*
X167818000Y-86150000D02*
X166568000Y-86150000D01*
X178718000Y-91650000D02*
X173168000Y-91650000D01*
X178718000Y-88700000D02*
X178718000Y-91650000D01*
X179468000Y-88700000D02*
X178718000Y-88700000D01*
X167618000Y-91650000D02*
X173168000Y-91650000D01*
X167618000Y-88700000D02*
X167618000Y-91650000D01*
X166868000Y-88700000D02*
X167618000Y-88700000D01*
X179468000Y-86450000D02*
X177668000Y-86450000D01*
X179468000Y-87200000D02*
X179468000Y-86450000D01*
X177668000Y-87200000D02*
X179468000Y-87200000D01*
X177668000Y-86450000D02*
X177668000Y-87200000D01*
X168668000Y-86450000D02*
X166868000Y-86450000D01*
X168668000Y-87200000D02*
X168668000Y-86450000D01*
X166868000Y-87200000D02*
X168668000Y-87200000D01*
X166868000Y-86450000D02*
X166868000Y-87200000D01*
X176168000Y-86450000D02*
X170168000Y-86450000D01*
X176168000Y-87200000D02*
X176168000Y-86450000D01*
X170168000Y-87200000D02*
X176168000Y-87200000D01*
X170168000Y-86450000D02*
X170168000Y-87200000D01*
X179478000Y-86440000D02*
X166858000Y-86440000D01*
X179478000Y-92410000D02*
X179478000Y-86440000D01*
X166858000Y-92410000D02*
X179478000Y-92410000D01*
X166858000Y-86440000D02*
X166858000Y-92410000D01*
%TO.C,J8*%
X166568000Y-101390000D02*
X166568000Y-102640000D01*
X167818000Y-101390000D02*
X166568000Y-101390000D01*
X178718000Y-106890000D02*
X173168000Y-106890000D01*
X178718000Y-103940000D02*
X178718000Y-106890000D01*
X179468000Y-103940000D02*
X178718000Y-103940000D01*
X167618000Y-106890000D02*
X173168000Y-106890000D01*
X167618000Y-103940000D02*
X167618000Y-106890000D01*
X166868000Y-103940000D02*
X167618000Y-103940000D01*
X179468000Y-101690000D02*
X177668000Y-101690000D01*
X179468000Y-102440000D02*
X179468000Y-101690000D01*
X177668000Y-102440000D02*
X179468000Y-102440000D01*
X177668000Y-101690000D02*
X177668000Y-102440000D01*
X168668000Y-101690000D02*
X166868000Y-101690000D01*
X168668000Y-102440000D02*
X168668000Y-101690000D01*
X166868000Y-102440000D02*
X168668000Y-102440000D01*
X166868000Y-101690000D02*
X166868000Y-102440000D01*
X176168000Y-101690000D02*
X170168000Y-101690000D01*
X176168000Y-102440000D02*
X176168000Y-101690000D01*
X170168000Y-102440000D02*
X176168000Y-102440000D01*
X170168000Y-101690000D02*
X170168000Y-102440000D01*
X179478000Y-101680000D02*
X166858000Y-101680000D01*
X179478000Y-107650000D02*
X179478000Y-101680000D01*
X166858000Y-107650000D02*
X179478000Y-107650000D01*
X166858000Y-101680000D02*
X166858000Y-107650000D01*
%TO.C,J11*%
X166568000Y-93770000D02*
X166568000Y-95020000D01*
X167818000Y-93770000D02*
X166568000Y-93770000D01*
X178718000Y-99270000D02*
X173168000Y-99270000D01*
X178718000Y-96320000D02*
X178718000Y-99270000D01*
X179468000Y-96320000D02*
X178718000Y-96320000D01*
X167618000Y-99270000D02*
X173168000Y-99270000D01*
X167618000Y-96320000D02*
X167618000Y-99270000D01*
X166868000Y-96320000D02*
X167618000Y-96320000D01*
X179468000Y-94070000D02*
X177668000Y-94070000D01*
X179468000Y-94820000D02*
X179468000Y-94070000D01*
X177668000Y-94820000D02*
X179468000Y-94820000D01*
X177668000Y-94070000D02*
X177668000Y-94820000D01*
X168668000Y-94070000D02*
X166868000Y-94070000D01*
X168668000Y-94820000D02*
X168668000Y-94070000D01*
X166868000Y-94820000D02*
X168668000Y-94820000D01*
X166868000Y-94070000D02*
X166868000Y-94820000D01*
X176168000Y-94070000D02*
X170168000Y-94070000D01*
X176168000Y-94820000D02*
X176168000Y-94070000D01*
X170168000Y-94820000D02*
X176168000Y-94820000D01*
X170168000Y-94070000D02*
X170168000Y-94820000D01*
X179478000Y-94060000D02*
X166858000Y-94060000D01*
X179478000Y-100030000D02*
X179478000Y-94060000D01*
X166858000Y-100030000D02*
X179478000Y-100030000D01*
X166858000Y-94060000D02*
X166858000Y-100030000D01*
%TO.C,J2*%
X188214000Y-67758000D02*
X189544000Y-67758000D01*
X189544000Y-67758000D02*
X189544000Y-69088000D01*
X189544000Y-70358000D02*
X189544000Y-83118000D01*
X186884000Y-83118000D02*
X189544000Y-83118000D01*
X186884000Y-70358000D02*
X186884000Y-83118000D01*
X186884000Y-70358000D02*
X189544000Y-70358000D01*
%TO.C,J4*%
X115526000Y-98750000D02*
X114276000Y-98750000D01*
X115526000Y-100000000D02*
X115526000Y-98750000D01*
X110026000Y-105900000D02*
X110026000Y-102850000D01*
X112976000Y-105900000D02*
X110026000Y-105900000D01*
X112976000Y-106650000D02*
X112976000Y-105900000D01*
X110026000Y-99800000D02*
X110026000Y-102850000D01*
X112976000Y-99800000D02*
X110026000Y-99800000D01*
X112976000Y-99050000D02*
X112976000Y-99800000D01*
X115226000Y-106650000D02*
X115226000Y-104850000D01*
X114476000Y-106650000D02*
X115226000Y-106650000D01*
X114476000Y-104850000D02*
X114476000Y-106650000D01*
X115226000Y-104850000D02*
X114476000Y-104850000D01*
X115226000Y-100850000D02*
X115226000Y-99050000D01*
X114476000Y-100850000D02*
X115226000Y-100850000D01*
X114476000Y-99050000D02*
X114476000Y-100850000D01*
X115226000Y-99050000D02*
X114476000Y-99050000D01*
X115226000Y-103350000D02*
X115226000Y-102350000D01*
X114476000Y-103350000D02*
X115226000Y-103350000D01*
X114476000Y-102350000D02*
X114476000Y-103350000D01*
X115226000Y-102350000D02*
X114476000Y-102350000D01*
X115236000Y-106660000D02*
X115236000Y-99040000D01*
X109266000Y-106660000D02*
X115236000Y-106660000D01*
X109266000Y-99040000D02*
X109266000Y-106660000D01*
X115236000Y-99040000D02*
X109266000Y-99040000D01*
%TO.C,J1*%
X169698000Y-67432000D02*
X169698000Y-71882000D01*
X169698000Y-73282000D02*
X169698000Y-75582000D01*
X169698000Y-76982000D02*
X169698000Y-77702000D01*
X169698000Y-77702000D02*
X172378000Y-77702000D01*
X174678000Y-77702000D02*
X178348000Y-77702000D01*
X180648000Y-77702000D02*
X181878000Y-77702000D01*
X181878000Y-77702000D02*
X181878000Y-67882000D01*
X171178000Y-66062000D02*
X172038000Y-66062000D01*
%TO.C,J3*%
X188214000Y-113598000D02*
X186884000Y-113598000D01*
X186884000Y-113598000D02*
X186884000Y-112268000D01*
X186884000Y-110998000D02*
X186884000Y-93158000D01*
X189544000Y-93158000D02*
X186884000Y-93158000D01*
X189544000Y-110998000D02*
X189544000Y-93158000D01*
X189544000Y-110998000D02*
X186884000Y-110998000D01*
%TO.C,U3*%
X101156000Y-113776000D02*
X102156000Y-113776000D01*
X101156000Y-111776000D02*
X101156000Y-113776000D01*
X102156000Y-111776000D02*
X101156000Y-111776000D01*
X103156000Y-111776000D02*
X102156000Y-111776000D01*
X103156000Y-113776000D02*
X103156000Y-111776000D01*
X102156000Y-113776000D02*
X103156000Y-113776000D01*
X115156000Y-107776000D02*
X115156000Y-117776000D01*
X101156000Y-107776000D02*
X115156000Y-107776000D01*
X115156000Y-117776000D02*
X101156000Y-117776000D01*
D11*
%TO.C,U5*%
X115570000Y-129032000D02*
X118110000Y-129032000D01*
X115570000Y-134112000D02*
X115570000Y-129032000D01*
X118110000Y-134112000D02*
X115570000Y-134112000D01*
X153670000Y-144272000D02*
X120660000Y-144272000D01*
X118110000Y-141722000D02*
X118110000Y-121402000D01*
X120760000Y-118872000D02*
X153610000Y-118872000D01*
X156210000Y-121522000D02*
X156210000Y-141672000D01*
X156210000Y-121422000D02*
G75*
G03*
X153670000Y-118882000I-2540000J0D01*
G01*
X120650000Y-118882000D02*
G75*
G03*
X118110000Y-121422000I0J-2540000D01*
G01*
X118120000Y-141732000D02*
G75*
G03*
X120660000Y-144272000I2540000J0D01*
G01*
X153670000Y-144272000D02*
G75*
G03*
X156210000Y-141732000I0J2540000D01*
G01*
D17*
%TO.C,U1*%
X189992000Y-122174000D02*
X189992000Y-124714000D01*
X156972000Y-122174000D02*
X189992000Y-122174000D01*
X156972000Y-145034000D02*
X156972000Y-122174000D01*
X189992000Y-145034000D02*
X156972000Y-145034000D01*
X189992000Y-124714000D02*
X189992000Y-145034000D01*
%TD*%
%TO.C,U2*%
D18*
X165314380Y-67436904D02*
X166123904Y-67436904D01*
X166219142Y-67389285D01*
X166266761Y-67341666D01*
X166314380Y-67246428D01*
X166314380Y-67055952D01*
X166266761Y-66960714D01*
X166219142Y-66913095D01*
X166123904Y-66865476D01*
X165314380Y-66865476D01*
X165409619Y-66436904D02*
X165362000Y-66389285D01*
X165314380Y-66294047D01*
X165314380Y-66055952D01*
X165362000Y-65960714D01*
X165409619Y-65913095D01*
X165504857Y-65865476D01*
X165600095Y-65865476D01*
X165742952Y-65913095D01*
X166314380Y-66484523D01*
X166314380Y-65865476D01*
%TO.C,U4*%
D11*
X115252523Y-103338380D02*
X114776333Y-103338380D01*
X114728714Y-103814571D01*
X114776333Y-103766952D01*
X114871571Y-103719333D01*
X115109666Y-103719333D01*
X115204904Y-103766952D01*
X115252523Y-103814571D01*
X115300142Y-103909809D01*
X115300142Y-104147904D01*
X115252523Y-104243142D01*
X115204904Y-104290761D01*
X115109666Y-104338380D01*
X114871571Y-104338380D01*
X114776333Y-104290761D01*
X114728714Y-104243142D01*
X115585857Y-103338380D02*
X115919190Y-104338380D01*
X116252523Y-103338380D01*
X138843142Y-93654571D02*
X138986000Y-93702190D01*
X139033619Y-93749809D01*
X139081238Y-93845047D01*
X139081238Y-93987904D01*
X139033619Y-94083142D01*
X138986000Y-94130761D01*
X138890761Y-94178380D01*
X138509809Y-94178380D01*
X138509809Y-93178380D01*
X138843142Y-93178380D01*
X138938380Y-93226000D01*
X138986000Y-93273619D01*
X139033619Y-93368857D01*
X139033619Y-93464095D01*
X138986000Y-93559333D01*
X138938380Y-93606952D01*
X138843142Y-93654571D01*
X138509809Y-93654571D01*
X139462190Y-93892666D02*
X139938380Y-93892666D01*
X139366952Y-94178380D02*
X139700285Y-93178380D01*
X140033619Y-94178380D01*
X140224095Y-93178380D02*
X140795523Y-93178380D01*
X140509809Y-94178380D02*
X140509809Y-93178380D01*
X140986000Y-93178380D02*
X141557428Y-93178380D01*
X141271714Y-94178380D02*
X141271714Y-93178380D01*
X141652666Y-94273619D02*
X142414571Y-94273619D01*
X142605047Y-93892666D02*
X143081238Y-93892666D01*
X142509809Y-94178380D02*
X142843142Y-93178380D01*
X143176476Y-94178380D01*
X143986000Y-94178380D02*
X143509809Y-94178380D01*
X143509809Y-93178380D01*
X144319333Y-94178380D02*
X144319333Y-93178380D01*
X144795523Y-94178380D02*
X144795523Y-93178380D01*
X145128857Y-93892666D01*
X145462190Y-93178380D01*
X145462190Y-94178380D01*
X115252523Y-103338380D02*
X114776333Y-103338380D01*
X114728714Y-103814571D01*
X114776333Y-103766952D01*
X114871571Y-103719333D01*
X115109666Y-103719333D01*
X115204904Y-103766952D01*
X115252523Y-103814571D01*
X115300142Y-103909809D01*
X115300142Y-104147904D01*
X115252523Y-104243142D01*
X115204904Y-104290761D01*
X115109666Y-104338380D01*
X114871571Y-104338380D01*
X114776333Y-104290761D01*
X114728714Y-104243142D01*
X115585857Y-103338380D02*
X115919190Y-104338380D01*
X116252523Y-103338380D01*
%TO.C,J9*%
X107854380Y-102187333D02*
X108568666Y-102187333D01*
X108711523Y-102234952D01*
X108806761Y-102330190D01*
X108854380Y-102473047D01*
X108854380Y-102568285D01*
X108854380Y-101663523D02*
X108854380Y-101473047D01*
X108806761Y-101377809D01*
X108759142Y-101330190D01*
X108616285Y-101234952D01*
X108425809Y-101187333D01*
X108044857Y-101187333D01*
X107949619Y-101234952D01*
X107902000Y-101282571D01*
X107854380Y-101377809D01*
X107854380Y-101568285D01*
X107902000Y-101663523D01*
X107949619Y-101711142D01*
X108044857Y-101758761D01*
X108282952Y-101758761D01*
X108378190Y-101711142D01*
X108425809Y-101663523D01*
X108473428Y-101568285D01*
X108473428Y-101377809D01*
X108425809Y-101282571D01*
X108378190Y-101234952D01*
X108282952Y-101187333D01*
%TO.C,H3*%
X194238095Y-146252380D02*
X194238095Y-145252380D01*
X194238095Y-145728571D02*
X194809523Y-145728571D01*
X194809523Y-146252380D02*
X194809523Y-145252380D01*
X195190476Y-145252380D02*
X195809523Y-145252380D01*
X195476190Y-145633333D01*
X195619047Y-145633333D01*
X195714285Y-145680952D01*
X195761904Y-145728571D01*
X195809523Y-145823809D01*
X195809523Y-146061904D01*
X195761904Y-146157142D01*
X195714285Y-146204761D01*
X195619047Y-146252380D01*
X195333333Y-146252380D01*
X195238095Y-146204761D01*
X195190476Y-146157142D01*
%TO.C,H1*%
X104238095Y-56252380D02*
X104238095Y-55252380D01*
X104238095Y-55728571D02*
X104809523Y-55728571D01*
X104809523Y-56252380D02*
X104809523Y-55252380D01*
X105809523Y-56252380D02*
X105238095Y-56252380D01*
X105523809Y-56252380D02*
X105523809Y-55252380D01*
X105428571Y-55395238D01*
X105333333Y-55490476D01*
X105238095Y-55538095D01*
%TO.C,H2*%
X194238095Y-56252380D02*
X194238095Y-55252380D01*
X194238095Y-55728571D02*
X194809523Y-55728571D01*
X194809523Y-56252380D02*
X194809523Y-55252380D01*
X195238095Y-55347619D02*
X195285714Y-55300000D01*
X195380952Y-55252380D01*
X195619047Y-55252380D01*
X195714285Y-55300000D01*
X195761904Y-55347619D01*
X195809523Y-55442857D01*
X195809523Y-55538095D01*
X195761904Y-55680952D01*
X195190476Y-56252380D01*
X195809523Y-56252380D01*
%TO.C,H4*%
X104238095Y-146252380D02*
X104238095Y-145252380D01*
X104238095Y-145728571D02*
X104809523Y-145728571D01*
X104809523Y-146252380D02*
X104809523Y-145252380D01*
X105714285Y-145585714D02*
X105714285Y-146252380D01*
X105476190Y-145204761D02*
X105238095Y-145919047D01*
X105857142Y-145919047D01*
%TO.C,J2*%
X187880666Y-65770380D02*
X187880666Y-66484666D01*
X187833047Y-66627523D01*
X187737809Y-66722761D01*
X187594952Y-66770380D01*
X187499714Y-66770380D01*
X188309238Y-65865619D02*
X188356857Y-65818000D01*
X188452095Y-65770380D01*
X188690190Y-65770380D01*
X188785428Y-65818000D01*
X188833047Y-65865619D01*
X188880666Y-65960857D01*
X188880666Y-66056095D01*
X188833047Y-66198952D01*
X188261619Y-66770380D01*
X188880666Y-66770380D01*
%TO.C,J1*%
X169834666Y-63634380D02*
X169834666Y-64348666D01*
X169787047Y-64491523D01*
X169691809Y-64586761D01*
X169548952Y-64634380D01*
X169453714Y-64634380D01*
X170834666Y-64634380D02*
X170263238Y-64634380D01*
X170548952Y-64634380D02*
X170548952Y-63634380D01*
X170453714Y-63777238D01*
X170358476Y-63872476D01*
X170263238Y-63920095D01*
%TO.C,J3*%
X187880666Y-114490380D02*
X187880666Y-115204666D01*
X187833047Y-115347523D01*
X187737809Y-115442761D01*
X187594952Y-115490380D01*
X187499714Y-115490380D01*
X188261619Y-114490380D02*
X188880666Y-114490380D01*
X188547333Y-114871333D01*
X188690190Y-114871333D01*
X188785428Y-114918952D01*
X188833047Y-114966571D01*
X188880666Y-115061809D01*
X188880666Y-115299904D01*
X188833047Y-115395142D01*
X188785428Y-115442761D01*
X188690190Y-115490380D01*
X188404476Y-115490380D01*
X188309238Y-115442761D01*
X188261619Y-115395142D01*
%TO.C,U3*%
X115308380Y-114237904D02*
X116117904Y-114237904D01*
X116213142Y-114190285D01*
X116260761Y-114142666D01*
X116308380Y-114047428D01*
X116308380Y-113856952D01*
X116260761Y-113761714D01*
X116213142Y-113714095D01*
X116117904Y-113666476D01*
X115308380Y-113666476D01*
X115308380Y-113285523D02*
X115308380Y-112666476D01*
X115689333Y-112999809D01*
X115689333Y-112856952D01*
X115736952Y-112761714D01*
X115784571Y-112714095D01*
X115879809Y-112666476D01*
X116117904Y-112666476D01*
X116213142Y-112714095D01*
X116260761Y-112761714D01*
X116308380Y-112856952D01*
X116308380Y-113142666D01*
X116260761Y-113237904D01*
X116213142Y-113285523D01*
%TO.C,U5*%
X135128095Y-128484380D02*
X135128095Y-129293904D01*
X135175714Y-129389142D01*
X135223333Y-129436761D01*
X135318571Y-129484380D01*
X135509047Y-129484380D01*
X135604285Y-129436761D01*
X135651904Y-129389142D01*
X135699523Y-129293904D01*
X135699523Y-128484380D01*
X136651904Y-128484380D02*
X136175714Y-128484380D01*
X136128095Y-128960571D01*
X136175714Y-128912952D01*
X136270952Y-128865333D01*
X136509047Y-128865333D01*
X136604285Y-128912952D01*
X136651904Y-128960571D01*
X136699523Y-129055809D01*
X136699523Y-129293904D01*
X136651904Y-129389142D01*
X136604285Y-129436761D01*
X136509047Y-129484380D01*
X136270952Y-129484380D01*
X136175714Y-129436761D01*
X136128095Y-129389142D01*
X131611904Y-140406380D02*
X131611904Y-139406380D01*
X131850000Y-139406380D01*
X131992857Y-139454000D01*
X132088095Y-139549238D01*
X132135714Y-139644476D01*
X132183333Y-139834952D01*
X132183333Y-139977809D01*
X132135714Y-140168285D01*
X132088095Y-140263523D01*
X131992857Y-140358761D01*
X131850000Y-140406380D01*
X131611904Y-140406380D01*
X132611904Y-139882571D02*
X132945238Y-139882571D01*
X133088095Y-140406380D02*
X132611904Y-140406380D01*
X132611904Y-139406380D01*
X133088095Y-139406380D01*
X133516666Y-139882571D02*
X133850000Y-139882571D01*
X133992857Y-140406380D02*
X133516666Y-140406380D01*
X133516666Y-139406380D01*
X133992857Y-139406380D01*
X134421428Y-140406380D02*
X134421428Y-139406380D01*
X134754761Y-140120666D01*
X135088095Y-139406380D01*
X135088095Y-140406380D01*
X135072571Y-143962380D02*
X135072571Y-142962380D01*
X135453523Y-142962380D01*
X135548761Y-143010000D01*
X135596380Y-143057619D01*
X135644000Y-143152857D01*
X135644000Y-143295714D01*
X135596380Y-143390952D01*
X135548761Y-143438571D01*
X135453523Y-143486190D01*
X135072571Y-143486190D01*
X136548761Y-143962380D02*
X136072571Y-143962380D01*
X136072571Y-142962380D01*
X137358285Y-143962380D02*
X136882095Y-143962380D01*
X136882095Y-142962380D01*
X137239523Y-140358761D02*
X137382380Y-140406380D01*
X137620476Y-140406380D01*
X137715714Y-140358761D01*
X137763333Y-140311142D01*
X137810952Y-140215904D01*
X137810952Y-140120666D01*
X137763333Y-140025428D01*
X137715714Y-139977809D01*
X137620476Y-139930190D01*
X137430000Y-139882571D01*
X137334761Y-139834952D01*
X137287142Y-139787333D01*
X137239523Y-139692095D01*
X137239523Y-139596857D01*
X137287142Y-139501619D01*
X137334761Y-139454000D01*
X137430000Y-139406380D01*
X137668095Y-139406380D01*
X137810952Y-139454000D01*
X138572857Y-139882571D02*
X138239523Y-139882571D01*
X138239523Y-140406380D02*
X138239523Y-139406380D01*
X138715714Y-139406380D01*
X139287142Y-139406380D02*
X139382380Y-139406380D01*
X139477619Y-139454000D01*
X139525238Y-139501619D01*
X139572857Y-139596857D01*
X139620476Y-139787333D01*
X139620476Y-140025428D01*
X139572857Y-140215904D01*
X139525238Y-140311142D01*
X139477619Y-140358761D01*
X139382380Y-140406380D01*
X139287142Y-140406380D01*
X139191904Y-140358761D01*
X139144285Y-140311142D01*
X139096666Y-140215904D01*
X139049047Y-140025428D01*
X139049047Y-139787333D01*
X139096666Y-139596857D01*
X139144285Y-139501619D01*
X139191904Y-139454000D01*
X139287142Y-139406380D01*
X139279523Y-143962380D02*
X139279523Y-142962380D01*
X139612857Y-143676666D01*
X139946190Y-142962380D01*
X139946190Y-143962380D01*
X140422380Y-142962380D02*
X140422380Y-143771904D01*
X140470000Y-143867142D01*
X140517619Y-143914761D01*
X140612857Y-143962380D01*
X140803333Y-143962380D01*
X140898571Y-143914761D01*
X140946190Y-143867142D01*
X140993809Y-143771904D01*
X140993809Y-142962380D01*
X141327142Y-142962380D02*
X141898571Y-142962380D01*
X141612857Y-143962380D02*
X141612857Y-142962380D01*
X142231904Y-143438571D02*
X142565238Y-143438571D01*
X142708095Y-143962380D02*
X142231904Y-143962380D01*
X142231904Y-142962380D01*
X142708095Y-142962380D01*
X142319523Y-140358761D02*
X142462380Y-140406380D01*
X142700476Y-140406380D01*
X142795714Y-140358761D01*
X142843333Y-140311142D01*
X142890952Y-140215904D01*
X142890952Y-140120666D01*
X142843333Y-140025428D01*
X142795714Y-139977809D01*
X142700476Y-139930190D01*
X142510000Y-139882571D01*
X142414761Y-139834952D01*
X142367142Y-139787333D01*
X142319523Y-139692095D01*
X142319523Y-139596857D01*
X142367142Y-139501619D01*
X142414761Y-139454000D01*
X142510000Y-139406380D01*
X142748095Y-139406380D01*
X142890952Y-139454000D01*
X143652857Y-139882571D02*
X143319523Y-139882571D01*
X143319523Y-140406380D02*
X143319523Y-139406380D01*
X143795714Y-139406380D01*
X144700476Y-140406380D02*
X144129047Y-140406380D01*
X144414761Y-140406380D02*
X144414761Y-139406380D01*
X144319523Y-139549238D01*
X144224285Y-139644476D01*
X144129047Y-139692095D01*
X144613523Y-143914761D02*
X144756380Y-143962380D01*
X144994476Y-143962380D01*
X145089714Y-143914761D01*
X145137333Y-143867142D01*
X145184952Y-143771904D01*
X145184952Y-143676666D01*
X145137333Y-143581428D01*
X145089714Y-143533809D01*
X144994476Y-143486190D01*
X144804000Y-143438571D01*
X144708761Y-143390952D01*
X144661142Y-143343333D01*
X144613523Y-143248095D01*
X144613523Y-143152857D01*
X144661142Y-143057619D01*
X144708761Y-143010000D01*
X144804000Y-142962380D01*
X145042095Y-142962380D01*
X145184952Y-143010000D01*
X146184952Y-143867142D02*
X146137333Y-143914761D01*
X145994476Y-143962380D01*
X145899238Y-143962380D01*
X145756380Y-143914761D01*
X145661142Y-143819523D01*
X145613523Y-143724285D01*
X145565904Y-143533809D01*
X145565904Y-143390952D01*
X145613523Y-143200476D01*
X145661142Y-143105238D01*
X145756380Y-143010000D01*
X145899238Y-142962380D01*
X145994476Y-142962380D01*
X146137333Y-143010000D01*
X146184952Y-143057619D01*
X147089714Y-143962380D02*
X146613523Y-143962380D01*
X146613523Y-142962380D01*
X147423047Y-143962380D02*
X147423047Y-142962380D01*
X147994476Y-143962380D02*
X147565904Y-143390952D01*
X147994476Y-142962380D02*
X147423047Y-143533809D01*
X127389047Y-120086380D02*
X127055714Y-119610190D01*
X126817619Y-120086380D02*
X126817619Y-119086380D01*
X127198571Y-119086380D01*
X127293809Y-119134000D01*
X127341428Y-119181619D01*
X127389047Y-119276857D01*
X127389047Y-119419714D01*
X127341428Y-119514952D01*
X127293809Y-119562571D01*
X127198571Y-119610190D01*
X126817619Y-119610190D01*
X127960476Y-120086380D02*
X127865238Y-120038761D01*
X127817619Y-119991142D01*
X127770000Y-119895904D01*
X127770000Y-119610190D01*
X127817619Y-119514952D01*
X127865238Y-119467333D01*
X127960476Y-119419714D01*
X128103333Y-119419714D01*
X128198571Y-119467333D01*
X128246190Y-119514952D01*
X128293809Y-119610190D01*
X128293809Y-119895904D01*
X128246190Y-119991142D01*
X128198571Y-120038761D01*
X128103333Y-120086380D01*
X127960476Y-120086380D01*
X129150952Y-119419714D02*
X129150952Y-120086380D01*
X128722380Y-119419714D02*
X128722380Y-119943523D01*
X128770000Y-120038761D01*
X128865238Y-120086380D01*
X129008095Y-120086380D01*
X129103333Y-120038761D01*
X129150952Y-119991142D01*
X129484285Y-119419714D02*
X129865238Y-119419714D01*
X129627142Y-119086380D02*
X129627142Y-119943523D01*
X129674761Y-120038761D01*
X129770000Y-120086380D01*
X129865238Y-120086380D01*
X129048095Y-123356666D02*
X129524285Y-123356666D01*
X128952857Y-123642380D02*
X129286190Y-122642380D01*
X129619523Y-123642380D01*
X130476666Y-122690000D02*
X130381428Y-122642380D01*
X130238571Y-122642380D01*
X130095714Y-122690000D01*
X130000476Y-122785238D01*
X129952857Y-122880476D01*
X129905238Y-123070952D01*
X129905238Y-123213809D01*
X129952857Y-123404285D01*
X130000476Y-123499523D01*
X130095714Y-123594761D01*
X130238571Y-123642380D01*
X130333809Y-123642380D01*
X130476666Y-123594761D01*
X130524285Y-123547142D01*
X130524285Y-123213809D01*
X130333809Y-123213809D01*
X130952857Y-123642380D02*
X130952857Y-122642380D01*
X131524285Y-123642380D01*
X131524285Y-122642380D01*
X132000476Y-123642380D02*
X132000476Y-122642380D01*
X132238571Y-122642380D01*
X132381428Y-122690000D01*
X132476666Y-122785238D01*
X132524285Y-122880476D01*
X132571904Y-123070952D01*
X132571904Y-123213809D01*
X132524285Y-123404285D01*
X132476666Y-123499523D01*
X132381428Y-123594761D01*
X132238571Y-123642380D01*
X132000476Y-123642380D01*
X132469047Y-120086380D02*
X131992857Y-120086380D01*
X131992857Y-119086380D01*
X132945238Y-120086380D02*
X132850000Y-120038761D01*
X132802380Y-119991142D01*
X132754761Y-119895904D01*
X132754761Y-119610190D01*
X132802380Y-119514952D01*
X132850000Y-119467333D01*
X132945238Y-119419714D01*
X133088095Y-119419714D01*
X133183333Y-119467333D01*
X133230952Y-119514952D01*
X133278571Y-119610190D01*
X133278571Y-119895904D01*
X133230952Y-119991142D01*
X133183333Y-120038761D01*
X133088095Y-120086380D01*
X132945238Y-120086380D01*
X134135714Y-119419714D02*
X134135714Y-120086380D01*
X133707142Y-119419714D02*
X133707142Y-119943523D01*
X133754761Y-120038761D01*
X133850000Y-120086380D01*
X133992857Y-120086380D01*
X134088095Y-120038761D01*
X134135714Y-119991142D01*
X134469047Y-119419714D02*
X134850000Y-119419714D01*
X134611904Y-119086380D02*
X134611904Y-119943523D01*
X134659523Y-120038761D01*
X134754761Y-120086380D01*
X134850000Y-120086380D01*
X134556666Y-123118571D02*
X134699523Y-123166190D01*
X134747142Y-123213809D01*
X134794761Y-123309047D01*
X134794761Y-123451904D01*
X134747142Y-123547142D01*
X134699523Y-123594761D01*
X134604285Y-123642380D01*
X134223333Y-123642380D01*
X134223333Y-122642380D01*
X134556666Y-122642380D01*
X134651904Y-122690000D01*
X134699523Y-122737619D01*
X134747142Y-122832857D01*
X134747142Y-122928095D01*
X134699523Y-123023333D01*
X134651904Y-123070952D01*
X134556666Y-123118571D01*
X134223333Y-123118571D01*
X135794761Y-123547142D02*
X135747142Y-123594761D01*
X135604285Y-123642380D01*
X135509047Y-123642380D01*
X135366190Y-123594761D01*
X135270952Y-123499523D01*
X135223333Y-123404285D01*
X135175714Y-123213809D01*
X135175714Y-123070952D01*
X135223333Y-122880476D01*
X135270952Y-122785238D01*
X135366190Y-122690000D01*
X135509047Y-122642380D01*
X135604285Y-122642380D01*
X135747142Y-122690000D01*
X135794761Y-122737619D01*
X136699523Y-123642380D02*
X136223333Y-123642380D01*
X136223333Y-122642380D01*
X137032857Y-123642380D02*
X137032857Y-122642380D01*
X137604285Y-123642380D02*
X137175714Y-123070952D01*
X137604285Y-122642380D02*
X137032857Y-123213809D01*
X137406190Y-120086380D02*
X137406190Y-119086380D01*
X137644285Y-119086380D01*
X137787142Y-119134000D01*
X137882380Y-119229238D01*
X137930000Y-119324476D01*
X137977619Y-119514952D01*
X137977619Y-119657809D01*
X137930000Y-119848285D01*
X137882380Y-119943523D01*
X137787142Y-120038761D01*
X137644285Y-120086380D01*
X137406190Y-120086380D01*
X138406190Y-120086380D02*
X138406190Y-119086380D01*
X138882380Y-120086380D02*
X138882380Y-119086380D01*
X139453809Y-120086380D01*
X139453809Y-119086380D01*
X139208095Y-122642380D02*
X139446190Y-123642380D01*
X139636666Y-122928095D01*
X139827142Y-123642380D01*
X140065238Y-122642380D01*
X140398571Y-123594761D02*
X140541428Y-123642380D01*
X140779523Y-123642380D01*
X140874761Y-123594761D01*
X140922380Y-123547142D01*
X140970000Y-123451904D01*
X140970000Y-123356666D01*
X140922380Y-123261428D01*
X140874761Y-123213809D01*
X140779523Y-123166190D01*
X140589047Y-123118571D01*
X140493809Y-123070952D01*
X140446190Y-123023333D01*
X140398571Y-122928095D01*
X140398571Y-122832857D01*
X140446190Y-122737619D01*
X140493809Y-122690000D01*
X140589047Y-122642380D01*
X140827142Y-122642380D01*
X140970000Y-122690000D01*
X141398571Y-123118571D02*
X141731904Y-123118571D01*
X141874761Y-123642380D02*
X141398571Y-123642380D01*
X141398571Y-122642380D01*
X141874761Y-122642380D01*
X142779523Y-123642380D02*
X142303333Y-123642380D01*
X142303333Y-122642380D01*
X142748095Y-119134000D02*
X142652857Y-119086380D01*
X142510000Y-119086380D01*
X142367142Y-119134000D01*
X142271904Y-119229238D01*
X142224285Y-119324476D01*
X142176666Y-119514952D01*
X142176666Y-119657809D01*
X142224285Y-119848285D01*
X142271904Y-119943523D01*
X142367142Y-120038761D01*
X142510000Y-120086380D01*
X142605238Y-120086380D01*
X142748095Y-120038761D01*
X142795714Y-119991142D01*
X142795714Y-119657809D01*
X142605238Y-119657809D01*
X143224285Y-120086380D02*
X143224285Y-119086380D01*
X143795714Y-120086380D01*
X143795714Y-119086380D01*
X144271904Y-120086380D02*
X144271904Y-119086380D01*
X144510000Y-119086380D01*
X144652857Y-119134000D01*
X144748095Y-119229238D01*
X144795714Y-119324476D01*
X144843333Y-119514952D01*
X144843333Y-119657809D01*
X144795714Y-119848285D01*
X144748095Y-119943523D01*
X144652857Y-120038761D01*
X144510000Y-120086380D01*
X144271904Y-120086380D01*
X144811904Y-122642380D02*
X145430952Y-122642380D01*
X145097619Y-123023333D01*
X145240476Y-123023333D01*
X145335714Y-123070952D01*
X145383333Y-123118571D01*
X145430952Y-123213809D01*
X145430952Y-123451904D01*
X145383333Y-123547142D01*
X145335714Y-123594761D01*
X145240476Y-123642380D01*
X144954761Y-123642380D01*
X144859523Y-123594761D01*
X144811904Y-123547142D01*
X145716666Y-122642380D02*
X146050000Y-123642380D01*
X146383333Y-122642380D01*
X146907142Y-122642380D02*
X147002380Y-122642380D01*
X147097619Y-122690000D01*
X147145238Y-122737619D01*
X147192857Y-122832857D01*
X147240476Y-123023333D01*
X147240476Y-123261428D01*
X147192857Y-123451904D01*
X147145238Y-123547142D01*
X147097619Y-123594761D01*
X147002380Y-123642380D01*
X146907142Y-123642380D01*
X146811904Y-123594761D01*
X146764285Y-123547142D01*
X146716666Y-123451904D01*
X146669047Y-123261428D01*
X146669047Y-123023333D01*
X146716666Y-122832857D01*
X146764285Y-122737619D01*
X146811904Y-122690000D01*
X146907142Y-122642380D01*
X147494761Y-119086380D02*
X147828095Y-120086380D01*
X148161428Y-119086380D01*
X148494761Y-120086380D02*
X148494761Y-119086380D01*
X148970952Y-120086380D02*
X148970952Y-119086380D01*
X149542380Y-120086380D01*
X149542380Y-119086380D01*
%TO.C,U1*%
X191135095Y-131834000D02*
X191039857Y-131786380D01*
X190897000Y-131786380D01*
X190754142Y-131834000D01*
X190658904Y-131929238D01*
X190611285Y-132024476D01*
X190563666Y-132214952D01*
X190563666Y-132357809D01*
X190611285Y-132548285D01*
X190658904Y-132643523D01*
X190754142Y-132738761D01*
X190897000Y-132786380D01*
X190992238Y-132786380D01*
X191135095Y-132738761D01*
X191182714Y-132691142D01*
X191182714Y-132357809D01*
X190992238Y-132357809D01*
X191611285Y-132786380D02*
X191611285Y-131786380D01*
X192182714Y-132786380D01*
X192182714Y-131786380D01*
X192658904Y-132786380D02*
X192658904Y-131786380D01*
X192897000Y-131786380D01*
X193039857Y-131834000D01*
X193135095Y-131929238D01*
X193182714Y-132024476D01*
X193230333Y-132214952D01*
X193230333Y-132357809D01*
X193182714Y-132548285D01*
X193135095Y-132643523D01*
X193039857Y-132738761D01*
X192897000Y-132786380D01*
X192658904Y-132786380D01*
X158464857Y-123610666D02*
X158941047Y-123610666D01*
X158369619Y-123896380D02*
X158702952Y-122896380D01*
X159036285Y-123896380D01*
X159369619Y-122896380D02*
X159369619Y-123705904D01*
X159417238Y-123801142D01*
X159464857Y-123848761D01*
X159560095Y-123896380D01*
X159750571Y-123896380D01*
X159845809Y-123848761D01*
X159893428Y-123801142D01*
X159941047Y-123705904D01*
X159941047Y-122896380D01*
X160417238Y-123896380D02*
X160417238Y-122896380D01*
X160655333Y-122896380D01*
X160798190Y-122944000D01*
X160893428Y-123039238D01*
X160941047Y-123134476D01*
X160988666Y-123324952D01*
X160988666Y-123467809D01*
X160941047Y-123658285D01*
X160893428Y-123753523D01*
X160798190Y-123848761D01*
X160655333Y-123896380D01*
X160417238Y-123896380D01*
X161417238Y-123896380D02*
X161417238Y-122896380D01*
X162083904Y-122896380D02*
X162274380Y-122896380D01*
X162369619Y-122944000D01*
X162464857Y-123039238D01*
X162512476Y-123229714D01*
X162512476Y-123563047D01*
X162464857Y-123753523D01*
X162369619Y-123848761D01*
X162274380Y-123896380D01*
X162083904Y-123896380D01*
X161988666Y-123848761D01*
X161893428Y-123753523D01*
X161845809Y-123563047D01*
X161845809Y-123229714D01*
X161893428Y-123039238D01*
X161988666Y-122944000D01*
X162083904Y-122896380D01*
X162702952Y-123991619D02*
X163464857Y-123991619D01*
X164036285Y-123372571D02*
X163702952Y-123372571D01*
X163702952Y-123896380D02*
X163702952Y-122896380D01*
X164179142Y-122896380D01*
X164512476Y-123610666D02*
X164988666Y-123610666D01*
X164417238Y-123896380D02*
X164750571Y-122896380D01*
X165083904Y-123896380D01*
X165988666Y-123801142D02*
X165941047Y-123848761D01*
X165798190Y-123896380D01*
X165702952Y-123896380D01*
X165560095Y-123848761D01*
X165464857Y-123753523D01*
X165417238Y-123658285D01*
X165369619Y-123467809D01*
X165369619Y-123324952D01*
X165417238Y-123134476D01*
X165464857Y-123039238D01*
X165560095Y-122944000D01*
X165702952Y-122896380D01*
X165798190Y-122896380D01*
X165941047Y-122944000D01*
X165988666Y-122991619D01*
X166417238Y-123896380D02*
X166417238Y-122896380D01*
X167369619Y-123896380D02*
X166893428Y-123896380D01*
X166893428Y-122896380D01*
X167702952Y-123372571D02*
X168036285Y-123372571D01*
X168179142Y-123896380D02*
X167702952Y-123896380D01*
X167702952Y-122896380D01*
X168179142Y-122896380D01*
X190651047Y-139406380D02*
X190841523Y-139406380D01*
X190936761Y-139454000D01*
X191032000Y-139549238D01*
X191079619Y-139739714D01*
X191079619Y-140073047D01*
X191032000Y-140263523D01*
X190936761Y-140358761D01*
X190841523Y-140406380D01*
X190651047Y-140406380D01*
X190555809Y-140358761D01*
X190460571Y-140263523D01*
X190412952Y-140073047D01*
X190412952Y-139739714D01*
X190460571Y-139549238D01*
X190555809Y-139454000D01*
X190651047Y-139406380D01*
X191508190Y-139406380D02*
X191508190Y-140215904D01*
X191555809Y-140311142D01*
X191603428Y-140358761D01*
X191698666Y-140406380D01*
X191889142Y-140406380D01*
X191984380Y-140358761D01*
X192032000Y-140311142D01*
X192079619Y-140215904D01*
X192079619Y-139406380D01*
X192412952Y-139406380D02*
X192984380Y-139406380D01*
X192698666Y-140406380D02*
X192698666Y-139406380D01*
X193079619Y-140501619D02*
X193841523Y-140501619D01*
X194079619Y-140406380D02*
X194079619Y-139406380D01*
X194460571Y-139406380D01*
X194555809Y-139454000D01*
X194603428Y-139501619D01*
X194651047Y-139596857D01*
X194651047Y-139739714D01*
X194603428Y-139834952D01*
X194555809Y-139882571D01*
X194460571Y-139930190D01*
X194079619Y-139930190D01*
X191071523Y-136866380D02*
X190595333Y-136866380D01*
X190547714Y-137342571D01*
X190595333Y-137294952D01*
X190690571Y-137247333D01*
X190928666Y-137247333D01*
X191023904Y-137294952D01*
X191071523Y-137342571D01*
X191119142Y-137437809D01*
X191119142Y-137675904D01*
X191071523Y-137771142D01*
X191023904Y-137818761D01*
X190928666Y-137866380D01*
X190690571Y-137866380D01*
X190595333Y-137818761D01*
X190547714Y-137771142D01*
X191404857Y-136866380D02*
X191738190Y-137866380D01*
X192071523Y-136866380D01*
X190476285Y-135278761D02*
X190619142Y-135326380D01*
X190857238Y-135326380D01*
X190952476Y-135278761D01*
X191000095Y-135231142D01*
X191047714Y-135135904D01*
X191047714Y-135040666D01*
X191000095Y-134945428D01*
X190952476Y-134897809D01*
X190857238Y-134850190D01*
X190666761Y-134802571D01*
X190571523Y-134754952D01*
X190523904Y-134707333D01*
X190476285Y-134612095D01*
X190476285Y-134516857D01*
X190523904Y-134421619D01*
X190571523Y-134374000D01*
X190666761Y-134326380D01*
X190904857Y-134326380D01*
X191047714Y-134374000D01*
X191476285Y-135326380D02*
X191476285Y-134326380D01*
X191714380Y-134326380D01*
X191857238Y-134374000D01*
X191952476Y-134469238D01*
X192000095Y-134564476D01*
X192047714Y-134754952D01*
X192047714Y-134897809D01*
X192000095Y-135088285D01*
X191952476Y-135183523D01*
X191857238Y-135278761D01*
X191714380Y-135326380D01*
X191476285Y-135326380D01*
X190627238Y-129246380D02*
X190817714Y-129246380D01*
X190912952Y-129294000D01*
X191008190Y-129389238D01*
X191055809Y-129579714D01*
X191055809Y-129913047D01*
X191008190Y-130103523D01*
X190912952Y-130198761D01*
X190817714Y-130246380D01*
X190627238Y-130246380D01*
X190532000Y-130198761D01*
X190436761Y-130103523D01*
X190389142Y-129913047D01*
X190389142Y-129579714D01*
X190436761Y-129389238D01*
X190532000Y-129294000D01*
X190627238Y-129246380D01*
X191484380Y-129246380D02*
X191484380Y-130055904D01*
X191532000Y-130151142D01*
X191579619Y-130198761D01*
X191674857Y-130246380D01*
X191865333Y-130246380D01*
X191960571Y-130198761D01*
X192008190Y-130151142D01*
X192055809Y-130055904D01*
X192055809Y-129246380D01*
X192389142Y-129246380D02*
X192960571Y-129246380D01*
X192674857Y-130246380D02*
X192674857Y-129246380D01*
X193055809Y-130341619D02*
X193817714Y-130341619D01*
X194055809Y-130246380D02*
X194055809Y-129246380D01*
X194627238Y-130246380D01*
X194627238Y-129246380D01*
X155178190Y-140406380D02*
X155178190Y-139406380D01*
X155654380Y-140406380D02*
X155654380Y-139406380D01*
X156225809Y-140406380D01*
X156225809Y-139406380D01*
%TD*%
M02*
