%TF.GenerationSoftware,KiCad,Pcbnew,(5.1.6)-1*%
%TF.CreationDate,2021-04-07T10:22:09+02:00*%
%TF.ProjectId,03_La_Boite_A_Meuh,30335f4c-615f-4426-9f69-74655f415f4d,rev?*%
%TF.SameCoordinates,Original*%
%TF.FileFunction,Paste,Bot*%
%TF.FilePolarity,Positive*%
%FSLAX46Y46*%
G04 Gerber Fmt 4.6, Leading zero omitted, Abs format (unit mm)*
G04 Created by KiCad (PCBNEW (5.1.6)-1) date 2021-04-07 10:22:09*
%MOMM*%
%LPD*%
G01*
G04 APERTURE LIST*
%TA.AperFunction,Profile*%
%ADD10C,0.150000*%
%TD*%
%ADD11R,0.900000X0.800000*%
G04 APERTURE END LIST*
D10*
X180000000Y-55000000D02*
X195000000Y-55000000D01*
X157000000Y-55000000D02*
X180000000Y-55000000D01*
X195000000Y-55000000D02*
G75*
G02*
X200000000Y-60000000I0J-5000000D01*
G01*
X200000000Y-150000000D02*
G75*
G02*
X195000000Y-155000000I-5000000J0D01*
G01*
X105000000Y-155000000D02*
G75*
G02*
X100000000Y-150000000I0J5000000D01*
G01*
X100000000Y-60000000D02*
G75*
G02*
X105000000Y-55000000I5000000J0D01*
G01*
X100000000Y-150000000D02*
X100000000Y-60000000D01*
X195000000Y-155000000D02*
X105000000Y-155000000D01*
X200000000Y-60000000D02*
X200000000Y-150000000D01*
X105000000Y-55000000D02*
X157000000Y-55000000D01*
%TO.C,R1*%
G36*
G01*
X106623001Y-92984499D02*
X106623001Y-92509499D01*
G75*
G02*
X106860501Y-92271999I237500J0D01*
G01*
X107435501Y-92271999D01*
G75*
G02*
X107673001Y-92509499I0J-237500D01*
G01*
X107673001Y-92984499D01*
G75*
G02*
X107435501Y-93221999I-237500J0D01*
G01*
X106860501Y-93221999D01*
G75*
G02*
X106623001Y-92984499I0J237500D01*
G01*
G37*
G36*
G01*
X104873001Y-92984499D02*
X104873001Y-92509499D01*
G75*
G02*
X105110501Y-92271999I237500J0D01*
G01*
X105685501Y-92271999D01*
G75*
G02*
X105923001Y-92509499I0J-237500D01*
G01*
X105923001Y-92984499D01*
G75*
G02*
X105685501Y-93221999I-237500J0D01*
G01*
X105110501Y-93221999D01*
G75*
G02*
X104873001Y-92984499I0J237500D01*
G01*
G37*
%TD*%
%TO.C,C1*%
G36*
G01*
X106623001Y-95494499D02*
X106623001Y-95019499D01*
G75*
G02*
X106860501Y-94781999I237500J0D01*
G01*
X107435501Y-94781999D01*
G75*
G02*
X107673001Y-95019499I0J-237500D01*
G01*
X107673001Y-95494499D01*
G75*
G02*
X107435501Y-95731999I-237500J0D01*
G01*
X106860501Y-95731999D01*
G75*
G02*
X106623001Y-95494499I0J237500D01*
G01*
G37*
G36*
G01*
X104873001Y-95494499D02*
X104873001Y-95019499D01*
G75*
G02*
X105110501Y-94781999I237500J0D01*
G01*
X105685501Y-94781999D01*
G75*
G02*
X105923001Y-95019499I0J-237500D01*
G01*
X105923001Y-95494499D01*
G75*
G02*
X105685501Y-95731999I-237500J0D01*
G01*
X105110501Y-95731999D01*
G75*
G02*
X104873001Y-95494499I0J237500D01*
G01*
G37*
%TD*%
%TO.C,R15*%
G36*
G01*
X122332000Y-73168500D02*
X122332000Y-73643500D01*
G75*
G02*
X122094500Y-73881000I-237500J0D01*
G01*
X121519500Y-73881000D01*
G75*
G02*
X121282000Y-73643500I0J237500D01*
G01*
X121282000Y-73168500D01*
G75*
G02*
X121519500Y-72931000I237500J0D01*
G01*
X122094500Y-72931000D01*
G75*
G02*
X122332000Y-73168500I0J-237500D01*
G01*
G37*
G36*
G01*
X124082000Y-73168500D02*
X124082000Y-73643500D01*
G75*
G02*
X123844500Y-73881000I-237500J0D01*
G01*
X123269500Y-73881000D01*
G75*
G02*
X123032000Y-73643500I0J237500D01*
G01*
X123032000Y-73168500D01*
G75*
G02*
X123269500Y-72931000I237500J0D01*
G01*
X123844500Y-72931000D01*
G75*
G02*
X124082000Y-73168500I0J-237500D01*
G01*
G37*
%TD*%
D11*
%TO.C,Q1*%
X143794000Y-105892000D03*
X141794000Y-104942000D03*
X141794000Y-106842000D03*
%TD*%
%TO.C,C4*%
G36*
G01*
X126334000Y-129015500D02*
X126334000Y-128540500D01*
G75*
G02*
X126571500Y-128303000I237500J0D01*
G01*
X127146500Y-128303000D01*
G75*
G02*
X127384000Y-128540500I0J-237500D01*
G01*
X127384000Y-129015500D01*
G75*
G02*
X127146500Y-129253000I-237500J0D01*
G01*
X126571500Y-129253000D01*
G75*
G02*
X126334000Y-129015500I0J237500D01*
G01*
G37*
G36*
G01*
X124584000Y-129015500D02*
X124584000Y-128540500D01*
G75*
G02*
X124821500Y-128303000I237500J0D01*
G01*
X125396500Y-128303000D01*
G75*
G02*
X125634000Y-128540500I0J-237500D01*
G01*
X125634000Y-129015500D01*
G75*
G02*
X125396500Y-129253000I-237500J0D01*
G01*
X124821500Y-129253000D01*
G75*
G02*
X124584000Y-129015500I0J237500D01*
G01*
G37*
%TD*%
%TO.C,C5*%
G36*
G01*
X126334000Y-127259500D02*
X126334000Y-126784500D01*
G75*
G02*
X126571500Y-126547000I237500J0D01*
G01*
X127146500Y-126547000D01*
G75*
G02*
X127384000Y-126784500I0J-237500D01*
G01*
X127384000Y-127259500D01*
G75*
G02*
X127146500Y-127497000I-237500J0D01*
G01*
X126571500Y-127497000D01*
G75*
G02*
X126334000Y-127259500I0J237500D01*
G01*
G37*
G36*
G01*
X124584000Y-127259500D02*
X124584000Y-126784500D01*
G75*
G02*
X124821500Y-126547000I237500J0D01*
G01*
X125396500Y-126547000D01*
G75*
G02*
X125634000Y-126784500I0J-237500D01*
G01*
X125634000Y-127259500D01*
G75*
G02*
X125396500Y-127497000I-237500J0D01*
G01*
X124821500Y-127497000D01*
G75*
G02*
X124584000Y-127259500I0J237500D01*
G01*
G37*
%TD*%
%TO.C,C6*%
G36*
G01*
X126334000Y-125459500D02*
X126334000Y-124984500D01*
G75*
G02*
X126571500Y-124747000I237500J0D01*
G01*
X127146500Y-124747000D01*
G75*
G02*
X127384000Y-124984500I0J-237500D01*
G01*
X127384000Y-125459500D01*
G75*
G02*
X127146500Y-125697000I-237500J0D01*
G01*
X126571500Y-125697000D01*
G75*
G02*
X126334000Y-125459500I0J237500D01*
G01*
G37*
G36*
G01*
X124584000Y-125459500D02*
X124584000Y-124984500D01*
G75*
G02*
X124821500Y-124747000I237500J0D01*
G01*
X125396500Y-124747000D01*
G75*
G02*
X125634000Y-124984500I0J-237500D01*
G01*
X125634000Y-125459500D01*
G75*
G02*
X125396500Y-125697000I-237500J0D01*
G01*
X124821500Y-125697000D01*
G75*
G02*
X124584000Y-125459500I0J237500D01*
G01*
G37*
%TD*%
%TO.C,R2*%
G36*
G01*
X122780000Y-129015500D02*
X122780000Y-128540500D01*
G75*
G02*
X123017500Y-128303000I237500J0D01*
G01*
X123592500Y-128303000D01*
G75*
G02*
X123830000Y-128540500I0J-237500D01*
G01*
X123830000Y-129015500D01*
G75*
G02*
X123592500Y-129253000I-237500J0D01*
G01*
X123017500Y-129253000D01*
G75*
G02*
X122780000Y-129015500I0J237500D01*
G01*
G37*
G36*
G01*
X121030000Y-129015500D02*
X121030000Y-128540500D01*
G75*
G02*
X121267500Y-128303000I237500J0D01*
G01*
X121842500Y-128303000D01*
G75*
G02*
X122080000Y-128540500I0J-237500D01*
G01*
X122080000Y-129015500D01*
G75*
G02*
X121842500Y-129253000I-237500J0D01*
G01*
X121267500Y-129253000D01*
G75*
G02*
X121030000Y-129015500I0J237500D01*
G01*
G37*
%TD*%
%TO.C,R4*%
G36*
G01*
X122780000Y-127259500D02*
X122780000Y-126784500D01*
G75*
G02*
X123017500Y-126547000I237500J0D01*
G01*
X123592500Y-126547000D01*
G75*
G02*
X123830000Y-126784500I0J-237500D01*
G01*
X123830000Y-127259500D01*
G75*
G02*
X123592500Y-127497000I-237500J0D01*
G01*
X123017500Y-127497000D01*
G75*
G02*
X122780000Y-127259500I0J237500D01*
G01*
G37*
G36*
G01*
X121030000Y-127259500D02*
X121030000Y-126784500D01*
G75*
G02*
X121267500Y-126547000I237500J0D01*
G01*
X121842500Y-126547000D01*
G75*
G02*
X122080000Y-126784500I0J-237500D01*
G01*
X122080000Y-127259500D01*
G75*
G02*
X121842500Y-127497000I-237500J0D01*
G01*
X121267500Y-127497000D01*
G75*
G02*
X121030000Y-127259500I0J237500D01*
G01*
G37*
%TD*%
%TO.C,R6*%
G36*
G01*
X122778000Y-125459500D02*
X122778000Y-124984500D01*
G75*
G02*
X123015500Y-124747000I237500J0D01*
G01*
X123590500Y-124747000D01*
G75*
G02*
X123828000Y-124984500I0J-237500D01*
G01*
X123828000Y-125459500D01*
G75*
G02*
X123590500Y-125697000I-237500J0D01*
G01*
X123015500Y-125697000D01*
G75*
G02*
X122778000Y-125459500I0J237500D01*
G01*
G37*
G36*
G01*
X121028000Y-125459500D02*
X121028000Y-124984500D01*
G75*
G02*
X121265500Y-124747000I237500J0D01*
G01*
X121840500Y-124747000D01*
G75*
G02*
X122078000Y-124984500I0J-237500D01*
G01*
X122078000Y-125459500D01*
G75*
G02*
X121840500Y-125697000I-237500J0D01*
G01*
X121265500Y-125697000D01*
G75*
G02*
X121028000Y-125459500I0J237500D01*
G01*
G37*
%TD*%
%TO.C,R7*%
G36*
G01*
X156096000Y-67293500D02*
X156096000Y-66818500D01*
G75*
G02*
X156333500Y-66581000I237500J0D01*
G01*
X156908500Y-66581000D01*
G75*
G02*
X157146000Y-66818500I0J-237500D01*
G01*
X157146000Y-67293500D01*
G75*
G02*
X156908500Y-67531000I-237500J0D01*
G01*
X156333500Y-67531000D01*
G75*
G02*
X156096000Y-67293500I0J237500D01*
G01*
G37*
G36*
G01*
X154346000Y-67293500D02*
X154346000Y-66818500D01*
G75*
G02*
X154583500Y-66581000I237500J0D01*
G01*
X155158500Y-66581000D01*
G75*
G02*
X155396000Y-66818500I0J-237500D01*
G01*
X155396000Y-67293500D01*
G75*
G02*
X155158500Y-67531000I-237500J0D01*
G01*
X154583500Y-67531000D01*
G75*
G02*
X154346000Y-67293500I0J237500D01*
G01*
G37*
%TD*%
%TO.C,R8*%
G36*
G01*
X146908000Y-87105500D02*
X146908000Y-86630500D01*
G75*
G02*
X147145500Y-86393000I237500J0D01*
G01*
X147720500Y-86393000D01*
G75*
G02*
X147958000Y-86630500I0J-237500D01*
G01*
X147958000Y-87105500D01*
G75*
G02*
X147720500Y-87343000I-237500J0D01*
G01*
X147145500Y-87343000D01*
G75*
G02*
X146908000Y-87105500I0J237500D01*
G01*
G37*
G36*
G01*
X145158000Y-87105500D02*
X145158000Y-86630500D01*
G75*
G02*
X145395500Y-86393000I237500J0D01*
G01*
X145970500Y-86393000D01*
G75*
G02*
X146208000Y-86630500I0J-237500D01*
G01*
X146208000Y-87105500D01*
G75*
G02*
X145970500Y-87343000I-237500J0D01*
G01*
X145395500Y-87343000D01*
G75*
G02*
X145158000Y-87105500I0J237500D01*
G01*
G37*
%TD*%
%TO.C,R9*%
G36*
G01*
X150131000Y-86630500D02*
X150131000Y-87105500D01*
G75*
G02*
X149893500Y-87343000I-237500J0D01*
G01*
X149318500Y-87343000D01*
G75*
G02*
X149081000Y-87105500I0J237500D01*
G01*
X149081000Y-86630500D01*
G75*
G02*
X149318500Y-86393000I237500J0D01*
G01*
X149893500Y-86393000D01*
G75*
G02*
X150131000Y-86630500I0J-237500D01*
G01*
G37*
G36*
G01*
X151881000Y-86630500D02*
X151881000Y-87105500D01*
G75*
G02*
X151643500Y-87343000I-237500J0D01*
G01*
X151068500Y-87343000D01*
G75*
G02*
X150831000Y-87105500I0J237500D01*
G01*
X150831000Y-86630500D01*
G75*
G02*
X151068500Y-86393000I237500J0D01*
G01*
X151643500Y-86393000D01*
G75*
G02*
X151881000Y-86630500I0J-237500D01*
G01*
G37*
%TD*%
%TO.C,R12*%
G36*
G01*
X144876000Y-113521500D02*
X144876000Y-113046500D01*
G75*
G02*
X145113500Y-112809000I237500J0D01*
G01*
X145688500Y-112809000D01*
G75*
G02*
X145926000Y-113046500I0J-237500D01*
G01*
X145926000Y-113521500D01*
G75*
G02*
X145688500Y-113759000I-237500J0D01*
G01*
X145113500Y-113759000D01*
G75*
G02*
X144876000Y-113521500I0J237500D01*
G01*
G37*
G36*
G01*
X143126000Y-113521500D02*
X143126000Y-113046500D01*
G75*
G02*
X143363500Y-112809000I237500J0D01*
G01*
X143938500Y-112809000D01*
G75*
G02*
X144176000Y-113046500I0J-237500D01*
G01*
X144176000Y-113521500D01*
G75*
G02*
X143938500Y-113759000I-237500J0D01*
G01*
X143363500Y-113759000D01*
G75*
G02*
X143126000Y-113521500I0J237500D01*
G01*
G37*
%TD*%
%TO.C,R13*%
G36*
G01*
X183912500Y-95092000D02*
X184387500Y-95092000D01*
G75*
G02*
X184625000Y-95329500I0J-237500D01*
G01*
X184625000Y-95904500D01*
G75*
G02*
X184387500Y-96142000I-237500J0D01*
G01*
X183912500Y-96142000D01*
G75*
G02*
X183675000Y-95904500I0J237500D01*
G01*
X183675000Y-95329500D01*
G75*
G02*
X183912500Y-95092000I237500J0D01*
G01*
G37*
G36*
G01*
X183912500Y-93342000D02*
X184387500Y-93342000D01*
G75*
G02*
X184625000Y-93579500I0J-237500D01*
G01*
X184625000Y-94154500D01*
G75*
G02*
X184387500Y-94392000I-237500J0D01*
G01*
X183912500Y-94392000D01*
G75*
G02*
X183675000Y-94154500I0J237500D01*
G01*
X183675000Y-93579500D01*
G75*
G02*
X183912500Y-93342000I237500J0D01*
G01*
G37*
%TD*%
%TO.C,R14*%
G36*
G01*
X118522000Y-73168500D02*
X118522000Y-73643500D01*
G75*
G02*
X118284500Y-73881000I-237500J0D01*
G01*
X117709500Y-73881000D01*
G75*
G02*
X117472000Y-73643500I0J237500D01*
G01*
X117472000Y-73168500D01*
G75*
G02*
X117709500Y-72931000I237500J0D01*
G01*
X118284500Y-72931000D01*
G75*
G02*
X118522000Y-73168500I0J-237500D01*
G01*
G37*
G36*
G01*
X120272000Y-73168500D02*
X120272000Y-73643500D01*
G75*
G02*
X120034500Y-73881000I-237500J0D01*
G01*
X119459500Y-73881000D01*
G75*
G02*
X119222000Y-73643500I0J237500D01*
G01*
X119222000Y-73168500D01*
G75*
G02*
X119459500Y-72931000I237500J0D01*
G01*
X120034500Y-72931000D01*
G75*
G02*
X120272000Y-73168500I0J-237500D01*
G01*
G37*
%TD*%
%TO.C,R16*%
G36*
G01*
X146769000Y-106129500D02*
X146769000Y-105654500D01*
G75*
G02*
X147006500Y-105417000I237500J0D01*
G01*
X147581500Y-105417000D01*
G75*
G02*
X147819000Y-105654500I0J-237500D01*
G01*
X147819000Y-106129500D01*
G75*
G02*
X147581500Y-106367000I-237500J0D01*
G01*
X147006500Y-106367000D01*
G75*
G02*
X146769000Y-106129500I0J237500D01*
G01*
G37*
G36*
G01*
X145019000Y-106129500D02*
X145019000Y-105654500D01*
G75*
G02*
X145256500Y-105417000I237500J0D01*
G01*
X145831500Y-105417000D01*
G75*
G02*
X146069000Y-105654500I0J-237500D01*
G01*
X146069000Y-106129500D01*
G75*
G02*
X145831500Y-106367000I-237500J0D01*
G01*
X145256500Y-106367000D01*
G75*
G02*
X145019000Y-106129500I0J237500D01*
G01*
G37*
%TD*%
%TO.C,R17*%
G36*
G01*
X139644000Y-107129500D02*
X139644000Y-106654500D01*
G75*
G02*
X139881500Y-106417000I237500J0D01*
G01*
X140456500Y-106417000D01*
G75*
G02*
X140694000Y-106654500I0J-237500D01*
G01*
X140694000Y-107129500D01*
G75*
G02*
X140456500Y-107367000I-237500J0D01*
G01*
X139881500Y-107367000D01*
G75*
G02*
X139644000Y-107129500I0J237500D01*
G01*
G37*
G36*
G01*
X137894000Y-107129500D02*
X137894000Y-106654500D01*
G75*
G02*
X138131500Y-106417000I237500J0D01*
G01*
X138706500Y-106417000D01*
G75*
G02*
X138944000Y-106654500I0J-237500D01*
G01*
X138944000Y-107129500D01*
G75*
G02*
X138706500Y-107367000I-237500J0D01*
G01*
X138131500Y-107367000D01*
G75*
G02*
X137894000Y-107129500I0J237500D01*
G01*
G37*
%TD*%
%TO.C,R18*%
G36*
G01*
X138944000Y-104654500D02*
X138944000Y-105129500D01*
G75*
G02*
X138706500Y-105367000I-237500J0D01*
G01*
X138131500Y-105367000D01*
G75*
G02*
X137894000Y-105129500I0J237500D01*
G01*
X137894000Y-104654500D01*
G75*
G02*
X138131500Y-104417000I237500J0D01*
G01*
X138706500Y-104417000D01*
G75*
G02*
X138944000Y-104654500I0J-237500D01*
G01*
G37*
G36*
G01*
X140694000Y-104654500D02*
X140694000Y-105129500D01*
G75*
G02*
X140456500Y-105367000I-237500J0D01*
G01*
X139881500Y-105367000D01*
G75*
G02*
X139644000Y-105129500I0J237500D01*
G01*
X139644000Y-104654500D01*
G75*
G02*
X139881500Y-104417000I237500J0D01*
G01*
X140456500Y-104417000D01*
G75*
G02*
X140694000Y-104654500I0J-237500D01*
G01*
G37*
%TD*%
%TO.C,C7*%
G36*
G01*
X183893750Y-70200000D02*
X184406250Y-70200000D01*
G75*
G02*
X184625000Y-70418750I0J-218750D01*
G01*
X184625000Y-70856250D01*
G75*
G02*
X184406250Y-71075000I-218750J0D01*
G01*
X183893750Y-71075000D01*
G75*
G02*
X183675000Y-70856250I0J218750D01*
G01*
X183675000Y-70418750D01*
G75*
G02*
X183893750Y-70200000I218750J0D01*
G01*
G37*
G36*
G01*
X183893750Y-68625000D02*
X184406250Y-68625000D01*
G75*
G02*
X184625000Y-68843750I0J-218750D01*
G01*
X184625000Y-69281250D01*
G75*
G02*
X184406250Y-69500000I-218750J0D01*
G01*
X183893750Y-69500000D01*
G75*
G02*
X183675000Y-69281250I0J218750D01*
G01*
X183675000Y-68843750D01*
G75*
G02*
X183893750Y-68625000I218750J0D01*
G01*
G37*
%TD*%
%TO.C,R3*%
G36*
G01*
X126729500Y-115474000D02*
X126254500Y-115474000D01*
G75*
G02*
X126017000Y-115236500I0J237500D01*
G01*
X126017000Y-114661500D01*
G75*
G02*
X126254500Y-114424000I237500J0D01*
G01*
X126729500Y-114424000D01*
G75*
G02*
X126967000Y-114661500I0J-237500D01*
G01*
X126967000Y-115236500D01*
G75*
G02*
X126729500Y-115474000I-237500J0D01*
G01*
G37*
G36*
G01*
X126729500Y-117224000D02*
X126254500Y-117224000D01*
G75*
G02*
X126017000Y-116986500I0J237500D01*
G01*
X126017000Y-116411500D01*
G75*
G02*
X126254500Y-116174000I237500J0D01*
G01*
X126729500Y-116174000D01*
G75*
G02*
X126967000Y-116411500I0J-237500D01*
G01*
X126967000Y-116986500D01*
G75*
G02*
X126729500Y-117224000I-237500J0D01*
G01*
G37*
%TD*%
%TO.C,R10*%
G36*
G01*
X128795000Y-118126500D02*
X128795000Y-118601500D01*
G75*
G02*
X128557500Y-118839000I-237500J0D01*
G01*
X127982500Y-118839000D01*
G75*
G02*
X127745000Y-118601500I0J237500D01*
G01*
X127745000Y-118126500D01*
G75*
G02*
X127982500Y-117889000I237500J0D01*
G01*
X128557500Y-117889000D01*
G75*
G02*
X128795000Y-118126500I0J-237500D01*
G01*
G37*
G36*
G01*
X130545000Y-118126500D02*
X130545000Y-118601500D01*
G75*
G02*
X130307500Y-118839000I-237500J0D01*
G01*
X129732500Y-118839000D01*
G75*
G02*
X129495000Y-118601500I0J237500D01*
G01*
X129495000Y-118126500D01*
G75*
G02*
X129732500Y-117889000I237500J0D01*
G01*
X130307500Y-117889000D01*
G75*
G02*
X130545000Y-118126500I0J-237500D01*
G01*
G37*
%TD*%
%TO.C,R11*%
G36*
G01*
X173498500Y-71470000D02*
X173973500Y-71470000D01*
G75*
G02*
X174211000Y-71707500I0J-237500D01*
G01*
X174211000Y-72282500D01*
G75*
G02*
X173973500Y-72520000I-237500J0D01*
G01*
X173498500Y-72520000D01*
G75*
G02*
X173261000Y-72282500I0J237500D01*
G01*
X173261000Y-71707500D01*
G75*
G02*
X173498500Y-71470000I237500J0D01*
G01*
G37*
G36*
G01*
X173498500Y-69720000D02*
X173973500Y-69720000D01*
G75*
G02*
X174211000Y-69957500I0J-237500D01*
G01*
X174211000Y-70532500D01*
G75*
G02*
X173973500Y-70770000I-237500J0D01*
G01*
X173498500Y-70770000D01*
G75*
G02*
X173261000Y-70532500I0J237500D01*
G01*
X173261000Y-69957500D01*
G75*
G02*
X173498500Y-69720000I237500J0D01*
G01*
G37*
%TD*%
%TO.C,R19*%
G36*
G01*
X179086500Y-71470000D02*
X179561500Y-71470000D01*
G75*
G02*
X179799000Y-71707500I0J-237500D01*
G01*
X179799000Y-72282500D01*
G75*
G02*
X179561500Y-72520000I-237500J0D01*
G01*
X179086500Y-72520000D01*
G75*
G02*
X178849000Y-72282500I0J237500D01*
G01*
X178849000Y-71707500D01*
G75*
G02*
X179086500Y-71470000I237500J0D01*
G01*
G37*
G36*
G01*
X179086500Y-69720000D02*
X179561500Y-69720000D01*
G75*
G02*
X179799000Y-69957500I0J-237500D01*
G01*
X179799000Y-70532500D01*
G75*
G02*
X179561500Y-70770000I-237500J0D01*
G01*
X179086500Y-70770000D01*
G75*
G02*
X178849000Y-70532500I0J237500D01*
G01*
X178849000Y-69957500D01*
G75*
G02*
X179086500Y-69720000I237500J0D01*
G01*
G37*
%TD*%
%TO.C,R22*%
G36*
G01*
X156368000Y-92472500D02*
X156368000Y-92947500D01*
G75*
G02*
X156130500Y-93185000I-237500J0D01*
G01*
X155555500Y-93185000D01*
G75*
G02*
X155318000Y-92947500I0J237500D01*
G01*
X155318000Y-92472500D01*
G75*
G02*
X155555500Y-92235000I237500J0D01*
G01*
X156130500Y-92235000D01*
G75*
G02*
X156368000Y-92472500I0J-237500D01*
G01*
G37*
G36*
G01*
X158118000Y-92472500D02*
X158118000Y-92947500D01*
G75*
G02*
X157880500Y-93185000I-237500J0D01*
G01*
X157305500Y-93185000D01*
G75*
G02*
X157068000Y-92947500I0J237500D01*
G01*
X157068000Y-92472500D01*
G75*
G02*
X157305500Y-92235000I237500J0D01*
G01*
X157880500Y-92235000D01*
G75*
G02*
X158118000Y-92472500I0J-237500D01*
G01*
G37*
%TD*%
%TO.C,R23*%
G36*
G01*
X148860500Y-68422000D02*
X149335500Y-68422000D01*
G75*
G02*
X149573000Y-68659500I0J-237500D01*
G01*
X149573000Y-69234500D01*
G75*
G02*
X149335500Y-69472000I-237500J0D01*
G01*
X148860500Y-69472000D01*
G75*
G02*
X148623000Y-69234500I0J237500D01*
G01*
X148623000Y-68659500D01*
G75*
G02*
X148860500Y-68422000I237500J0D01*
G01*
G37*
G36*
G01*
X148860500Y-66672000D02*
X149335500Y-66672000D01*
G75*
G02*
X149573000Y-66909500I0J-237500D01*
G01*
X149573000Y-67484500D01*
G75*
G02*
X149335500Y-67722000I-237500J0D01*
G01*
X148860500Y-67722000D01*
G75*
G02*
X148623000Y-67484500I0J237500D01*
G01*
X148623000Y-66909500D01*
G75*
G02*
X148860500Y-66672000I237500J0D01*
G01*
G37*
%TD*%
%TO.C,R24*%
G36*
G01*
X126729500Y-92868000D02*
X126254500Y-92868000D01*
G75*
G02*
X126017000Y-92630500I0J237500D01*
G01*
X126017000Y-92055500D01*
G75*
G02*
X126254500Y-91818000I237500J0D01*
G01*
X126729500Y-91818000D01*
G75*
G02*
X126967000Y-92055500I0J-237500D01*
G01*
X126967000Y-92630500D01*
G75*
G02*
X126729500Y-92868000I-237500J0D01*
G01*
G37*
G36*
G01*
X126729500Y-94618000D02*
X126254500Y-94618000D01*
G75*
G02*
X126017000Y-94380500I0J237500D01*
G01*
X126017000Y-93805500D01*
G75*
G02*
X126254500Y-93568000I237500J0D01*
G01*
X126729500Y-93568000D01*
G75*
G02*
X126967000Y-93805500I0J-237500D01*
G01*
X126967000Y-94380500D01*
G75*
G02*
X126729500Y-94618000I-237500J0D01*
G01*
G37*
%TD*%
%TO.C,R25*%
G36*
G01*
X144034500Y-68168000D02*
X144509500Y-68168000D01*
G75*
G02*
X144747000Y-68405500I0J-237500D01*
G01*
X144747000Y-68980500D01*
G75*
G02*
X144509500Y-69218000I-237500J0D01*
G01*
X144034500Y-69218000D01*
G75*
G02*
X143797000Y-68980500I0J237500D01*
G01*
X143797000Y-68405500D01*
G75*
G02*
X144034500Y-68168000I237500J0D01*
G01*
G37*
G36*
G01*
X144034500Y-66418000D02*
X144509500Y-66418000D01*
G75*
G02*
X144747000Y-66655500I0J-237500D01*
G01*
X144747000Y-67230500D01*
G75*
G02*
X144509500Y-67468000I-237500J0D01*
G01*
X144034500Y-67468000D01*
G75*
G02*
X143797000Y-67230500I0J237500D01*
G01*
X143797000Y-66655500D01*
G75*
G02*
X144034500Y-66418000I237500J0D01*
G01*
G37*
%TD*%
%TO.C,R26*%
G36*
G01*
X141494500Y-68168000D02*
X141969500Y-68168000D01*
G75*
G02*
X142207000Y-68405500I0J-237500D01*
G01*
X142207000Y-68980500D01*
G75*
G02*
X141969500Y-69218000I-237500J0D01*
G01*
X141494500Y-69218000D01*
G75*
G02*
X141257000Y-68980500I0J237500D01*
G01*
X141257000Y-68405500D01*
G75*
G02*
X141494500Y-68168000I237500J0D01*
G01*
G37*
G36*
G01*
X141494500Y-66418000D02*
X141969500Y-66418000D01*
G75*
G02*
X142207000Y-66655500I0J-237500D01*
G01*
X142207000Y-67230500D01*
G75*
G02*
X141969500Y-67468000I-237500J0D01*
G01*
X141494500Y-67468000D01*
G75*
G02*
X141257000Y-67230500I0J237500D01*
G01*
X141257000Y-66655500D01*
G75*
G02*
X141494500Y-66418000I237500J0D01*
G01*
G37*
%TD*%
%TO.C,R27*%
G36*
G01*
X138954500Y-68168000D02*
X139429500Y-68168000D01*
G75*
G02*
X139667000Y-68405500I0J-237500D01*
G01*
X139667000Y-68980500D01*
G75*
G02*
X139429500Y-69218000I-237500J0D01*
G01*
X138954500Y-69218000D01*
G75*
G02*
X138717000Y-68980500I0J237500D01*
G01*
X138717000Y-68405500D01*
G75*
G02*
X138954500Y-68168000I237500J0D01*
G01*
G37*
G36*
G01*
X138954500Y-66418000D02*
X139429500Y-66418000D01*
G75*
G02*
X139667000Y-66655500I0J-237500D01*
G01*
X139667000Y-67230500D01*
G75*
G02*
X139429500Y-67468000I-237500J0D01*
G01*
X138954500Y-67468000D01*
G75*
G02*
X138717000Y-67230500I0J237500D01*
G01*
X138717000Y-66655500D01*
G75*
G02*
X138954500Y-66418000I237500J0D01*
G01*
G37*
%TD*%
%TO.C,R32*%
G36*
G01*
X140366000Y-113046500D02*
X140366000Y-113521500D01*
G75*
G02*
X140128500Y-113759000I-237500J0D01*
G01*
X139553500Y-113759000D01*
G75*
G02*
X139316000Y-113521500I0J237500D01*
G01*
X139316000Y-113046500D01*
G75*
G02*
X139553500Y-112809000I237500J0D01*
G01*
X140128500Y-112809000D01*
G75*
G02*
X140366000Y-113046500I0J-237500D01*
G01*
G37*
G36*
G01*
X142116000Y-113046500D02*
X142116000Y-113521500D01*
G75*
G02*
X141878500Y-113759000I-237500J0D01*
G01*
X141303500Y-113759000D01*
G75*
G02*
X141066000Y-113521500I0J237500D01*
G01*
X141066000Y-113046500D01*
G75*
G02*
X141303500Y-112809000I237500J0D01*
G01*
X141878500Y-112809000D01*
G75*
G02*
X142116000Y-113046500I0J-237500D01*
G01*
G37*
%TD*%
%TO.C,R38*%
G36*
G01*
X139429500Y-93376000D02*
X138954500Y-93376000D01*
G75*
G02*
X138717000Y-93138500I0J237500D01*
G01*
X138717000Y-92563500D01*
G75*
G02*
X138954500Y-92326000I237500J0D01*
G01*
X139429500Y-92326000D01*
G75*
G02*
X139667000Y-92563500I0J-237500D01*
G01*
X139667000Y-93138500D01*
G75*
G02*
X139429500Y-93376000I-237500J0D01*
G01*
G37*
G36*
G01*
X139429500Y-95126000D02*
X138954500Y-95126000D01*
G75*
G02*
X138717000Y-94888500I0J237500D01*
G01*
X138717000Y-94313500D01*
G75*
G02*
X138954500Y-94076000I237500J0D01*
G01*
X139429500Y-94076000D01*
G75*
G02*
X139667000Y-94313500I0J-237500D01*
G01*
X139667000Y-94888500D01*
G75*
G02*
X139429500Y-95126000I-237500J0D01*
G01*
G37*
%TD*%
%TO.C,R43*%
G36*
G01*
X192007500Y-80027000D02*
X191532500Y-80027000D01*
G75*
G02*
X191295000Y-79789500I0J237500D01*
G01*
X191295000Y-79214500D01*
G75*
G02*
X191532500Y-78977000I237500J0D01*
G01*
X192007500Y-78977000D01*
G75*
G02*
X192245000Y-79214500I0J-237500D01*
G01*
X192245000Y-79789500D01*
G75*
G02*
X192007500Y-80027000I-237500J0D01*
G01*
G37*
G36*
G01*
X192007500Y-81777000D02*
X191532500Y-81777000D01*
G75*
G02*
X191295000Y-81539500I0J237500D01*
G01*
X191295000Y-80964500D01*
G75*
G02*
X191532500Y-80727000I237500J0D01*
G01*
X192007500Y-80727000D01*
G75*
G02*
X192245000Y-80964500I0J-237500D01*
G01*
X192245000Y-81539500D01*
G75*
G02*
X192007500Y-81777000I-237500J0D01*
G01*
G37*
%TD*%
%TO.C,R44*%
G36*
G01*
X162766000Y-73769500D02*
X162766000Y-73294500D01*
G75*
G02*
X163003500Y-73057000I237500J0D01*
G01*
X163578500Y-73057000D01*
G75*
G02*
X163816000Y-73294500I0J-237500D01*
G01*
X163816000Y-73769500D01*
G75*
G02*
X163578500Y-74007000I-237500J0D01*
G01*
X163003500Y-74007000D01*
G75*
G02*
X162766000Y-73769500I0J237500D01*
G01*
G37*
G36*
G01*
X161016000Y-73769500D02*
X161016000Y-73294500D01*
G75*
G02*
X161253500Y-73057000I237500J0D01*
G01*
X161828500Y-73057000D01*
G75*
G02*
X162066000Y-73294500I0J-237500D01*
G01*
X162066000Y-73769500D01*
G75*
G02*
X161828500Y-74007000I-237500J0D01*
G01*
X161253500Y-74007000D01*
G75*
G02*
X161016000Y-73769500I0J237500D01*
G01*
G37*
%TD*%
%TO.C,R45*%
G36*
G01*
X152266000Y-76269500D02*
X152266000Y-75794500D01*
G75*
G02*
X152503500Y-75557000I237500J0D01*
G01*
X153078500Y-75557000D01*
G75*
G02*
X153316000Y-75794500I0J-237500D01*
G01*
X153316000Y-76269500D01*
G75*
G02*
X153078500Y-76507000I-237500J0D01*
G01*
X152503500Y-76507000D01*
G75*
G02*
X152266000Y-76269500I0J237500D01*
G01*
G37*
G36*
G01*
X150516000Y-76269500D02*
X150516000Y-75794500D01*
G75*
G02*
X150753500Y-75557000I237500J0D01*
G01*
X151328500Y-75557000D01*
G75*
G02*
X151566000Y-75794500I0J-237500D01*
G01*
X151566000Y-76269500D01*
G75*
G02*
X151328500Y-76507000I-237500J0D01*
G01*
X150753500Y-76507000D01*
G75*
G02*
X150516000Y-76269500I0J237500D01*
G01*
G37*
%TD*%
%TO.C,R46*%
G36*
G01*
X156560000Y-69833500D02*
X156560000Y-69358500D01*
G75*
G02*
X156797500Y-69121000I237500J0D01*
G01*
X157372500Y-69121000D01*
G75*
G02*
X157610000Y-69358500I0J-237500D01*
G01*
X157610000Y-69833500D01*
G75*
G02*
X157372500Y-70071000I-237500J0D01*
G01*
X156797500Y-70071000D01*
G75*
G02*
X156560000Y-69833500I0J237500D01*
G01*
G37*
G36*
G01*
X154810000Y-69833500D02*
X154810000Y-69358500D01*
G75*
G02*
X155047500Y-69121000I237500J0D01*
G01*
X155622500Y-69121000D01*
G75*
G02*
X155860000Y-69358500I0J-237500D01*
G01*
X155860000Y-69833500D01*
G75*
G02*
X155622500Y-70071000I-237500J0D01*
G01*
X155047500Y-70071000D01*
G75*
G02*
X154810000Y-69833500I0J237500D01*
G01*
G37*
%TD*%
%TO.C,R47*%
G36*
G01*
X162766000Y-76269500D02*
X162766000Y-75794500D01*
G75*
G02*
X163003500Y-75557000I237500J0D01*
G01*
X163578500Y-75557000D01*
G75*
G02*
X163816000Y-75794500I0J-237500D01*
G01*
X163816000Y-76269500D01*
G75*
G02*
X163578500Y-76507000I-237500J0D01*
G01*
X163003500Y-76507000D01*
G75*
G02*
X162766000Y-76269500I0J237500D01*
G01*
G37*
G36*
G01*
X161016000Y-76269500D02*
X161016000Y-75794500D01*
G75*
G02*
X161253500Y-75557000I237500J0D01*
G01*
X161828500Y-75557000D01*
G75*
G02*
X162066000Y-75794500I0J-237500D01*
G01*
X162066000Y-76269500D01*
G75*
G02*
X161828500Y-76507000I-237500J0D01*
G01*
X161253500Y-76507000D01*
G75*
G02*
X161016000Y-76269500I0J237500D01*
G01*
G37*
%TD*%
%TO.C,R48*%
G36*
G01*
X152266000Y-73769500D02*
X152266000Y-73294500D01*
G75*
G02*
X152503500Y-73057000I237500J0D01*
G01*
X153078500Y-73057000D01*
G75*
G02*
X153316000Y-73294500I0J-237500D01*
G01*
X153316000Y-73769500D01*
G75*
G02*
X153078500Y-74007000I-237500J0D01*
G01*
X152503500Y-74007000D01*
G75*
G02*
X152266000Y-73769500I0J237500D01*
G01*
G37*
G36*
G01*
X150516000Y-73769500D02*
X150516000Y-73294500D01*
G75*
G02*
X150753500Y-73057000I237500J0D01*
G01*
X151328500Y-73057000D01*
G75*
G02*
X151566000Y-73294500I0J-237500D01*
G01*
X151566000Y-73769500D01*
G75*
G02*
X151328500Y-74007000I-237500J0D01*
G01*
X150753500Y-74007000D01*
G75*
G02*
X150516000Y-73769500I0J237500D01*
G01*
G37*
%TD*%
%TO.C,R20*%
G36*
G01*
X146574500Y-68309000D02*
X147049500Y-68309000D01*
G75*
G02*
X147287000Y-68546500I0J-237500D01*
G01*
X147287000Y-69121500D01*
G75*
G02*
X147049500Y-69359000I-237500J0D01*
G01*
X146574500Y-69359000D01*
G75*
G02*
X146337000Y-69121500I0J237500D01*
G01*
X146337000Y-68546500D01*
G75*
G02*
X146574500Y-68309000I237500J0D01*
G01*
G37*
G36*
G01*
X146574500Y-66559000D02*
X147049500Y-66559000D01*
G75*
G02*
X147287000Y-66796500I0J-237500D01*
G01*
X147287000Y-67371500D01*
G75*
G02*
X147049500Y-67609000I-237500J0D01*
G01*
X146574500Y-67609000D01*
G75*
G02*
X146337000Y-67371500I0J237500D01*
G01*
X146337000Y-66796500D01*
G75*
G02*
X146574500Y-66559000I237500J0D01*
G01*
G37*
%TD*%
%TO.C,R5*%
G36*
G01*
X180323500Y-135907000D02*
X179848500Y-135907000D01*
G75*
G02*
X179611000Y-135669500I0J237500D01*
G01*
X179611000Y-135094500D01*
G75*
G02*
X179848500Y-134857000I237500J0D01*
G01*
X180323500Y-134857000D01*
G75*
G02*
X180561000Y-135094500I0J-237500D01*
G01*
X180561000Y-135669500D01*
G75*
G02*
X180323500Y-135907000I-237500J0D01*
G01*
G37*
G36*
G01*
X180323500Y-137657000D02*
X179848500Y-137657000D01*
G75*
G02*
X179611000Y-137419500I0J237500D01*
G01*
X179611000Y-136844500D01*
G75*
G02*
X179848500Y-136607000I237500J0D01*
G01*
X180323500Y-136607000D01*
G75*
G02*
X180561000Y-136844500I0J-237500D01*
G01*
X180561000Y-137419500D01*
G75*
G02*
X180323500Y-137657000I-237500J0D01*
G01*
G37*
%TD*%
M02*
