%TF.GenerationSoftware,KiCad,Pcbnew,(5.1.6)-1*%
%TF.CreationDate,2020-12-23T09:12:27+01:00*%
%TF.ProjectId,03_La_Boite_A_Meuh,30335f4c-615f-4426-9f69-74655f415f4d,rev?*%
%TF.SameCoordinates,Original*%
%TF.FileFunction,Soldermask,Top*%
%TF.FilePolarity,Negative*%
%FSLAX46Y46*%
G04 Gerber Fmt 4.6, Leading zero omitted, Abs format (unit mm)*
G04 Created by KiCad (PCBNEW (5.1.6)-1) date 2020-12-23 09:12:27*
%MOMM*%
%LPD*%
G01*
G04 APERTURE LIST*
%TA.AperFunction,Profile*%
%ADD10C,0.150000*%
%TD*%
%ADD11C,0.900000*%
%ADD12C,6.500000*%
%ADD13C,1.408000*%
%ADD14R,1.408000X1.408000*%
%ADD15C,1.630000*%
%ADD16R,1.630000X1.630000*%
%ADD17C,2.490000*%
%ADD18C,3.550000*%
%ADD19O,1.800000X2.100000*%
%ADD20O,2.100000X1.800000*%
%ADD21R,1.800000X1.800000*%
%ADD22O,1.800000X2.050000*%
%ADD23R,1.000000X0.900000*%
%ADD24R,3.600000X1.800000*%
%ADD25O,2.050000X1.800000*%
G04 APERTURE END LIST*
D10*
X180000000Y-55000000D02*
X195000000Y-55000000D01*
X180000000Y-64500000D02*
X180000000Y-55000000D01*
X157000000Y-64500000D02*
X180000000Y-64500000D01*
X157000000Y-55000000D02*
X157000000Y-64500000D01*
X195000000Y-55000000D02*
G75*
G02*
X200000000Y-60000000I0J-5000000D01*
G01*
X200000000Y-150000000D02*
G75*
G02*
X195000000Y-155000000I-5000000J0D01*
G01*
X105000000Y-155000000D02*
G75*
G02*
X100000000Y-150000000I0J5000000D01*
G01*
X100000000Y-60000000D02*
G75*
G02*
X105000000Y-55000000I5000000J0D01*
G01*
X100000000Y-150000000D02*
X100000000Y-60000000D01*
X195000000Y-155000000D02*
X105000000Y-155000000D01*
X200000000Y-60000000D02*
X200000000Y-150000000D01*
X105000000Y-55000000D02*
X157000000Y-55000000D01*
D11*
%TO.C,H3*%
X196697056Y-148302944D03*
X195000000Y-147600000D03*
X193302944Y-148302944D03*
X192600000Y-150000000D03*
X193302944Y-151697056D03*
X195000000Y-152400000D03*
X196697056Y-151697056D03*
X197400000Y-150000000D03*
D12*
X195000000Y-150000000D03*
%TD*%
D11*
%TO.C,H1*%
X106697056Y-58302944D03*
X105000000Y-57600000D03*
X103302944Y-58302944D03*
X102600000Y-60000000D03*
X103302944Y-61697056D03*
X105000000Y-62400000D03*
X106697056Y-61697056D03*
X107400000Y-60000000D03*
D12*
X105000000Y-60000000D03*
%TD*%
D11*
%TO.C,H2*%
X196697056Y-58302944D03*
X195000000Y-57600000D03*
X193302944Y-58302944D03*
X192600000Y-60000000D03*
X193302944Y-61697056D03*
X195000000Y-62400000D03*
X196697056Y-61697056D03*
X197400000Y-60000000D03*
D12*
X195000000Y-60000000D03*
%TD*%
D11*
%TO.C,H4*%
X106697056Y-148302944D03*
X105000000Y-147600000D03*
X103302944Y-148302944D03*
X102600000Y-150000000D03*
X103302944Y-151697056D03*
X105000000Y-152400000D03*
X106697056Y-151697056D03*
X107400000Y-150000000D03*
D12*
X105000000Y-150000000D03*
%TD*%
D13*
%TO.C,U1*%
X162983000Y-142890000D03*
X181017000Y-142890000D03*
X162983000Y-125110000D03*
D14*
X181017000Y-125110000D03*
D13*
X162983000Y-140350000D03*
X181017000Y-140350000D03*
X162983000Y-127650000D03*
X181017000Y-127650000D03*
X162983000Y-137810000D03*
X162983000Y-130190000D03*
X181017000Y-130190000D03*
X181017000Y-137810000D03*
X162983000Y-135270000D03*
X162983000Y-132730000D03*
X181017000Y-135270000D03*
X181017000Y-132730000D03*
%TD*%
D15*
%TO.C,U2*%
X155800000Y-67150000D03*
X155800000Y-69690000D03*
X155800000Y-72230000D03*
X155800000Y-74770000D03*
X155800000Y-77310000D03*
X155800000Y-79850000D03*
X155800000Y-82390000D03*
X155800000Y-84930000D03*
X155800000Y-87470000D03*
X155800000Y-90010000D03*
X155800000Y-92550000D03*
X155800000Y-95090000D03*
X155800000Y-97630000D03*
X155800000Y-100170000D03*
X155800000Y-102710000D03*
X155800000Y-105250000D03*
X155800000Y-107790000D03*
X155800000Y-110330000D03*
X155800000Y-112870000D03*
X181200000Y-112870000D03*
X181200000Y-110330000D03*
X181200000Y-107790000D03*
X181200000Y-105250000D03*
X181200000Y-102710000D03*
X181200000Y-100170000D03*
X181200000Y-97630000D03*
X181200000Y-95090000D03*
X181200000Y-92550000D03*
X181200000Y-90010000D03*
X181200000Y-87470000D03*
X181200000Y-84930000D03*
X181200000Y-82390000D03*
X181200000Y-79850000D03*
X181200000Y-77310000D03*
X181200000Y-74770000D03*
X181200000Y-72230000D03*
X181200000Y-69690000D03*
D16*
X181200000Y-67150000D03*
%TD*%
D17*
%TO.C,BT1*%
X129412000Y-140959000D03*
D18*
X113412000Y-132629000D03*
X129412000Y-77429000D03*
%TD*%
%TO.C,C1*%
G36*
G01*
X173262500Y-118200000D02*
X172737500Y-118200000D01*
G75*
G02*
X172475000Y-117937500I0J262500D01*
G01*
X172475000Y-117312500D01*
G75*
G02*
X172737500Y-117050000I262500J0D01*
G01*
X173262500Y-117050000D01*
G75*
G02*
X173525000Y-117312500I0J-262500D01*
G01*
X173525000Y-117937500D01*
G75*
G02*
X173262500Y-118200000I-262500J0D01*
G01*
G37*
G36*
G01*
X173262500Y-119950000D02*
X172737500Y-119950000D01*
G75*
G02*
X172475000Y-119687500I0J262500D01*
G01*
X172475000Y-119062500D01*
G75*
G02*
X172737500Y-118800000I262500J0D01*
G01*
X173262500Y-118800000D01*
G75*
G02*
X173525000Y-119062500I0J-262500D01*
G01*
X173525000Y-119687500D01*
G75*
G02*
X173262500Y-119950000I-262500J0D01*
G01*
G37*
%TD*%
%TO.C,C2*%
G36*
G01*
X171262500Y-118200000D02*
X170737500Y-118200000D01*
G75*
G02*
X170475000Y-117937500I0J262500D01*
G01*
X170475000Y-117312500D01*
G75*
G02*
X170737500Y-117050000I262500J0D01*
G01*
X171262500Y-117050000D01*
G75*
G02*
X171525000Y-117312500I0J-262500D01*
G01*
X171525000Y-117937500D01*
G75*
G02*
X171262500Y-118200000I-262500J0D01*
G01*
G37*
G36*
G01*
X171262500Y-119950000D02*
X170737500Y-119950000D01*
G75*
G02*
X170475000Y-119687500I0J262500D01*
G01*
X170475000Y-119062500D01*
G75*
G02*
X170737500Y-118800000I262500J0D01*
G01*
X171262500Y-118800000D01*
G75*
G02*
X171525000Y-119062500I0J-262500D01*
G01*
X171525000Y-119687500D01*
G75*
G02*
X171262500Y-119950000I-262500J0D01*
G01*
G37*
%TD*%
%TO.C,C3*%
G36*
G01*
X187300000Y-118262500D02*
X187300000Y-117737500D01*
G75*
G02*
X187562500Y-117475000I262500J0D01*
G01*
X188187500Y-117475000D01*
G75*
G02*
X188450000Y-117737500I0J-262500D01*
G01*
X188450000Y-118262500D01*
G75*
G02*
X188187500Y-118525000I-262500J0D01*
G01*
X187562500Y-118525000D01*
G75*
G02*
X187300000Y-118262500I0J262500D01*
G01*
G37*
G36*
G01*
X185550000Y-118262500D02*
X185550000Y-117737500D01*
G75*
G02*
X185812500Y-117475000I262500J0D01*
G01*
X186437500Y-117475000D01*
G75*
G02*
X186700000Y-117737500I0J-262500D01*
G01*
X186700000Y-118262500D01*
G75*
G02*
X186437500Y-118525000I-262500J0D01*
G01*
X185812500Y-118525000D01*
G75*
G02*
X185550000Y-118262500I0J262500D01*
G01*
G37*
%TD*%
%TO.C,C4*%
G36*
G01*
X186737500Y-132300000D02*
X187262500Y-132300000D01*
G75*
G02*
X187525000Y-132562500I0J-262500D01*
G01*
X187525000Y-133187500D01*
G75*
G02*
X187262500Y-133450000I-262500J0D01*
G01*
X186737500Y-133450000D01*
G75*
G02*
X186475000Y-133187500I0J262500D01*
G01*
X186475000Y-132562500D01*
G75*
G02*
X186737500Y-132300000I262500J0D01*
G01*
G37*
G36*
G01*
X186737500Y-130550000D02*
X187262500Y-130550000D01*
G75*
G02*
X187525000Y-130812500I0J-262500D01*
G01*
X187525000Y-131437500D01*
G75*
G02*
X187262500Y-131700000I-262500J0D01*
G01*
X186737500Y-131700000D01*
G75*
G02*
X186475000Y-131437500I0J262500D01*
G01*
X186475000Y-130812500D01*
G75*
G02*
X186737500Y-130550000I262500J0D01*
G01*
G37*
%TD*%
%TO.C,C5*%
G36*
G01*
X184737500Y-132300000D02*
X185262500Y-132300000D01*
G75*
G02*
X185525000Y-132562500I0J-262500D01*
G01*
X185525000Y-133187500D01*
G75*
G02*
X185262500Y-133450000I-262500J0D01*
G01*
X184737500Y-133450000D01*
G75*
G02*
X184475000Y-133187500I0J262500D01*
G01*
X184475000Y-132562500D01*
G75*
G02*
X184737500Y-132300000I262500J0D01*
G01*
G37*
G36*
G01*
X184737500Y-130550000D02*
X185262500Y-130550000D01*
G75*
G02*
X185525000Y-130812500I0J-262500D01*
G01*
X185525000Y-131437500D01*
G75*
G02*
X185262500Y-131700000I-262500J0D01*
G01*
X184737500Y-131700000D01*
G75*
G02*
X184475000Y-131437500I0J262500D01*
G01*
X184475000Y-130812500D01*
G75*
G02*
X184737500Y-130550000I262500J0D01*
G01*
G37*
%TD*%
%TO.C,C6*%
G36*
G01*
X187762500Y-105075000D02*
X187237500Y-105075000D01*
G75*
G02*
X186975000Y-104812500I0J262500D01*
G01*
X186975000Y-104187500D01*
G75*
G02*
X187237500Y-103925000I262500J0D01*
G01*
X187762500Y-103925000D01*
G75*
G02*
X188025000Y-104187500I0J-262500D01*
G01*
X188025000Y-104812500D01*
G75*
G02*
X187762500Y-105075000I-262500J0D01*
G01*
G37*
G36*
G01*
X187762500Y-106825000D02*
X187237500Y-106825000D01*
G75*
G02*
X186975000Y-106562500I0J262500D01*
G01*
X186975000Y-105937500D01*
G75*
G02*
X187237500Y-105675000I262500J0D01*
G01*
X187762500Y-105675000D01*
G75*
G02*
X188025000Y-105937500I0J-262500D01*
G01*
X188025000Y-106562500D01*
G75*
G02*
X187762500Y-106825000I-262500J0D01*
G01*
G37*
%TD*%
D19*
%TO.C,J1*%
X158500000Y-119500000D03*
G36*
G01*
X155100000Y-120285294D02*
X155100000Y-118714706D01*
G75*
G02*
X155364706Y-118450000I264706J0D01*
G01*
X156635294Y-118450000D01*
G75*
G02*
X156900000Y-118714706I0J-264706D01*
G01*
X156900000Y-120285294D01*
G75*
G02*
X156635294Y-120550000I-264706J0D01*
G01*
X155364706Y-120550000D01*
G75*
G02*
X155100000Y-120285294I0J264706D01*
G01*
G37*
%TD*%
%TO.C,J2*%
X158500000Y-126500000D03*
G36*
G01*
X155100000Y-127285294D02*
X155100000Y-125714706D01*
G75*
G02*
X155364706Y-125450000I264706J0D01*
G01*
X156635294Y-125450000D01*
G75*
G02*
X156900000Y-125714706I0J-264706D01*
G01*
X156900000Y-127285294D01*
G75*
G02*
X156635294Y-127550000I-264706J0D01*
G01*
X155364706Y-127550000D01*
G75*
G02*
X155100000Y-127285294I0J264706D01*
G01*
G37*
%TD*%
%TO.C,J3*%
X158500000Y-140500000D03*
G36*
G01*
X155100000Y-141285294D02*
X155100000Y-139714706D01*
G75*
G02*
X155364706Y-139450000I264706J0D01*
G01*
X156635294Y-139450000D01*
G75*
G02*
X156900000Y-139714706I0J-264706D01*
G01*
X156900000Y-141285294D01*
G75*
G02*
X156635294Y-141550000I-264706J0D01*
G01*
X155364706Y-141550000D01*
G75*
G02*
X155100000Y-141285294I0J264706D01*
G01*
G37*
%TD*%
D20*
%TO.C,J4*%
X185500000Y-139000000D03*
G36*
G01*
X186285294Y-142400000D02*
X184714706Y-142400000D01*
G75*
G02*
X184450000Y-142135294I0J264706D01*
G01*
X184450000Y-140864706D01*
G75*
G02*
X184714706Y-140600000I264706J0D01*
G01*
X186285294Y-140600000D01*
G75*
G02*
X186550000Y-140864706I0J-264706D01*
G01*
X186550000Y-142135294D01*
G75*
G02*
X186285294Y-142400000I-264706J0D01*
G01*
G37*
%TD*%
D19*
%TO.C,J5*%
X158500000Y-133500000D03*
G36*
G01*
X155100000Y-134285294D02*
X155100000Y-132714706D01*
G75*
G02*
X155364706Y-132450000I264706J0D01*
G01*
X156635294Y-132450000D01*
G75*
G02*
X156900000Y-132714706I0J-264706D01*
G01*
X156900000Y-134285294D01*
G75*
G02*
X156635294Y-134550000I-264706J0D01*
G01*
X155364706Y-134550000D01*
G75*
G02*
X155100000Y-134285294I0J264706D01*
G01*
G37*
%TD*%
D21*
%TO.C,J9*%
X160500000Y-69500000D03*
%TD*%
%TO.C,J10*%
X177500000Y-72500000D03*
%TD*%
%TO.C,J12*%
X173000000Y-75000000D03*
%TD*%
%TO.C,J13*%
X177500000Y-80000000D03*
%TD*%
%TO.C,J14*%
X173000000Y-82500000D03*
%TD*%
%TO.C,J15*%
X177500000Y-85000000D03*
%TD*%
%TO.C,J16*%
X173000000Y-87500000D03*
%TD*%
%TO.C,J17*%
X177500000Y-90500000D03*
%TD*%
D19*
%TO.C,J18*%
X151500000Y-81500000D03*
G36*
G01*
X148100000Y-82285294D02*
X148100000Y-80714706D01*
G75*
G02*
X148364706Y-80450000I264706J0D01*
G01*
X149635294Y-80450000D01*
G75*
G02*
X149900000Y-80714706I0J-264706D01*
G01*
X149900000Y-82285294D01*
G75*
G02*
X149635294Y-82550000I-264706J0D01*
G01*
X148364706Y-82550000D01*
G75*
G02*
X148100000Y-82285294I0J264706D01*
G01*
G37*
%TD*%
D21*
%TO.C,J19*%
X173000000Y-93000000D03*
%TD*%
%TO.C,J20*%
X177500000Y-95500000D03*
%TD*%
%TO.C,J21*%
X160000000Y-95500000D03*
%TD*%
%TO.C,J22*%
X173000000Y-98000000D03*
%TD*%
%TO.C,J23*%
X164500000Y-98000000D03*
%TD*%
%TO.C,J24*%
X177500000Y-103000000D03*
%TD*%
%TO.C,J25*%
X160000000Y-100500000D03*
%TD*%
D19*
%TO.C,J26*%
X137000000Y-91000000D03*
G36*
G01*
X140400000Y-90214706D02*
X140400000Y-91785294D01*
G75*
G02*
X140135294Y-92050000I-264706J0D01*
G01*
X138864706Y-92050000D01*
G75*
G02*
X138600000Y-91785294I0J264706D01*
G01*
X138600000Y-90214706D01*
G75*
G02*
X138864706Y-89950000I264706J0D01*
G01*
X140135294Y-89950000D01*
G75*
G02*
X140400000Y-90214706I0J-264706D01*
G01*
G37*
%TD*%
D20*
%TO.C,J27*%
X149000000Y-132500000D03*
G36*
G01*
X148214706Y-129100000D02*
X149785294Y-129100000D01*
G75*
G02*
X150050000Y-129364706I0J-264706D01*
G01*
X150050000Y-130635294D01*
G75*
G02*
X149785294Y-130900000I-264706J0D01*
G01*
X148214706Y-130900000D01*
G75*
G02*
X147950000Y-130635294I0J264706D01*
G01*
X147950000Y-129364706D01*
G75*
G02*
X148214706Y-129100000I264706J0D01*
G01*
G37*
%TD*%
D22*
%TO.C,J28*%
X140500000Y-141500000D03*
X138000000Y-141500000D03*
G36*
G01*
X134600000Y-142260294D02*
X134600000Y-140739706D01*
G75*
G02*
X134864706Y-140475000I264706J0D01*
G01*
X136135294Y-140475000D01*
G75*
G02*
X136400000Y-140739706I0J-264706D01*
G01*
X136400000Y-142260294D01*
G75*
G02*
X136135294Y-142525000I-264706J0D01*
G01*
X134864706Y-142525000D01*
G75*
G02*
X134600000Y-142260294I0J264706D01*
G01*
G37*
%TD*%
D20*
%TO.C,J29*%
X166000000Y-120500000D03*
G36*
G01*
X165214706Y-117100000D02*
X166785294Y-117100000D01*
G75*
G02*
X167050000Y-117364706I0J-264706D01*
G01*
X167050000Y-118635294D01*
G75*
G02*
X166785294Y-118900000I-264706J0D01*
G01*
X165214706Y-118900000D01*
G75*
G02*
X164950000Y-118635294I0J264706D01*
G01*
X164950000Y-117364706D01*
G75*
G02*
X165214706Y-117100000I264706J0D01*
G01*
G37*
%TD*%
D23*
%TO.C,Q1*%
X147000000Y-90000000D03*
X149000000Y-89050000D03*
X149000000Y-90950000D03*
%TD*%
%TO.C,R1*%
G36*
G01*
X183800000Y-118262500D02*
X183800000Y-117737500D01*
G75*
G02*
X184062500Y-117475000I262500J0D01*
G01*
X184687500Y-117475000D01*
G75*
G02*
X184950000Y-117737500I0J-262500D01*
G01*
X184950000Y-118262500D01*
G75*
G02*
X184687500Y-118525000I-262500J0D01*
G01*
X184062500Y-118525000D01*
G75*
G02*
X183800000Y-118262500I0J262500D01*
G01*
G37*
G36*
G01*
X182050000Y-118262500D02*
X182050000Y-117737500D01*
G75*
G02*
X182312500Y-117475000I262500J0D01*
G01*
X182937500Y-117475000D01*
G75*
G02*
X183200000Y-117737500I0J-262500D01*
G01*
X183200000Y-118262500D01*
G75*
G02*
X182937500Y-118525000I-262500J0D01*
G01*
X182312500Y-118525000D01*
G75*
G02*
X182050000Y-118262500I0J262500D01*
G01*
G37*
%TD*%
%TO.C,R2*%
G36*
G01*
X186737500Y-128300000D02*
X187262500Y-128300000D01*
G75*
G02*
X187525000Y-128562500I0J-262500D01*
G01*
X187525000Y-129187500D01*
G75*
G02*
X187262500Y-129450000I-262500J0D01*
G01*
X186737500Y-129450000D01*
G75*
G02*
X186475000Y-129187500I0J262500D01*
G01*
X186475000Y-128562500D01*
G75*
G02*
X186737500Y-128300000I262500J0D01*
G01*
G37*
G36*
G01*
X186737500Y-126550000D02*
X187262500Y-126550000D01*
G75*
G02*
X187525000Y-126812500I0J-262500D01*
G01*
X187525000Y-127437500D01*
G75*
G02*
X187262500Y-127700000I-262500J0D01*
G01*
X186737500Y-127700000D01*
G75*
G02*
X186475000Y-127437500I0J262500D01*
G01*
X186475000Y-126812500D01*
G75*
G02*
X186737500Y-126550000I262500J0D01*
G01*
G37*
%TD*%
%TO.C,R3*%
G36*
G01*
X183237500Y-124300000D02*
X183762500Y-124300000D01*
G75*
G02*
X184025000Y-124562500I0J-262500D01*
G01*
X184025000Y-125187500D01*
G75*
G02*
X183762500Y-125450000I-262500J0D01*
G01*
X183237500Y-125450000D01*
G75*
G02*
X182975000Y-125187500I0J262500D01*
G01*
X182975000Y-124562500D01*
G75*
G02*
X183237500Y-124300000I262500J0D01*
G01*
G37*
G36*
G01*
X183237500Y-122550000D02*
X183762500Y-122550000D01*
G75*
G02*
X184025000Y-122812500I0J-262500D01*
G01*
X184025000Y-123437500D01*
G75*
G02*
X183762500Y-123700000I-262500J0D01*
G01*
X183237500Y-123700000D01*
G75*
G02*
X182975000Y-123437500I0J262500D01*
G01*
X182975000Y-122812500D01*
G75*
G02*
X183237500Y-122550000I262500J0D01*
G01*
G37*
%TD*%
%TO.C,R4*%
G36*
G01*
X184737500Y-128300000D02*
X185262500Y-128300000D01*
G75*
G02*
X185525000Y-128562500I0J-262500D01*
G01*
X185525000Y-129187500D01*
G75*
G02*
X185262500Y-129450000I-262500J0D01*
G01*
X184737500Y-129450000D01*
G75*
G02*
X184475000Y-129187500I0J262500D01*
G01*
X184475000Y-128562500D01*
G75*
G02*
X184737500Y-128300000I262500J0D01*
G01*
G37*
G36*
G01*
X184737500Y-126550000D02*
X185262500Y-126550000D01*
G75*
G02*
X185525000Y-126812500I0J-262500D01*
G01*
X185525000Y-127437500D01*
G75*
G02*
X185262500Y-127700000I-262500J0D01*
G01*
X184737500Y-127700000D01*
G75*
G02*
X184475000Y-127437500I0J262500D01*
G01*
X184475000Y-126812500D01*
G75*
G02*
X184737500Y-126550000I262500J0D01*
G01*
G37*
%TD*%
%TO.C,R5*%
G36*
G01*
X183200000Y-119737500D02*
X183200000Y-120262500D01*
G75*
G02*
X182937500Y-120525000I-262500J0D01*
G01*
X182312500Y-120525000D01*
G75*
G02*
X182050000Y-120262500I0J262500D01*
G01*
X182050000Y-119737500D01*
G75*
G02*
X182312500Y-119475000I262500J0D01*
G01*
X182937500Y-119475000D01*
G75*
G02*
X183200000Y-119737500I0J-262500D01*
G01*
G37*
G36*
G01*
X184950000Y-119737500D02*
X184950000Y-120262500D01*
G75*
G02*
X184687500Y-120525000I-262500J0D01*
G01*
X184062500Y-120525000D01*
G75*
G02*
X183800000Y-120262500I0J262500D01*
G01*
X183800000Y-119737500D01*
G75*
G02*
X184062500Y-119475000I262500J0D01*
G01*
X184687500Y-119475000D01*
G75*
G02*
X184950000Y-119737500I0J-262500D01*
G01*
G37*
%TD*%
%TO.C,R6*%
G36*
G01*
X187762500Y-109200000D02*
X187237500Y-109200000D01*
G75*
G02*
X186975000Y-108937500I0J262500D01*
G01*
X186975000Y-108312500D01*
G75*
G02*
X187237500Y-108050000I262500J0D01*
G01*
X187762500Y-108050000D01*
G75*
G02*
X188025000Y-108312500I0J-262500D01*
G01*
X188025000Y-108937500D01*
G75*
G02*
X187762500Y-109200000I-262500J0D01*
G01*
G37*
G36*
G01*
X187762500Y-110950000D02*
X187237500Y-110950000D01*
G75*
G02*
X186975000Y-110687500I0J262500D01*
G01*
X186975000Y-110062500D01*
G75*
G02*
X187237500Y-109800000I262500J0D01*
G01*
X187762500Y-109800000D01*
G75*
G02*
X188025000Y-110062500I0J-262500D01*
G01*
X188025000Y-110687500D01*
G75*
G02*
X187762500Y-110950000I-262500J0D01*
G01*
G37*
%TD*%
%TO.C,R7*%
G36*
G01*
X184762500Y-67700000D02*
X184237500Y-67700000D01*
G75*
G02*
X183975000Y-67437500I0J262500D01*
G01*
X183975000Y-66812500D01*
G75*
G02*
X184237500Y-66550000I262500J0D01*
G01*
X184762500Y-66550000D01*
G75*
G02*
X185025000Y-66812500I0J-262500D01*
G01*
X185025000Y-67437500D01*
G75*
G02*
X184762500Y-67700000I-262500J0D01*
G01*
G37*
G36*
G01*
X184762500Y-69450000D02*
X184237500Y-69450000D01*
G75*
G02*
X183975000Y-69187500I0J262500D01*
G01*
X183975000Y-68562500D01*
G75*
G02*
X184237500Y-68300000I262500J0D01*
G01*
X184762500Y-68300000D01*
G75*
G02*
X185025000Y-68562500I0J-262500D01*
G01*
X185025000Y-69187500D01*
G75*
G02*
X184762500Y-69450000I-262500J0D01*
G01*
G37*
%TD*%
%TO.C,R8*%
G36*
G01*
X159800000Y-80262500D02*
X159800000Y-79737500D01*
G75*
G02*
X160062500Y-79475000I262500J0D01*
G01*
X160687500Y-79475000D01*
G75*
G02*
X160950000Y-79737500I0J-262500D01*
G01*
X160950000Y-80262500D01*
G75*
G02*
X160687500Y-80525000I-262500J0D01*
G01*
X160062500Y-80525000D01*
G75*
G02*
X159800000Y-80262500I0J262500D01*
G01*
G37*
G36*
G01*
X158050000Y-80262500D02*
X158050000Y-79737500D01*
G75*
G02*
X158312500Y-79475000I262500J0D01*
G01*
X158937500Y-79475000D01*
G75*
G02*
X159200000Y-79737500I0J-262500D01*
G01*
X159200000Y-80262500D01*
G75*
G02*
X158937500Y-80525000I-262500J0D01*
G01*
X158312500Y-80525000D01*
G75*
G02*
X158050000Y-80262500I0J262500D01*
G01*
G37*
%TD*%
%TO.C,R9*%
G36*
G01*
X159800000Y-73262500D02*
X159800000Y-72737500D01*
G75*
G02*
X160062500Y-72475000I262500J0D01*
G01*
X160687500Y-72475000D01*
G75*
G02*
X160950000Y-72737500I0J-262500D01*
G01*
X160950000Y-73262500D01*
G75*
G02*
X160687500Y-73525000I-262500J0D01*
G01*
X160062500Y-73525000D01*
G75*
G02*
X159800000Y-73262500I0J262500D01*
G01*
G37*
G36*
G01*
X158050000Y-73262500D02*
X158050000Y-72737500D01*
G75*
G02*
X158312500Y-72475000I262500J0D01*
G01*
X158937500Y-72475000D01*
G75*
G02*
X159200000Y-72737500I0J-262500D01*
G01*
X159200000Y-73262500D01*
G75*
G02*
X158937500Y-73525000I-262500J0D01*
G01*
X158312500Y-73525000D01*
G75*
G02*
X158050000Y-73262500I0J262500D01*
G01*
G37*
%TD*%
%TO.C,R10*%
G36*
G01*
X166800000Y-74762500D02*
X166800000Y-74237500D01*
G75*
G02*
X167062500Y-73975000I262500J0D01*
G01*
X167687500Y-73975000D01*
G75*
G02*
X167950000Y-74237500I0J-262500D01*
G01*
X167950000Y-74762500D01*
G75*
G02*
X167687500Y-75025000I-262500J0D01*
G01*
X167062500Y-75025000D01*
G75*
G02*
X166800000Y-74762500I0J262500D01*
G01*
G37*
G36*
G01*
X165050000Y-74762500D02*
X165050000Y-74237500D01*
G75*
G02*
X165312500Y-73975000I262500J0D01*
G01*
X165937500Y-73975000D01*
G75*
G02*
X166200000Y-74237500I0J-262500D01*
G01*
X166200000Y-74762500D01*
G75*
G02*
X165937500Y-75025000I-262500J0D01*
G01*
X165312500Y-75025000D01*
G75*
G02*
X165050000Y-74762500I0J262500D01*
G01*
G37*
%TD*%
%TO.C,R11*%
G36*
G01*
X165300000Y-77762500D02*
X165300000Y-77237500D01*
G75*
G02*
X165562500Y-76975000I262500J0D01*
G01*
X166187500Y-76975000D01*
G75*
G02*
X166450000Y-77237500I0J-262500D01*
G01*
X166450000Y-77762500D01*
G75*
G02*
X166187500Y-78025000I-262500J0D01*
G01*
X165562500Y-78025000D01*
G75*
G02*
X165300000Y-77762500I0J262500D01*
G01*
G37*
G36*
G01*
X163550000Y-77762500D02*
X163550000Y-77237500D01*
G75*
G02*
X163812500Y-76975000I262500J0D01*
G01*
X164437500Y-76975000D01*
G75*
G02*
X164700000Y-77237500I0J-262500D01*
G01*
X164700000Y-77762500D01*
G75*
G02*
X164437500Y-78025000I-262500J0D01*
G01*
X163812500Y-78025000D01*
G75*
G02*
X163550000Y-77762500I0J262500D01*
G01*
G37*
%TD*%
%TO.C,R12*%
G36*
G01*
X151200000Y-86737500D02*
X151200000Y-87262500D01*
G75*
G02*
X150937500Y-87525000I-262500J0D01*
G01*
X150312500Y-87525000D01*
G75*
G02*
X150050000Y-87262500I0J262500D01*
G01*
X150050000Y-86737500D01*
G75*
G02*
X150312500Y-86475000I262500J0D01*
G01*
X150937500Y-86475000D01*
G75*
G02*
X151200000Y-86737500I0J-262500D01*
G01*
G37*
G36*
G01*
X152950000Y-86737500D02*
X152950000Y-87262500D01*
G75*
G02*
X152687500Y-87525000I-262500J0D01*
G01*
X152062500Y-87525000D01*
G75*
G02*
X151800000Y-87262500I0J262500D01*
G01*
X151800000Y-86737500D01*
G75*
G02*
X152062500Y-86475000I262500J0D01*
G01*
X152687500Y-86475000D01*
G75*
G02*
X152950000Y-86737500I0J-262500D01*
G01*
G37*
%TD*%
%TO.C,R13*%
G36*
G01*
X150925000Y-99262500D02*
X150925000Y-98737500D01*
G75*
G02*
X151187500Y-98475000I262500J0D01*
G01*
X151812500Y-98475000D01*
G75*
G02*
X152075000Y-98737500I0J-262500D01*
G01*
X152075000Y-99262500D01*
G75*
G02*
X151812500Y-99525000I-262500J0D01*
G01*
X151187500Y-99525000D01*
G75*
G02*
X150925000Y-99262500I0J262500D01*
G01*
G37*
G36*
G01*
X149175000Y-99262500D02*
X149175000Y-98737500D01*
G75*
G02*
X149437500Y-98475000I262500J0D01*
G01*
X150062500Y-98475000D01*
G75*
G02*
X150325000Y-98737500I0J-262500D01*
G01*
X150325000Y-99262500D01*
G75*
G02*
X150062500Y-99525000I-262500J0D01*
G01*
X149437500Y-99525000D01*
G75*
G02*
X149175000Y-99262500I0J262500D01*
G01*
G37*
%TD*%
%TO.C,R14*%
G36*
G01*
X151262500Y-104700000D02*
X150737500Y-104700000D01*
G75*
G02*
X150475000Y-104437500I0J262500D01*
G01*
X150475000Y-103812500D01*
G75*
G02*
X150737500Y-103550000I262500J0D01*
G01*
X151262500Y-103550000D01*
G75*
G02*
X151525000Y-103812500I0J-262500D01*
G01*
X151525000Y-104437500D01*
G75*
G02*
X151262500Y-104700000I-262500J0D01*
G01*
G37*
G36*
G01*
X151262500Y-106450000D02*
X150737500Y-106450000D01*
G75*
G02*
X150475000Y-106187500I0J262500D01*
G01*
X150475000Y-105562500D01*
G75*
G02*
X150737500Y-105300000I262500J0D01*
G01*
X151262500Y-105300000D01*
G75*
G02*
X151525000Y-105562500I0J-262500D01*
G01*
X151525000Y-106187500D01*
G75*
G02*
X151262500Y-106450000I-262500J0D01*
G01*
G37*
%TD*%
%TO.C,R15*%
G36*
G01*
X152737500Y-105175000D02*
X153262500Y-105175000D01*
G75*
G02*
X153525000Y-105437500I0J-262500D01*
G01*
X153525000Y-106062500D01*
G75*
G02*
X153262500Y-106325000I-262500J0D01*
G01*
X152737500Y-106325000D01*
G75*
G02*
X152475000Y-106062500I0J262500D01*
G01*
X152475000Y-105437500D01*
G75*
G02*
X152737500Y-105175000I262500J0D01*
G01*
G37*
G36*
G01*
X152737500Y-103425000D02*
X153262500Y-103425000D01*
G75*
G02*
X153525000Y-103687500I0J-262500D01*
G01*
X153525000Y-104312500D01*
G75*
G02*
X153262500Y-104575000I-262500J0D01*
G01*
X152737500Y-104575000D01*
G75*
G02*
X152475000Y-104312500I0J262500D01*
G01*
X152475000Y-103687500D01*
G75*
G02*
X152737500Y-103425000I262500J0D01*
G01*
G37*
%TD*%
%TO.C,R16*%
G36*
G01*
X144075000Y-89737500D02*
X144075000Y-90262500D01*
G75*
G02*
X143812500Y-90525000I-262500J0D01*
G01*
X143187500Y-90525000D01*
G75*
G02*
X142925000Y-90262500I0J262500D01*
G01*
X142925000Y-89737500D01*
G75*
G02*
X143187500Y-89475000I262500J0D01*
G01*
X143812500Y-89475000D01*
G75*
G02*
X144075000Y-89737500I0J-262500D01*
G01*
G37*
G36*
G01*
X145825000Y-89737500D02*
X145825000Y-90262500D01*
G75*
G02*
X145562500Y-90525000I-262500J0D01*
G01*
X144937500Y-90525000D01*
G75*
G02*
X144675000Y-90262500I0J262500D01*
G01*
X144675000Y-89737500D01*
G75*
G02*
X144937500Y-89475000I262500J0D01*
G01*
X145562500Y-89475000D01*
G75*
G02*
X145825000Y-89737500I0J-262500D01*
G01*
G37*
%TD*%
%TO.C,R17*%
G36*
G01*
X151200000Y-90737500D02*
X151200000Y-91262500D01*
G75*
G02*
X150937500Y-91525000I-262500J0D01*
G01*
X150312500Y-91525000D01*
G75*
G02*
X150050000Y-91262500I0J262500D01*
G01*
X150050000Y-90737500D01*
G75*
G02*
X150312500Y-90475000I262500J0D01*
G01*
X150937500Y-90475000D01*
G75*
G02*
X151200000Y-90737500I0J-262500D01*
G01*
G37*
G36*
G01*
X152950000Y-90737500D02*
X152950000Y-91262500D01*
G75*
G02*
X152687500Y-91525000I-262500J0D01*
G01*
X152062500Y-91525000D01*
G75*
G02*
X151800000Y-91262500I0J262500D01*
G01*
X151800000Y-90737500D01*
G75*
G02*
X152062500Y-90475000I262500J0D01*
G01*
X152687500Y-90475000D01*
G75*
G02*
X152950000Y-90737500I0J-262500D01*
G01*
G37*
%TD*%
%TO.C,R18*%
G36*
G01*
X151800000Y-89262500D02*
X151800000Y-88737500D01*
G75*
G02*
X152062500Y-88475000I262500J0D01*
G01*
X152687500Y-88475000D01*
G75*
G02*
X152950000Y-88737500I0J-262500D01*
G01*
X152950000Y-89262500D01*
G75*
G02*
X152687500Y-89525000I-262500J0D01*
G01*
X152062500Y-89525000D01*
G75*
G02*
X151800000Y-89262500I0J262500D01*
G01*
G37*
G36*
G01*
X150050000Y-89262500D02*
X150050000Y-88737500D01*
G75*
G02*
X150312500Y-88475000I262500J0D01*
G01*
X150937500Y-88475000D01*
G75*
G02*
X151200000Y-88737500I0J-262500D01*
G01*
X151200000Y-89262500D01*
G75*
G02*
X150937500Y-89525000I-262500J0D01*
G01*
X150312500Y-89525000D01*
G75*
G02*
X150050000Y-89262500I0J262500D01*
G01*
G37*
%TD*%
%TO.C,U3*%
G36*
G01*
X176250000Y-119350000D02*
X176250000Y-119600000D01*
G75*
G02*
X176125000Y-119725000I-125000J0D01*
G01*
X174650000Y-119725000D01*
G75*
G02*
X174525000Y-119600000I0J125000D01*
G01*
X174525000Y-119350000D01*
G75*
G02*
X174650000Y-119225000I125000J0D01*
G01*
X176125000Y-119225000D01*
G75*
G02*
X176250000Y-119350000I0J-125000D01*
G01*
G37*
G36*
G01*
X176250000Y-118700000D02*
X176250000Y-118950000D01*
G75*
G02*
X176125000Y-119075000I-125000J0D01*
G01*
X174650000Y-119075000D01*
G75*
G02*
X174525000Y-118950000I0J125000D01*
G01*
X174525000Y-118700000D01*
G75*
G02*
X174650000Y-118575000I125000J0D01*
G01*
X176125000Y-118575000D01*
G75*
G02*
X176250000Y-118700000I0J-125000D01*
G01*
G37*
G36*
G01*
X176250000Y-118050000D02*
X176250000Y-118300000D01*
G75*
G02*
X176125000Y-118425000I-125000J0D01*
G01*
X174650000Y-118425000D01*
G75*
G02*
X174525000Y-118300000I0J125000D01*
G01*
X174525000Y-118050000D01*
G75*
G02*
X174650000Y-117925000I125000J0D01*
G01*
X176125000Y-117925000D01*
G75*
G02*
X176250000Y-118050000I0J-125000D01*
G01*
G37*
G36*
G01*
X176250000Y-117400000D02*
X176250000Y-117650000D01*
G75*
G02*
X176125000Y-117775000I-125000J0D01*
G01*
X174650000Y-117775000D01*
G75*
G02*
X174525000Y-117650000I0J125000D01*
G01*
X174525000Y-117400000D01*
G75*
G02*
X174650000Y-117275000I125000J0D01*
G01*
X176125000Y-117275000D01*
G75*
G02*
X176250000Y-117400000I0J-125000D01*
G01*
G37*
G36*
G01*
X180475000Y-117400000D02*
X180475000Y-117650000D01*
G75*
G02*
X180350000Y-117775000I-125000J0D01*
G01*
X178875000Y-117775000D01*
G75*
G02*
X178750000Y-117650000I0J125000D01*
G01*
X178750000Y-117400000D01*
G75*
G02*
X178875000Y-117275000I125000J0D01*
G01*
X180350000Y-117275000D01*
G75*
G02*
X180475000Y-117400000I0J-125000D01*
G01*
G37*
G36*
G01*
X180475000Y-118050000D02*
X180475000Y-118300000D01*
G75*
G02*
X180350000Y-118425000I-125000J0D01*
G01*
X178875000Y-118425000D01*
G75*
G02*
X178750000Y-118300000I0J125000D01*
G01*
X178750000Y-118050000D01*
G75*
G02*
X178875000Y-117925000I125000J0D01*
G01*
X180350000Y-117925000D01*
G75*
G02*
X180475000Y-118050000I0J-125000D01*
G01*
G37*
G36*
G01*
X180475000Y-118700000D02*
X180475000Y-118950000D01*
G75*
G02*
X180350000Y-119075000I-125000J0D01*
G01*
X178875000Y-119075000D01*
G75*
G02*
X178750000Y-118950000I0J125000D01*
G01*
X178750000Y-118700000D01*
G75*
G02*
X178875000Y-118575000I125000J0D01*
G01*
X180350000Y-118575000D01*
G75*
G02*
X180475000Y-118700000I0J-125000D01*
G01*
G37*
G36*
G01*
X180475000Y-119350000D02*
X180475000Y-119600000D01*
G75*
G02*
X180350000Y-119725000I-125000J0D01*
G01*
X178875000Y-119725000D01*
G75*
G02*
X178750000Y-119600000I0J125000D01*
G01*
X178750000Y-119350000D01*
G75*
G02*
X178875000Y-119225000I125000J0D01*
G01*
X180350000Y-119225000D01*
G75*
G02*
X180475000Y-119350000I0J-125000D01*
G01*
G37*
%TD*%
D24*
%TO.C,U4*%
X142040000Y-98060000D03*
X142040000Y-100600000D03*
X142040000Y-103140000D03*
X142040000Y-105680000D03*
X142040000Y-108220000D03*
X142040000Y-110760000D03*
X142040000Y-113300000D03*
X142040000Y-115840000D03*
X142040000Y-118380000D03*
X142040000Y-120920000D03*
X142040000Y-123460000D03*
X142040000Y-126000000D03*
D21*
X139500000Y-98060000D03*
X139500000Y-100600000D03*
X139500000Y-103140000D03*
X139500000Y-105680000D03*
X139500000Y-108220000D03*
X139500000Y-110760000D03*
X139500000Y-113300000D03*
X139500000Y-115840000D03*
X139500000Y-118380000D03*
X139500000Y-120920000D03*
X139500000Y-123460000D03*
X139500000Y-126000000D03*
%TD*%
D25*
%TO.C,J6*%
X148500000Y-110500000D03*
X148500000Y-113000000D03*
X148500000Y-115500000D03*
G36*
G01*
X149260294Y-118900000D02*
X147739706Y-118900000D01*
G75*
G02*
X147475000Y-118635294I0J264706D01*
G01*
X147475000Y-117364706D01*
G75*
G02*
X147739706Y-117100000I264706J0D01*
G01*
X149260294Y-117100000D01*
G75*
G02*
X149525000Y-117364706I0J-264706D01*
G01*
X149525000Y-118635294D01*
G75*
G02*
X149260294Y-118900000I-264706J0D01*
G01*
G37*
%TD*%
D22*
%TO.C,J7*%
X143071000Y-68582000D03*
X140571000Y-68582000D03*
X138071000Y-68582000D03*
G36*
G01*
X134671000Y-69342294D02*
X134671000Y-67821706D01*
G75*
G02*
X134935706Y-67557000I264706J0D01*
G01*
X136206294Y-67557000D01*
G75*
G02*
X136471000Y-67821706I0J-264706D01*
G01*
X136471000Y-69342294D01*
G75*
G02*
X136206294Y-69607000I-264706J0D01*
G01*
X134935706Y-69607000D01*
G75*
G02*
X134671000Y-69342294I0J264706D01*
G01*
G37*
%TD*%
%TO.C,J8*%
X143045001Y-82679000D03*
X140545001Y-82679000D03*
X138045001Y-82679000D03*
G36*
G01*
X134645001Y-83439294D02*
X134645001Y-81918706D01*
G75*
G02*
X134909707Y-81654000I264706J0D01*
G01*
X136180295Y-81654000D01*
G75*
G02*
X136445001Y-81918706I0J-264706D01*
G01*
X136445001Y-83439294D01*
G75*
G02*
X136180295Y-83704000I-264706J0D01*
G01*
X134909707Y-83704000D01*
G75*
G02*
X134645001Y-83439294I0J264706D01*
G01*
G37*
%TD*%
%TO.C,J11*%
X143045001Y-75655001D03*
X140545001Y-75655001D03*
X138045001Y-75655001D03*
G36*
G01*
X134645001Y-76415295D02*
X134645001Y-74894707D01*
G75*
G02*
X134909707Y-74630001I264706J0D01*
G01*
X136180295Y-74630001D01*
G75*
G02*
X136445001Y-74894707I0J-264706D01*
G01*
X136445001Y-76415295D01*
G75*
G02*
X136180295Y-76680001I-264706J0D01*
G01*
X134909707Y-76680001D01*
G75*
G02*
X134645001Y-76415295I0J264706D01*
G01*
G37*
%TD*%
M02*
