M48
; DRILL file {KiCad (5.1.6)-1} date 04/09/21 09:14:07
; FORMAT={-:-/ absolute / inch / decimal}
; #@! TF.CreationDate,2021-04-09T09:14:07+02:00
; #@! TF.GenerationSoftware,Kicad,Pcbnew,(5.1.6)-1
; #@! TF.FileFunction,Plated,1,2,PTH
FMAT,2
INCH
T1C0.0197
T2C0.0236
T3C0.0374
T4C0.0394
T5C0.0402
T6C0.0472
T7C0.0551
T8C0.0984
T9C0.1260
%
G90
G05
T1
X7.5827Y-5.9055
X7.6104Y-5.8387
X7.6104Y-5.9723
X7.6772Y-5.811
X7.6772Y-6.0
X7.744Y-5.8387
X7.744Y-5.9723
X7.7717Y-5.9055
X7.5827Y-2.3622
X7.6104Y-2.2954
X7.6104Y-2.429
X7.6772Y-2.2677
X7.6772Y-2.4567
X7.744Y-2.2954
X7.744Y-2.429
X7.7717Y-2.3622
X4.0394Y-2.3622
X4.067Y-2.2954
X4.067Y-2.429
X4.1339Y-2.2677
X4.1339Y-2.4567
X4.2007Y-2.2954
X4.2007Y-2.429
X4.2283Y-2.3622
X4.0394Y-5.9055
X4.067Y-5.8387
X4.067Y-5.9723
X4.1339Y-5.811
X4.1339Y-6.0
X4.2007Y-5.8387
X4.2007Y-5.9723
X4.2283Y-5.9055
T2
X4.1339Y-2.5591
X4.1339Y-2.7559
X4.1339Y-2.9528
X4.1339Y-3.1496
X4.1339Y-3.3465
X4.1339Y-3.5433
X4.1339Y-4.7244
X4.1339Y-4.9213
X4.1339Y-5.1181
X4.1339Y-5.5118
X4.1339Y-5.7087
X4.27Y-3.7
X4.3307Y-4.9213
X4.3307Y-5.1181
X4.3307Y-5.315
X4.3307Y-5.5118
X4.3307Y-5.7087
X4.3307Y-5.9055
X4.5276Y-4.7244
X4.5276Y-5.315
X4.5276Y-5.5118
X4.5276Y-5.7087
X4.5276Y-5.9055
X4.56Y-2.4
X4.7244Y-4.3307
X4.7244Y-4.5276
X4.7244Y-5.315
X4.7244Y-5.9055
X4.8Y-2.79
X4.9213Y-4.3307
X4.9213Y-5.315
X4.9213Y-5.9055
X4.97Y-2.9513
X5.0197Y-4.1339
X5.1Y-2.36
X5.1181Y-4.5276
X5.1181Y-5.1181
X5.1181Y-5.315
X5.1181Y-5.9055
X5.13Y-4.16
X5.15Y-3.08
X5.2Y-4.22
X5.2Y-4.3
X5.28Y-3.08
X5.315Y-3.3465
X5.315Y-4.9213
X5.315Y-5.1181
X5.315Y-5.315
X5.315Y-5.9055
X5.38Y-3.08
X5.4134Y-3.937
X5.5118Y-3.1496
X5.5118Y-3.3465
X5.5118Y-4.9213
X5.5118Y-5.1181
X5.5118Y-5.315
X5.5118Y-5.9055
X5.55Y-4.07
X5.6102Y-3.937
X5.7087Y-4.9213
X5.7087Y-5.1181
X5.7087Y-5.315
X5.7087Y-5.9055
X5.78Y-2.79
X5.8071Y-3.6417
X5.8071Y-3.937
X5.85Y-3.39
X5.9055Y-5.315
X5.9055Y-5.9055
X6.0039Y-3.937
X6.1024Y-4.9213
X6.1024Y-5.315
X6.1024Y-5.9055
X6.2008Y-3.937
X6.2992Y-4.1339
X6.2992Y-4.5276
X6.2992Y-4.7244
X6.2992Y-4.9213
X6.2992Y-5.315
X6.2992Y-5.9055
X6.36Y-4.3
X6.3976Y-2.5591
X6.4888Y-2.9422
X6.4961Y-4.7244
X6.4961Y-4.9213
X6.4961Y-5.315
X6.4961Y-5.5118
X6.4961Y-5.7087
X6.4961Y-5.9055
X6.55Y-2.75
X6.5945Y-2.5591
X6.62Y-2.86
X6.6929Y-4.7244
X6.6929Y-4.9213
X6.6929Y-5.7087
X6.6929Y-5.9055
X6.84Y-2.53
X6.8898Y-4.5276
X6.8898Y-4.7244
X6.8898Y-4.9213
X6.8898Y-5.7087
X6.8898Y-5.9055
X6.93Y-2.53
X7.01Y-2.51
X7.06Y-2.54
X7.0866Y-2.3622
X7.0866Y-4.5276
X7.0866Y-4.7244
X7.0866Y-4.9213
X7.0866Y-5.7087
X7.0866Y-5.9055
X7.17Y-4.27
X7.185Y-4.0354
X7.22Y-3.19
X7.2835Y-2.3622
X7.2835Y-4.5276
X7.2835Y-4.7244
X7.2835Y-4.9213
X7.2835Y-5.7087
X7.2835Y-5.9055
X7.4803Y-2.3622
X7.4803Y-4.5276
X7.4803Y-4.7244
X7.4803Y-4.9213
X7.4803Y-5.7087
X7.4803Y-5.9055
X7.6772Y-2.5591
X7.6772Y-2.7559
X7.6772Y-2.9528
X7.6772Y-3.1496
X7.6772Y-3.3465
X7.6772Y-3.5433
X7.6772Y-3.7402
X7.6772Y-3.937
X7.6772Y-4.1339
X7.6772Y-4.3307
X7.6772Y-4.5276
X7.6772Y-4.7244
X7.6772Y-4.9213
X7.6772Y-5.5118
X7.6772Y-5.7087
T3
X6.67Y-3.5
X6.7684Y-3.5
X6.8669Y-3.5
X6.9653Y-3.5
X6.67Y-3.795
X6.7684Y-3.795
X6.8669Y-3.795
X6.9653Y-3.795
X4.7835Y-3.0512
X4.7835Y-3.1496
X4.7835Y-3.248
X4.7835Y-3.3465
X6.67Y-4.105
X6.7684Y-4.105
X6.8669Y-4.105
X6.9653Y-4.105
T4
X4.79Y-3.79
X4.79Y-3.89
X4.79Y-3.99
X4.79Y-4.09
X7.41Y-2.72
X7.41Y-2.82
X7.41Y-2.92
X7.41Y-3.02
X7.41Y-3.12
X7.41Y-3.22
X6.1369Y-2.895
X6.1369Y-2.995
X6.2369Y-2.895
X6.2369Y-2.995
X6.05Y-4.42
X6.05Y-4.5184
X7.68Y-5.2516
X7.68Y-5.35
X5.05Y-4.7784
X5.15Y-4.7784
X5.25Y-4.7784
X5.2555Y-5.5816
X5.35Y-4.7784
X5.3555Y-5.5816
X5.45Y-4.7784
X5.4555Y-5.5816
X5.55Y-4.7784
X5.5563Y-5.5816
X5.6508Y-4.7784
X5.6563Y-5.5816
X5.7508Y-4.7784
X5.7563Y-5.5816
X5.8508Y-4.7784
X7.41Y-3.72
X7.41Y-3.82
X7.41Y-3.92
X7.41Y-4.02
X7.41Y-4.12
X7.41Y-4.22
X7.41Y-4.32
X7.41Y-4.42
X4.44Y-4.0
X4.44Y-4.0984
X6.05Y-4.07
X6.05Y-4.1684
X6.38Y-5.51
X7.28Y-5.11
X7.28Y-5.21
X7.28Y-5.31
X7.28Y-5.41
X7.28Y-5.51
X5.98Y-2.73
T5
X4.3796Y-2.55
X4.3796Y-3.55
X4.4796Y-2.55
X4.4796Y-3.55
X4.5796Y-2.55
X4.5796Y-3.55
X4.6796Y-2.55
X4.6796Y-3.55
X4.7796Y-2.55
X4.7796Y-3.55
X4.8796Y-2.55
X4.8796Y-3.55
X4.9796Y-2.55
X4.9796Y-3.55
X5.0796Y-2.55
X5.0796Y-3.55
X5.1796Y-2.55
X5.1796Y-3.55
X5.2796Y-2.55
X5.2796Y-3.55
X5.3796Y-2.55
X5.3796Y-3.55
X5.4796Y-2.55
X5.4796Y-3.55
X5.5796Y-2.55
X5.5796Y-3.55
X5.6796Y-2.55
X5.6796Y-3.55
X5.7796Y-2.55
X5.7796Y-3.55
X5.8796Y-2.55
X5.8796Y-3.55
X5.9796Y-2.55
X5.9796Y-3.55
X6.0796Y-2.55
X6.0796Y-3.55
X6.1796Y-2.55
X6.1796Y-3.55
T6
X4.0532Y-3.8574
X4.0532Y-4.1626
X4.14Y-4.3416
X4.14Y-4.44
X4.14Y-4.5384
X4.3861Y-4.3416
X4.3861Y-4.5384
T7
X4.2028Y-3.8633
X4.2028Y-4.1567
T8
X4.75Y-4.78
X4.75Y-5.58
X6.05Y-5.58
X6.0535Y-4.78
T9
X7.6772Y-5.9055
X7.6772Y-2.3622
X4.1339Y-2.3622
X4.1339Y-5.9055
T0
M30
