M48
; DRILL file {KiCad (5.1.6)-1} date 12/23/20 09:12:29
; FORMAT={-:-/ absolute / inch / decimal}
; #@! TF.CreationDate,2020-12-23T09:12:29+01:00
; #@! TF.GenerationSoftware,Kicad,Pcbnew,(5.1.6)-1
; #@! TF.FileFunction,Plated,1,2,PTH
FMAT,2
INCH
T1C0.0197
T2C0.0236
T3C0.0315
T4C0.0374
T5C0.0394
T6C0.0402
T7C0.1260
%
G90
G05
T1
X7.5827Y-5.9055
X7.6104Y-5.8387
X7.6104Y-5.9723
X7.6772Y-5.811
X7.6772Y-6.0
X7.744Y-5.8387
X7.744Y-5.9723
X7.7717Y-5.9055
X7.5827Y-2.3622
X7.6104Y-2.2954
X7.6104Y-2.429
X7.6772Y-2.2677
X7.6772Y-2.4567
X7.744Y-2.2954
X7.744Y-2.429
X7.7717Y-2.3622
X4.0394Y-2.3622
X4.067Y-2.2954
X4.067Y-2.429
X4.1339Y-2.2677
X4.1339Y-2.4567
X4.2007Y-2.2954
X4.2007Y-2.429
X4.2283Y-2.3622
X4.0394Y-5.9055
X4.067Y-5.8387
X4.067Y-5.9723
X4.1339Y-5.811
X4.1339Y-6.0
X4.2007Y-5.8387
X4.2007Y-5.9723
X4.2283Y-5.9055
T2
X4.1339Y-2.5591
X4.1339Y-2.7559
X4.1339Y-2.9528
X4.1339Y-3.1496
X4.1339Y-3.3465
X4.1339Y-3.5433
X4.1339Y-3.7402
X4.1339Y-3.937
X4.1339Y-4.1339
X4.1339Y-4.3307
X4.1339Y-4.5276
X4.1339Y-4.7244
X4.1339Y-4.9213
X4.1339Y-5.1181
X4.1339Y-5.315
X4.1339Y-5.5118
X4.1339Y-5.7087
X4.3307Y-2.3622
X4.3307Y-5.5118
X4.3307Y-5.7087
X4.3307Y-5.9055
X4.5276Y-2.3622
X4.5276Y-2.7559
X4.5276Y-2.9528
X4.5276Y-3.1496
X4.5276Y-3.3465
X4.5276Y-3.5433
X4.5276Y-3.7402
X4.5276Y-3.937
X4.5276Y-4.1339
X4.5276Y-4.3307
X4.5276Y-4.5276
X4.5276Y-4.7244
X4.5276Y-4.9213
X4.5276Y-5.5118
X4.5276Y-5.7087
X4.5276Y-5.9055
X4.7244Y-2.3622
X4.7244Y-4.7244
X4.7244Y-5.9055
X4.9213Y-2.3622
X4.9213Y-2.9528
X4.9213Y-3.1496
X4.9213Y-3.3465
X4.9213Y-3.5433
X4.9213Y-3.7402
X4.9213Y-3.937
X4.9213Y-4.1339
X4.9213Y-4.3307
X4.9213Y-5.1181
X4.9213Y-5.315
X4.9213Y-5.9055
X5.1181Y-2.3622
X5.1181Y-2.7559
X5.1181Y-3.3465
X5.1181Y-3.5433
X5.1181Y-3.7402
X5.1181Y-3.937
X5.1181Y-4.1339
X5.1181Y-4.3307
X5.1181Y-4.5276
X5.1181Y-4.9213
X5.1181Y-5.1181
X5.1181Y-5.315
X5.1181Y-5.9055
X5.315Y-2.3622
X5.315Y-5.9055
X5.5118Y-2.3622
X5.5118Y-5.9055
X5.6299Y-3.4252
X5.6299Y-3.7008
X5.7087Y-2.3622
X5.7087Y-5.5118
X5.7087Y-5.7087
X5.7087Y-5.9055
X5.7677Y-3.9961
X5.8661Y-2.9134
X5.8661Y-3.4449
X5.8661Y-3.9764
X5.9055Y-2.3622
X5.9055Y-5.5118
X5.9055Y-5.7087
X5.9055Y-5.9055
X5.9252Y-3.3661
X6.0236Y-4.0354
X6.0236Y-4.4291
X6.1024Y-5.7087
X6.1024Y-5.9055
X6.2598Y-2.9921
X6.2992Y-3.3465
X6.2992Y-3.5433
X6.2992Y-4.1339
X6.2992Y-4.3307
X6.2992Y-5.7087
X6.2992Y-5.9055
X6.378Y-2.874
X6.3976Y-3.1496
X6.4961Y-3.3465
X6.4961Y-3.5433
X6.4961Y-4.1339
X6.4961Y-5.1181
X6.4961Y-5.315
X6.4961Y-5.5118
X6.4961Y-5.7087
X6.4961Y-5.9055
X6.6929Y-4.9213
X6.6929Y-5.315
X6.6929Y-5.5118
X6.6929Y-5.7087
X6.6929Y-5.9055
X6.752Y-4.5866
X6.7717Y-4.7441
X6.8898Y-4.3307
X6.8898Y-4.5276
X6.8898Y-4.9213
X6.8898Y-5.0787
X6.8898Y-5.315
X6.8898Y-5.5118
X6.8898Y-5.7087
X6.8898Y-5.9055
X6.9685Y-4.685
X7.0866Y-4.5276
X7.0866Y-5.7087
X7.0866Y-5.9055
X7.2835Y-2.3622
X7.2835Y-2.9528
X7.2835Y-3.3465
X7.2835Y-3.5433
X7.2835Y-3.7402
X7.2835Y-5.7087
X7.2835Y-5.9055
X7.3228Y-4.7244
X7.4016Y-4.7441
X7.4606Y-4.6457
X7.4803Y-2.3622
X7.4803Y-4.9213
X7.4803Y-5.1181
X7.4803Y-5.315
X7.4803Y-5.5118
X7.4803Y-5.7087
X7.4803Y-5.9055
X7.5Y-4.0157
X7.6772Y-2.5591
X7.6772Y-2.7559
X7.6772Y-2.9528
X7.6772Y-3.1496
X7.6772Y-3.3465
X7.6772Y-3.5433
X7.6772Y-3.7402
X7.6772Y-3.937
X7.6772Y-4.1339
X7.6772Y-4.3307
X7.6772Y-4.5276
X7.6772Y-4.7244
X7.6772Y-4.9213
X7.6772Y-5.1181
X7.6772Y-5.315
X7.6772Y-5.5118
X7.6772Y-5.7087
T3
X6.4167Y-4.9256
X6.4167Y-5.0256
X6.4167Y-5.1256
X6.4167Y-5.2256
X6.4167Y-5.3256
X6.4167Y-5.4256
X6.4167Y-5.5256
X6.4167Y-5.6256
X7.1267Y-4.9256
X7.1267Y-5.0256
X7.1267Y-5.1256
X7.1267Y-5.2256
X7.1267Y-5.3256
X7.1267Y-5.4256
X7.1267Y-5.5256
X7.1267Y-5.6256
T4
X5.3364Y-2.9785
X5.4348Y-2.9785
X5.5333Y-2.9785
X5.6317Y-2.9785
X5.8465Y-4.3504
X5.8465Y-4.4488
X5.8465Y-4.5472
X5.8465Y-4.6457
X5.3364Y-3.2551
X5.4348Y-3.2551
X5.5333Y-3.2551
X5.6317Y-3.2551
X5.3374Y-2.7001
X5.4359Y-2.7001
X5.5343Y-2.7001
X5.6327Y-2.7001
X5.3346Y-5.5709
X5.4331Y-5.5709
X5.5315Y-5.5709
T5
X5.8661Y-5.1181
X5.8661Y-5.2165
X6.1417Y-4.7047
X6.2402Y-4.7047
X6.2992Y-3.7598
X6.9882Y-3.1496
X6.9882Y-2.8543
X5.8661Y-3.2087
X5.9646Y-3.2087
X6.9882Y-3.3465
X6.4764Y-3.8583
X7.3031Y-5.4724
X7.3031Y-5.5709
X6.1417Y-4.9803
X6.2402Y-4.9803
X6.3189Y-2.7362
X6.811Y-2.9528
X6.9882Y-3.7598
X6.811Y-3.248
X5.3937Y-3.5827
X5.4921Y-3.5827
X6.811Y-3.8583
X6.811Y-3.6614
X6.811Y-3.4449
X6.9882Y-4.0551
X6.5354Y-4.6457
X6.5354Y-4.7441
X5.4921Y-3.8606
X5.4921Y-3.9606
X5.4921Y-4.0606
X5.4921Y-4.1606
X5.4921Y-4.2606
X5.4921Y-4.3606
X5.4921Y-4.4606
X5.4921Y-4.5606
X5.4921Y-4.6606
X5.4921Y-4.7606
X5.4921Y-4.8606
X5.4921Y-4.9606
X6.2992Y-3.9567
X6.1417Y-5.5315
X6.2402Y-5.5315
X6.1417Y-5.2559
X6.2402Y-5.2559
X6.9882Y-3.563
T6
X6.1339Y-2.6437
X6.1339Y-2.7437
X6.1339Y-2.8437
X6.1339Y-2.9437
X6.1339Y-3.0437
X6.1339Y-3.1437
X6.1339Y-3.2437
X6.1339Y-3.3437
X6.1339Y-3.4437
X6.1339Y-3.5437
X6.1339Y-3.6437
X6.1339Y-3.7437
X6.1339Y-3.8437
X6.1339Y-3.9437
X6.1339Y-4.0437
X6.1339Y-4.1437
X6.1339Y-4.2437
X6.1339Y-4.3437
X6.1339Y-4.4437
X7.1339Y-2.6437
X7.1339Y-2.7437
X7.1339Y-2.8437
X7.1339Y-2.9437
X7.1339Y-3.0437
X7.1339Y-3.1437
X7.1339Y-3.2437
X7.1339Y-3.3437
X7.1339Y-3.4437
X7.1339Y-3.5437
X7.1339Y-3.6437
X7.1339Y-3.7437
X7.1339Y-3.8437
X7.1339Y-3.9437
X7.1339Y-4.0437
X7.1339Y-4.1437
X7.1339Y-4.2437
X7.1339Y-4.3437
X7.1339Y-4.4437
T7
X4.1339Y-5.9055
X7.6772Y-5.9055
X7.6772Y-2.3622
X4.1339Y-2.3622
T0
M30
